<svg width="1655" height="192" viewBox="0 0 1655 192" fill="none" xmlns="http://www.w3.org/2000/svg">
<rect x="593.73" y="1.72973" width="467.027" height="188.541" rx="19.027" fill="#F9D5B0" stroke="#F38B2B" stroke-width="3.45946"/>
<rect x="1185.73" y="1.72973" width="467.027" height="188.541" rx="19.027" fill="#F8CCF1" stroke="#A92393" stroke-width="3.45946"/>
<rect x="1.72973" y="1.72973" width="467.027" height="188.541" rx="19.027" fill="#E1F8E1" stroke="#209B1D" stroke-width="3.45946"/>
<path d="M788.464 49.496H802.24C805.024 49.496 807.2 50.28 808.768 51.848C810.368 53.416 811.168 55.512 811.168 58.136C811.168 59.384 810.992 60.44 810.64 61.304C810.288 62.168 809.84 62.888 809.296 63.464C808.752 64.008 808.16 64.424 807.52 64.712C806.88 64.968 806.288 65.144 805.744 65.24V65.528C806.352 65.56 807.024 65.72 807.76 66.008C808.528 66.296 809.248 66.76 809.92 67.4C810.592 68.008 811.152 68.808 811.6 69.8C812.08 70.76 812.32 71.928 812.32 73.304C812.32 74.68 812.096 75.96 811.648 77.144C811.232 78.328 810.64 79.352 809.872 80.216C809.104 81.08 808.192 81.768 807.136 82.28C806.08 82.76 804.928 83 803.68 83H788.464V49.496ZM792.496 79.448H802.432C804.16 79.448 805.52 79.016 806.512 78.152C807.504 77.256 808 75.96 808 74.264V72.632C808 70.936 807.504 69.656 806.512 68.792C805.52 67.896 804.16 67.448 802.432 67.448H792.496V79.448ZM792.496 63.992H801.76C803.36 63.992 804.608 63.592 805.504 62.792C806.4 61.992 806.848 60.84 806.848 59.336V57.704C806.848 56.2 806.4 55.048 805.504 54.248C804.608 53.448 803.36 53.048 801.76 53.048H792.496V63.992ZM819.823 83V49.496H839.791V53.048H823.855V64.28H838.399V67.832H823.855V83H819.823ZM846.636 83V49.496H866.604V53.048H850.668V64.28H865.212V67.832H850.668V83H846.636Z" fill="black"/>
<path d="M1329.46 80.496H1343.24C1346.02 80.496 1348.2 81.28 1349.77 82.848C1351.37 84.416 1352.17 86.512 1352.17 89.136C1352.17 90.384 1351.99 91.44 1351.64 92.304C1351.29 93.168 1350.84 93.888 1350.3 94.464C1349.75 95.008 1349.16 95.424 1348.52 95.712C1347.88 95.968 1347.29 96.144 1346.74 96.24V96.528C1347.35 96.56 1348.02 96.72 1348.76 97.008C1349.53 97.296 1350.25 97.76 1350.92 98.4C1351.59 99.008 1352.15 99.808 1352.6 100.8C1353.08 101.76 1353.32 102.928 1353.32 104.304C1353.32 105.68 1353.1 106.96 1352.65 108.144C1352.23 109.328 1351.64 110.352 1350.87 111.216C1350.1 112.08 1349.19 112.768 1348.14 113.28C1347.08 113.76 1345.93 114 1344.68 114H1329.46V80.496ZM1333.5 110.448H1343.43C1345.16 110.448 1346.52 110.016 1347.51 109.152C1348.5 108.256 1349 106.96 1349 105.264V103.632C1349 101.936 1348.5 100.656 1347.51 99.792C1346.52 98.896 1345.16 98.448 1343.43 98.448H1333.5V110.448ZM1333.5 94.992H1342.76C1344.36 94.992 1345.61 94.592 1346.5 93.792C1347.4 92.992 1347.85 91.84 1347.85 90.336V88.704C1347.85 87.2 1347.4 86.048 1346.5 85.248C1345.61 84.448 1344.36 84.048 1342.76 84.048H1333.5V94.992ZM1378.44 114C1377 114 1375.96 113.616 1375.32 112.848C1374.71 112.08 1374.33 111.12 1374.17 109.968H1373.93C1373.38 111.504 1372.49 112.656 1371.24 113.424C1369.99 114.192 1368.5 114.576 1366.78 114.576C1364.15 114.576 1362.1 113.904 1360.63 112.56C1359.19 111.216 1358.47 109.392 1358.47 107.088C1358.47 104.752 1359.32 102.96 1361.02 101.712C1362.74 100.464 1365.42 99.84 1369.03 99.84H1373.93V97.392C1373.93 95.632 1373.45 94.288 1372.49 93.36C1371.53 92.432 1370.06 91.968 1368.07 91.968C1366.57 91.968 1365.3 92.304 1364.28 92.976C1363.29 93.648 1362.46 94.544 1361.78 95.664L1359.48 93.504C1360.15 92.16 1361.22 91.024 1362.7 90.096C1364.17 89.136 1366.02 88.656 1368.26 88.656C1371.27 88.656 1373.61 89.392 1375.27 90.864C1376.94 92.336 1377.77 94.384 1377.77 97.008V110.64H1380.6V114H1378.44ZM1367.4 111.312C1368.36 111.312 1369.24 111.2 1370.04 110.976C1370.84 110.752 1371.53 110.432 1372.1 110.016C1372.68 109.6 1373.13 109.12 1373.45 108.576C1373.77 108.032 1373.93 107.44 1373.93 106.8V102.72H1368.84C1366.63 102.72 1365.02 103.04 1363.99 103.68C1363 104.32 1362.5 105.248 1362.5 106.464V107.472C1362.5 108.688 1362.94 109.632 1363.8 110.304C1364.7 110.976 1365.9 111.312 1367.4 111.312ZM1395.3 114.576C1393.57 114.576 1392.02 114.272 1390.64 113.664C1389.26 113.056 1388.1 112.192 1387.14 111.072C1386.21 109.952 1385.49 108.592 1384.98 106.992C1384.5 105.392 1384.26 103.6 1384.26 101.616C1384.26 99.632 1384.5 97.84 1384.98 96.24C1385.49 94.64 1386.21 93.28 1387.14 92.16C1388.1 91.04 1389.26 90.176 1390.64 89.568C1392.02 88.96 1393.57 88.656 1395.3 88.656C1397.76 88.656 1399.73 89.2 1401.2 90.288C1402.7 91.344 1403.82 92.736 1404.56 94.464L1401.34 96.096C1400.9 94.816 1400.16 93.824 1399.14 93.12C1398.11 92.416 1396.83 92.064 1395.3 92.064C1394.14 92.064 1393.14 92.256 1392.27 92.64C1391.41 92.992 1390.69 93.504 1390.11 94.176C1389.54 94.816 1389.1 95.6 1388.82 96.528C1388.53 97.424 1388.38 98.416 1388.38 99.504V103.728C1388.38 105.904 1388.96 107.696 1390.11 109.104C1391.3 110.48 1393.02 111.168 1395.3 111.168C1398.4 111.168 1400.64 109.728 1402.02 106.848L1404.8 108.72C1404 110.512 1402.8 111.936 1401.2 112.992C1399.63 114.048 1397.66 114.576 1395.3 114.576ZM1410.22 78.48H1414.06V100.992H1414.25L1418.04 96.768L1425.05 89.232H1429.71L1420.54 99.024L1430.62 114H1425.96L1417.76 101.376L1414.06 105.168V114H1410.22V78.48ZM1444.05 114.576C1442.35 114.576 1440.82 114.272 1439.44 113.664C1438.1 113.056 1436.93 112.192 1435.94 111.072C1434.98 109.92 1434.22 108.56 1433.68 106.992C1433.17 105.392 1432.91 103.6 1432.91 101.616C1432.91 99.664 1433.17 97.888 1433.68 96.288C1434.22 94.688 1434.98 93.328 1435.94 92.208C1436.93 91.056 1438.1 90.176 1439.44 89.568C1440.82 88.96 1442.35 88.656 1444.05 88.656C1445.71 88.656 1447.2 88.96 1448.51 89.568C1449.82 90.176 1450.94 91.024 1451.87 92.112C1452.8 93.168 1453.5 94.432 1453.98 95.904C1454.5 97.376 1454.75 98.992 1454.75 100.752V102.576H1436.94V103.728C1436.94 104.784 1437.1 105.776 1437.42 106.704C1437.78 107.6 1438.26 108.384 1438.86 109.056C1439.5 109.728 1440.27 110.256 1441.17 110.64C1442.1 111.024 1443.14 111.216 1444.29 111.216C1445.86 111.216 1447.22 110.848 1448.37 110.112C1449.55 109.376 1450.46 108.32 1451.1 106.944L1453.84 108.912C1453.04 110.608 1451.79 111.984 1450.1 113.04C1448.4 114.064 1446.38 114.576 1444.05 114.576ZM1444.05 91.872C1442.99 91.872 1442.03 92.064 1441.17 92.448C1440.3 92.8 1439.55 93.312 1438.91 93.984C1438.3 94.656 1437.82 95.456 1437.47 96.384C1437.12 97.28 1436.94 98.272 1436.94 99.36V99.696H1450.62V99.168C1450.62 96.96 1450.02 95.2 1448.8 93.888C1447.62 92.544 1446.03 91.872 1444.05 91.872ZM1461.08 114V89.232H1464.92V93.264H1465.11C1465.72 91.856 1466.57 90.736 1467.66 89.904C1468.78 89.072 1470.26 88.656 1472.12 88.656C1474.68 88.656 1476.7 89.488 1478.17 91.152C1479.67 92.784 1480.42 95.104 1480.42 98.112V114H1476.58V98.784C1476.58 94.336 1474.71 92.112 1470.97 92.112C1470.2 92.112 1469.45 92.208 1468.71 92.4C1468.01 92.592 1467.37 92.88 1466.79 93.264C1466.22 93.648 1465.75 94.144 1465.4 94.752C1465.08 95.328 1464.92 96.016 1464.92 96.816V114H1461.08ZM1504.2 109.968H1504.01C1502.51 113.04 1500.09 114.576 1496.76 114.576C1495.23 114.576 1493.83 114.272 1492.59 113.664C1491.34 113.056 1490.27 112.192 1489.37 111.072C1488.51 109.952 1487.83 108.592 1487.35 106.992C1486.91 105.392 1486.68 103.6 1486.68 101.616C1486.68 99.632 1486.91 97.84 1487.35 96.24C1487.83 94.64 1488.51 93.28 1489.37 92.16C1490.27 91.04 1491.34 90.176 1492.59 89.568C1493.83 88.96 1495.23 88.656 1496.76 88.656C1498.49 88.656 1499.96 89.04 1501.18 89.808C1502.43 90.544 1503.37 91.696 1504.01 93.264H1504.2V78.48H1508.04V114H1504.2V109.968ZM1497.82 111.12C1498.68 111.12 1499.5 111.008 1500.27 110.784C1501.07 110.56 1501.75 110.24 1502.33 109.824C1502.91 109.376 1503.35 108.848 1503.67 108.24C1504.03 107.6 1504.2 106.88 1504.2 106.08V96.864C1504.2 96.192 1504.03 95.568 1503.67 94.992C1503.35 94.384 1502.91 93.872 1502.33 93.456C1501.75 93.04 1501.07 92.72 1500.27 92.496C1499.5 92.24 1498.68 92.112 1497.82 92.112C1495.64 92.112 1493.93 92.8 1492.68 94.176C1491.43 95.52 1490.81 97.296 1490.81 99.504V103.728C1490.81 105.936 1491.43 107.728 1492.68 109.104C1493.93 110.448 1495.64 111.12 1497.82 111.12Z" fill="black"/>
<path d="M145.464 80.496H159.24C162.024 80.496 164.2 81.28 165.768 82.848C167.368 84.416 168.168 86.512 168.168 89.136C168.168 90.384 167.992 91.44 167.64 92.304C167.288 93.168 166.84 93.888 166.296 94.464C165.752 95.008 165.16 95.424 164.52 95.712C163.88 95.968 163.288 96.144 162.744 96.24V96.528C163.352 96.56 164.024 96.72 164.76 97.008C165.528 97.296 166.248 97.76 166.92 98.4C167.592 99.008 168.152 99.808 168.6 100.8C169.08 101.76 169.32 102.928 169.32 104.304C169.32 105.68 169.096 106.96 168.648 108.144C168.232 109.328 167.64 110.352 166.872 111.216C166.104 112.08 165.192 112.768 164.136 113.28C163.08 113.76 161.928 114 160.68 114H145.464V80.496ZM149.496 110.448H159.432C161.16 110.448 162.52 110.016 163.512 109.152C164.504 108.256 165 106.96 165 105.264V103.632C165 101.936 164.504 100.656 163.512 99.792C162.52 98.896 161.16 98.448 159.432 98.448H149.496V110.448ZM149.496 94.992H158.76C160.36 94.992 161.608 94.592 162.504 93.792C163.4 92.992 163.848 91.84 163.848 90.336V88.704C163.848 87.2 163.4 86.048 162.504 85.248C161.608 84.448 160.36 84.048 158.76 84.048H149.496V94.992ZM176.439 114V89.232H180.279V93.792H180.519C180.967 92.608 181.767 91.552 182.919 90.624C184.071 89.696 185.655 89.232 187.671 89.232H189.159V93.072H186.903C184.823 93.072 183.191 93.472 182.007 94.272C180.855 95.04 180.279 96.016 180.279 97.2V114H176.439ZM203.19 114.576C201.526 114.576 200.006 114.272 198.63 113.664C197.254 113.056 196.07 112.192 195.078 111.072C194.118 109.92 193.366 108.56 192.822 106.992C192.278 105.392 192.006 103.6 192.006 101.616C192.006 99.664 192.278 97.888 192.822 96.288C193.366 94.688 194.118 93.328 195.078 92.208C196.07 91.056 197.254 90.176 198.63 89.568C200.006 88.96 201.526 88.656 203.19 88.656C204.854 88.656 206.358 88.96 207.702 89.568C209.078 90.176 210.262 91.056 211.254 92.208C212.246 93.328 213.014 94.688 213.558 96.288C214.102 97.888 214.374 99.664 214.374 101.616C214.374 103.6 214.102 105.392 213.558 106.992C213.014 108.56 212.246 109.92 211.254 111.072C210.262 112.192 209.078 113.056 207.702 113.664C206.358 114.272 204.854 114.576 203.19 114.576ZM203.19 111.168C205.27 111.168 206.966 110.528 208.278 109.248C209.59 107.968 210.246 106.016 210.246 103.392V99.84C210.246 97.216 209.59 95.264 208.278 93.984C206.966 92.704 205.27 92.064 203.19 92.064C201.11 92.064 199.414 92.704 198.102 93.984C196.79 95.264 196.134 97.216 196.134 99.84V103.392C196.134 106.016 196.79 107.968 198.102 109.248C199.414 110.528 201.11 111.168 203.19 111.168ZM217.863 89.232H221.607L224.247 99.936L226.887 110.784H226.983L230.007 99.936L233.127 89.232H236.535L239.751 99.936L242.823 110.784H242.919L245.463 99.936L248.151 89.232H251.751L245.175 114H240.423L236.967 102.096L234.807 94.56H234.711L232.599 102.096L229.143 114H224.487L217.863 89.232ZM264.645 114.576C262.341 114.576 260.405 114.144 258.837 113.28C257.301 112.384 255.973 111.2 254.853 109.728L257.589 107.52C258.549 108.736 259.621 109.68 260.805 110.352C261.989 110.992 263.365 111.312 264.933 111.312C266.565 111.312 267.829 110.96 268.725 110.256C269.653 109.552 270.117 108.56 270.117 107.28C270.117 106.32 269.797 105.504 269.157 104.832C268.549 104.128 267.429 103.648 265.797 103.392L263.829 103.104C262.677 102.944 261.621 102.704 260.661 102.384C259.701 102.032 258.853 101.584 258.117 101.04C257.413 100.464 256.853 99.76 256.437 98.928C256.053 98.096 255.861 97.104 255.861 95.952C255.861 94.736 256.085 93.68 256.533 92.784C256.981 91.856 257.589 91.088 258.357 90.48C259.157 89.872 260.101 89.424 261.189 89.136C262.277 88.816 263.445 88.656 264.693 88.656C266.709 88.656 268.389 89.008 269.733 89.712C271.109 90.416 272.309 91.392 273.333 92.64L270.789 94.944C270.245 94.176 269.445 93.488 268.389 92.88C267.333 92.24 266.005 91.92 264.405 91.92C262.805 91.92 261.589 92.272 260.757 92.976C259.957 93.648 259.557 94.576 259.557 95.76C259.557 96.976 259.957 97.856 260.757 98.4C261.589 98.944 262.773 99.344 264.309 99.6L266.229 99.888C268.981 100.304 270.933 101.104 272.085 102.288C273.237 103.44 273.813 104.96 273.813 106.848C273.813 109.248 272.997 111.136 271.365 112.512C269.733 113.888 267.493 114.576 264.645 114.576ZM289.908 114.576C288.212 114.576 286.676 114.272 285.3 113.664C283.956 113.056 282.788 112.192 281.796 111.072C280.836 109.92 280.084 108.56 279.54 106.992C279.028 105.392 278.772 103.6 278.772 101.616C278.772 99.664 279.028 97.888 279.54 96.288C280.084 94.688 280.836 93.328 281.796 92.208C282.788 91.056 283.956 90.176 285.3 89.568C286.676 88.96 288.212 88.656 289.908 88.656C291.572 88.656 293.06 88.96 294.372 89.568C295.684 90.176 296.804 91.024 297.732 92.112C298.66 93.168 299.364 94.432 299.844 95.904C300.356 97.376 300.612 98.992 300.612 100.752V102.576H282.804V103.728C282.804 104.784 282.964 105.776 283.284 106.704C283.636 107.6 284.116 108.384 284.724 109.056C285.364 109.728 286.132 110.256 287.028 110.64C287.956 111.024 288.996 111.216 290.148 111.216C291.716 111.216 293.076 110.848 294.228 110.112C295.412 109.376 296.324 108.32 296.964 106.944L299.7 108.912C298.9 110.608 297.652 111.984 295.956 113.04C294.26 114.064 292.244 114.576 289.908 114.576ZM289.908 91.872C288.852 91.872 287.892 92.064 287.028 92.448C286.164 92.8 285.412 93.312 284.772 93.984C284.164 94.656 283.684 95.456 283.332 96.384C282.98 97.28 282.804 98.272 282.804 99.36V99.696H296.484V99.168C296.484 96.96 295.876 95.2 294.66 93.888C293.476 92.544 291.892 91.872 289.908 91.872ZM306.939 114V89.232H310.779V93.792H311.019C311.467 92.608 312.267 91.552 313.419 90.624C314.571 89.696 316.155 89.232 318.171 89.232H319.659V93.072H317.403C315.323 93.072 313.691 93.472 312.507 94.272C311.355 95.04 310.779 96.016 310.779 97.2V114H306.939Z" fill="black"/>
<path d="M807.248 133.384C805.435 133.384 803.888 133.043 802.608 132.36C801.328 131.656 800.24 130.696 799.344 129.48L801.328 127.816C802.117 128.861 802.992 129.661 803.952 130.216C804.912 130.749 806.043 131.016 807.344 131.016C808.944 131.016 810.16 130.632 810.992 129.864C811.845 129.096 812.272 128.072 812.272 126.792C812.272 125.725 811.952 124.904 811.312 124.328C810.672 123.752 809.616 123.293 808.144 122.952L806.32 122.536C804.272 122.067 802.704 121.363 801.616 120.424C800.549 119.464 800.016 118.12 800.016 116.392C800.016 115.411 800.197 114.536 800.56 113.768C800.923 113 801.424 112.36 802.064 111.848C802.725 111.336 803.504 110.952 804.4 110.696C805.317 110.419 806.32 110.28 807.408 110.28C809.093 110.28 810.533 110.589 811.728 111.208C812.944 111.827 813.968 112.733 814.8 113.928L812.784 115.4C812.165 114.547 811.419 113.875 810.544 113.384C809.669 112.893 808.581 112.648 807.28 112.648C805.851 112.648 804.72 112.957 803.888 113.576C803.077 114.173 802.672 115.08 802.672 116.296C802.672 117.363 803.013 118.173 803.696 118.728C804.4 119.261 805.456 119.688 806.864 120.008L808.688 120.424C810.885 120.915 812.475 121.661 813.456 122.664C814.437 123.667 814.928 125 814.928 126.664C814.928 127.688 814.747 128.616 814.384 129.448C814.043 130.28 813.541 130.984 812.88 131.56C812.219 132.136 811.408 132.584 810.448 132.904C809.509 133.224 808.443 133.384 807.248 133.384ZM825.529 133.384C823.716 133.384 822.169 133.043 820.889 132.36C819.609 131.656 818.521 130.696 817.625 129.48L819.609 127.816C820.399 128.861 821.273 129.661 822.233 130.216C823.193 130.749 824.324 131.016 825.625 131.016C827.225 131.016 828.441 130.632 829.273 129.864C830.127 129.096 830.553 128.072 830.553 126.792C830.553 125.725 830.233 124.904 829.593 124.328C828.953 123.752 827.897 123.293 826.425 122.952L824.601 122.536C822.553 122.067 820.985 121.363 819.897 120.424C818.831 119.464 818.297 118.12 818.297 116.392C818.297 115.411 818.479 114.536 818.841 113.768C819.204 113 819.705 112.36 820.345 111.848C821.007 111.336 821.785 110.952 822.681 110.696C823.599 110.419 824.601 110.28 825.689 110.28C827.375 110.28 828.815 110.589 830.009 111.208C831.225 111.827 832.249 112.733 833.081 113.928L831.065 115.4C830.447 114.547 829.7 113.875 828.825 113.384C827.951 112.893 826.863 112.648 825.561 112.648C824.132 112.648 823.001 112.957 822.169 113.576C821.359 114.173 820.953 115.08 820.953 116.296C820.953 117.363 821.295 118.173 821.977 118.728C822.681 119.261 823.737 119.688 825.145 120.008L826.969 120.424C829.167 120.915 830.756 121.661 831.737 122.664C832.719 123.667 833.209 125 833.209 126.664C833.209 127.688 833.028 128.616 832.665 129.448C832.324 130.28 831.823 130.984 831.161 131.56C830.5 132.136 829.689 132.584 828.729 132.904C827.791 133.224 826.724 133.384 825.529 133.384ZM840.539 133H837.851V110.664H846.747C848.71 110.664 850.235 111.208 851.323 112.296C852.432 113.384 852.987 114.952 852.987 117C852.987 118.643 852.603 119.997 851.835 121.064C851.088 122.109 849.979 122.803 848.507 123.144L853.627 133H850.587L845.755 123.4H840.539V133ZM846.747 121.096C847.814 121.096 848.635 120.819 849.211 120.264C849.808 119.709 850.107 118.92 850.107 117.896V116.232C850.107 115.208 849.808 114.419 849.211 113.864C848.635 113.309 847.814 113.032 846.747 113.032H840.539V121.096H846.747Z" fill="black"/>
<path d="M591.065 66.0561C591.648 65.4678 591.644 64.5181 591.056 63.9348L581.469 54.4297C580.881 53.8464 579.931 53.8505 579.348 54.4388C578.765 55.0271 578.769 55.9768 579.357 56.5601L587.879 65.0091L579.43 73.5305C578.846 74.1188 578.85 75.0685 579.439 75.6518C580.027 76.2351 580.977 76.231 581.56 75.6427L591.065 66.0561ZM470.004 67.0123L590.006 66.5L589.993 63.5L469.992 64.0123L470.004 67.0123Z" fill="#209B1D"/>
<path d="M1183.06 67.0607C1183.65 66.4749 1183.65 65.5251 1183.06 64.9393L1173.51 55.3934C1172.93 54.8076 1171.98 54.8076 1171.39 55.3934C1170.81 55.9792 1170.81 56.9289 1171.39 57.5147L1179.88 66L1171.39 74.4853C1170.81 75.0711 1170.81 76.0208 1171.39 76.6066C1171.98 77.1924 1172.93 77.1924 1173.51 76.6066L1183.06 67.0607ZM1062 67.5H1182V64.5H1062V67.5Z" fill="#F38B2B"/>
<path d="M470.939 125.939C470.354 126.525 470.354 127.475 470.939 128.061L480.485 137.607C481.071 138.192 482.021 138.192 482.607 137.607C483.192 137.021 483.192 136.071 482.607 135.485L474.121 127L482.607 118.515C483.192 117.929 483.192 116.979 482.607 116.393C482.021 115.808 481.071 115.808 480.485 116.393L470.939 125.939ZM594 125.5L472 125.5L472 128.5L594 128.5L594 125.5Z" fill="#F38B2B"/>
<path d="M1062.94 125.939C1062.35 126.525 1062.35 127.475 1062.94 128.061L1072.49 137.607C1073.07 138.192 1074.02 138.192 1074.61 137.607C1075.19 137.021 1075.19 136.071 1074.61 135.485L1066.12 127L1074.61 118.515C1075.19 117.929 1075.19 116.979 1074.61 116.393C1074.02 115.808 1073.07 115.808 1072.49 116.393L1062.94 125.939ZM1184 125.5L1064 125.5L1064 128.5L1184 128.5L1184 125.5Z" fill="#A92393"/>
</svg>
