<svg width="1445" height="888" viewBox="0 0 1445 888" fill="none" xmlns="http://www.w3.org/2000/svg">
<rect width="151" height="97" fill="#F5F5F5"/>
<path d="M58.6295 43.04V51.68C58.6295 53.0133 58.8761 54.0267 59.3695 54.72C59.8628 55.4 60.7295 55.74 61.9695 55.74C63.2095 55.74 64.0761 55.4 64.5695 54.72C65.0628 54.0267 65.3095 53.0133 65.3095 51.68V43.04H66.9895V51.28C66.9895 52.2933 66.8961 53.1733 66.7095 53.92C66.5361 54.6667 66.2495 55.2867 65.8495 55.78C65.4495 56.2733 64.9228 56.64 64.2695 56.88C63.6295 57.12 62.8428 57.24 61.9095 57.24C60.9761 57.24 60.1895 57.12 59.5495 56.88C58.9228 56.64 58.4161 56.2733 58.0295 55.78C57.6428 55.2867 57.3628 54.6667 57.1895 53.92C57.0295 53.1733 56.9495 52.2933 56.9495 51.28V43.04H58.6295ZM73.5441 57.24C72.5841 57.24 71.7775 57.06 71.1241 56.7C70.4841 56.3267 69.9308 55.8333 69.4641 55.22L70.6041 54.3C71.0041 54.8067 71.4508 55.2 71.9441 55.48C72.4375 55.7467 73.0108 55.88 73.6641 55.88C74.3441 55.88 74.8708 55.7333 75.2441 55.44C75.6308 55.1467 75.8241 54.7333 75.8241 54.2C75.8241 53.8 75.6908 53.46 75.4241 53.18C75.1708 52.8867 74.7041 52.6867 74.0241 52.58L73.2041 52.46C72.7241 52.3933 72.2841 52.2933 71.8841 52.16C71.4841 52.0133 71.1308 51.8267 70.8241 51.6C70.5308 51.36 70.2975 51.0667 70.1241 50.72C69.9641 50.3733 69.8841 49.96 69.8841 49.48C69.8841 48.9733 69.9775 48.5333 70.1641 48.16C70.3508 47.7733 70.6041 47.4533 70.9241 47.2C71.2575 46.9467 71.6508 46.76 72.1041 46.64C72.5575 46.5067 73.0441 46.44 73.5641 46.44C74.4041 46.44 75.1041 46.5867 75.6641 46.88C76.2375 47.1733 76.7375 47.58 77.1641 48.1L76.1041 49.06C75.8775 48.74 75.5441 48.4533 75.1041 48.2C74.6641 47.9333 74.1108 47.8 73.4441 47.8C72.7775 47.8 72.2708 47.9467 71.9241 48.24C71.5908 48.52 71.4241 48.9067 71.4241 49.4C71.4241 49.9067 71.5908 50.2733 71.9241 50.5C72.2708 50.7267 72.7641 50.8933 73.4041 51L74.2041 51.12C75.3508 51.2933 76.1641 51.6267 76.6441 52.12C77.1241 52.6 77.3641 53.2333 77.3641 54.02C77.3641 55.02 77.0241 55.8067 76.3441 56.38C75.6641 56.9533 74.7308 57.24 73.5441 57.24ZM84.0702 57.24C83.3636 57.24 82.7236 57.1133 82.1502 56.86C81.5902 56.6067 81.1036 56.2467 80.6902 55.78C80.2902 55.3 79.9769 54.7333 79.7502 54.08C79.5369 53.4133 79.4302 52.6667 79.4302 51.84C79.4302 51.0267 79.5369 50.2867 79.7502 49.62C79.9769 48.9533 80.2902 48.3867 80.6902 47.92C81.1036 47.44 81.5902 47.0733 82.1502 46.82C82.7236 46.5667 83.3636 46.44 84.0702 46.44C84.7636 46.44 85.3836 46.5667 85.9302 46.82C86.4769 47.0733 86.9436 47.4267 87.3302 47.88C87.7169 48.32 88.0102 48.8467 88.2102 49.46C88.4236 50.0733 88.5302 50.7467 88.5302 51.48V52.24H81.1102V52.72C81.1102 53.16 81.1769 53.5733 81.3102 53.96C81.4569 54.3333 81.6569 54.66 81.9102 54.94C82.1769 55.22 82.4969 55.44 82.8702 55.6C83.2569 55.76 83.6902 55.84 84.1702 55.84C84.8236 55.84 85.3902 55.6867 85.8702 55.38C86.3636 55.0733 86.7436 54.6333 87.0102 54.06L88.1502 54.88C87.8169 55.5867 87.2969 56.16 86.5902 56.6C85.8836 57.0267 85.0436 57.24 84.0702 57.24ZM84.0702 47.78C83.6302 47.78 83.2302 47.86 82.8702 48.02C82.5102 48.1667 82.1969 48.38 81.9302 48.66C81.6769 48.94 81.4769 49.2733 81.3302 49.66C81.1836 50.0333 81.1102 50.4467 81.1102 50.9V51.04H86.8102V50.82C86.8102 49.9 86.5569 49.1667 86.0502 48.62C85.5569 48.06 84.8969 47.78 84.0702 47.78ZM91.1668 57V46.68H92.7668V48.58H92.8668C93.0535 48.0867 93.3868 47.6467 93.8668 47.26C94.3468 46.8733 95.0068 46.68 95.8468 46.68H96.4668V48.28H95.5268C94.6601 48.28 93.9801 48.4467 93.4868 48.78C93.0068 49.1 92.7668 49.5067 92.7668 50V57H91.1668Z" fill="#1E1E1E"/>
<path d="M98.0941 202.68H91.0341V209H89.3541V195.04H91.0341V201.2H98.0941V195.04H99.7741V209H98.0941V202.68ZM110.835 209C110.235 209 109.801 208.84 109.535 208.52C109.281 208.2 109.121 207.8 109.055 207.32H108.955C108.728 207.96 108.355 208.44 107.835 208.76C107.315 209.08 106.695 209.24 105.975 209.24C104.881 209.24 104.028 208.96 103.415 208.4C102.815 207.84 102.515 207.08 102.515 206.12C102.515 205.147 102.868 204.4 103.575 203.88C104.295 203.36 105.408 203.1 106.915 203.1H108.955V202.08C108.955 201.347 108.755 200.787 108.355 200.4C107.955 200.013 107.341 199.82 106.515 199.82C105.888 199.82 105.361 199.96 104.935 200.24C104.521 200.52 104.175 200.893 103.895 201.36L102.935 200.46C103.215 199.9 103.661 199.427 104.275 199.04C104.888 198.64 105.661 198.44 106.595 198.44C107.848 198.44 108.821 198.747 109.515 199.36C110.208 199.973 110.555 200.827 110.555 201.92V207.6H111.735V209H110.835ZM106.235 207.88C106.635 207.88 107.001 207.833 107.335 207.74C107.668 207.647 107.955 207.513 108.195 207.34C108.435 207.167 108.621 206.967 108.755 206.74C108.888 206.513 108.955 206.267 108.955 206V204.3H106.835C105.915 204.3 105.241 204.433 104.815 204.7C104.401 204.967 104.195 205.353 104.195 205.86V206.28C104.195 206.787 104.375 207.18 104.735 207.46C105.108 207.74 105.608 207.88 106.235 207.88ZM113.118 207.6H114.318L115.478 204.82C115.625 204.473 115.805 204.213 116.018 204.04C116.232 203.867 116.472 203.76 116.738 203.72V203.64C116.472 203.56 116.238 203.427 116.038 203.24C115.838 203.053 115.665 202.793 115.518 202.46L114.458 200.08H113.258V198.68H114.198C114.598 198.68 114.945 198.78 115.238 198.98C115.545 199.18 115.798 199.5 115.998 199.94L117.378 203H119.218V198.68H120.818V203H122.658L124.038 199.94C124.238 199.5 124.485 199.18 124.778 198.98C125.085 198.78 125.438 198.68 125.838 198.68H126.778V200.08H125.578L124.518 202.46C124.372 202.793 124.198 203.053 123.998 203.24C123.798 203.427 123.565 203.56 123.298 203.64V203.72C123.565 203.76 123.805 203.867 124.018 204.04C124.232 204.213 124.412 204.473 124.558 204.82L125.718 207.6H126.918V209H125.778C125.418 209 125.092 208.907 124.798 208.72C124.505 208.52 124.245 208.147 124.018 207.6L122.658 204.36H120.818V209H119.218V204.36H117.378L116.018 207.6C115.792 208.147 115.532 208.52 115.238 208.72C114.945 208.907 114.618 209 114.258 209H113.118V207.6ZM129.409 198.68H130.969V204.4L130.809 206.88H130.889L132.169 204.68L136.289 198.68H137.769V209H136.209V203.28L136.369 200.8H136.289L135.009 203L130.889 209H129.409V198.68ZM141.167 198.68H143.267L146.407 204.04H146.487L149.607 198.68H151.687V209H150.127V200.6H150.027L149.447 201.72L146.427 206.84L143.407 201.72L142.827 200.6H142.727V209H141.167V198.68ZM162.593 209C161.993 209 161.559 208.84 161.293 208.52C161.039 208.2 160.879 207.8 160.813 207.32H160.713C160.486 207.96 160.113 208.44 159.593 208.76C159.073 209.08 158.453 209.24 157.733 209.24C156.639 209.24 155.786 208.96 155.173 208.4C154.573 207.84 154.273 207.08 154.273 206.12C154.273 205.147 154.626 204.4 155.333 203.88C156.053 203.36 157.166 203.1 158.673 203.1H160.713V202.08C160.713 201.347 160.513 200.787 160.113 200.4C159.713 200.013 159.099 199.82 158.273 199.82C157.646 199.82 157.119 199.96 156.693 200.24C156.279 200.52 155.933 200.893 155.653 201.36L154.693 200.46C154.973 199.9 155.419 199.427 156.033 199.04C156.646 198.64 157.419 198.44 158.353 198.44C159.606 198.44 160.579 198.747 161.273 199.36C161.966 199.973 162.313 200.827 162.313 201.92V207.6H163.493V209H162.593ZM157.993 207.88C158.393 207.88 158.759 207.833 159.093 207.74C159.426 207.647 159.713 207.513 159.953 207.34C160.193 207.167 160.379 206.967 160.513 206.74C160.646 206.513 160.713 206.267 160.713 206V204.3H158.593C157.673 204.3 156.999 204.433 156.573 204.7C156.159 204.967 155.953 205.353 155.953 205.86V206.28C155.953 206.787 156.133 207.18 156.493 207.46C156.866 207.74 157.366 207.88 157.993 207.88ZM169.656 209.24C168.95 209.24 168.31 209.113 167.736 208.86C167.176 208.607 166.69 208.247 166.276 207.78C165.876 207.3 165.563 206.733 165.336 206.08C165.123 205.413 165.016 204.667 165.016 203.84C165.016 203.027 165.123 202.287 165.336 201.62C165.563 200.953 165.876 200.387 166.276 199.92C166.69 199.44 167.176 199.073 167.736 198.82C168.31 198.567 168.95 198.44 169.656 198.44C170.35 198.44 170.97 198.567 171.516 198.82C172.063 199.073 172.53 199.427 172.916 199.88C173.303 200.32 173.596 200.847 173.796 201.46C174.01 202.073 174.116 202.747 174.116 203.48V204.24H166.696V204.72C166.696 205.16 166.763 205.573 166.896 205.96C167.043 206.333 167.243 206.66 167.496 206.94C167.763 207.22 168.083 207.44 168.456 207.6C168.843 207.76 169.276 207.84 169.756 207.84C170.41 207.84 170.976 207.687 171.456 207.38C171.95 207.073 172.33 206.633 172.596 206.06L173.736 206.88C173.403 207.587 172.883 208.16 172.176 208.6C171.47 209.027 170.63 209.24 169.656 209.24ZM169.656 199.78C169.216 199.78 168.816 199.86 168.456 200.02C168.096 200.167 167.783 200.38 167.516 200.66C167.263 200.94 167.063 201.273 166.916 201.66C166.77 202.033 166.696 202.447 166.696 202.9V203.04H172.396V202.82C172.396 201.9 172.143 201.167 171.636 200.62C171.143 200.06 170.483 199.78 169.656 199.78ZM176.753 198.68H178.853L181.993 204.04H182.073L185.193 198.68H187.273V209H185.713V200.6H185.613L185.033 201.72L182.013 206.84L178.993 201.72L178.413 200.6H178.313V209H176.753V198.68ZM198.265 207.4L194.425 204.08V202.56L198.265 199.24L198.745 200.32L196.005 203.32L198.745 206.32L198.265 207.4ZM202.445 207.4L198.605 204.08V202.56L202.445 199.24L202.925 200.32L200.185 203.32L202.925 206.32L202.445 207.4ZM205.659 198.68H210.859C211.699 198.68 212.359 198.92 212.839 199.4C213.319 199.867 213.559 200.5 213.559 201.3C213.559 202.593 212.886 203.32 211.539 203.48V203.56C212.339 203.627 212.932 203.88 213.319 204.32C213.719 204.747 213.919 205.28 213.919 205.92C213.919 206.333 213.852 206.727 213.719 207.1C213.599 207.473 213.419 207.8 213.179 208.08C212.939 208.36 212.646 208.587 212.299 208.76C211.952 208.92 211.559 209 211.119 209H205.659V198.68ZM210.639 207.68C211.119 207.68 211.499 207.553 211.779 207.3C212.059 207.047 212.199 206.687 212.199 206.22V205.76C212.199 205.293 212.059 204.933 211.779 204.68C211.499 204.427 211.119 204.3 210.639 204.3H207.259V207.68H210.639ZM210.439 203C210.879 203 211.219 202.893 211.459 202.68C211.712 202.453 211.839 202.133 211.839 201.72V201.28C211.839 200.867 211.712 200.553 211.459 200.34C211.219 200.113 210.879 200 210.439 200H207.259V203H210.439ZM220.711 209.24C220.018 209.24 219.385 209.113 218.811 208.86C218.238 208.607 217.745 208.247 217.331 207.78C216.931 207.3 216.618 206.733 216.391 206.08C216.165 205.413 216.051 204.667 216.051 203.84C216.051 203.027 216.165 202.287 216.391 201.62C216.618 200.953 216.931 200.387 217.331 199.92C217.745 199.44 218.238 199.073 218.811 198.82C219.385 198.567 220.018 198.44 220.711 198.44C221.405 198.44 222.031 198.567 222.591 198.82C223.165 199.073 223.658 199.44 224.071 199.92C224.485 200.387 224.805 200.953 225.031 201.62C225.258 202.287 225.371 203.027 225.371 203.84C225.371 204.667 225.258 205.413 225.031 206.08C224.805 206.733 224.485 207.3 224.071 207.78C223.658 208.247 223.165 208.607 222.591 208.86C222.031 209.113 221.405 209.24 220.711 209.24ZM220.711 207.82C221.578 207.82 222.285 207.553 222.831 207.02C223.378 206.487 223.651 205.673 223.651 204.58V203.1C223.651 202.007 223.378 201.193 222.831 200.66C222.285 200.127 221.578 199.86 220.711 199.86C219.845 199.86 219.138 200.127 218.591 200.66C218.045 201.193 217.771 202.007 217.771 203.1V204.58C217.771 205.673 218.045 206.487 218.591 207.02C219.138 207.553 219.845 207.82 220.711 207.82ZM228.003 198.68H229.563V204.4L229.403 206.88H229.483L230.763 204.68L234.883 198.68H236.363V209H234.803V203.28L234.963 200.8H234.883L233.603 203L229.483 209H228.003V198.68ZM232.223 197.08C231.503 197.08 230.929 196.94 230.503 196.66C230.076 196.367 229.736 195.987 229.483 195.52L229.083 194.76L230.483 194.14L231.183 195.78C231.343 195.82 231.516 195.853 231.703 195.88C231.889 195.893 232.063 195.9 232.223 195.9C232.383 195.9 232.556 195.893 232.743 195.88C232.929 195.853 233.103 195.82 233.263 195.78L233.963 194.14L235.363 194.76L234.963 195.52C234.709 195.987 234.369 196.367 233.943 196.66C233.516 196.94 232.943 197.08 232.223 197.08ZM241.981 200.08H238.461V198.68H247.101V200.08H243.581V209H241.981V200.08ZM249.194 198.68H250.754V204.4L250.594 206.88H250.674L251.954 204.68L256.074 198.68H257.554V209H255.994V203.28L256.154 200.8H256.074L254.794 203L250.674 209H249.194V198.68ZM260.292 206.32L263.032 203.32L260.292 200.32L260.772 199.24L264.612 202.56V204.08L260.772 207.4L260.292 206.32ZM264.472 206.32L267.212 203.32L264.472 200.32L264.952 199.24L268.792 202.56V204.08L264.952 207.4L264.472 206.32Z" fill="#1E1E1E"/>
<path d="M510.095 260.24C508.961 260.24 507.995 260.02 507.195 259.58C506.395 259.127 505.735 258.52 505.215 257.76L506.435 256.78C506.861 257.407 507.361 257.893 507.935 258.24C508.521 258.573 509.241 258.74 510.095 258.74C511.095 258.74 511.875 258.54 512.435 258.14C512.995 257.727 513.275 257.093 513.275 256.24V255.98C513.275 255.26 513.035 254.687 512.555 254.26C512.075 253.82 511.315 253.6 510.275 253.6H508.175V252.12H510.155C511.141 252.12 511.855 251.92 512.295 251.52C512.735 251.12 512.955 250.52 512.955 249.72V249.44C512.955 248.76 512.728 248.233 512.275 247.86C511.835 247.487 511.155 247.3 510.235 247.3C509.395 247.3 508.715 247.447 508.195 247.74C507.675 248.033 507.255 248.42 506.935 248.9L505.635 248.06C506.141 247.34 506.748 246.787 507.455 246.4C508.161 246 509.088 245.8 510.235 245.8C511.755 245.8 512.888 246.133 513.635 246.8C514.381 247.467 514.755 248.353 514.755 249.46C514.755 250.42 514.515 251.167 514.035 251.7C513.568 252.233 512.921 252.587 512.095 252.76V252.86C512.508 252.913 512.895 253.013 513.255 253.16C513.615 253.307 513.928 253.513 514.195 253.78C514.461 254.047 514.675 254.38 514.835 254.78C514.995 255.167 515.075 255.62 515.075 256.14C515.075 256.753 514.961 257.313 514.735 257.82C514.508 258.327 514.181 258.76 513.755 259.12C513.328 259.48 512.801 259.76 512.175 259.96C511.561 260.147 510.868 260.24 510.095 260.24ZM525.53 260C524.93 260 524.497 259.84 524.23 259.52C523.977 259.2 523.817 258.8 523.75 258.32H523.65C523.423 258.96 523.05 259.44 522.53 259.76C522.01 260.08 521.39 260.24 520.67 260.24C519.577 260.24 518.723 259.96 518.11 259.4C517.51 258.84 517.21 258.08 517.21 257.12C517.21 256.147 517.563 255.4 518.27 254.88C518.99 254.36 520.103 254.1 521.61 254.1H523.65V253.08C523.65 252.347 523.45 251.787 523.05 251.4C522.65 251.013 522.037 250.82 521.21 250.82C520.583 250.82 520.057 250.96 519.63 251.24C519.217 251.52 518.87 251.893 518.59 252.36L517.63 251.46C517.91 250.9 518.357 250.427 518.97 250.04C519.583 249.64 520.357 249.44 521.29 249.44C522.543 249.44 523.517 249.747 524.21 250.36C524.903 250.973 525.25 251.827 525.25 252.92V258.6H526.43V260H525.53ZM520.93 258.88C521.33 258.88 521.697 258.833 522.03 258.74C522.363 258.647 522.65 258.513 522.89 258.34C523.13 258.167 523.317 257.967 523.45 257.74C523.583 257.513 523.65 257.267 523.65 257V255.3H521.53C520.61 255.3 519.937 255.433 519.51 255.7C519.097 255.967 518.89 256.353 518.89 256.86V257.28C518.89 257.787 519.07 258.18 519.43 258.46C519.803 258.74 520.303 258.88 520.93 258.88ZM528.714 249.68H536.774V260H535.174V251.08H530.314V260H528.714V249.68ZM540.179 249.68H541.779V251.36H541.859C542.125 250.707 542.512 250.227 543.019 249.92C543.539 249.6 544.159 249.44 544.879 249.44C545.519 249.44 546.099 249.567 546.619 249.82C547.139 250.073 547.579 250.433 547.939 250.9C548.312 251.367 548.592 251.933 548.779 252.6C548.979 253.267 549.079 254.013 549.079 254.84C549.079 255.667 548.979 256.413 548.779 257.08C548.592 257.747 548.312 258.313 547.939 258.78C547.579 259.247 547.139 259.607 546.619 259.86C546.099 260.113 545.519 260.24 544.879 260.24C543.479 260.24 542.472 259.6 541.859 258.32H541.779V264H540.179V249.68ZM544.439 258.8C545.345 258.8 546.059 258.52 546.579 257.96C547.099 257.387 547.359 256.64 547.359 255.72V253.96C547.359 253.04 547.099 252.3 546.579 251.74C546.059 251.167 545.345 250.88 544.439 250.88C544.079 250.88 543.732 250.933 543.399 251.04C543.079 251.133 542.799 251.267 542.559 251.44C542.319 251.613 542.125 251.827 541.979 252.08C541.845 252.32 541.779 252.58 541.779 252.86V256.7C541.779 257.033 541.845 257.333 541.979 257.6C542.125 257.853 542.319 258.073 542.559 258.26C542.799 258.433 543.079 258.567 543.399 258.66C543.732 258.753 544.079 258.8 544.439 258.8ZM559.28 260C558.68 260 558.247 259.84 557.98 259.52C557.727 259.2 557.567 258.8 557.5 258.32H557.4C557.173 258.96 556.8 259.44 556.28 259.76C555.76 260.08 555.14 260.24 554.42 260.24C553.327 260.24 552.473 259.96 551.86 259.4C551.26 258.84 550.96 258.08 550.96 257.12C550.96 256.147 551.313 255.4 552.02 254.88C552.74 254.36 553.853 254.1 555.36 254.1H557.4V253.08C557.4 252.347 557.2 251.787 556.8 251.4C556.4 251.013 555.787 250.82 554.96 250.82C554.333 250.82 553.807 250.96 553.38 251.24C552.967 251.52 552.62 251.893 552.34 252.36L551.38 251.46C551.66 250.9 552.107 250.427 552.72 250.04C553.333 249.64 554.107 249.44 555.04 249.44C556.293 249.44 557.267 249.747 557.96 250.36C558.653 250.973 559 251.827 559 252.92V258.6H560.18V260H559.28ZM554.68 258.88C555.08 258.88 555.447 258.833 555.78 258.74C556.113 258.647 556.4 258.513 556.64 258.34C556.88 258.167 557.067 257.967 557.2 257.74C557.333 257.513 557.4 257.267 557.4 257V255.3H555.28C554.36 255.3 553.687 255.433 553.26 255.7C552.847 255.967 552.64 256.353 552.64 256.86V257.28C552.64 257.787 552.82 258.18 553.18 258.46C553.553 258.74 554.053 258.88 554.68 258.88ZM562.464 249.68H564.064V258.6H567.944V249.68H569.544V258.6H573.424V249.68H575.024V260H562.464V249.68ZM578.421 249.68H579.981V255.4L579.821 257.88H579.901L581.181 255.68L585.301 249.68H586.781V260H585.221V254.28L585.381 251.8H585.301L584.021 254L579.901 260H578.421V249.68ZM590.179 249.68H595.379C596.219 249.68 596.879 249.92 597.359 250.4C597.839 250.867 598.079 251.5 598.079 252.3C598.079 253.593 597.405 254.32 596.059 254.48V254.56C596.859 254.627 597.452 254.88 597.839 255.32C598.239 255.747 598.439 256.28 598.439 256.92C598.439 257.333 598.372 257.727 598.239 258.1C598.119 258.473 597.939 258.8 597.699 259.08C597.459 259.36 597.165 259.587 596.819 259.76C596.472 259.92 596.079 260 595.639 260H590.179V249.68ZM595.159 258.68C595.639 258.68 596.019 258.553 596.299 258.3C596.579 258.047 596.719 257.687 596.719 257.22V256.76C596.719 256.293 596.579 255.933 596.299 255.68C596.019 255.427 595.639 255.3 595.159 255.3H591.779V258.68H595.159ZM594.959 254C595.399 254 595.739 253.893 595.979 253.68C596.232 253.453 596.359 253.133 596.359 252.72V252.28C596.359 251.867 596.232 251.553 595.979 251.34C595.739 251.113 595.399 251 594.959 251H591.779V254H594.959ZM608.733 260C608.133 260 607.7 259.84 607.433 259.52C607.18 259.2 607.02 258.8 606.953 258.32H606.853C606.627 258.96 606.253 259.44 605.733 259.76C605.213 260.08 604.593 260.24 603.873 260.24C602.78 260.24 601.927 259.96 601.313 259.4C600.713 258.84 600.413 258.08 600.413 257.12C600.413 256.147 600.767 255.4 601.473 254.88C602.193 254.36 603.307 254.1 604.813 254.1H606.853V253.08C606.853 252.347 606.653 251.787 606.253 251.4C605.853 251.013 605.24 250.82 604.413 250.82C603.787 250.82 603.26 250.96 602.833 251.24C602.42 251.52 602.073 251.893 601.793 252.36L600.833 251.46C601.113 250.9 601.56 250.427 602.173 250.04C602.787 249.64 603.56 249.44 604.493 249.44C605.747 249.44 606.72 249.747 607.413 250.36C608.107 250.973 608.453 251.827 608.453 252.92V258.6H609.633V260H608.733ZM604.133 258.88C604.533 258.88 604.9 258.833 605.233 258.74C605.567 258.647 605.853 258.513 606.093 258.34C606.333 258.167 606.52 257.967 606.653 257.74C606.787 257.513 606.853 257.267 606.853 257V255.3H604.733C603.813 255.3 603.14 255.433 602.713 255.7C602.3 255.967 602.093 256.353 602.093 256.86V257.28C602.093 257.787 602.273 258.18 602.633 258.46C603.007 258.74 603.507 258.88 604.133 258.88ZM615.797 260.24C615.09 260.24 614.45 260.113 613.877 259.86C613.317 259.607 612.83 259.247 612.417 258.78C612.017 258.3 611.703 257.733 611.477 257.08C611.263 256.413 611.157 255.667 611.157 254.84C611.157 254.027 611.263 253.287 611.477 252.62C611.703 251.953 612.017 251.387 612.417 250.92C612.83 250.44 613.317 250.073 613.877 249.82C614.45 249.567 615.09 249.44 615.797 249.44C616.49 249.44 617.11 249.567 617.657 249.82C618.203 250.073 618.67 250.427 619.057 250.88C619.443 251.32 619.737 251.847 619.937 252.46C620.15 253.073 620.257 253.747 620.257 254.48V255.24H612.837V255.72C612.837 256.16 612.903 256.573 613.037 256.96C613.183 257.333 613.383 257.66 613.637 257.94C613.903 258.22 614.223 258.44 614.597 258.6C614.983 258.76 615.417 258.84 615.897 258.84C616.55 258.84 617.117 258.687 617.597 258.38C618.09 258.073 618.47 257.633 618.737 257.06L619.877 257.88C619.543 258.587 619.023 259.16 618.317 259.6C617.61 260.027 616.77 260.24 615.797 260.24ZM615.797 250.78C615.357 250.78 614.957 250.86 614.597 251.02C614.237 251.167 613.923 251.38 613.657 251.66C613.403 251.94 613.203 252.273 613.057 252.66C612.91 253.033 612.837 253.447 612.837 253.9V254.04H618.537V253.82C618.537 252.9 618.283 252.167 617.777 251.62C617.283 251.06 616.623 250.78 615.797 250.78ZM622.893 249.68H624.993L628.133 255.04H628.213L631.333 249.68H633.413V260H631.853V251.6H631.753L631.173 252.72L628.153 257.84L625.133 252.72L624.553 251.6H624.453V260H622.893V249.68ZM640.026 263.02L645.246 245.2H646.686L641.466 263.02H640.026ZM656.702 260C656.102 260 655.669 259.84 655.402 259.52C655.149 259.2 654.989 258.8 654.922 258.32H654.822C654.595 258.96 654.222 259.44 653.702 259.76C653.182 260.08 652.562 260.24 651.842 260.24C650.749 260.24 649.895 259.96 649.282 259.4C648.682 258.84 648.382 258.08 648.382 257.12C648.382 256.147 648.735 255.4 649.442 254.88C650.162 254.36 651.275 254.1 652.782 254.1H654.822V253.08C654.822 252.347 654.622 251.787 654.222 251.4C653.822 251.013 653.209 250.82 652.382 250.82C651.755 250.82 651.229 250.96 650.802 251.24C650.389 251.52 650.042 251.893 649.762 252.36L648.802 251.46C649.082 250.9 649.529 250.427 650.142 250.04C650.755 249.64 651.529 249.44 652.462 249.44C653.715 249.44 654.689 249.747 655.382 250.36C656.075 250.973 656.422 251.827 656.422 252.92V258.6H657.602V260H656.702ZM652.102 258.88C652.502 258.88 652.869 258.833 653.202 258.74C653.535 258.647 653.822 258.513 654.062 258.34C654.302 258.167 654.489 257.967 654.622 257.74C654.755 257.513 654.822 257.267 654.822 257V255.3H652.702C651.782 255.3 651.109 255.433 650.682 255.7C650.269 255.967 650.062 256.353 650.062 256.86V257.28C650.062 257.787 650.242 258.18 650.602 258.46C650.975 258.74 651.475 258.88 652.102 258.88ZM666.246 258.32H666.166C666.059 258.56 665.926 258.8 665.766 259.04C665.619 259.267 665.432 259.473 665.206 259.66C664.979 259.833 664.706 259.973 664.386 260.08C664.066 260.187 663.692 260.24 663.266 260.24C662.199 260.24 661.352 259.9 660.726 259.22C660.099 258.527 659.786 257.553 659.786 256.3V249.68H661.386V256.02C661.386 257.873 662.172 258.8 663.746 258.8C664.066 258.8 664.372 258.76 664.666 258.68C664.972 258.6 665.239 258.48 665.466 258.32C665.706 258.16 665.892 257.96 666.026 257.72C666.172 257.467 666.246 257.167 666.246 256.82V249.68H667.846V260H666.246V258.32ZM673.533 260C672.973 260 672.546 259.847 672.253 259.54C671.973 259.22 671.833 258.807 671.833 258.3V251.08H670.133V249.68H671.093C671.439 249.68 671.673 249.613 671.793 249.48C671.926 249.333 671.993 249.087 671.993 248.74V246.82H673.433V249.68H675.693V251.08H673.433V258.6H675.533V260H673.533ZM678.264 245.2H679.864V251.36H679.944C680.198 250.773 680.551 250.307 681.004 249.96C681.471 249.613 682.091 249.44 682.864 249.44C683.931 249.44 684.771 249.787 685.384 250.48C686.011 251.16 686.324 252.127 686.324 253.38V260H684.724V253.66C684.724 251.807 683.944 250.88 682.384 250.88C682.064 250.88 681.751 250.92 681.444 251C681.151 251.08 680.884 251.2 680.644 251.36C680.404 251.52 680.211 251.727 680.064 251.98C679.931 252.22 679.864 252.507 679.864 252.84V260H678.264V245.2ZM693.532 260.24C692.838 260.24 692.205 260.113 691.632 259.86C691.058 259.607 690.565 259.247 690.152 258.78C689.752 258.3 689.438 257.733 689.212 257.08C688.985 256.413 688.872 255.667 688.872 254.84C688.872 254.027 688.985 253.287 689.212 252.62C689.438 251.953 689.752 251.387 690.152 250.92C690.565 250.44 691.058 250.073 691.632 249.82C692.205 249.567 692.838 249.44 693.532 249.44C694.225 249.44 694.852 249.567 695.412 249.82C695.985 250.073 696.478 250.44 696.892 250.92C697.305 251.387 697.625 251.953 697.852 252.62C698.078 253.287 698.192 254.027 698.192 254.84C698.192 255.667 698.078 256.413 697.852 257.08C697.625 257.733 697.305 258.3 696.892 258.78C696.478 259.247 695.985 259.607 695.412 259.86C694.852 260.113 694.225 260.24 693.532 260.24ZM693.532 258.82C694.398 258.82 695.105 258.553 695.652 258.02C696.198 257.487 696.472 256.673 696.472 255.58V254.1C696.472 253.007 696.198 252.193 695.652 251.66C695.105 251.127 694.398 250.86 693.532 250.86C692.665 250.86 691.958 251.127 691.412 251.66C690.865 252.193 690.592 253.007 690.592 254.1V255.58C690.592 256.673 690.865 257.487 691.412 258.02C691.958 258.553 692.665 258.82 693.532 258.82ZM700.823 260V249.68H702.423V251.58H702.523C702.71 251.087 703.043 250.647 703.523 250.26C704.003 249.873 704.663 249.68 705.503 249.68H706.123V251.28H705.183C704.316 251.28 703.636 251.447 703.143 251.78C702.663 252.1 702.423 252.507 702.423 253V260H700.823ZM708.967 247.26C708.62 247.26 708.367 247.18 708.207 247.02C708.06 246.847 707.987 246.627 707.987 246.36V246.1C707.987 245.833 708.06 245.62 708.207 245.46C708.367 245.287 708.62 245.2 708.967 245.2C709.313 245.2 709.56 245.287 709.707 245.46C709.867 245.62 709.947 245.833 709.947 246.1V246.36C709.947 246.627 709.867 246.847 709.707 247.02C709.56 247.18 709.313 247.26 708.967 247.26ZM708.167 249.68H709.767V260H708.167V249.68ZM712.127 260V258.66L717.987 251.08H712.307V249.68H719.927V250.88L713.947 258.6H720.087V260H712.127ZM726.129 260.24C725.422 260.24 724.782 260.113 724.209 259.86C723.649 259.607 723.162 259.247 722.749 258.78C722.349 258.3 722.035 257.733 721.809 257.08C721.595 256.413 721.489 255.667 721.489 254.84C721.489 254.027 721.595 253.287 721.809 252.62C722.035 251.953 722.349 251.387 722.749 250.92C723.162 250.44 723.649 250.073 724.209 249.82C724.782 249.567 725.422 249.44 726.129 249.44C726.822 249.44 727.442 249.567 727.989 249.82C728.535 250.073 729.002 250.427 729.389 250.88C729.775 251.32 730.069 251.847 730.269 252.46C730.482 253.073 730.589 253.747 730.589 254.48V255.24H723.169V255.72C723.169 256.16 723.235 256.573 723.369 256.96C723.515 257.333 723.715 257.66 723.969 257.94C724.235 258.22 724.555 258.44 724.929 258.6C725.315 258.76 725.749 258.84 726.229 258.84C726.882 258.84 727.449 258.687 727.929 258.38C728.422 258.073 728.802 257.633 729.069 257.06L730.209 257.88C729.875 258.587 729.355 259.16 728.649 259.6C727.942 260.027 727.102 260.24 726.129 260.24ZM726.129 250.78C725.689 250.78 725.289 250.86 724.929 251.02C724.569 251.167 724.255 251.38 723.989 251.66C723.735 251.94 723.535 252.273 723.389 252.66C723.242 253.033 723.169 253.447 723.169 253.9V254.04H728.869V253.82C728.869 252.9 728.615 252.167 728.109 251.62C727.615 251.06 726.955 250.78 726.129 250.78Z" fill="#1E1E1E"/>
<rect x="416" width="151" height="97" fill="#F5F5F5"/>
<rect x="1060" width="151" height="97" fill="#F5F5F5"/>
<rect x="1294" width="151" height="97" fill="#F5F5F5"/>
<path d="M454.88 52L451.48 38.04H453.26L454.76 44.76L455.92 49.98H455.96L457.26 44.76L459.02 38.04H460.94L462.64 44.76L463.94 49.96H464L465.2 44.76L466.78 38.04H468.5L464.92 52H463.06L461.24 45.04L459.96 39.92H459.92L458.6 45.04L456.74 52H454.88ZM474.18 52.24C473.473 52.24 472.833 52.1133 472.26 51.86C471.7 51.6067 471.213 51.2467 470.8 50.78C470.4 50.3 470.086 49.7333 469.86 49.08C469.646 48.4133 469.54 47.6667 469.54 46.84C469.54 46.0267 469.646 45.2867 469.86 44.62C470.086 43.9533 470.4 43.3867 470.8 42.92C471.213 42.44 471.7 42.0733 472.26 41.82C472.833 41.5667 473.473 41.44 474.18 41.44C474.873 41.44 475.493 41.5667 476.04 41.82C476.586 42.0733 477.053 42.4267 477.44 42.88C477.826 43.32 478.12 43.8467 478.32 44.46C478.533 45.0733 478.64 45.7467 478.64 46.48V47.24H471.22V47.72C471.22 48.16 471.286 48.5733 471.42 48.96C471.566 49.3333 471.766 49.66 472.02 49.94C472.286 50.22 472.606 50.44 472.98 50.6C473.366 50.76 473.8 50.84 474.28 50.84C474.933 50.84 475.5 50.6867 475.98 50.38C476.473 50.0733 476.853 49.6333 477.12 49.06L478.26 49.88C477.926 50.5867 477.406 51.16 476.7 51.6C475.993 52.0267 475.153 52.24 474.18 52.24ZM474.18 42.78C473.74 42.78 473.34 42.86 472.98 43.02C472.62 43.1667 472.306 43.38 472.04 43.66C471.786 43.94 471.586 44.2733 471.44 44.66C471.293 45.0333 471.22 45.4467 471.22 45.9V46.04H476.92V45.82C476.92 44.9 476.666 44.1667 476.16 43.62C475.666 43.06 475.006 42.78 474.18 42.78ZM481.276 37.2H482.876V43.36H482.956C483.223 42.7067 483.61 42.2267 484.116 41.92C484.636 41.6 485.256 41.44 485.976 41.44C486.616 41.44 487.196 41.5667 487.716 41.82C488.236 42.0733 488.676 42.4333 489.036 42.9C489.41 43.3667 489.69 43.9333 489.876 44.6C490.076 45.2667 490.176 46.0133 490.176 46.84C490.176 47.6667 490.076 48.4133 489.876 49.08C489.69 49.7467 489.41 50.3133 489.036 50.78C488.676 51.2467 488.236 51.6067 487.716 51.86C487.196 52.1133 486.616 52.24 485.976 52.24C484.576 52.24 483.57 51.6 482.956 50.32H482.876V52H481.276V37.2ZM485.536 50.8C486.443 50.8 487.156 50.52 487.676 49.96C488.196 49.3867 488.456 48.64 488.456 47.72V45.96C488.456 45.04 488.196 44.3 487.676 43.74C487.156 43.1667 486.443 42.88 485.536 42.88C485.176 42.88 484.83 42.9333 484.496 43.04C484.176 43.1333 483.896 43.2667 483.656 43.44C483.416 43.6133 483.223 43.8267 483.076 44.08C482.943 44.32 482.876 44.58 482.876 44.86V48.7C482.876 49.0333 482.943 49.3333 483.076 49.6C483.223 49.8533 483.416 50.0733 483.656 50.26C483.896 50.4333 484.176 50.5667 484.496 50.66C484.83 50.7533 485.176 50.8 485.536 50.8ZM506.504 52L505.104 47.88H499.464L498.064 52H496.364L501.244 38.04H503.384L508.264 52H506.504ZM502.324 39.6H502.224L499.864 46.4H504.684L502.324 39.6ZM510.417 41.68H512.017V43.36H512.097C512.363 42.7067 512.75 42.2267 513.257 41.92C513.777 41.6 514.397 41.44 515.117 41.44C515.757 41.44 516.337 41.5667 516.857 41.82C517.377 42.0733 517.817 42.4333 518.177 42.9C518.55 43.3667 518.83 43.9333 519.017 44.6C519.217 45.2667 519.317 46.0133 519.317 46.84C519.317 47.6667 519.217 48.4133 519.017 49.08C518.83 49.7467 518.55 50.3133 518.177 50.78C517.817 51.2467 517.377 51.6067 516.857 51.86C516.337 52.1133 515.757 52.24 515.117 52.24C513.717 52.24 512.71 51.6 512.097 50.32H512.017V56H510.417V41.68ZM514.677 50.8C515.583 50.8 516.297 50.52 516.817 49.96C517.337 49.3867 517.597 48.64 517.597 47.72V45.96C517.597 45.04 517.337 44.3 516.817 43.74C516.297 43.1667 515.583 42.88 514.677 42.88C514.317 42.88 513.97 42.9333 513.637 43.04C513.317 43.1333 513.037 43.2667 512.797 43.44C512.557 43.6133 512.363 43.8267 512.217 44.08C512.083 44.32 512.017 44.58 512.017 44.86V48.7C512.017 49.0333 512.083 49.3333 512.217 49.6C512.363 49.8533 512.557 50.0733 512.797 50.26C513.037 50.4333 513.317 50.5667 513.637 50.66C513.97 50.7533 514.317 50.8 514.677 50.8ZM522.018 41.68H523.618V43.36H523.698C523.965 42.7067 524.352 42.2267 524.858 41.92C525.378 41.6 525.998 41.44 526.718 41.44C527.358 41.44 527.938 41.5667 528.458 41.82C528.978 42.0733 529.418 42.4333 529.778 42.9C530.152 43.3667 530.432 43.9333 530.618 44.6C530.818 45.2667 530.918 46.0133 530.918 46.84C530.918 47.6667 530.818 48.4133 530.618 49.08C530.432 49.7467 530.152 50.3133 529.778 50.78C529.418 51.2467 528.978 51.6067 528.458 51.86C527.938 52.1133 527.358 52.24 526.718 52.24C525.318 52.24 524.312 51.6 523.698 50.32H523.618V56H522.018V41.68ZM526.278 50.8C527.185 50.8 527.898 50.52 528.418 49.96C528.938 49.3867 529.198 48.64 529.198 47.72V45.96C529.198 45.04 528.938 44.3 528.418 43.74C527.898 43.1667 527.185 42.88 526.278 42.88C525.918 42.88 525.572 42.9333 525.238 43.04C524.918 43.1333 524.638 43.2667 524.398 43.44C524.158 43.6133 523.965 43.8267 523.818 44.08C523.685 44.32 523.618 44.58 523.618 44.86V48.7C523.618 49.0333 523.685 49.3333 523.818 49.6C523.965 49.8533 524.158 50.0733 524.398 50.26C524.638 50.4333 524.918 50.5667 525.238 50.66C525.572 50.7533 525.918 50.8 526.278 50.8Z" fill="#1E1E1E"/>
<path d="M1093.89 57L1092.49 52.88H1086.85L1085.45 57H1083.75L1088.63 43.04H1090.77L1095.65 57H1093.89ZM1089.71 44.6H1089.61L1087.25 51.4H1092.07L1089.71 44.6ZM1104.16 55.32H1104.08C1103.97 55.56 1103.84 55.8 1103.68 56.04C1103.53 56.2667 1103.34 56.4733 1103.12 56.66C1102.89 56.8333 1102.62 56.9733 1102.3 57.08C1101.98 57.1867 1101.6 57.24 1101.18 57.24C1100.11 57.24 1099.26 56.9 1098.64 56.22C1098.01 55.5267 1097.7 54.5533 1097.7 53.3V46.68H1099.3V53.02C1099.3 54.8733 1100.08 55.8 1101.66 55.8C1101.98 55.8 1102.28 55.76 1102.58 55.68C1102.88 55.6 1103.15 55.48 1103.38 55.32C1103.62 55.16 1103.8 54.96 1103.94 54.72C1104.08 54.4667 1104.16 54.1667 1104.16 53.82V46.68H1105.76V57H1104.16V55.32ZM1111.44 57C1110.88 57 1110.46 56.8467 1110.16 56.54C1109.88 56.22 1109.74 55.8067 1109.74 55.3V48.08H1108.04V46.68H1109C1109.35 46.68 1109.58 46.6133 1109.7 46.48C1109.84 46.3333 1109.9 46.0867 1109.9 45.74V43.82H1111.34V46.68H1113.6V48.08H1111.34V55.6H1113.44V57H1111.44ZM1116.18 42.2H1117.78V48.36H1117.86C1118.11 47.7733 1118.46 47.3067 1118.92 46.96C1119.38 46.6133 1120 46.44 1120.78 46.44C1121.84 46.44 1122.68 46.7867 1123.3 47.48C1123.92 48.16 1124.24 49.1267 1124.24 50.38V57H1122.64V50.66C1122.64 48.8067 1121.86 47.88 1120.3 47.88C1119.98 47.88 1119.66 47.92 1119.36 48C1119.06 48.08 1118.8 48.2 1118.56 48.36C1118.32 48.52 1118.12 48.7267 1117.98 48.98C1117.84 49.22 1117.78 49.5067 1117.78 49.84V57H1116.18V42.2ZM1136.35 57.24C1135.22 57.24 1134.25 57.0267 1133.45 56.6C1132.65 56.16 1131.97 55.56 1131.41 54.8L1132.65 53.76C1133.14 54.4133 1133.69 54.9133 1134.29 55.26C1134.89 55.5933 1135.6 55.76 1136.41 55.76C1137.41 55.76 1138.17 55.52 1138.69 55.04C1139.22 54.56 1139.49 53.92 1139.49 53.12C1139.49 52.4533 1139.29 51.94 1138.89 51.58C1138.49 51.22 1137.83 50.9333 1136.91 50.72L1135.77 50.46C1134.49 50.1667 1133.51 49.7267 1132.83 49.14C1132.16 48.54 1131.83 47.7 1131.83 46.62C1131.83 46.0067 1131.94 45.46 1132.17 44.98C1132.4 44.5 1132.71 44.1 1133.11 43.78C1133.52 43.46 1134.01 43.22 1134.57 43.06C1135.14 42.8867 1135.77 42.8 1136.45 42.8C1137.5 42.8 1138.4 42.9933 1139.15 43.38C1139.91 43.7667 1140.55 44.3333 1141.07 45.08L1139.81 46C1139.42 45.4667 1138.96 45.0467 1138.41 44.74C1137.86 44.4333 1137.18 44.28 1136.37 44.28C1135.48 44.28 1134.77 44.4733 1134.25 44.86C1133.74 45.2333 1133.49 45.8 1133.49 46.56C1133.49 47.2267 1133.7 47.7333 1134.13 48.08C1134.57 48.4133 1135.23 48.68 1136.11 48.88L1137.25 49.14C1138.62 49.4467 1139.62 49.9133 1140.23 50.54C1140.84 51.1667 1141.15 52 1141.15 53.04C1141.15 53.68 1141.04 54.26 1140.81 54.78C1140.6 55.3 1140.28 55.74 1139.87 56.1C1139.46 56.46 1138.95 56.74 1138.35 56.94C1137.76 57.14 1137.1 57.24 1136.35 57.24ZM1147.77 57.24C1147.06 57.24 1146.42 57.1133 1145.85 56.86C1145.29 56.6067 1144.8 56.2467 1144.39 55.78C1143.99 55.3 1143.68 54.7333 1143.45 54.08C1143.24 53.4133 1143.13 52.6667 1143.13 51.84C1143.13 51.0267 1143.24 50.2867 1143.45 49.62C1143.68 48.9533 1143.99 48.3867 1144.39 47.92C1144.8 47.44 1145.29 47.0733 1145.85 46.82C1146.42 46.5667 1147.06 46.44 1147.77 46.44C1148.46 46.44 1149.08 46.5667 1149.63 46.82C1150.18 47.0733 1150.64 47.4267 1151.03 47.88C1151.42 48.32 1151.71 48.8467 1151.91 49.46C1152.12 50.0733 1152.23 50.7467 1152.23 51.48V52.24H1144.81V52.72C1144.81 53.16 1144.88 53.5733 1145.01 53.96C1145.16 54.3333 1145.36 54.66 1145.61 54.94C1145.88 55.22 1146.2 55.44 1146.57 55.6C1146.96 55.76 1147.39 55.84 1147.87 55.84C1148.52 55.84 1149.09 55.6867 1149.57 55.38C1150.06 55.0733 1150.44 54.6333 1150.71 54.06L1151.85 54.88C1151.52 55.5867 1151 56.16 1150.29 56.6C1149.58 57.0267 1148.74 57.24 1147.77 57.24ZM1147.77 47.78C1147.33 47.78 1146.93 47.86 1146.57 48.02C1146.21 48.1667 1145.9 48.38 1145.63 48.66C1145.38 48.94 1145.18 49.2733 1145.03 49.66C1144.88 50.0333 1144.81 50.4467 1144.81 50.9V51.04H1150.51V50.82C1150.51 49.9 1150.26 49.1667 1149.75 48.62C1149.26 48.06 1148.6 47.78 1147.77 47.78ZM1154.87 57V46.68H1156.47V48.58H1156.57C1156.75 48.0867 1157.09 47.6467 1157.57 47.26C1158.05 46.8733 1158.71 46.68 1159.55 46.68H1160.17V48.28H1159.23C1158.36 48.28 1157.68 48.4467 1157.19 48.78C1156.71 49.1 1156.47 49.5067 1156.47 50V57H1154.87ZM1164.69 57L1161.07 46.68H1162.67L1164.47 51.8L1165.59 55.32H1165.69L1166.81 51.8L1168.65 46.68H1170.19L1166.55 57H1164.69ZM1175.97 57.24C1175.27 57.24 1174.63 57.1133 1174.05 56.86C1173.49 56.6067 1173.01 56.2467 1172.59 55.78C1172.19 55.3 1171.88 54.7333 1171.65 54.08C1171.44 53.4133 1171.33 52.6667 1171.33 51.84C1171.33 51.0267 1171.44 50.2867 1171.65 49.62C1171.88 48.9533 1172.19 48.3867 1172.59 47.92C1173.01 47.44 1173.49 47.0733 1174.05 46.82C1174.63 46.5667 1175.27 46.44 1175.97 46.44C1176.67 46.44 1177.29 46.5667 1177.83 46.82C1178.38 47.0733 1178.85 47.4267 1179.23 47.88C1179.62 48.32 1179.91 48.8467 1180.11 49.46C1180.33 50.0733 1180.43 50.7467 1180.43 51.48V52.24H1173.01V52.72C1173.01 53.16 1173.08 53.5733 1173.21 53.96C1173.36 54.3333 1173.56 54.66 1173.81 54.94C1174.08 55.22 1174.4 55.44 1174.77 55.6C1175.16 55.76 1175.59 55.84 1176.07 55.84C1176.73 55.84 1177.29 55.6867 1177.77 55.38C1178.27 55.0733 1178.65 54.6333 1178.91 54.06L1180.05 54.88C1179.72 55.5867 1179.2 56.16 1178.49 56.6C1177.79 57.0267 1176.95 57.24 1175.97 57.24ZM1175.97 47.78C1175.53 47.78 1175.13 47.86 1174.77 48.02C1174.41 48.1667 1174.1 48.38 1173.83 48.66C1173.58 48.94 1173.38 49.2733 1173.23 49.66C1173.09 50.0333 1173.01 50.4467 1173.01 50.9V51.04H1178.71V50.82C1178.71 49.9 1178.46 49.1667 1177.95 48.62C1177.46 48.06 1176.8 47.78 1175.97 47.78ZM1183.07 57V46.68H1184.67V48.58H1184.77C1184.96 48.0867 1185.29 47.6467 1185.77 47.26C1186.25 46.8733 1186.91 46.68 1187.75 46.68H1188.37V48.28H1187.43C1186.56 48.28 1185.88 48.4467 1185.39 48.78C1184.91 49.1 1184.67 49.5067 1184.67 50V57H1183.07Z" fill="#1E1E1E"/>
<path d="M1336.34 57V51.48L1331.54 43.04H1333.46L1337.18 49.76H1337.24L1340.96 43.04H1342.88L1338.02 51.42V57H1336.34ZM1347.74 57.24C1347.05 57.24 1346.41 57.1133 1345.84 56.86C1345.27 56.6067 1344.77 56.2467 1344.36 55.78C1343.96 55.3 1343.65 54.7333 1343.42 54.08C1343.19 53.4133 1343.08 52.6667 1343.08 51.84C1343.08 51.0267 1343.19 50.2867 1343.42 49.62C1343.65 48.9533 1343.96 48.3867 1344.36 47.92C1344.77 47.44 1345.27 47.0733 1345.84 46.82C1346.41 46.5667 1347.05 46.44 1347.74 46.44C1348.43 46.44 1349.06 46.5667 1349.62 46.82C1350.19 47.0733 1350.69 47.44 1351.1 47.92C1351.51 48.3867 1351.83 48.9533 1352.06 49.62C1352.29 50.2867 1352.4 51.0267 1352.4 51.84C1352.4 52.6667 1352.29 53.4133 1352.06 54.08C1351.83 54.7333 1351.51 55.3 1351.1 55.78C1350.69 56.2467 1350.19 56.6067 1349.62 56.86C1349.06 57.1133 1348.43 57.24 1347.74 57.24ZM1347.74 55.82C1348.61 55.82 1349.31 55.5533 1349.86 55.02C1350.41 54.4867 1350.68 53.6733 1350.68 52.58V51.1C1350.68 50.0067 1350.41 49.1933 1349.86 48.66C1349.31 48.1267 1348.61 47.86 1347.74 47.86C1346.87 47.86 1346.17 48.1267 1345.62 48.66C1345.07 49.1933 1344.8 50.0067 1344.8 51.1V52.58C1344.8 53.6733 1345.07 54.4867 1345.62 55.02C1346.17 55.5533 1346.87 55.82 1347.74 55.82ZM1361.39 55.32H1361.31C1361.21 55.56 1361.07 55.8 1360.91 56.04C1360.77 56.2667 1360.58 56.4733 1360.35 56.66C1360.13 56.8333 1359.85 56.9733 1359.53 57.08C1359.21 57.1867 1358.84 57.24 1358.41 57.24C1357.35 57.24 1356.5 56.9 1355.87 56.22C1355.25 55.5267 1354.93 54.5533 1354.93 53.3V46.68H1356.53V53.02C1356.53 54.8733 1357.32 55.8 1358.89 55.8C1359.21 55.8 1359.52 55.76 1359.81 55.68C1360.12 55.6 1360.39 55.48 1360.61 55.32C1360.85 55.16 1361.04 54.96 1361.17 54.72C1361.32 54.4667 1361.39 54.1667 1361.39 53.82V46.68H1362.99V57H1361.39V55.32ZM1366.4 57V46.68H1368V48.58H1368.1C1368.29 48.0867 1368.62 47.6467 1369.1 47.26C1369.58 46.8733 1370.24 46.68 1371.08 46.68H1371.7V48.28H1370.76C1369.89 48.28 1369.21 48.4467 1368.72 48.78C1368.24 49.1 1368 49.5067 1368 50V57H1366.4ZM1387.37 57L1385.97 52.88H1380.33L1378.93 57H1377.23L1382.11 43.04H1384.25L1389.13 57H1387.37ZM1383.19 44.6H1383.09L1380.73 51.4H1385.55L1383.19 44.6ZM1391.44 57V43.04H1397C1398.26 43.04 1399.22 43.4 1399.88 44.12C1400.56 44.8267 1400.9 45.8 1400.9 47.04C1400.9 48.28 1400.56 49.26 1399.88 49.98C1399.22 50.6867 1398.26 51.04 1397 51.04H1393.12V57H1391.44ZM1393.12 49.56H1397C1397.67 49.56 1398.18 49.3867 1398.54 49.04C1398.92 48.6933 1399.1 48.2 1399.1 47.56V46.52C1399.1 45.88 1398.92 45.3867 1398.54 45.04C1398.18 44.6933 1397.67 44.52 1397 44.52H1393.12V49.56ZM1402.91 57V55.6H1404.87V44.44H1402.91V43.04H1408.51V44.44H1406.55V55.6H1408.51V57H1402.91Z" fill="#1E1E1E"/>
<path d="M76 98V884" stroke="#A7A6AF" stroke-dasharray="2 2"/>
<path d="M492 97V883" stroke="#A7A6AF" stroke-dasharray="2 2"/>
<path d="M1136 102V888" stroke="#A7A6AF" stroke-dasharray="2 2"/>
<path d="M1371 102V888" stroke="#A7A6AF" stroke-dasharray="2 2"/>
<path d="M462 215L457 212.113V217.887L462 215ZM76 215.5H457.5V214.5H76V215.5Z" fill="#1E1E1E"/>
<path d="M1114 266L1109 263.113V268.887L1114 266ZM494 266.5H1109.5V265.5H494V266.5Z" fill="#1E1E1E"/>
</svg>
