<svg width="1289" height="863" viewBox="0 0 1289 863" fill="none" xmlns="http://www.w3.org/2000/svg">
<rect x="-1" y="1" width="310" height="735" rx="11" transform="matrix(-1 0 0 1 310 69)" fill="#E1F8E1" stroke="#209B1D" stroke-width="2"/>
<rect x="495" y="116" width="319" height="140" rx="11" fill="#DAE8FC" stroke="#1661A6" stroke-width="2"/>
<rect x="495" y="626" width="319" height="140" rx="11" fill="#DAE8FC" stroke="#1661A6" stroke-width="2"/>
<rect x="495" y="371" width="319" height="140" rx="11" fill="#F5F5F5" stroke="#827E9B" stroke-width="2"/>
<rect x="915" y="116" width="319" height="140" rx="11" fill="#CCFFF3" stroke="#479381" stroke-width="2"/>
<rect x="915" y="626" width="319" height="140" rx="11" fill="#F8CCF1" stroke="#A92393" stroke-width="2"/>
<path d="M91.5414 428.872H101.873C103.961 428.872 105.593 429.46 106.769 430.636C107.969 431.812 108.569 433.384 108.569 435.352C108.569 436.288 108.437 437.08 108.173 437.728C107.909 438.376 107.573 438.916 107.165 439.348C106.757 439.756 106.313 440.068 105.833 440.284C105.353 440.476 104.909 440.608 104.501 440.68V440.896C104.957 440.92 105.461 441.04 106.013 441.256C106.589 441.472 107.129 441.82 107.633 442.3C108.137 442.756 108.557 443.356 108.893 444.1C109.253 444.82 109.433 445.696 109.433 446.728C109.433 447.76 109.265 448.72 108.929 449.608C108.617 450.496 108.173 451.264 107.597 451.912C107.021 452.56 106.337 453.076 105.545 453.46C104.753 453.82 103.889 454 102.953 454H91.5414V428.872ZM94.5654 451.336H102.017C103.313 451.336 104.333 451.012 105.077 450.364C105.821 449.692 106.193 448.72 106.193 447.448V446.224C106.193 444.952 105.821 443.992 105.077 443.344C104.333 442.672 103.313 442.336 102.017 442.336H94.5654V451.336ZM94.5654 439.744H101.513C102.713 439.744 103.649 439.444 104.321 438.844C104.993 438.244 105.329 437.38 105.329 436.252V435.028C105.329 433.9 104.993 433.036 104.321 432.436C103.649 431.836 102.713 431.536 101.513 431.536H94.5654V439.744ZM114.773 454V435.424H117.653V438.844H117.833C118.169 437.956 118.769 437.164 119.633 436.468C120.497 435.772 121.685 435.424 123.197 435.424H124.313V438.304H122.621C121.061 438.304 119.837 438.604 118.949 439.204C118.085 439.78 117.653 440.512 117.653 441.4V454H114.773ZM134.836 454.432C133.588 454.432 132.448 454.204 131.416 453.748C130.384 453.292 129.496 452.644 128.752 451.804C128.032 450.94 127.468 449.92 127.06 448.744C126.652 447.544 126.448 446.2 126.448 444.712C126.448 443.248 126.652 441.916 127.06 440.716C127.468 439.516 128.032 438.496 128.752 437.656C129.496 436.792 130.384 436.132 131.416 435.676C132.448 435.22 133.588 434.992 134.836 434.992C136.084 434.992 137.212 435.22 138.22 435.676C139.252 436.132 140.14 436.792 140.884 437.656C141.628 438.496 142.204 439.516 142.612 440.716C143.02 441.916 143.224 443.248 143.224 444.712C143.224 446.2 143.02 447.544 142.612 448.744C142.204 449.92 141.628 450.94 140.884 451.804C140.14 452.644 139.252 453.292 138.22 453.748C137.212 454.204 136.084 454.432 134.836 454.432ZM134.836 451.876C136.396 451.876 137.668 451.396 138.652 450.436C139.636 449.476 140.128 448.012 140.128 446.044V443.38C140.128 441.412 139.636 439.948 138.652 438.988C137.668 438.028 136.396 437.548 134.836 437.548C133.276 437.548 132.004 438.028 131.02 438.988C130.036 439.948 129.544 441.412 129.544 443.38V446.044C129.544 448.012 130.036 449.476 131.02 450.436C132.004 451.396 133.276 451.876 134.836 451.876ZM145.841 435.424H148.649L150.629 443.452L152.609 451.588H152.681L154.949 443.452L157.289 435.424H159.845L162.257 443.452L164.561 451.588H164.633L166.541 443.452L168.557 435.424H171.257L166.325 454H162.761L160.169 445.072L158.549 439.42H158.477L156.893 445.072L154.301 454H150.809L145.841 435.424ZM180.927 454.432C179.199 454.432 177.747 454.108 176.571 453.46C175.419 452.788 174.423 451.9 173.583 450.796L175.635 449.14C176.355 450.052 177.159 450.76 178.047 451.264C178.935 451.744 179.967 451.984 181.143 451.984C182.367 451.984 183.315 451.72 183.987 451.192C184.683 450.664 185.031 449.92 185.031 448.96C185.031 448.24 184.791 447.628 184.311 447.124C183.855 446.596 183.015 446.236 181.791 446.044L180.315 445.828C179.451 445.708 178.659 445.528 177.939 445.288C177.219 445.024 176.583 444.688 176.031 444.28C175.503 443.848 175.083 443.32 174.771 442.696C174.483 442.072 174.339 441.328 174.339 440.464C174.339 439.552 174.507 438.76 174.843 438.088C175.179 437.392 175.635 436.816 176.211 436.36C176.811 435.904 177.519 435.568 178.335 435.352C179.151 435.112 180.027 434.992 180.963 434.992C182.475 434.992 183.735 435.256 184.743 435.784C185.775 436.312 186.675 437.044 187.443 437.98L185.535 439.708C185.127 439.132 184.527 438.616 183.735 438.16C182.943 437.68 181.947 437.44 180.747 437.44C179.547 437.44 178.635 437.704 178.011 438.232C177.411 438.736 177.111 439.432 177.111 440.32C177.111 441.232 177.411 441.892 178.011 442.3C178.635 442.708 179.523 443.008 180.675 443.2L182.115 443.416C184.179 443.728 185.643 444.328 186.507 445.216C187.371 446.08 187.803 447.22 187.803 448.636C187.803 450.436 187.191 451.852 185.967 452.884C184.743 453.916 183.063 454.432 180.927 454.432ZM199.874 454.432C198.602 454.432 197.45 454.204 196.418 453.748C195.41 453.292 194.534 452.644 193.79 451.804C193.07 450.94 192.506 449.92 192.098 448.744C191.714 447.544 191.522 446.2 191.522 444.712C191.522 443.248 191.714 441.916 192.098 440.716C192.506 439.516 193.07 438.496 193.79 437.656C194.534 436.792 195.41 436.132 196.418 435.676C197.45 435.22 198.602 434.992 199.874 434.992C201.122 434.992 202.238 435.22 203.222 435.676C204.206 436.132 205.046 436.768 205.742 437.584C206.438 438.376 206.966 439.324 207.326 440.428C207.71 441.532 207.902 442.744 207.902 444.064V445.432H194.546V446.296C194.546 447.088 194.666 447.832 194.906 448.528C195.17 449.2 195.53 449.788 195.986 450.292C196.466 450.796 197.042 451.192 197.714 451.48C198.41 451.768 199.19 451.912 200.054 451.912C201.23 451.912 202.25 451.636 203.114 451.084C204.002 450.532 204.686 449.74 205.166 448.708L207.218 450.184C206.618 451.456 205.682 452.488 204.41 453.28C203.138 454.048 201.626 454.432 199.874 454.432ZM199.874 437.404C199.082 437.404 198.362 437.548 197.714 437.836C197.066 438.1 196.502 438.484 196.022 438.988C195.566 439.492 195.206 440.092 194.942 440.788C194.678 441.46 194.546 442.204 194.546 443.02V443.272H204.806V442.876C204.806 441.22 204.35 439.9 203.438 438.916C202.55 437.908 201.362 437.404 199.874 437.404ZM212.648 454V435.424H215.528V438.844H215.708C216.044 437.956 216.644 437.164 217.508 436.468C218.372 435.772 219.56 435.424 221.072 435.424H222.188V438.304H220.496C218.936 438.304 217.712 438.604 216.824 439.204C215.96 439.78 215.528 440.512 215.528 441.4V454H212.648Z" fill="black"/>
<path d="M578.731 705.328H578.623C578.311 706.504 577.543 707.488 576.319 708.28C575.119 709.048 573.559 709.432 571.639 709.432C570.103 709.432 568.687 709.156 567.391 708.604C566.119 708.028 565.027 707.2 564.115 706.12C563.203 705.016 562.483 703.66 561.955 702.052C561.451 700.42 561.199 698.548 561.199 696.436C561.199 694.348 561.451 692.5 561.955 690.892C562.459 689.26 563.179 687.904 564.115 686.824C565.051 685.72 566.179 684.88 567.499 684.304C568.819 683.728 570.283 683.44 571.891 683.44C574.147 683.44 576.031 683.944 577.543 684.952C579.055 685.96 580.219 687.292 581.035 688.948L578.551 690.46C577.975 689.116 577.111 688.06 575.959 687.292C574.831 686.524 573.475 686.14 571.891 686.14C570.787 686.14 569.779 686.344 568.867 686.752C567.955 687.136 567.163 687.688 566.491 688.408C565.843 689.128 565.339 689.992 564.979 691C564.619 692.008 564.439 693.136 564.439 694.384V698.452C564.439 699.7 564.619 700.84 564.979 701.872C565.339 702.88 565.843 703.744 566.491 704.464C567.163 705.184 567.979 705.748 568.939 706.156C569.899 706.54 570.979 706.732 572.179 706.732C573.043 706.732 573.859 706.624 574.627 706.408C575.419 706.168 576.103 705.82 576.679 705.364C577.279 704.908 577.747 704.344 578.083 703.672C578.419 702.976 578.587 702.16 578.587 701.224V698.74H573.043V696.076H581.539V709H578.731V705.328ZM600.703 709C599.623 709 598.843 708.712 598.363 708.136C597.907 707.56 597.619 706.84 597.499 705.976H597.319C596.911 707.128 596.239 707.992 595.303 708.568C594.367 709.144 593.251 709.432 591.955 709.432C589.987 709.432 588.451 708.928 587.347 707.92C586.267 706.912 585.727 705.544 585.727 703.816C585.727 702.064 586.363 700.72 587.635 699.784C588.931 698.848 590.935 698.38 593.647 698.38H597.319V696.544C597.319 695.224 596.959 694.216 596.239 693.52C595.519 692.824 594.415 692.476 592.927 692.476C591.799 692.476 590.851 692.728 590.083 693.232C589.339 693.736 588.715 694.408 588.211 695.248L586.483 693.628C586.987 692.62 587.791 691.768 588.895 691.072C589.999 690.352 591.391 689.992 593.071 689.992C595.327 689.992 597.079 690.544 598.327 691.648C599.575 692.752 600.199 694.288 600.199 696.256V706.48H602.323V709H600.703ZM592.423 706.984C593.143 706.984 593.803 706.9 594.403 706.732C595.003 706.564 595.519 706.324 595.951 706.012C596.383 705.7 596.719 705.34 596.959 704.932C597.199 704.524 597.319 704.08 597.319 703.6V700.54H593.503C591.847 700.54 590.635 700.78 589.867 701.26C589.123 701.74 588.751 702.436 588.751 703.348V704.104C588.751 705.016 589.075 705.724 589.723 706.228C590.395 706.732 591.295 706.984 592.423 706.984ZM610.537 709C609.529 709 608.761 708.724 608.233 708.172C607.729 707.596 607.477 706.852 607.477 705.94V692.944H604.417V690.424H606.145C606.769 690.424 607.189 690.304 607.405 690.064C607.645 689.8 607.765 689.356 607.765 688.732V685.276H610.357V690.424H614.425V692.944H610.357V706.48H614.137V709H610.537ZM625.898 709.432C624.626 709.432 623.474 709.204 622.442 708.748C621.434 708.292 620.558 707.644 619.814 706.804C619.094 705.94 618.53 704.92 618.122 703.744C617.738 702.544 617.546 701.2 617.546 699.712C617.546 698.248 617.738 696.916 618.122 695.716C618.53 694.516 619.094 693.496 619.814 692.656C620.558 691.792 621.434 691.132 622.442 690.676C623.474 690.22 624.626 689.992 625.898 689.992C627.146 689.992 628.262 690.22 629.246 690.676C630.23 691.132 631.07 691.768 631.766 692.584C632.462 693.376 632.99 694.324 633.35 695.428C633.734 696.532 633.926 697.744 633.926 699.064V700.432H620.57V701.296C620.57 702.088 620.69 702.832 620.93 703.528C621.194 704.2 621.554 704.788 622.01 705.292C622.49 705.796 623.066 706.192 623.738 706.48C624.434 706.768 625.214 706.912 626.078 706.912C627.254 706.912 628.274 706.636 629.138 706.084C630.026 705.532 630.71 704.74 631.19 703.708L633.242 705.184C632.642 706.456 631.706 707.488 630.434 708.28C629.162 709.048 627.65 709.432 625.898 709.432ZM625.898 692.404C625.106 692.404 624.386 692.548 623.738 692.836C623.09 693.1 622.526 693.484 622.046 693.988C621.59 694.492 621.23 695.092 620.966 695.788C620.702 696.46 620.57 697.204 620.57 698.02V698.272H630.83V697.876C630.83 696.22 630.374 694.9 629.462 693.916C628.574 692.908 627.386 692.404 625.898 692.404ZM645.547 696.652L641.983 700.612V709H638.959V683.872H641.983V697.228H642.091L645.691 692.872L653.287 683.872H656.995L647.635 694.636L657.643 709H653.899L645.547 696.652ZM667.558 709.432C666.286 709.432 665.134 709.204 664.102 708.748C663.094 708.292 662.218 707.644 661.474 706.804C660.754 705.94 660.19 704.92 659.782 703.744C659.398 702.544 659.206 701.2 659.206 699.712C659.206 698.248 659.398 696.916 659.782 695.716C660.19 694.516 660.754 693.496 661.474 692.656C662.218 691.792 663.094 691.132 664.102 690.676C665.134 690.22 666.286 689.992 667.558 689.992C668.806 689.992 669.922 690.22 670.906 690.676C671.89 691.132 672.73 691.768 673.426 692.584C674.122 693.376 674.65 694.324 675.01 695.428C675.394 696.532 675.586 697.744 675.586 699.064V700.432H662.23V701.296C662.23 702.088 662.35 702.832 662.59 703.528C662.854 704.2 663.214 704.788 663.67 705.292C664.15 705.796 664.726 706.192 665.398 706.48C666.094 706.768 666.874 706.912 667.738 706.912C668.914 706.912 669.934 706.636 670.798 706.084C671.686 705.532 672.37 704.74 672.85 703.708L674.902 705.184C674.302 706.456 673.366 707.488 672.094 708.28C670.822 709.048 669.31 709.432 667.558 709.432ZM667.558 692.404C666.766 692.404 666.046 692.548 665.398 692.836C664.75 693.1 664.186 693.484 663.706 693.988C663.25 694.492 662.89 695.092 662.626 695.788C662.362 696.46 662.23 697.204 662.23 698.02V698.272H672.49V697.876C672.49 696.22 672.034 694.9 671.122 693.916C670.234 692.908 669.046 692.404 667.558 692.404ZM687.315 709.432C686.043 709.432 684.891 709.204 683.859 708.748C682.851 708.292 681.975 707.644 681.231 706.804C680.511 705.94 679.947 704.92 679.539 703.744C679.155 702.544 678.963 701.2 678.963 699.712C678.963 698.248 679.155 696.916 679.539 695.716C679.947 694.516 680.511 693.496 681.231 692.656C681.975 691.792 682.851 691.132 683.859 690.676C684.891 690.22 686.043 689.992 687.315 689.992C688.563 689.992 689.679 690.22 690.663 690.676C691.647 691.132 692.487 691.768 693.183 692.584C693.879 693.376 694.407 694.324 694.767 695.428C695.151 696.532 695.343 697.744 695.343 699.064V700.432H681.987V701.296C681.987 702.088 682.107 702.832 682.347 703.528C682.611 704.2 682.971 704.788 683.427 705.292C683.907 705.796 684.483 706.192 685.155 706.48C685.851 706.768 686.631 706.912 687.495 706.912C688.671 706.912 689.691 706.636 690.555 706.084C691.443 705.532 692.127 704.74 692.607 703.708L694.659 705.184C694.059 706.456 693.123 707.488 691.851 708.28C690.579 709.048 689.067 709.432 687.315 709.432ZM687.315 692.404C686.523 692.404 685.803 692.548 685.155 692.836C684.507 693.1 683.943 693.484 683.463 693.988C683.007 694.492 682.647 695.092 682.383 695.788C682.119 696.46 681.987 697.204 681.987 698.02V698.272H692.247V697.876C692.247 696.22 691.791 694.9 690.879 693.916C689.991 692.908 688.803 692.404 687.315 692.404ZM700.089 690.424H702.969V693.448H703.113C703.593 692.272 704.289 691.408 705.201 690.856C706.137 690.28 707.253 689.992 708.549 689.992C709.701 689.992 710.745 690.22 711.681 690.676C712.617 691.132 713.409 691.78 714.057 692.62C714.729 693.46 715.233 694.48 715.569 695.68C715.929 696.88 716.109 698.224 716.109 699.712C716.109 701.2 715.929 702.544 715.569 703.744C715.233 704.944 714.729 705.964 714.057 706.804C713.409 707.644 712.617 708.292 711.681 708.748C710.745 709.204 709.701 709.432 708.549 709.432C706.029 709.432 704.217 708.28 703.113 705.976H702.969V716.2H700.089V690.424ZM707.757 706.84C709.389 706.84 710.673 706.336 711.609 705.328C712.545 704.296 713.013 702.952 713.013 701.296V698.128C713.013 696.472 712.545 695.14 711.609 694.132C710.673 693.1 709.389 692.584 707.757 692.584C707.109 692.584 706.485 692.68 705.885 692.872C705.309 693.04 704.805 693.28 704.373 693.592C703.941 693.904 703.593 694.288 703.329 694.744C703.089 695.176 702.969 695.644 702.969 696.148V703.06C702.969 703.66 703.089 704.2 703.329 704.68C703.593 705.136 703.941 705.532 704.373 705.868C704.805 706.18 705.309 706.42 705.885 706.588C706.485 706.756 707.109 706.84 707.757 706.84ZM727.956 709.432C726.684 709.432 725.532 709.204 724.5 708.748C723.492 708.292 722.616 707.644 721.872 706.804C721.152 705.94 720.588 704.92 720.18 703.744C719.796 702.544 719.604 701.2 719.604 699.712C719.604 698.248 719.796 696.916 720.18 695.716C720.588 694.516 721.152 693.496 721.872 692.656C722.616 691.792 723.492 691.132 724.5 690.676C725.532 690.22 726.684 689.992 727.956 689.992C729.204 689.992 730.32 690.22 731.304 690.676C732.288 691.132 733.128 691.768 733.824 692.584C734.52 693.376 735.048 694.324 735.408 695.428C735.792 696.532 735.984 697.744 735.984 699.064V700.432H722.628V701.296C722.628 702.088 722.748 702.832 722.988 703.528C723.252 704.2 723.612 704.788 724.068 705.292C724.548 705.796 725.124 706.192 725.796 706.48C726.492 706.768 727.272 706.912 728.136 706.912C729.312 706.912 730.332 706.636 731.196 706.084C732.084 705.532 732.768 704.74 733.248 703.708L735.3 705.184C734.7 706.456 733.764 707.488 732.492 708.28C731.22 709.048 729.708 709.432 727.956 709.432ZM727.956 692.404C727.164 692.404 726.444 692.548 725.796 692.836C725.148 693.1 724.584 693.484 724.104 693.988C723.648 694.492 723.288 695.092 723.024 695.788C722.76 696.46 722.628 697.204 722.628 698.02V698.272H732.888V697.876C732.888 696.22 732.432 694.9 731.52 693.916C730.632 692.908 729.444 692.404 727.956 692.404ZM740.73 709V690.424H743.61V693.844H743.79C744.126 692.956 744.726 692.164 745.59 691.468C746.454 690.772 747.642 690.424 749.154 690.424H750.27V693.304H748.578C747.018 693.304 745.794 693.604 744.906 694.204C744.042 694.78 743.61 695.512 743.61 696.4V709H740.73Z" fill="black"/>
<path d="M578.731 195.328H578.623C578.311 196.504 577.543 197.488 576.319 198.28C575.119 199.048 573.559 199.432 571.639 199.432C570.103 199.432 568.687 199.156 567.391 198.604C566.119 198.028 565.027 197.2 564.115 196.12C563.203 195.016 562.483 193.66 561.955 192.052C561.451 190.42 561.199 188.548 561.199 186.436C561.199 184.348 561.451 182.5 561.955 180.892C562.459 179.26 563.179 177.904 564.115 176.824C565.051 175.72 566.179 174.88 567.499 174.304C568.819 173.728 570.283 173.44 571.891 173.44C574.147 173.44 576.031 173.944 577.543 174.952C579.055 175.96 580.219 177.292 581.035 178.948L578.551 180.46C577.975 179.116 577.111 178.06 575.959 177.292C574.831 176.524 573.475 176.14 571.891 176.14C570.787 176.14 569.779 176.344 568.867 176.752C567.955 177.136 567.163 177.688 566.491 178.408C565.843 179.128 565.339 179.992 564.979 181C564.619 182.008 564.439 183.136 564.439 184.384V188.452C564.439 189.7 564.619 190.84 564.979 191.872C565.339 192.88 565.843 193.744 566.491 194.464C567.163 195.184 567.979 195.748 568.939 196.156C569.899 196.54 570.979 196.732 572.179 196.732C573.043 196.732 573.859 196.624 574.627 196.408C575.419 196.168 576.103 195.82 576.679 195.364C577.279 194.908 577.747 194.344 578.083 193.672C578.419 192.976 578.587 192.16 578.587 191.224V188.74H573.043V186.076H581.539V199H578.731V195.328ZM600.703 199C599.623 199 598.843 198.712 598.363 198.136C597.907 197.56 597.619 196.84 597.499 195.976H597.319C596.911 197.128 596.239 197.992 595.303 198.568C594.367 199.144 593.251 199.432 591.955 199.432C589.987 199.432 588.451 198.928 587.347 197.92C586.267 196.912 585.727 195.544 585.727 193.816C585.727 192.064 586.363 190.72 587.635 189.784C588.931 188.848 590.935 188.38 593.647 188.38H597.319V186.544C597.319 185.224 596.959 184.216 596.239 183.52C595.519 182.824 594.415 182.476 592.927 182.476C591.799 182.476 590.851 182.728 590.083 183.232C589.339 183.736 588.715 184.408 588.211 185.248L586.483 183.628C586.987 182.62 587.791 181.768 588.895 181.072C589.999 180.352 591.391 179.992 593.071 179.992C595.327 179.992 597.079 180.544 598.327 181.648C599.575 182.752 600.199 184.288 600.199 186.256V196.48H602.323V199H600.703ZM592.423 196.984C593.143 196.984 593.803 196.9 594.403 196.732C595.003 196.564 595.519 196.324 595.951 196.012C596.383 195.7 596.719 195.34 596.959 194.932C597.199 194.524 597.319 194.08 597.319 193.6V190.54H593.503C591.847 190.54 590.635 190.78 589.867 191.26C589.123 191.74 588.751 192.436 588.751 193.348V194.104C588.751 195.016 589.075 195.724 589.723 196.228C590.395 196.732 591.295 196.984 592.423 196.984ZM610.537 199C609.529 199 608.761 198.724 608.233 198.172C607.729 197.596 607.477 196.852 607.477 195.94V182.944H604.417V180.424H606.145C606.769 180.424 607.189 180.304 607.405 180.064C607.645 179.8 607.765 179.356 607.765 178.732V175.276H610.357V180.424H614.425V182.944H610.357V196.48H614.137V199H610.537ZM625.898 199.432C624.626 199.432 623.474 199.204 622.442 198.748C621.434 198.292 620.558 197.644 619.814 196.804C619.094 195.94 618.53 194.92 618.122 193.744C617.738 192.544 617.546 191.2 617.546 189.712C617.546 188.248 617.738 186.916 618.122 185.716C618.53 184.516 619.094 183.496 619.814 182.656C620.558 181.792 621.434 181.132 622.442 180.676C623.474 180.22 624.626 179.992 625.898 179.992C627.146 179.992 628.262 180.22 629.246 180.676C630.23 181.132 631.07 181.768 631.766 182.584C632.462 183.376 632.99 184.324 633.35 185.428C633.734 186.532 633.926 187.744 633.926 189.064V190.432H620.57V191.296C620.57 192.088 620.69 192.832 620.93 193.528C621.194 194.2 621.554 194.788 622.01 195.292C622.49 195.796 623.066 196.192 623.738 196.48C624.434 196.768 625.214 196.912 626.078 196.912C627.254 196.912 628.274 196.636 629.138 196.084C630.026 195.532 630.71 194.74 631.19 193.708L633.242 195.184C632.642 196.456 631.706 197.488 630.434 198.28C629.162 199.048 627.65 199.432 625.898 199.432ZM625.898 182.404C625.106 182.404 624.386 182.548 623.738 182.836C623.09 183.1 622.526 183.484 622.046 183.988C621.59 184.492 621.23 185.092 620.966 185.788C620.702 186.46 620.57 187.204 620.57 188.02V188.272H630.83V187.876C630.83 186.22 630.374 184.9 629.462 183.916C628.574 182.908 627.386 182.404 625.898 182.404ZM645.547 186.652L641.983 190.612V199H638.959V173.872H641.983V187.228H642.091L645.691 182.872L653.287 173.872H656.995L647.635 184.636L657.643 199H653.899L645.547 186.652ZM667.558 199.432C666.286 199.432 665.134 199.204 664.102 198.748C663.094 198.292 662.218 197.644 661.474 196.804C660.754 195.94 660.19 194.92 659.782 193.744C659.398 192.544 659.206 191.2 659.206 189.712C659.206 188.248 659.398 186.916 659.782 185.716C660.19 184.516 660.754 183.496 661.474 182.656C662.218 181.792 663.094 181.132 664.102 180.676C665.134 180.22 666.286 179.992 667.558 179.992C668.806 179.992 669.922 180.22 670.906 180.676C671.89 181.132 672.73 181.768 673.426 182.584C674.122 183.376 674.65 184.324 675.01 185.428C675.394 186.532 675.586 187.744 675.586 189.064V190.432H662.23V191.296C662.23 192.088 662.35 192.832 662.59 193.528C662.854 194.2 663.214 194.788 663.67 195.292C664.15 195.796 664.726 196.192 665.398 196.48C666.094 196.768 666.874 196.912 667.738 196.912C668.914 196.912 669.934 196.636 670.798 196.084C671.686 195.532 672.37 194.74 672.85 193.708L674.902 195.184C674.302 196.456 673.366 197.488 672.094 198.28C670.822 199.048 669.31 199.432 667.558 199.432ZM667.558 182.404C666.766 182.404 666.046 182.548 665.398 182.836C664.75 183.1 664.186 183.484 663.706 183.988C663.25 184.492 662.89 185.092 662.626 185.788C662.362 186.46 662.23 187.204 662.23 188.02V188.272H672.49V187.876C672.49 186.22 672.034 184.9 671.122 183.916C670.234 182.908 669.046 182.404 667.558 182.404ZM687.315 199.432C686.043 199.432 684.891 199.204 683.859 198.748C682.851 198.292 681.975 197.644 681.231 196.804C680.511 195.94 679.947 194.92 679.539 193.744C679.155 192.544 678.963 191.2 678.963 189.712C678.963 188.248 679.155 186.916 679.539 185.716C679.947 184.516 680.511 183.496 681.231 182.656C681.975 181.792 682.851 181.132 683.859 180.676C684.891 180.22 686.043 179.992 687.315 179.992C688.563 179.992 689.679 180.22 690.663 180.676C691.647 181.132 692.487 181.768 693.183 182.584C693.879 183.376 694.407 184.324 694.767 185.428C695.151 186.532 695.343 187.744 695.343 189.064V190.432H681.987V191.296C681.987 192.088 682.107 192.832 682.347 193.528C682.611 194.2 682.971 194.788 683.427 195.292C683.907 195.796 684.483 196.192 685.155 196.48C685.851 196.768 686.631 196.912 687.495 196.912C688.671 196.912 689.691 196.636 690.555 196.084C691.443 195.532 692.127 194.74 692.607 193.708L694.659 195.184C694.059 196.456 693.123 197.488 691.851 198.28C690.579 199.048 689.067 199.432 687.315 199.432ZM687.315 182.404C686.523 182.404 685.803 182.548 685.155 182.836C684.507 183.1 683.943 183.484 683.463 183.988C683.007 184.492 682.647 185.092 682.383 185.788C682.119 186.46 681.987 187.204 681.987 188.02V188.272H692.247V187.876C692.247 186.22 691.791 184.9 690.879 183.916C689.991 182.908 688.803 182.404 687.315 182.404ZM700.089 180.424H702.969V183.448H703.113C703.593 182.272 704.289 181.408 705.201 180.856C706.137 180.28 707.253 179.992 708.549 179.992C709.701 179.992 710.745 180.22 711.681 180.676C712.617 181.132 713.409 181.78 714.057 182.62C714.729 183.46 715.233 184.48 715.569 185.68C715.929 186.88 716.109 188.224 716.109 189.712C716.109 191.2 715.929 192.544 715.569 193.744C715.233 194.944 714.729 195.964 714.057 196.804C713.409 197.644 712.617 198.292 711.681 198.748C710.745 199.204 709.701 199.432 708.549 199.432C706.029 199.432 704.217 198.28 703.113 195.976H702.969V206.2H700.089V180.424ZM707.757 196.84C709.389 196.84 710.673 196.336 711.609 195.328C712.545 194.296 713.013 192.952 713.013 191.296V188.128C713.013 186.472 712.545 185.14 711.609 184.132C710.673 183.1 709.389 182.584 707.757 182.584C707.109 182.584 706.485 182.68 705.885 182.872C705.309 183.04 704.805 183.28 704.373 183.592C703.941 183.904 703.593 184.288 703.329 184.744C703.089 185.176 702.969 185.644 702.969 186.148V193.06C702.969 193.66 703.089 194.2 703.329 194.68C703.593 195.136 703.941 195.532 704.373 195.868C704.805 196.18 705.309 196.42 705.885 196.588C706.485 196.756 707.109 196.84 707.757 196.84ZM727.956 199.432C726.684 199.432 725.532 199.204 724.5 198.748C723.492 198.292 722.616 197.644 721.872 196.804C721.152 195.94 720.588 194.92 720.18 193.744C719.796 192.544 719.604 191.2 719.604 189.712C719.604 188.248 719.796 186.916 720.18 185.716C720.588 184.516 721.152 183.496 721.872 182.656C722.616 181.792 723.492 181.132 724.5 180.676C725.532 180.22 726.684 179.992 727.956 179.992C729.204 179.992 730.32 180.22 731.304 180.676C732.288 181.132 733.128 181.768 733.824 182.584C734.52 183.376 735.048 184.324 735.408 185.428C735.792 186.532 735.984 187.744 735.984 189.064V190.432H722.628V191.296C722.628 192.088 722.748 192.832 722.988 193.528C723.252 194.2 723.612 194.788 724.068 195.292C724.548 195.796 725.124 196.192 725.796 196.48C726.492 196.768 727.272 196.912 728.136 196.912C729.312 196.912 730.332 196.636 731.196 196.084C732.084 195.532 732.768 194.74 733.248 193.708L735.3 195.184C734.7 196.456 733.764 197.488 732.492 198.28C731.22 199.048 729.708 199.432 727.956 199.432ZM727.956 182.404C727.164 182.404 726.444 182.548 725.796 182.836C725.148 183.1 724.584 183.484 724.104 183.988C723.648 184.492 723.288 185.092 723.024 185.788C722.76 186.46 722.628 187.204 722.628 188.02V188.272H732.888V187.876C732.888 186.22 732.432 184.9 731.52 183.916C730.632 182.908 729.444 182.404 727.956 182.404ZM740.73 199V180.424H743.61V183.844H743.79C744.126 182.956 744.726 182.164 745.59 181.468C746.454 180.772 747.642 180.424 749.154 180.424H750.27V183.304H748.578C747.018 183.304 745.794 183.604 744.906 184.204C744.042 184.78 743.61 185.512 743.61 186.4V199H740.73Z" fill="black"/>
<path d="M581.395 441.652L577.831 445.612V454H574.807V428.872H577.831V442.228H577.939L581.539 437.872L589.135 428.872H592.843L583.483 439.636L593.491 454H589.747L581.395 441.652ZM603.405 454.432C602.133 454.432 600.981 454.204 599.949 453.748C598.941 453.292 598.065 452.644 597.321 451.804C596.601 450.94 596.037 449.92 595.629 448.744C595.245 447.544 595.053 446.2 595.053 444.712C595.053 443.248 595.245 441.916 595.629 440.716C596.037 439.516 596.601 438.496 597.321 437.656C598.065 436.792 598.941 436.132 599.949 435.676C600.981 435.22 602.133 434.992 603.405 434.992C604.653 434.992 605.769 435.22 606.753 435.676C607.737 436.132 608.577 436.768 609.273 437.584C609.969 438.376 610.497 439.324 610.857 440.428C611.241 441.532 611.433 442.744 611.433 444.064V445.432H598.077V446.296C598.077 447.088 598.197 447.832 598.437 448.528C598.701 449.2 599.061 449.788 599.517 450.292C599.997 450.796 600.573 451.192 601.245 451.48C601.941 451.768 602.721 451.912 603.585 451.912C604.761 451.912 605.781 451.636 606.645 451.084C607.533 450.532 608.217 449.74 608.697 448.708L610.749 450.184C610.149 451.456 609.213 452.488 607.941 453.28C606.669 454.048 605.157 454.432 603.405 454.432ZM603.405 437.404C602.613 437.404 601.893 437.548 601.245 437.836C600.597 438.1 600.033 438.484 599.553 438.988C599.097 439.492 598.737 440.092 598.473 440.788C598.209 441.46 598.077 442.204 598.077 443.02V443.272H608.337V442.876C608.337 441.22 607.881 439.9 606.969 438.916C606.081 437.908 604.893 437.404 603.405 437.404ZM627.451 435.424H630.295L621.979 458.32C621.763 458.872 621.547 459.328 621.331 459.688C621.115 460.072 620.851 460.372 620.539 460.588C620.227 460.804 619.831 460.96 619.351 461.056C618.895 461.152 618.331 461.2 617.659 461.2H616.183V458.68H619.099L620.503 454.72L613.555 435.424H616.435L620.899 448.06L621.763 451.084H621.943L622.951 448.06L627.451 435.424ZM643.112 454.432C639.92 454.432 637.436 453.352 635.66 451.192C633.884 449.008 632.996 445.804 632.996 441.58C632.996 437.356 633.884 434.116 635.66 431.86C637.436 429.58 639.92 428.44 643.112 428.44C645.224 428.44 646.988 428.92 648.404 429.88C649.844 430.84 650.96 432.196 651.752 433.948L649.304 435.424C648.8 434.128 648.032 433.096 647 432.328C645.968 431.536 644.672 431.14 643.112 431.14C642.032 431.14 641.06 431.344 640.196 431.752C639.356 432.16 638.636 432.748 638.036 433.516C637.46 434.26 637.016 435.16 636.704 436.216C636.392 437.248 636.236 438.412 636.236 439.708V443.452C636.236 446.044 636.836 448.072 638.036 449.536C639.236 451 640.928 451.732 643.112 451.732C644.72 451.732 646.064 451.324 647.144 450.508C648.224 449.668 649.016 448.564 649.52 447.196L651.932 448.708C651.14 450.484 650 451.888 648.512 452.92C647.024 453.928 645.224 454.432 643.112 454.432ZM659.388 454C658.38 454 657.612 453.724 657.084 453.172C656.58 452.596 656.328 451.876 656.328 451.012V427.36H659.208V451.48H661.944V454H659.388ZM673.156 454.432C671.908 454.432 670.768 454.204 669.736 453.748C668.704 453.292 667.816 452.644 667.072 451.804C666.352 450.94 665.788 449.92 665.38 448.744C664.972 447.544 664.768 446.2 664.768 444.712C664.768 443.248 664.972 441.916 665.38 440.716C665.788 439.516 666.352 438.496 667.072 437.656C667.816 436.792 668.704 436.132 669.736 435.676C670.768 435.22 671.908 434.992 673.156 434.992C674.404 434.992 675.532 435.22 676.54 435.676C677.572 436.132 678.46 436.792 679.204 437.656C679.948 438.496 680.524 439.516 680.932 440.716C681.34 441.916 681.544 443.248 681.544 444.712C681.544 446.2 681.34 447.544 680.932 448.744C680.524 449.92 679.948 450.94 679.204 451.804C678.46 452.644 677.572 453.292 676.54 453.748C675.532 454.204 674.404 454.432 673.156 454.432ZM673.156 451.876C674.716 451.876 675.988 451.396 676.972 450.436C677.956 449.476 678.448 448.012 678.448 446.044V443.38C678.448 441.412 677.956 439.948 676.972 438.988C675.988 438.028 674.716 437.548 673.156 437.548C671.596 437.548 670.324 438.028 669.34 438.988C668.356 439.948 667.864 441.412 667.864 443.38V446.044C667.864 448.012 668.356 449.476 669.34 450.436C670.324 451.396 671.596 451.876 673.156 451.876ZM699.781 454C698.701 454 697.921 453.712 697.441 453.136C696.985 452.56 696.697 451.84 696.577 450.976H696.397C695.989 452.128 695.317 452.992 694.381 453.568C693.445 454.144 692.329 454.432 691.033 454.432C689.065 454.432 687.529 453.928 686.425 452.92C685.345 451.912 684.805 450.544 684.805 448.816C684.805 447.064 685.441 445.72 686.713 444.784C688.009 443.848 690.013 443.38 692.725 443.38H696.397V441.544C696.397 440.224 696.037 439.216 695.317 438.52C694.597 437.824 693.493 437.476 692.005 437.476C690.877 437.476 689.929 437.728 689.161 438.232C688.417 438.736 687.793 439.408 687.289 440.248L685.561 438.628C686.065 437.62 686.869 436.768 687.973 436.072C689.077 435.352 690.469 434.992 692.149 434.992C694.405 434.992 696.157 435.544 697.405 436.648C698.653 437.752 699.277 439.288 699.277 441.256V451.48H701.401V454H699.781ZM691.501 451.984C692.221 451.984 692.881 451.9 693.481 451.732C694.081 451.564 694.597 451.324 695.029 451.012C695.461 450.7 695.797 450.34 696.037 449.932C696.277 449.524 696.397 449.08 696.397 448.6V445.54H692.581C690.925 445.54 689.713 445.78 688.945 446.26C688.201 446.74 687.829 447.436 687.829 448.348V449.104C687.829 450.016 688.153 450.724 688.801 451.228C689.473 451.732 690.373 451.984 691.501 451.984ZM712.423 454.432C711.127 454.432 709.963 454.204 708.931 453.748C707.899 453.292 707.023 452.644 706.303 451.804C705.607 450.964 705.067 449.944 704.683 448.744C704.323 447.544 704.143 446.2 704.143 444.712C704.143 443.224 704.323 441.88 704.683 440.68C705.067 439.48 705.607 438.46 706.303 437.62C707.023 436.78 707.899 436.132 708.931 435.676C709.963 435.22 711.127 434.992 712.423 434.992C714.271 434.992 715.747 435.4 716.851 436.216C717.979 437.008 718.819 438.052 719.371 439.348L716.959 440.572C716.623 439.612 716.071 438.868 715.303 438.34C714.535 437.812 713.575 437.548 712.423 437.548C711.559 437.548 710.803 437.692 710.155 437.98C709.507 438.244 708.967 438.628 708.535 439.132C708.103 439.612 707.779 440.2 707.563 440.896C707.347 441.568 707.239 442.312 707.239 443.128V446.296C707.239 447.928 707.671 449.272 708.535 450.328C709.423 451.36 710.719 451.876 712.423 451.876C714.751 451.876 716.431 450.796 717.463 448.636L719.551 450.04C718.951 451.384 718.051 452.452 716.851 453.244C715.675 454.036 714.199 454.432 712.423 454.432ZM723.617 427.36H726.497V444.244H726.641L729.485 441.076L734.741 435.424H738.233L731.357 442.768L738.917 454H735.425L729.269 444.532L726.497 447.376V454H723.617V427.36Z" fill="black"/>
<path d="M447.467 827.872H457.799C459.887 827.872 461.519 828.46 462.695 829.636C463.895 830.812 464.495 832.384 464.495 834.352C464.495 835.288 464.363 836.08 464.099 836.728C463.835 837.376 463.499 837.916 463.091 838.348C462.683 838.756 462.239 839.068 461.759 839.284C461.279 839.476 460.835 839.608 460.427 839.68V839.896C460.883 839.92 461.387 840.04 461.939 840.256C462.515 840.472 463.055 840.82 463.559 841.3C464.063 841.756 464.483 842.356 464.819 843.1C465.179 843.82 465.359 844.696 465.359 845.728C465.359 846.76 465.191 847.72 464.855 848.608C464.543 849.496 464.099 850.264 463.523 850.912C462.947 851.56 462.263 852.076 461.471 852.46C460.679 852.82 459.815 853 458.879 853H447.467V827.872ZM450.491 850.336H457.943C459.239 850.336 460.259 850.012 461.003 849.364C461.747 848.692 462.119 847.72 462.119 846.448V845.224C462.119 843.952 461.747 842.992 461.003 842.344C460.259 841.672 459.239 841.336 457.943 841.336H450.491V850.336ZM450.491 838.744H457.439C458.639 838.744 459.575 838.444 460.247 837.844C460.919 837.244 461.255 836.38 461.255 835.252V834.028C461.255 832.9 460.919 832.036 460.247 831.436C459.575 830.836 458.639 830.536 457.439 830.536H450.491V838.744ZM484.199 853C483.119 853 482.339 852.712 481.859 852.136C481.403 851.56 481.115 850.84 480.995 849.976H480.815C480.407 851.128 479.735 851.992 478.799 852.568C477.863 853.144 476.747 853.432 475.451 853.432C473.483 853.432 471.947 852.928 470.843 851.92C469.763 850.912 469.223 849.544 469.223 847.816C469.223 846.064 469.859 844.72 471.131 843.784C472.427 842.848 474.431 842.38 477.143 842.38H480.815V840.544C480.815 839.224 480.455 838.216 479.735 837.52C479.015 836.824 477.911 836.476 476.423 836.476C475.295 836.476 474.347 836.728 473.579 837.232C472.835 837.736 472.211 838.408 471.707 839.248L469.979 837.628C470.483 836.62 471.287 835.768 472.391 835.072C473.495 834.352 474.887 833.992 476.567 833.992C478.823 833.992 480.575 834.544 481.823 835.648C483.071 836.752 483.695 838.288 483.695 840.256V850.48H485.819V853H484.199ZM475.919 850.984C476.639 850.984 477.299 850.9 477.899 850.732C478.499 850.564 479.015 850.324 479.447 850.012C479.879 849.7 480.215 849.34 480.455 848.932C480.695 848.524 480.815 848.08 480.815 847.6V844.54H476.999C475.343 844.54 474.131 844.78 473.363 845.26C472.619 845.74 472.247 846.436 472.247 847.348V848.104C472.247 849.016 472.571 849.724 473.219 850.228C473.891 850.732 474.791 850.984 475.919 850.984ZM496.841 853.432C495.545 853.432 494.381 853.204 493.349 852.748C492.317 852.292 491.441 851.644 490.721 850.804C490.025 849.964 489.485 848.944 489.101 847.744C488.741 846.544 488.561 845.2 488.561 843.712C488.561 842.224 488.741 840.88 489.101 839.68C489.485 838.48 490.025 837.46 490.721 836.62C491.441 835.78 492.317 835.132 493.349 834.676C494.381 834.22 495.545 833.992 496.841 833.992C498.689 833.992 500.165 834.4 501.269 835.216C502.397 836.008 503.237 837.052 503.789 838.348L501.377 839.572C501.041 838.612 500.489 837.868 499.721 837.34C498.953 836.812 497.993 836.548 496.841 836.548C495.977 836.548 495.221 836.692 494.573 836.98C493.925 837.244 493.385 837.628 492.953 838.132C492.521 838.612 492.197 839.2 491.981 839.896C491.765 840.568 491.657 841.312 491.657 842.128V845.296C491.657 846.928 492.089 848.272 492.953 849.328C493.841 850.36 495.137 850.876 496.841 850.876C499.169 850.876 500.849 849.796 501.881 847.636L503.969 849.04C503.369 850.384 502.469 851.452 501.269 852.244C500.093 853.036 498.617 853.432 496.841 853.432ZM508.035 826.36H510.915V843.244H511.059L513.903 840.076L519.159 834.424H522.651L515.775 841.768L523.335 853H519.843L513.687 843.532L510.915 846.376V853H508.035V826.36ZM533.405 853.432C532.133 853.432 530.981 853.204 529.949 852.748C528.941 852.292 528.065 851.644 527.321 850.804C526.601 849.94 526.037 848.92 525.629 847.744C525.245 846.544 525.053 845.2 525.053 843.712C525.053 842.248 525.245 840.916 525.629 839.716C526.037 838.516 526.601 837.496 527.321 836.656C528.065 835.792 528.941 835.132 529.949 834.676C530.981 834.22 532.133 833.992 533.405 833.992C534.653 833.992 535.769 834.22 536.753 834.676C537.737 835.132 538.577 835.768 539.273 836.584C539.969 837.376 540.497 838.324 540.857 839.428C541.241 840.532 541.433 841.744 541.433 843.064V844.432H528.077V845.296C528.077 846.088 528.197 846.832 528.437 847.528C528.701 848.2 529.061 848.788 529.517 849.292C529.997 849.796 530.573 850.192 531.245 850.48C531.941 850.768 532.721 850.912 533.585 850.912C534.761 850.912 535.781 850.636 536.645 850.084C537.533 849.532 538.217 848.74 538.697 847.708L540.749 849.184C540.149 850.456 539.213 851.488 537.941 852.28C536.669 853.048 535.157 853.432 533.405 853.432ZM533.405 836.404C532.613 836.404 531.893 836.548 531.245 836.836C530.597 837.1 530.033 837.484 529.553 837.988C529.097 838.492 528.737 839.092 528.473 839.788C528.209 840.46 528.077 841.204 528.077 842.02V842.272H538.337V841.876C538.337 840.22 537.881 838.9 536.969 837.916C536.081 836.908 534.893 836.404 533.405 836.404ZM546.179 853V834.424H549.059V837.448H549.203C549.659 836.392 550.295 835.552 551.111 834.928C551.951 834.304 553.067 833.992 554.459 833.992C556.379 833.992 557.891 834.616 558.995 835.864C560.123 837.088 560.687 838.828 560.687 841.084V853H557.807V841.588C557.807 838.252 556.403 836.584 553.595 836.584C553.019 836.584 552.455 836.656 551.903 836.8C551.375 836.944 550.895 837.16 550.463 837.448C550.031 837.736 549.683 838.108 549.419 838.564C549.179 838.996 549.059 839.512 549.059 840.112V853H546.179ZM578.52 849.976H578.376C577.248 852.28 575.436 853.432 572.94 853.432C571.788 853.432 570.744 853.204 569.808 852.748C568.872 852.292 568.068 851.644 567.396 850.804C566.748 849.964 566.244 848.944 565.884 847.744C565.548 846.544 565.38 845.2 565.38 843.712C565.38 842.224 565.548 840.88 565.884 839.68C566.244 838.48 566.748 837.46 567.396 836.62C568.068 835.78 568.872 835.132 569.808 834.676C570.744 834.22 571.788 833.992 572.94 833.992C574.236 833.992 575.34 834.28 576.252 834.856C577.188 835.408 577.896 836.272 578.376 837.448H578.52V826.36H581.4V853H578.52V849.976ZM573.732 850.84C574.38 850.84 574.992 850.756 575.568 850.588C576.168 850.42 576.684 850.18 577.116 849.868C577.548 849.532 577.884 849.136 578.124 848.68C578.388 848.2 578.52 847.66 578.52 847.06V840.148C578.52 839.644 578.388 839.176 578.124 838.744C577.884 838.288 577.548 837.904 577.116 837.592C576.684 837.28 576.168 837.04 575.568 836.872C574.992 836.68 574.38 836.584 573.732 836.584C572.1 836.584 570.816 837.1 569.88 838.132C568.944 839.14 568.476 840.472 568.476 842.128V845.296C568.476 846.952 568.944 848.296 569.88 849.328C570.816 850.336 572.1 850.84 573.732 850.84ZM596.031 834.424H598.911V837.448H599.055C599.535 836.272 600.231 835.408 601.143 834.856C602.079 834.28 603.195 833.992 604.491 833.992C605.643 833.992 606.687 834.22 607.623 834.676C608.559 835.132 609.351 835.78 609.999 836.62C610.671 837.46 611.175 838.48 611.511 839.68C611.871 840.88 612.051 842.224 612.051 843.712C612.051 845.2 611.871 846.544 611.511 847.744C611.175 848.944 610.671 849.964 609.999 850.804C609.351 851.644 608.559 852.292 607.623 852.748C606.687 853.204 605.643 853.432 604.491 853.432C601.971 853.432 600.159 852.28 599.055 849.976H598.911V860.2H596.031V834.424ZM603.699 850.84C605.331 850.84 606.615 850.336 607.551 849.328C608.487 848.296 608.955 846.952 608.955 845.296V842.128C608.955 840.472 608.487 839.14 607.551 838.132C606.615 837.1 605.331 836.584 603.699 836.584C603.051 836.584 602.427 836.68 601.827 836.872C601.251 837.04 600.747 837.28 600.315 837.592C599.883 837.904 599.535 838.288 599.271 838.744C599.031 839.176 598.911 839.644 598.911 840.148V847.06C598.911 847.66 599.031 848.2 599.271 848.68C599.535 849.136 599.883 849.532 600.315 849.868C600.747 850.18 601.251 850.42 601.827 850.588C602.427 850.756 603.051 850.84 603.699 850.84ZM623.934 853.432C622.686 853.432 621.546 853.204 620.514 852.748C619.482 852.292 618.594 851.644 617.85 850.804C617.13 849.94 616.566 848.92 616.158 847.744C615.75 846.544 615.546 845.2 615.546 843.712C615.546 842.248 615.75 840.916 616.158 839.716C616.566 838.516 617.13 837.496 617.85 836.656C618.594 835.792 619.482 835.132 620.514 834.676C621.546 834.22 622.686 833.992 623.934 833.992C625.182 833.992 626.31 834.22 627.318 834.676C628.35 835.132 629.238 835.792 629.982 836.656C630.726 837.496 631.302 838.516 631.71 839.716C632.118 840.916 632.322 842.248 632.322 843.712C632.322 845.2 632.118 846.544 631.71 847.744C631.302 848.92 630.726 849.94 629.982 850.804C629.238 851.644 628.35 852.292 627.318 852.748C626.31 853.204 625.182 853.432 623.934 853.432ZM623.934 850.876C625.494 850.876 626.766 850.396 627.75 849.436C628.734 848.476 629.226 847.012 629.226 845.044V842.38C629.226 840.412 628.734 838.948 627.75 837.988C626.766 837.028 625.494 836.548 623.934 836.548C622.374 836.548 621.102 837.028 620.118 837.988C619.134 838.948 618.642 840.412 618.642 842.38V845.044C618.642 847.012 619.134 848.476 620.118 849.436C621.102 850.396 622.374 850.876 623.934 850.876ZM648.938 849.976H648.794C647.666 852.28 645.854 853.432 643.358 853.432C642.206 853.432 641.162 853.204 640.226 852.748C639.29 852.292 638.486 851.644 637.814 850.804C637.166 849.964 636.662 848.944 636.302 847.744C635.966 846.544 635.798 845.2 635.798 843.712C635.798 842.224 635.966 840.88 636.302 839.68C636.662 838.48 637.166 837.46 637.814 836.62C638.486 835.78 639.29 835.132 640.226 834.676C641.162 834.22 642.206 833.992 643.358 833.992C644.654 833.992 645.758 834.28 646.67 834.856C647.606 835.408 648.314 836.272 648.794 837.448H648.938V826.36H651.818V853H648.938V849.976ZM644.15 850.84C644.798 850.84 645.41 850.756 645.986 850.588C646.586 850.42 647.102 850.18 647.534 849.868C647.966 849.532 648.302 849.136 648.542 848.68C648.806 848.2 648.938 847.66 648.938 847.06V840.148C648.938 839.644 648.806 839.176 648.542 838.744C648.302 838.288 647.966 837.904 647.534 837.592C647.102 837.28 646.586 837.04 645.986 836.872C645.41 836.68 644.798 836.584 644.15 836.584C642.518 836.584 641.234 837.1 640.298 838.132C639.362 839.14 638.894 840.472 638.894 842.128V845.296C638.894 846.952 639.362 848.296 640.298 849.328C641.234 850.336 642.518 850.84 644.15 850.84Z" fill="black"/>
<path d="M447.821 37V11.872H462.797V14.536H450.845V22.96H461.753V25.624H450.845V37H447.821ZM466.939 37V18.424H469.819V21.844H469.999C470.335 20.956 470.935 20.164 471.799 19.468C472.663 18.772 473.851 18.424 475.363 18.424H476.479V21.304H474.787C473.227 21.304 472.003 21.604 471.115 22.204C470.251 22.78 469.819 23.512 469.819 24.4V37H466.939ZM487.002 37.432C485.754 37.432 484.614 37.204 483.582 36.748C482.55 36.292 481.662 35.644 480.918 34.804C480.198 33.94 479.634 32.92 479.226 31.744C478.818 30.544 478.614 29.2 478.614 27.712C478.614 26.248 478.818 24.916 479.226 23.716C479.634 22.516 480.198 21.496 480.918 20.656C481.662 19.792 482.55 19.132 483.582 18.676C484.614 18.22 485.754 17.992 487.002 17.992C488.25 17.992 489.378 18.22 490.386 18.676C491.418 19.132 492.306 19.792 493.05 20.656C493.794 21.496 494.37 22.516 494.778 23.716C495.186 24.916 495.39 26.248 495.39 27.712C495.39 29.2 495.186 30.544 494.778 31.744C494.37 32.92 493.794 33.94 493.05 34.804C492.306 35.644 491.418 36.292 490.386 36.748C489.378 37.204 488.25 37.432 487.002 37.432ZM487.002 34.876C488.562 34.876 489.834 34.396 490.818 33.436C491.802 32.476 492.294 31.012 492.294 29.044V26.38C492.294 24.412 491.802 22.948 490.818 21.988C489.834 21.028 488.562 20.548 487.002 20.548C485.442 20.548 484.17 21.028 483.186 21.988C482.202 22.948 481.71 24.412 481.71 26.38V29.044C481.71 31.012 482.202 32.476 483.186 33.436C484.17 34.396 485.442 34.876 487.002 34.876ZM500.126 37V18.424H503.006V21.448H503.15C503.606 20.392 504.242 19.552 505.058 18.928C505.898 18.304 507.014 17.992 508.406 17.992C510.326 17.992 511.838 18.616 512.942 19.864C514.07 21.088 514.634 22.828 514.634 25.084V37H511.754V25.588C511.754 22.252 510.35 20.584 507.542 20.584C506.966 20.584 506.402 20.656 505.85 20.8C505.322 20.944 504.842 21.16 504.41 21.448C503.978 21.736 503.63 22.108 503.366 22.564C503.126 22.996 503.006 23.512 503.006 24.112V37H500.126ZM524.691 37C523.683 37 522.915 36.724 522.387 36.172C521.883 35.596 521.631 34.852 521.631 33.94V20.944H518.571V18.424H520.299C520.923 18.424 521.343 18.304 521.559 18.064C521.799 17.8 521.919 17.356 521.919 16.732V13.276H524.511V18.424H528.579V20.944H524.511V34.48H528.291V37H524.691ZM540.052 37.432C538.78 37.432 537.628 37.204 536.596 36.748C535.588 36.292 534.712 35.644 533.968 34.804C533.248 33.94 532.684 32.92 532.276 31.744C531.892 30.544 531.7 29.2 531.7 27.712C531.7 26.248 531.892 24.916 532.276 23.716C532.684 22.516 533.248 21.496 533.968 20.656C534.712 19.792 535.588 19.132 536.596 18.676C537.628 18.22 538.78 17.992 540.052 17.992C541.3 17.992 542.416 18.22 543.4 18.676C544.384 19.132 545.224 19.768 545.92 20.584C546.616 21.376 547.144 22.324 547.504 23.428C547.888 24.532 548.08 25.744 548.08 27.064V28.432H534.724V29.296C534.724 30.088 534.844 30.832 535.084 31.528C535.348 32.2 535.708 32.788 536.164 33.292C536.644 33.796 537.22 34.192 537.892 34.48C538.588 34.768 539.368 34.912 540.232 34.912C541.408 34.912 542.428 34.636 543.292 34.084C544.18 33.532 544.864 32.74 545.344 31.708L547.396 33.184C546.796 34.456 545.86 35.488 544.588 36.28C543.316 37.048 541.804 37.432 540.052 37.432ZM540.052 20.404C539.26 20.404 538.54 20.548 537.892 20.836C537.244 21.1 536.68 21.484 536.2 21.988C535.744 22.492 535.384 23.092 535.12 23.788C534.856 24.46 534.724 25.204 534.724 26.02V26.272H544.984V25.876C544.984 24.22 544.528 22.9 543.616 21.916C542.728 20.908 541.54 20.404 540.052 20.404ZM552.826 37V18.424H555.706V21.448H555.85C556.306 20.392 556.942 19.552 557.758 18.928C558.598 18.304 559.714 17.992 561.106 17.992C563.026 17.992 564.538 18.616 565.642 19.864C566.77 21.088 567.334 22.828 567.334 25.084V37H564.454V25.588C564.454 22.252 563.05 20.584 560.242 20.584C559.666 20.584 559.102 20.656 558.55 20.8C558.022 20.944 557.542 21.16 557.11 21.448C556.678 21.736 556.33 22.108 556.066 22.564C555.826 22.996 555.706 23.512 555.706 24.112V37H552.826ZM585.167 33.976H585.023C583.895 36.28 582.083 37.432 579.587 37.432C578.435 37.432 577.391 37.204 576.455 36.748C575.519 36.292 574.715 35.644 574.043 34.804C573.395 33.964 572.891 32.944 572.531 31.744C572.195 30.544 572.027 29.2 572.027 27.712C572.027 26.224 572.195 24.88 572.531 23.68C572.891 22.48 573.395 21.46 574.043 20.62C574.715 19.78 575.519 19.132 576.455 18.676C577.391 18.22 578.435 17.992 579.587 17.992C580.883 17.992 581.987 18.28 582.899 18.856C583.835 19.408 584.543 20.272 585.023 21.448H585.167V10.36H588.047V37H585.167V33.976ZM580.379 34.84C581.027 34.84 581.639 34.756 582.215 34.588C582.815 34.42 583.331 34.18 583.763 33.868C584.195 33.532 584.531 33.136 584.771 32.68C585.035 32.2 585.167 31.66 585.167 31.06V24.148C585.167 23.644 585.035 23.176 584.771 22.744C584.531 22.288 584.195 21.904 583.763 21.592C583.331 21.28 582.815 21.04 582.215 20.872C581.639 20.68 581.027 20.584 580.379 20.584C578.747 20.584 577.463 21.1 576.527 22.132C575.591 23.14 575.123 24.472 575.123 26.128V29.296C575.123 30.952 575.591 32.296 576.527 33.328C577.463 34.336 578.747 34.84 580.379 34.84ZM602.677 18.424H605.557V21.448H605.701C606.181 20.272 606.877 19.408 607.789 18.856C608.725 18.28 609.841 17.992 611.137 17.992C612.289 17.992 613.333 18.22 614.269 18.676C615.205 19.132 615.997 19.78 616.645 20.62C617.317 21.46 617.821 22.48 618.157 23.68C618.517 24.88 618.697 26.224 618.697 27.712C618.697 29.2 618.517 30.544 618.157 31.744C617.821 32.944 617.317 33.964 616.645 34.804C615.997 35.644 615.205 36.292 614.269 36.748C613.333 37.204 612.289 37.432 611.137 37.432C608.617 37.432 606.805 36.28 605.701 33.976H605.557V44.2H602.677V18.424ZM610.345 34.84C611.977 34.84 613.261 34.336 614.197 33.328C615.133 32.296 615.601 30.952 615.601 29.296V26.128C615.601 24.472 615.133 23.14 614.197 22.132C613.261 21.1 611.977 20.584 610.345 20.584C609.697 20.584 609.073 20.68 608.473 20.872C607.897 21.04 607.393 21.28 606.961 21.592C606.529 21.904 606.181 22.288 605.917 22.744C605.677 23.176 605.557 23.644 605.557 24.148V31.06C605.557 31.66 605.677 32.2 605.917 32.68C606.181 33.136 606.529 33.532 606.961 33.868C607.393 34.18 607.897 34.42 608.473 34.588C609.073 34.756 609.697 34.84 610.345 34.84ZM630.58 37.432C629.332 37.432 628.192 37.204 627.16 36.748C626.128 36.292 625.24 35.644 624.496 34.804C623.776 33.94 623.212 32.92 622.804 31.744C622.396 30.544 622.192 29.2 622.192 27.712C622.192 26.248 622.396 24.916 622.804 23.716C623.212 22.516 623.776 21.496 624.496 20.656C625.24 19.792 626.128 19.132 627.16 18.676C628.192 18.22 629.332 17.992 630.58 17.992C631.828 17.992 632.956 18.22 633.964 18.676C634.996 19.132 635.884 19.792 636.628 20.656C637.372 21.496 637.948 22.516 638.356 23.716C638.764 24.916 638.968 26.248 638.968 27.712C638.968 29.2 638.764 30.544 638.356 31.744C637.948 32.92 637.372 33.94 636.628 34.804C635.884 35.644 634.996 36.292 633.964 36.748C632.956 37.204 631.828 37.432 630.58 37.432ZM630.58 34.876C632.14 34.876 633.412 34.396 634.396 33.436C635.38 32.476 635.872 31.012 635.872 29.044V26.38C635.872 24.412 635.38 22.948 634.396 21.988C633.412 21.028 632.14 20.548 630.58 20.548C629.02 20.548 627.748 21.028 626.764 21.988C625.78 22.948 625.288 24.412 625.288 26.38V29.044C625.288 31.012 625.78 32.476 626.764 33.436C627.748 34.396 629.02 34.876 630.58 34.876ZM655.585 33.976H655.441C654.313 36.28 652.501 37.432 650.005 37.432C648.853 37.432 647.809 37.204 646.873 36.748C645.937 36.292 645.133 35.644 644.461 34.804C643.813 33.964 643.309 32.944 642.949 31.744C642.613 30.544 642.445 29.2 642.445 27.712C642.445 26.224 642.613 24.88 642.949 23.68C643.309 22.48 643.813 21.46 644.461 20.62C645.133 19.78 645.937 19.132 646.873 18.676C647.809 18.22 648.853 17.992 650.005 17.992C651.301 17.992 652.405 18.28 653.317 18.856C654.253 19.408 654.961 20.272 655.441 21.448H655.585V10.36H658.465V37H655.585V33.976ZM650.797 34.84C651.445 34.84 652.057 34.756 652.633 34.588C653.233 34.42 653.749 34.18 654.181 33.868C654.613 33.532 654.949 33.136 655.189 32.68C655.453 32.2 655.585 31.66 655.585 31.06V24.148C655.585 23.644 655.453 23.176 655.189 22.744C654.949 22.288 654.613 21.904 654.181 21.592C653.749 21.28 653.233 21.04 652.633 20.872C652.057 20.68 651.445 20.584 650.797 20.584C649.165 20.584 647.881 21.1 646.945 22.132C646.009 23.14 645.541 24.472 645.541 26.128V29.296C645.541 30.952 646.009 32.296 646.945 33.328C647.881 34.336 649.165 34.84 650.797 34.84Z" fill="black"/>
<path d="M1005.53 199V173.872H1020.51V176.536H1008.55V184.96H1019.46V187.624H1008.55V199H1005.53ZM1024.65 199V180.424H1027.53V183.844H1027.71C1028.04 182.956 1028.64 182.164 1029.51 181.468C1030.37 180.772 1031.56 180.424 1033.07 180.424H1034.19V183.304H1032.5C1030.94 183.304 1029.71 183.604 1028.82 184.204C1027.96 184.78 1027.53 185.512 1027.53 186.4V199H1024.65ZM1044.71 199.432C1043.46 199.432 1042.32 199.204 1041.29 198.748C1040.26 198.292 1039.37 197.644 1038.63 196.804C1037.91 195.94 1037.34 194.92 1036.93 193.744C1036.53 192.544 1036.32 191.2 1036.32 189.712C1036.32 188.248 1036.53 186.916 1036.93 185.716C1037.34 184.516 1037.91 183.496 1038.63 182.656C1039.37 181.792 1040.26 181.132 1041.29 180.676C1042.32 180.22 1043.46 179.992 1044.71 179.992C1045.96 179.992 1047.09 180.22 1048.09 180.676C1049.13 181.132 1050.01 181.792 1050.76 182.656C1051.5 183.496 1052.08 184.516 1052.49 185.716C1052.89 186.916 1053.1 188.248 1053.1 189.712C1053.1 191.2 1052.89 192.544 1052.49 193.744C1052.08 194.92 1051.5 195.94 1050.76 196.804C1050.01 197.644 1049.13 198.292 1048.09 198.748C1047.09 199.204 1045.96 199.432 1044.71 199.432ZM1044.71 196.876C1046.27 196.876 1047.54 196.396 1048.53 195.436C1049.51 194.476 1050 193.012 1050 191.044V188.38C1050 186.412 1049.51 184.948 1048.53 183.988C1047.54 183.028 1046.27 182.548 1044.71 182.548C1043.15 182.548 1041.88 183.028 1040.89 183.988C1039.91 184.948 1039.42 186.412 1039.42 188.38V191.044C1039.42 193.012 1039.91 194.476 1040.89 195.436C1041.88 196.396 1043.15 196.876 1044.71 196.876ZM1057.84 199V180.424H1060.72V183.448H1060.86C1061.32 182.392 1061.95 181.552 1062.77 180.928C1063.61 180.304 1064.72 179.992 1066.12 179.992C1068.04 179.992 1069.55 180.616 1070.65 181.864C1071.78 183.088 1072.34 184.828 1072.34 187.084V199H1069.46V187.588C1069.46 184.252 1068.06 182.584 1065.25 182.584C1064.68 182.584 1064.11 182.656 1063.56 182.8C1063.03 182.944 1062.55 183.16 1062.12 183.448C1061.69 183.736 1061.34 184.108 1061.08 184.564C1060.84 184.996 1060.72 185.512 1060.72 186.112V199H1057.84ZM1082.4 199C1081.39 199 1080.62 198.724 1080.1 198.172C1079.59 197.596 1079.34 196.852 1079.34 195.94V182.944H1076.28V180.424H1078.01C1078.63 180.424 1079.05 180.304 1079.27 180.064C1079.51 179.8 1079.63 179.356 1079.63 178.732V175.276H1082.22V180.424H1086.29V182.944H1082.22V196.48H1086V199H1082.4ZM1097.76 199.432C1096.49 199.432 1095.34 199.204 1094.3 198.748C1093.3 198.292 1092.42 197.644 1091.68 196.804C1090.96 195.94 1090.39 194.92 1089.98 193.744C1089.6 192.544 1089.41 191.2 1089.41 189.712C1089.41 188.248 1089.6 186.916 1089.98 185.716C1090.39 184.516 1090.96 183.496 1091.68 182.656C1092.42 181.792 1093.3 181.132 1094.3 180.676C1095.34 180.22 1096.49 179.992 1097.76 179.992C1099.01 179.992 1100.12 180.22 1101.11 180.676C1102.09 181.132 1102.93 181.768 1103.63 182.584C1104.32 183.376 1104.85 184.324 1105.21 185.428C1105.6 186.532 1105.79 187.744 1105.79 189.064V190.432H1092.43V191.296C1092.43 192.088 1092.55 192.832 1092.79 193.528C1093.06 194.2 1093.42 194.788 1093.87 195.292C1094.35 195.796 1094.93 196.192 1095.6 196.48C1096.3 196.768 1097.08 196.912 1097.94 196.912C1099.12 196.912 1100.14 196.636 1101 196.084C1101.89 195.532 1102.57 194.74 1103.05 193.708L1105.1 195.184C1104.5 196.456 1103.57 197.488 1102.3 198.28C1101.02 199.048 1099.51 199.432 1097.76 199.432ZM1097.76 182.404C1096.97 182.404 1096.25 182.548 1095.6 182.836C1094.95 183.1 1094.39 183.484 1093.91 183.988C1093.45 184.492 1093.09 185.092 1092.83 185.788C1092.56 186.46 1092.43 187.204 1092.43 188.02V188.272H1102.69V187.876C1102.69 186.22 1102.24 184.9 1101.32 183.916C1100.44 182.908 1099.25 182.404 1097.76 182.404ZM1110.53 199V180.424H1113.41V183.448H1113.56C1114.01 182.392 1114.65 181.552 1115.47 180.928C1116.31 180.304 1117.42 179.992 1118.81 179.992C1120.73 179.992 1122.25 180.616 1123.35 181.864C1124.48 183.088 1125.04 184.828 1125.04 187.084V199H1122.16V187.588C1122.16 184.252 1120.76 182.584 1117.95 182.584C1117.37 182.584 1116.81 182.656 1116.26 182.8C1115.73 182.944 1115.25 183.16 1114.82 183.448C1114.39 183.736 1114.04 184.108 1113.77 184.564C1113.53 184.996 1113.41 185.512 1113.41 186.112V199H1110.53ZM1142.88 195.976H1142.73C1141.6 198.28 1139.79 199.432 1137.3 199.432C1136.14 199.432 1135.1 199.204 1134.16 198.748C1133.23 198.292 1132.42 197.644 1131.75 196.804C1131.1 195.964 1130.6 194.944 1130.24 193.744C1129.9 192.544 1129.74 191.2 1129.74 189.712C1129.74 188.224 1129.9 186.88 1130.24 185.68C1130.6 184.48 1131.1 183.46 1131.75 182.62C1132.42 181.78 1133.23 181.132 1134.16 180.676C1135.1 180.22 1136.14 179.992 1137.3 179.992C1138.59 179.992 1139.7 180.28 1140.61 180.856C1141.54 181.408 1142.25 182.272 1142.73 183.448H1142.88V172.36H1145.76V199H1142.88V195.976ZM1138.09 196.84C1138.74 196.84 1139.35 196.756 1139.92 196.588C1140.52 196.42 1141.04 196.18 1141.47 195.868C1141.9 195.532 1142.24 195.136 1142.48 194.68C1142.74 194.2 1142.88 193.66 1142.88 193.06V186.148C1142.88 185.644 1142.74 185.176 1142.48 184.744C1142.24 184.288 1141.9 183.904 1141.47 183.592C1141.04 183.28 1140.52 183.04 1139.92 182.872C1139.35 182.68 1138.74 182.584 1138.09 182.584C1136.46 182.584 1135.17 183.1 1134.24 184.132C1133.3 185.14 1132.83 186.472 1132.83 188.128V191.296C1132.83 192.952 1133.3 194.296 1134.24 195.328C1135.17 196.336 1136.46 196.84 1138.09 196.84Z" fill="black"/>
<path d="M1008.68 683.872H1019.01C1021.1 683.872 1022.73 684.46 1023.9 685.636C1025.1 686.812 1025.7 688.384 1025.7 690.352C1025.7 691.288 1025.57 692.08 1025.31 692.728C1025.04 693.376 1024.71 693.916 1024.3 694.348C1023.89 694.756 1023.45 695.068 1022.97 695.284C1022.49 695.476 1022.04 695.608 1021.64 695.68V695.896C1022.09 695.92 1022.6 696.04 1023.15 696.256C1023.72 696.472 1024.26 696.82 1024.77 697.3C1025.27 697.756 1025.69 698.356 1026.03 699.1C1026.39 699.82 1026.57 700.696 1026.57 701.728C1026.57 702.76 1026.4 703.72 1026.06 704.608C1025.75 705.496 1025.31 706.264 1024.73 706.912C1024.16 707.56 1023.47 708.076 1022.68 708.46C1021.89 708.82 1021.02 709 1020.09 709H1008.68V683.872ZM1011.7 706.336H1019.15C1020.45 706.336 1021.47 706.012 1022.21 705.364C1022.96 704.692 1023.33 703.72 1023.33 702.448V701.224C1023.33 699.952 1022.96 698.992 1022.21 698.344C1021.47 697.672 1020.45 697.336 1019.15 697.336H1011.7V706.336ZM1011.7 694.744H1018.65C1019.85 694.744 1020.78 694.444 1021.46 693.844C1022.13 693.244 1022.46 692.38 1022.46 691.252V690.028C1022.46 688.9 1022.13 688.036 1021.46 687.436C1020.78 686.836 1019.85 686.536 1018.65 686.536H1011.7V694.744ZM1045.41 709C1044.33 709 1043.55 708.712 1043.07 708.136C1042.61 707.56 1042.32 706.84 1042.2 705.976H1042.02C1041.62 707.128 1040.94 707.992 1040.01 708.568C1039.07 709.144 1037.96 709.432 1036.66 709.432C1034.69 709.432 1033.16 708.928 1032.05 707.92C1030.97 706.912 1030.43 705.544 1030.43 703.816C1030.43 702.064 1031.07 700.72 1032.34 699.784C1033.64 698.848 1035.64 698.38 1038.35 698.38H1042.02V696.544C1042.02 695.224 1041.66 694.216 1040.94 693.52C1040.22 692.824 1039.12 692.476 1037.63 692.476C1036.5 692.476 1035.56 692.728 1034.79 693.232C1034.04 693.736 1033.42 694.408 1032.92 695.248L1031.19 693.628C1031.69 692.62 1032.5 691.768 1033.6 691.072C1034.7 690.352 1036.1 689.992 1037.78 689.992C1040.03 689.992 1041.78 690.544 1043.03 691.648C1044.28 692.752 1044.9 694.288 1044.9 696.256V706.48H1047.03V709H1045.41ZM1037.13 706.984C1037.85 706.984 1038.51 706.9 1039.11 706.732C1039.71 706.564 1040.22 706.324 1040.66 706.012C1041.09 705.7 1041.42 705.34 1041.66 704.932C1041.9 704.524 1042.02 704.08 1042.02 703.6V700.54H1038.21C1036.55 700.54 1035.34 700.78 1034.57 701.26C1033.83 701.74 1033.46 702.436 1033.46 703.348V704.104C1033.46 705.016 1033.78 705.724 1034.43 706.228C1035.1 706.732 1036 706.984 1037.13 706.984ZM1058.05 709.432C1056.75 709.432 1055.59 709.204 1054.56 708.748C1053.53 708.292 1052.65 707.644 1051.93 706.804C1051.23 705.964 1050.69 704.944 1050.31 703.744C1049.95 702.544 1049.77 701.2 1049.77 699.712C1049.77 698.224 1049.95 696.88 1050.31 695.68C1050.69 694.48 1051.23 693.46 1051.93 692.62C1052.65 691.78 1053.53 691.132 1054.56 690.676C1055.59 690.22 1056.75 689.992 1058.05 689.992C1059.9 689.992 1061.37 690.4 1062.48 691.216C1063.61 692.008 1064.45 693.052 1065 694.348L1062.59 695.572C1062.25 694.612 1061.7 693.868 1060.93 693.34C1060.16 692.812 1059.2 692.548 1058.05 692.548C1057.19 692.548 1056.43 692.692 1055.78 692.98C1055.13 693.244 1054.59 693.628 1054.16 694.132C1053.73 694.612 1053.41 695.2 1053.19 695.896C1052.97 696.568 1052.87 697.312 1052.87 698.128V701.296C1052.87 702.928 1053.3 704.272 1054.16 705.328C1055.05 706.36 1056.35 706.876 1058.05 706.876C1060.38 706.876 1062.06 705.796 1063.09 703.636L1065.18 705.04C1064.58 706.384 1063.68 707.452 1062.48 708.244C1061.3 709.036 1059.83 709.432 1058.05 709.432ZM1069.24 682.36H1072.12V699.244H1072.27L1075.11 696.076L1080.37 690.424H1083.86L1076.98 697.768L1084.54 709H1081.05L1074.9 699.532L1072.12 702.376V709H1069.24V682.36ZM1094.61 709.432C1093.34 709.432 1092.19 709.204 1091.16 708.748C1090.15 708.292 1089.27 707.644 1088.53 706.804C1087.81 705.94 1087.25 704.92 1086.84 703.744C1086.45 702.544 1086.26 701.2 1086.26 699.712C1086.26 698.248 1086.45 696.916 1086.84 695.716C1087.25 694.516 1087.81 693.496 1088.53 692.656C1089.27 691.792 1090.15 691.132 1091.16 690.676C1092.19 690.22 1093.34 689.992 1094.61 689.992C1095.86 689.992 1096.98 690.22 1097.96 690.676C1098.95 691.132 1099.79 691.768 1100.48 692.584C1101.18 693.376 1101.71 694.324 1102.07 695.428C1102.45 696.532 1102.64 697.744 1102.64 699.064V700.432H1089.29V701.296C1089.29 702.088 1089.41 702.832 1089.65 703.528C1089.91 704.2 1090.27 704.788 1090.73 705.292C1091.21 705.796 1091.78 706.192 1092.45 706.48C1093.15 706.768 1093.93 706.912 1094.79 706.912C1095.97 706.912 1096.99 706.636 1097.85 706.084C1098.74 705.532 1099.43 704.74 1099.91 703.708L1101.96 705.184C1101.36 706.456 1100.42 707.488 1099.15 708.28C1097.88 709.048 1096.37 709.432 1094.61 709.432ZM1094.61 692.404C1093.82 692.404 1093.1 692.548 1092.45 692.836C1091.81 693.1 1091.24 693.484 1090.76 693.988C1090.31 694.492 1089.95 695.092 1089.68 695.788C1089.42 696.46 1089.29 697.204 1089.29 698.02V698.272H1099.55V697.876C1099.55 696.22 1099.09 694.9 1098.18 693.916C1097.29 692.908 1096.1 692.404 1094.61 692.404ZM1107.39 709V690.424H1110.27V693.448H1110.41C1110.87 692.392 1111.5 691.552 1112.32 690.928C1113.16 690.304 1114.28 689.992 1115.67 689.992C1117.59 689.992 1119.1 690.616 1120.2 691.864C1121.33 693.088 1121.9 694.828 1121.9 697.084V709H1119.02V697.588C1119.02 694.252 1117.61 692.584 1114.8 692.584C1114.23 692.584 1113.66 692.656 1113.11 692.8C1112.58 692.944 1112.1 693.16 1111.67 693.448C1111.24 693.736 1110.89 694.108 1110.63 694.564C1110.39 694.996 1110.27 695.512 1110.27 696.112V709H1107.39ZM1139.73 705.976H1139.59C1138.46 708.28 1136.65 709.432 1134.15 709.432C1133 709.432 1131.95 709.204 1131.02 708.748C1130.08 708.292 1129.28 707.644 1128.61 706.804C1127.96 705.964 1127.45 704.944 1127.09 703.744C1126.76 702.544 1126.59 701.2 1126.59 699.712C1126.59 698.224 1126.76 696.88 1127.09 695.68C1127.45 694.48 1127.96 693.46 1128.61 692.62C1129.28 691.78 1130.08 691.132 1131.02 690.676C1131.95 690.22 1133 689.992 1134.15 689.992C1135.45 689.992 1136.55 690.28 1137.46 690.856C1138.4 691.408 1139.11 692.272 1139.59 693.448H1139.73V682.36H1142.61V709H1139.73V705.976ZM1134.94 706.84C1135.59 706.84 1136.2 706.756 1136.78 706.588C1137.38 706.42 1137.89 706.18 1138.33 705.868C1138.76 705.532 1139.09 705.136 1139.33 704.68C1139.6 704.2 1139.73 703.66 1139.73 703.06V696.148C1139.73 695.644 1139.6 695.176 1139.33 694.744C1139.09 694.288 1138.76 693.904 1138.33 693.592C1137.89 693.28 1137.38 693.04 1136.78 692.872C1136.2 692.68 1135.59 692.584 1134.94 692.584C1133.31 692.584 1132.03 693.1 1131.09 694.132C1130.15 695.14 1129.69 696.472 1129.69 698.128V701.296C1129.69 702.952 1130.15 704.296 1131.09 705.328C1132.03 706.336 1133.31 706.84 1134.94 706.84Z" fill="black"/>
<rect x="446" y="71" width="841" height="226" rx="10" stroke="#C1BED2" stroke-width="4" stroke-dasharray="12 12"/>
<rect x="446" y="578" width="841" height="226" rx="10" stroke="#C1BED2" stroke-width="4" stroke-dasharray="12 12"/>
<path d="M492.064 185.052C492.648 184.465 492.645 183.515 492.058 182.931L482.486 173.411C481.898 172.827 480.949 172.83 480.364 173.417C479.78 174.004 479.783 174.954 480.37 175.538L488.879 184L480.417 192.509C479.833 193.096 479.835 194.046 480.423 194.63C481.01 195.214 481.96 195.212 482.544 194.624L492.064 185.052ZM312.003 185.985L491.004 185.495L490.996 182.495L311.994 182.985L312.003 185.985Z" fill="#209B1D"/>
<path d="M912.061 186.816C912.647 186.23 912.647 185.28 912.061 184.695L902.515 175.149C901.929 174.563 900.98 174.563 900.394 175.149C899.808 175.735 899.808 176.684 900.394 177.27L908.879 185.755L900.394 194.241C899.808 194.826 899.808 195.776 900.394 196.362C900.98 196.948 901.929 196.948 902.515 196.362L912.061 186.816ZM814.997 187.255H911.001V184.255H814.997V187.255Z" fill="#1661A6"/>
<path d="M914.066 697.061C914.651 696.475 914.651 695.525 914.066 694.939L904.52 685.393C903.934 684.808 902.984 684.808 902.398 685.393C901.813 685.979 901.813 686.929 902.398 687.515L910.884 696L902.398 704.485C901.813 705.071 901.813 706.021 902.398 706.607C902.984 707.192 903.934 707.192 904.52 706.607L914.066 697.061ZM814 697.5H913.005V694.5H814V697.5Z" fill="#1661A6"/>
<path d="M656.061 514.939C655.475 514.354 654.525 514.354 653.939 514.939L644.393 524.485C643.808 525.071 643.808 526.021 644.393 526.607C644.979 527.192 645.929 527.192 646.515 526.607L655 518.121L663.485 526.607C664.071 527.192 665.021 527.192 665.607 526.607C666.192 526.021 666.192 525.071 665.607 524.485L656.061 514.939ZM656.5 625V619.55H653.5V625H656.5ZM656.5 608.65V597.75H653.5V608.65H656.5ZM656.5 586.85V575.95H653.5V586.85H656.5ZM656.5 565.05V554.15H653.5V565.05H656.5ZM656.5 543.25V532.35H653.5V543.25H656.5ZM656.5 521.45V516H653.5V521.45H656.5Z" fill="#1661A6"/>
<path d="M654.939 367.061C655.525 367.646 656.475 367.646 657.061 367.061L666.607 357.515C667.192 356.929 667.192 355.979 666.607 355.393C666.021 354.808 665.071 354.808 664.485 355.393L656 363.879L647.515 355.393C646.929 354.808 645.979 354.808 645.393 355.393C644.808 355.979 644.808 356.929 645.393 357.515L654.939 367.061ZM654.5 257V262.45H657.5V257H654.5ZM654.5 273.35V284.25H657.5V273.35H654.5ZM654.5 295.15V306.05H657.5V295.15H654.5ZM654.5 316.95V327.85H657.5V316.95H654.5ZM654.5 338.75V349.65H657.5V338.75H654.5ZM654.5 360.55V366H657.5V360.55H654.5Z" fill="#1661A6"/>
<path d="M494.061 692.061C494.646 691.475 494.646 690.525 494.061 689.939L484.515 680.393C483.929 679.808 482.979 679.808 482.393 680.393C481.808 680.979 481.808 681.929 482.393 682.515L490.879 691L482.393 699.485C481.808 700.071 481.808 701.021 482.393 701.607C482.979 702.192 483.929 702.192 484.515 701.607L494.061 692.061ZM312 692.5H493V689.5H312V692.5Z" fill="#209B1D"/>
</svg>
