<svg width="1244" height="501" viewBox="0 0 1244 501" fill="none" xmlns="http://www.w3.org/2000/svg">
<rect x="571" y="1" width="270" height="222" rx="11" fill="#E9D8F0" stroke="#9673A6" stroke-width="2"/>
<rect x="972" y="1" width="270" height="109" rx="11" fill="#FED17A" stroke="#AF7505" stroke-width="2"/>
<rect x="572" y="250" width="270" height="109" rx="11" fill="#FED17A" stroke="#AF7505" stroke-width="2"/>
<rect x="572" y="391" width="270" height="109" rx="11" fill="#FED17A" stroke="#AF7505" stroke-width="2"/>
<rect x="973" y="254" width="270" height="109" rx="11" fill="#FED17A" stroke="#AF7505" stroke-width="2"/>
<path d="M641.64 320.432C639.912 320.432 638.46 320.108 637.284 319.46C636.132 318.788 635.136 317.9 634.296 316.796L636.348 315.14C637.068 316.052 637.872 316.76 638.76 317.264C639.648 317.744 640.68 317.984 641.856 317.984C643.08 317.984 644.028 317.72 644.7 317.192C645.396 316.664 645.744 315.92 645.744 314.96C645.744 314.24 645.504 313.628 645.024 313.124C644.568 312.596 643.728 312.236 642.504 312.044L641.028 311.828C640.164 311.708 639.372 311.528 638.652 311.288C637.932 311.024 637.296 310.688 636.744 310.28C636.216 309.848 635.796 309.32 635.484 308.696C635.196 308.072 635.052 307.328 635.052 306.464C635.052 305.552 635.22 304.76 635.556 304.088C635.892 303.392 636.348 302.816 636.924 302.36C637.524 301.904 638.232 301.568 639.048 301.352C639.864 301.112 640.74 300.992 641.676 300.992C643.188 300.992 644.448 301.256 645.456 301.784C646.488 302.312 647.388 303.044 648.156 303.98L646.248 305.708C645.84 305.132 645.24 304.616 644.448 304.16C643.656 303.68 642.66 303.44 641.46 303.44C640.26 303.44 639.348 303.704 638.724 304.232C638.124 304.736 637.824 305.432 637.824 306.32C637.824 307.232 638.124 307.892 638.724 308.3C639.348 308.708 640.236 309.008 641.388 309.2L642.828 309.416C644.892 309.728 646.356 310.328 647.22 311.216C648.084 312.08 648.516 313.22 648.516 314.636C648.516 316.436 647.904 317.852 646.68 318.884C645.456 319.916 643.776 320.432 641.64 320.432ZM660.587 320.432C659.315 320.432 658.163 320.204 657.131 319.748C656.123 319.292 655.247 318.644 654.503 317.804C653.783 316.94 653.219 315.92 652.811 314.744C652.427 313.544 652.235 312.2 652.235 310.712C652.235 309.248 652.427 307.916 652.811 306.716C653.219 305.516 653.783 304.496 654.503 303.656C655.247 302.792 656.123 302.132 657.131 301.676C658.163 301.22 659.315 300.992 660.587 300.992C661.835 300.992 662.951 301.22 663.935 301.676C664.919 302.132 665.759 302.768 666.455 303.584C667.151 304.376 667.679 305.324 668.039 306.428C668.423 307.532 668.615 308.744 668.615 310.064V311.432H655.259V312.296C655.259 313.088 655.379 313.832 655.619 314.528C655.883 315.2 656.243 315.788 656.699 316.292C657.179 316.796 657.755 317.192 658.427 317.48C659.123 317.768 659.903 317.912 660.767 317.912C661.943 317.912 662.963 317.636 663.827 317.084C664.715 316.532 665.399 315.74 665.879 314.708L667.931 316.184C667.331 317.456 666.395 318.488 665.123 319.28C663.851 320.048 662.339 320.432 660.587 320.432ZM660.587 303.404C659.795 303.404 659.075 303.548 658.427 303.836C657.779 304.1 657.215 304.484 656.735 304.988C656.279 305.492 655.919 306.092 655.655 306.788C655.391 307.46 655.259 308.204 655.259 309.02V309.272H665.519V308.876C665.519 307.22 665.063 305.9 664.151 304.916C663.263 303.908 662.075 303.404 660.587 303.404ZM673.361 320V301.424H676.241V304.844H676.421C676.757 303.956 677.357 303.164 678.221 302.468C679.085 301.772 680.273 301.424 681.785 301.424H682.901V304.304H681.209C679.649 304.304 678.425 304.604 677.537 305.204C676.673 305.78 676.241 306.512 676.241 307.4V320H673.361ZM691.035 320L684.519 301.424H687.399L690.639 310.64L692.655 316.976H692.835L694.851 310.64L698.163 301.424H700.935L694.383 320H691.035ZM706.09 297.068C705.466 297.068 705.01 296.924 704.722 296.636C704.458 296.324 704.326 295.928 704.326 295.448V294.98C704.326 294.5 704.458 294.116 704.722 293.828C705.01 293.516 705.466 293.36 706.09 293.36C706.714 293.36 707.158 293.516 707.422 293.828C707.71 294.116 707.854 294.5 707.854 294.98V295.448C707.854 295.928 707.71 296.324 707.422 296.636C707.158 296.924 706.714 297.068 706.09 297.068ZM704.65 301.424H707.53V320H704.65V301.424ZM720.562 320.432C719.266 320.432 718.102 320.204 717.07 319.748C716.038 319.292 715.162 318.644 714.442 317.804C713.746 316.964 713.206 315.944 712.822 314.744C712.462 313.544 712.282 312.2 712.282 310.712C712.282 309.224 712.462 307.88 712.822 306.68C713.206 305.48 713.746 304.46 714.442 303.62C715.162 302.78 716.038 302.132 717.07 301.676C718.102 301.22 719.266 300.992 720.562 300.992C722.41 300.992 723.886 301.4 724.99 302.216C726.118 303.008 726.958 304.052 727.51 305.348L725.098 306.572C724.762 305.612 724.21 304.868 723.442 304.34C722.674 303.812 721.714 303.548 720.562 303.548C719.698 303.548 718.942 303.692 718.294 303.98C717.646 304.244 717.106 304.628 716.674 305.132C716.242 305.612 715.918 306.2 715.702 306.896C715.486 307.568 715.378 308.312 715.378 309.128V312.296C715.378 313.928 715.81 315.272 716.674 316.328C717.562 317.36 718.858 317.876 720.562 317.876C722.89 317.876 724.57 316.796 725.602 314.636L727.69 316.04C727.09 317.384 726.19 318.452 724.99 319.244C723.814 320.036 722.338 320.432 720.562 320.432ZM738.528 320.432C737.256 320.432 736.104 320.204 735.072 319.748C734.064 319.292 733.188 318.644 732.444 317.804C731.724 316.94 731.16 315.92 730.752 314.744C730.368 313.544 730.176 312.2 730.176 310.712C730.176 309.248 730.368 307.916 730.752 306.716C731.16 305.516 731.724 304.496 732.444 303.656C733.188 302.792 734.064 302.132 735.072 301.676C736.104 301.22 737.256 300.992 738.528 300.992C739.776 300.992 740.892 301.22 741.876 301.676C742.86 302.132 743.7 302.768 744.396 303.584C745.092 304.376 745.62 305.324 745.98 306.428C746.364 307.532 746.556 308.744 746.556 310.064V311.432H733.2V312.296C733.2 313.088 733.32 313.832 733.56 314.528C733.824 315.2 734.184 315.788 734.64 316.292C735.12 316.796 735.696 317.192 736.368 317.48C737.064 317.768 737.844 317.912 738.708 317.912C739.884 317.912 740.904 317.636 741.768 317.084C742.656 316.532 743.34 315.74 743.82 314.708L745.872 316.184C745.272 317.456 744.336 318.488 743.064 319.28C741.792 320.048 740.28 320.432 738.528 320.432ZM738.528 303.404C737.736 303.404 737.016 303.548 736.368 303.836C735.72 304.1 735.156 304.484 734.676 304.988C734.22 305.492 733.86 306.092 733.596 306.788C733.332 307.46 733.2 308.204 733.2 309.02V309.272H743.46V308.876C743.46 307.22 743.004 305.9 742.092 304.916C741.204 303.908 740.016 303.404 738.528 303.404ZM759.918 320V317.336H766.938V297.104H766.686L760.35 303.008L758.586 301.1L765.246 294.872H769.962V317.336H776.442V320H759.918Z" fill="black"/>
<path d="M623.08 124L620.56 116.584H610.408L607.888 124H604.828L613.612 98.872H617.464L626.248 124H623.08ZM615.556 101.68H615.376L611.128 113.92H619.804L615.556 101.68ZM641.571 120.976H641.427C641.235 121.408 640.995 121.84 640.707 122.272C640.443 122.68 640.107 123.052 639.699 123.388C639.291 123.7 638.799 123.952 638.223 124.144C637.647 124.336 636.975 124.432 636.207 124.432C634.287 124.432 632.763 123.82 631.635 122.596C630.507 121.348 629.943 119.596 629.943 117.34V105.424H632.823V116.836C632.823 120.172 634.239 121.84 637.071 121.84C637.647 121.84 638.199 121.768 638.727 121.624C639.279 121.48 639.759 121.264 640.167 120.976C640.599 120.688 640.935 120.328 641.175 119.896C641.439 119.44 641.571 118.9 641.571 118.276V105.424H644.451V124H641.571V120.976ZM654.687 124C653.679 124 652.911 123.724 652.383 123.172C651.879 122.596 651.627 121.852 651.627 120.94V107.944H648.567V105.424H650.295C650.919 105.424 651.339 105.304 651.555 105.064C651.795 104.8 651.915 104.356 651.915 103.732V100.276H654.507V105.424H658.575V107.944H654.507V121.48H658.287V124H654.687ZM663.205 97.36H666.085V108.448H666.229C666.685 107.392 667.321 106.552 668.137 105.928C668.977 105.304 670.093 104.992 671.485 104.992C673.405 104.992 674.917 105.616 676.021 106.864C677.149 108.088 677.713 109.828 677.713 112.084V124H674.833V112.588C674.833 109.252 673.429 107.584 670.621 107.584C670.045 107.584 669.481 107.656 668.929 107.8C668.401 107.944 667.921 108.16 667.489 108.448C667.057 108.736 666.709 109.108 666.445 109.564C666.205 109.996 666.085 110.512 666.085 111.112V124H663.205V97.36ZM699.517 124.432C697.477 124.432 695.737 124.048 694.297 123.28C692.857 122.488 691.633 121.408 690.625 120.04L692.857 118.168C693.745 119.344 694.729 120.244 695.809 120.868C696.889 121.468 698.161 121.768 699.625 121.768C701.425 121.768 702.793 121.336 703.729 120.472C704.689 119.608 705.169 118.456 705.169 117.016C705.169 115.816 704.809 114.892 704.089 114.244C703.369 113.596 702.181 113.08 700.525 112.696L698.473 112.228C696.169 111.7 694.405 110.908 693.181 109.852C691.981 108.772 691.381 107.26 691.381 105.316C691.381 104.212 691.585 103.228 691.993 102.364C692.401 101.5 692.965 100.78 693.685 100.204C694.429 99.628 695.305 99.196 696.313 98.908C697.345 98.596 698.473 98.44 699.697 98.44C701.593 98.44 703.213 98.788 704.557 99.484C705.925 100.18 707.077 101.2 708.013 102.544L705.745 104.2C705.049 103.24 704.209 102.484 703.225 101.932C702.241 101.38 701.017 101.104 699.553 101.104C697.945 101.104 696.673 101.452 695.737 102.148C694.825 102.82 694.369 103.84 694.369 105.208C694.369 106.408 694.753 107.32 695.521 107.944C696.313 108.544 697.501 109.024 699.085 109.384L701.137 109.852C703.609 110.404 705.397 111.244 706.501 112.372C707.605 113.5 708.157 115 708.157 116.872C708.157 118.024 707.953 119.068 707.545 120.004C707.161 120.94 706.597 121.732 705.853 122.38C705.109 123.028 704.197 123.532 703.117 123.892C702.061 124.252 700.861 124.432 699.517 124.432ZM720.075 124.432C718.803 124.432 717.651 124.204 716.619 123.748C715.611 123.292 714.735 122.644 713.991 121.804C713.271 120.94 712.707 119.92 712.299 118.744C711.915 117.544 711.723 116.2 711.723 114.712C711.723 113.248 711.915 111.916 712.299 110.716C712.707 109.516 713.271 108.496 713.991 107.656C714.735 106.792 715.611 106.132 716.619 105.676C717.651 105.22 718.803 104.992 720.075 104.992C721.323 104.992 722.439 105.22 723.423 105.676C724.407 106.132 725.247 106.768 725.943 107.584C726.639 108.376 727.167 109.324 727.527 110.428C727.911 111.532 728.103 112.744 728.103 114.064V115.432H714.747V116.296C714.747 117.088 714.867 117.832 715.107 118.528C715.371 119.2 715.731 119.788 716.187 120.292C716.667 120.796 717.243 121.192 717.915 121.48C718.611 121.768 719.391 121.912 720.255 121.912C721.431 121.912 722.451 121.636 723.315 121.084C724.203 120.532 724.887 119.74 725.367 118.708L727.419 120.184C726.819 121.456 725.883 122.488 724.611 123.28C723.339 124.048 721.827 124.432 720.075 124.432ZM720.075 107.404C719.283 107.404 718.563 107.548 717.915 107.836C717.267 108.1 716.703 108.484 716.223 108.988C715.767 109.492 715.407 110.092 715.143 110.788C714.879 111.46 714.747 112.204 714.747 113.02V113.272H725.007V112.876C725.007 111.22 724.551 109.9 723.639 108.916C722.751 107.908 721.563 107.404 720.075 107.404ZM732.849 124V105.424H735.729V108.844H735.909C736.245 107.956 736.845 107.164 737.709 106.468C738.573 105.772 739.761 105.424 741.273 105.424H742.389V108.304H740.697C739.137 108.304 737.913 108.604 737.025 109.204C736.161 109.78 735.729 110.512 735.729 111.4V124H732.849ZM750.523 124L744.007 105.424H746.887L750.127 114.64L752.143 120.976H752.323L754.339 114.64L757.651 105.424H760.423L753.871 124H750.523ZM765.578 101.068C764.954 101.068 764.498 100.924 764.21 100.636C763.946 100.324 763.814 99.928 763.814 99.448V98.98C763.814 98.5 763.946 98.116 764.21 97.828C764.498 97.516 764.954 97.36 765.578 97.36C766.202 97.36 766.646 97.516 766.91 97.828C767.198 98.116 767.342 98.5 767.342 98.98V99.448C767.342 99.928 767.198 100.324 766.91 100.636C766.646 100.924 766.202 101.068 765.578 101.068ZM764.138 105.424H767.018V124H764.138V105.424ZM780.05 124.432C778.754 124.432 777.59 124.204 776.558 123.748C775.526 123.292 774.65 122.644 773.93 121.804C773.234 120.964 772.694 119.944 772.31 118.744C771.95 117.544 771.77 116.2 771.77 114.712C771.77 113.224 771.95 111.88 772.31 110.68C772.694 109.48 773.234 108.46 773.93 107.62C774.65 106.78 775.526 106.132 776.558 105.676C777.59 105.22 778.754 104.992 780.05 104.992C781.898 104.992 783.374 105.4 784.478 106.216C785.606 107.008 786.446 108.052 786.998 109.348L784.586 110.572C784.25 109.612 783.698 108.868 782.93 108.34C782.162 107.812 781.202 107.548 780.05 107.548C779.186 107.548 778.43 107.692 777.782 107.98C777.134 108.244 776.594 108.628 776.162 109.132C775.73 109.612 775.406 110.2 775.19 110.896C774.974 111.568 774.866 112.312 774.866 113.128V116.296C774.866 117.928 775.298 119.272 776.162 120.328C777.05 121.36 778.346 121.876 780.05 121.876C782.378 121.876 784.058 120.796 785.09 118.636L787.178 120.04C786.578 121.384 785.678 122.452 784.478 123.244C783.302 124.036 781.826 124.432 780.05 124.432ZM798.017 124.432C796.745 124.432 795.593 124.204 794.561 123.748C793.553 123.292 792.677 122.644 791.933 121.804C791.213 120.94 790.649 119.92 790.241 118.744C789.857 117.544 789.665 116.2 789.665 114.712C789.665 113.248 789.857 111.916 790.241 110.716C790.649 109.516 791.213 108.496 791.933 107.656C792.677 106.792 793.553 106.132 794.561 105.676C795.593 105.22 796.745 104.992 798.017 104.992C799.265 104.992 800.381 105.22 801.365 105.676C802.349 106.132 803.189 106.768 803.885 107.584C804.581 108.376 805.109 109.324 805.469 110.428C805.853 111.532 806.045 112.744 806.045 114.064V115.432H792.689V116.296C792.689 117.088 792.809 117.832 793.049 118.528C793.313 119.2 793.673 119.788 794.129 120.292C794.609 120.796 795.185 121.192 795.857 121.48C796.553 121.768 797.333 121.912 798.197 121.912C799.373 121.912 800.393 121.636 801.257 121.084C802.145 120.532 802.829 119.74 803.309 118.708L805.361 120.184C804.761 121.456 803.825 122.488 802.553 123.28C801.281 124.048 799.769 124.432 798.017 124.432ZM798.017 107.404C797.225 107.404 796.505 107.548 795.857 107.836C795.209 108.1 794.645 108.484 794.165 108.988C793.709 109.492 793.349 110.092 793.085 110.788C792.821 111.46 792.689 112.204 792.689 113.02V113.272H802.949V112.876C802.949 111.22 802.493 109.9 801.581 108.916C800.693 107.908 799.505 107.404 798.017 107.404Z" fill="black"/>
<path d="M1046.64 318.432C1044.91 318.432 1043.46 318.108 1042.28 317.46C1041.13 316.788 1040.14 315.9 1039.3 314.796L1041.35 313.14C1042.07 314.052 1042.87 314.76 1043.76 315.264C1044.65 315.744 1045.68 315.984 1046.86 315.984C1048.08 315.984 1049.03 315.72 1049.7 315.192C1050.4 314.664 1050.74 313.92 1050.74 312.96C1050.74 312.24 1050.5 311.628 1050.02 311.124C1049.57 310.596 1048.73 310.236 1047.5 310.044L1046.03 309.828C1045.16 309.708 1044.37 309.528 1043.65 309.288C1042.93 309.024 1042.3 308.688 1041.74 308.28C1041.22 307.848 1040.8 307.32 1040.48 306.696C1040.2 306.072 1040.05 305.328 1040.05 304.464C1040.05 303.552 1040.22 302.76 1040.56 302.088C1040.89 301.392 1041.35 300.816 1041.92 300.36C1042.52 299.904 1043.23 299.568 1044.05 299.352C1044.86 299.112 1045.74 298.992 1046.68 298.992C1048.19 298.992 1049.45 299.256 1050.46 299.784C1051.49 300.312 1052.39 301.044 1053.16 301.98L1051.25 303.708C1050.84 303.132 1050.24 302.616 1049.45 302.16C1048.66 301.68 1047.66 301.44 1046.46 301.44C1045.26 301.44 1044.35 301.704 1043.72 302.232C1043.12 302.736 1042.82 303.432 1042.82 304.32C1042.82 305.232 1043.12 305.892 1043.72 306.3C1044.35 306.708 1045.24 307.008 1046.39 307.2L1047.83 307.416C1049.89 307.728 1051.36 308.328 1052.22 309.216C1053.08 310.08 1053.52 311.22 1053.52 312.636C1053.52 314.436 1052.9 315.852 1051.68 316.884C1050.46 317.916 1048.78 318.432 1046.64 318.432ZM1065.59 318.432C1064.31 318.432 1063.16 318.204 1062.13 317.748C1061.12 317.292 1060.25 316.644 1059.5 315.804C1058.78 314.94 1058.22 313.92 1057.81 312.744C1057.43 311.544 1057.23 310.2 1057.23 308.712C1057.23 307.248 1057.43 305.916 1057.81 304.716C1058.22 303.516 1058.78 302.496 1059.5 301.656C1060.25 300.792 1061.12 300.132 1062.13 299.676C1063.16 299.22 1064.31 298.992 1065.59 298.992C1066.83 298.992 1067.95 299.22 1068.93 299.676C1069.92 300.132 1070.76 300.768 1071.45 301.584C1072.15 302.376 1072.68 303.324 1073.04 304.428C1073.42 305.532 1073.61 306.744 1073.61 308.064V309.432H1060.26V310.296C1060.26 311.088 1060.38 311.832 1060.62 312.528C1060.88 313.2 1061.24 313.788 1061.7 314.292C1062.18 314.796 1062.75 315.192 1063.43 315.48C1064.12 315.768 1064.9 315.912 1065.77 315.912C1066.94 315.912 1067.96 315.636 1068.83 315.084C1069.71 314.532 1070.4 313.74 1070.88 312.708L1072.93 314.184C1072.33 315.456 1071.39 316.488 1070.12 317.28C1068.85 318.048 1067.34 318.432 1065.59 318.432ZM1065.59 301.404C1064.79 301.404 1064.07 301.548 1063.43 301.836C1062.78 302.1 1062.21 302.484 1061.73 302.988C1061.28 303.492 1060.92 304.092 1060.65 304.788C1060.39 305.46 1060.26 306.204 1060.26 307.02V307.272H1070.52V306.876C1070.52 305.22 1070.06 303.9 1069.15 302.916C1068.26 301.908 1067.07 301.404 1065.59 301.404ZM1078.36 318V299.424H1081.24V302.844H1081.42C1081.76 301.956 1082.36 301.164 1083.22 300.468C1084.08 299.772 1085.27 299.424 1086.78 299.424H1087.9V302.304H1086.21C1084.65 302.304 1083.42 302.604 1082.54 303.204C1081.67 303.78 1081.24 304.512 1081.24 305.4V318H1078.36ZM1096.04 318L1089.52 299.424H1092.4L1095.64 308.64L1097.66 314.976H1097.84L1099.85 308.64L1103.16 299.424H1105.94L1099.38 318H1096.04ZM1111.09 295.068C1110.47 295.068 1110.01 294.924 1109.72 294.636C1109.46 294.324 1109.33 293.928 1109.33 293.448V292.98C1109.33 292.5 1109.46 292.116 1109.72 291.828C1110.01 291.516 1110.47 291.36 1111.09 291.36C1111.71 291.36 1112.16 291.516 1112.42 291.828C1112.71 292.116 1112.85 292.5 1112.85 292.98V293.448C1112.85 293.928 1112.71 294.324 1112.42 294.636C1112.16 294.924 1111.71 295.068 1111.09 295.068ZM1109.65 299.424H1112.53V318H1109.65V299.424ZM1125.56 318.432C1124.27 318.432 1123.1 318.204 1122.07 317.748C1121.04 317.292 1120.16 316.644 1119.44 315.804C1118.75 314.964 1118.21 313.944 1117.82 312.744C1117.46 311.544 1117.28 310.2 1117.28 308.712C1117.28 307.224 1117.46 305.88 1117.82 304.68C1118.21 303.48 1118.75 302.46 1119.44 301.62C1120.16 300.78 1121.04 300.132 1122.07 299.676C1123.1 299.22 1124.27 298.992 1125.56 298.992C1127.41 298.992 1128.89 299.4 1129.99 300.216C1131.12 301.008 1131.96 302.052 1132.51 303.348L1130.1 304.572C1129.76 303.612 1129.21 302.868 1128.44 302.34C1127.67 301.812 1126.71 301.548 1125.56 301.548C1124.7 301.548 1123.94 301.692 1123.29 301.98C1122.65 302.244 1122.11 302.628 1121.67 303.132C1121.24 303.612 1120.92 304.2 1120.7 304.896C1120.49 305.568 1120.38 306.312 1120.38 307.128V310.296C1120.38 311.928 1120.81 313.272 1121.67 314.328C1122.56 315.36 1123.86 315.876 1125.56 315.876C1127.89 315.876 1129.57 314.796 1130.6 312.636L1132.69 314.04C1132.09 315.384 1131.19 316.452 1129.99 317.244C1128.81 318.036 1127.34 318.432 1125.56 318.432ZM1143.53 318.432C1142.26 318.432 1141.1 318.204 1140.07 317.748C1139.06 317.292 1138.19 316.644 1137.44 315.804C1136.72 314.94 1136.16 313.92 1135.75 312.744C1135.37 311.544 1135.18 310.2 1135.18 308.712C1135.18 307.248 1135.37 305.916 1135.75 304.716C1136.16 303.516 1136.72 302.496 1137.44 301.656C1138.19 300.792 1139.06 300.132 1140.07 299.676C1141.1 299.22 1142.26 298.992 1143.53 298.992C1144.78 298.992 1145.89 299.22 1146.88 299.676C1147.86 300.132 1148.7 300.768 1149.4 301.584C1150.09 302.376 1150.62 303.324 1150.98 304.428C1151.36 305.532 1151.56 306.744 1151.56 308.064V309.432H1138.2V310.296C1138.2 311.088 1138.32 311.832 1138.56 312.528C1138.82 313.2 1139.18 313.788 1139.64 314.292C1140.12 314.796 1140.7 315.192 1141.37 315.48C1142.06 315.768 1142.84 315.912 1143.71 315.912C1144.88 315.912 1145.9 315.636 1146.77 315.084C1147.66 314.532 1148.34 313.74 1148.82 312.708L1150.87 314.184C1150.27 315.456 1149.34 316.488 1148.06 317.28C1146.79 318.048 1145.28 318.432 1143.53 318.432ZM1143.53 301.404C1142.74 301.404 1142.02 301.548 1141.37 301.836C1140.72 302.1 1140.16 302.484 1139.68 302.988C1139.22 303.492 1138.86 304.092 1138.6 304.788C1138.33 305.46 1138.2 306.204 1138.2 307.02V307.272H1148.46V306.876C1148.46 305.22 1148 303.9 1147.09 302.916C1146.2 301.908 1145.02 301.404 1143.53 301.404ZM1180.94 318H1164.45V314.904L1172.66 307.344C1173.83 306.264 1174.82 305.124 1175.61 303.924C1176.4 302.7 1176.8 301.476 1176.8 300.252V299.82C1176.8 298.428 1176.41 297.3 1175.65 296.436C1174.88 295.572 1173.71 295.14 1172.15 295.14C1171.39 295.14 1170.71 295.248 1170.14 295.464C1169.56 295.68 1169.06 295.98 1168.63 296.364C1168.22 296.748 1167.87 297.204 1167.58 297.732C1167.32 298.236 1167.1 298.788 1166.93 299.388L1164.23 298.344C1164.47 297.6 1164.8 296.88 1165.21 296.184C1165.64 295.464 1166.17 294.828 1166.79 294.276C1167.44 293.724 1168.21 293.28 1169.09 292.944C1170.01 292.608 1171.07 292.44 1172.3 292.44C1173.52 292.44 1174.61 292.62 1175.57 292.98C1176.53 293.34 1177.34 293.844 1177.99 294.492C1178.63 295.14 1179.13 295.908 1179.46 296.796C1179.82 297.684 1180 298.668 1180 299.748C1180 300.732 1179.86 301.644 1179.57 302.484C1179.31 303.324 1178.93 304.128 1178.45 304.896C1177.97 305.64 1177.39 306.372 1176.69 307.092C1176.02 307.812 1175.29 308.532 1174.49 309.252L1167.73 315.336H1180.94V318Z" fill="black"/>
<path d="M1042.64 65.432C1040.91 65.432 1039.46 65.108 1038.28 64.46C1037.13 63.788 1036.14 62.9 1035.3 61.796L1037.35 60.14C1038.07 61.052 1038.87 61.76 1039.76 62.264C1040.65 62.744 1041.68 62.984 1042.86 62.984C1044.08 62.984 1045.03 62.72 1045.7 62.192C1046.4 61.664 1046.74 60.92 1046.74 59.96C1046.74 59.24 1046.5 58.628 1046.02 58.124C1045.57 57.596 1044.73 57.236 1043.5 57.044L1042.03 56.828C1041.16 56.708 1040.37 56.528 1039.65 56.288C1038.93 56.024 1038.3 55.688 1037.74 55.28C1037.22 54.848 1036.8 54.32 1036.48 53.696C1036.2 53.072 1036.05 52.328 1036.05 51.464C1036.05 50.552 1036.22 49.76 1036.56 49.088C1036.89 48.392 1037.35 47.816 1037.92 47.36C1038.52 46.904 1039.23 46.568 1040.05 46.352C1040.86 46.112 1041.74 45.992 1042.68 45.992C1044.19 45.992 1045.45 46.256 1046.46 46.784C1047.49 47.312 1048.39 48.044 1049.16 48.98L1047.25 50.708C1046.84 50.132 1046.24 49.616 1045.45 49.16C1044.66 48.68 1043.66 48.44 1042.46 48.44C1041.26 48.44 1040.35 48.704 1039.72 49.232C1039.12 49.736 1038.82 50.432 1038.82 51.32C1038.82 52.232 1039.12 52.892 1039.72 53.3C1040.35 53.708 1041.24 54.008 1042.39 54.2L1043.83 54.416C1045.89 54.728 1047.36 55.328 1048.22 56.216C1049.08 57.08 1049.52 58.22 1049.52 59.636C1049.52 61.436 1048.9 62.852 1047.68 63.884C1046.46 64.916 1044.78 65.432 1042.64 65.432ZM1061.59 65.432C1060.31 65.432 1059.16 65.204 1058.13 64.748C1057.12 64.292 1056.25 63.644 1055.5 62.804C1054.78 61.94 1054.22 60.92 1053.81 59.744C1053.43 58.544 1053.23 57.2 1053.23 55.712C1053.23 54.248 1053.43 52.916 1053.81 51.716C1054.22 50.516 1054.78 49.496 1055.5 48.656C1056.25 47.792 1057.12 47.132 1058.13 46.676C1059.16 46.22 1060.31 45.992 1061.59 45.992C1062.83 45.992 1063.95 46.22 1064.93 46.676C1065.92 47.132 1066.76 47.768 1067.45 48.584C1068.15 49.376 1068.68 50.324 1069.04 51.428C1069.42 52.532 1069.61 53.744 1069.61 55.064V56.432H1056.26V57.296C1056.26 58.088 1056.38 58.832 1056.62 59.528C1056.88 60.2 1057.24 60.788 1057.7 61.292C1058.18 61.796 1058.75 62.192 1059.43 62.48C1060.12 62.768 1060.9 62.912 1061.77 62.912C1062.94 62.912 1063.96 62.636 1064.83 62.084C1065.71 61.532 1066.4 60.74 1066.88 59.708L1068.93 61.184C1068.33 62.456 1067.39 63.488 1066.12 64.28C1064.85 65.048 1063.34 65.432 1061.59 65.432ZM1061.59 48.404C1060.79 48.404 1060.07 48.548 1059.43 48.836C1058.78 49.1 1058.21 49.484 1057.73 49.988C1057.28 50.492 1056.92 51.092 1056.65 51.788C1056.39 52.46 1056.26 53.204 1056.26 54.02V54.272H1066.52V53.876C1066.52 52.22 1066.06 50.9 1065.15 49.916C1064.26 48.908 1063.07 48.404 1061.59 48.404ZM1074.36 65V46.424H1077.24V49.844H1077.42C1077.76 48.956 1078.36 48.164 1079.22 47.468C1080.08 46.772 1081.27 46.424 1082.78 46.424H1083.9V49.304H1082.21C1080.65 49.304 1079.42 49.604 1078.54 50.204C1077.67 50.78 1077.24 51.512 1077.24 52.4V65H1074.36ZM1092.04 65L1085.52 46.424H1088.4L1091.64 55.64L1093.66 61.976H1093.84L1095.85 55.64L1099.16 46.424H1101.94L1095.38 65H1092.04ZM1107.09 42.068C1106.47 42.068 1106.01 41.924 1105.72 41.636C1105.46 41.324 1105.33 40.928 1105.33 40.448V39.98C1105.33 39.5 1105.46 39.116 1105.72 38.828C1106.01 38.516 1106.47 38.36 1107.09 38.36C1107.71 38.36 1108.16 38.516 1108.42 38.828C1108.71 39.116 1108.85 39.5 1108.85 39.98V40.448C1108.85 40.928 1108.71 41.324 1108.42 41.636C1108.16 41.924 1107.71 42.068 1107.09 42.068ZM1105.65 46.424H1108.53V65H1105.65V46.424ZM1121.56 65.432C1120.27 65.432 1119.1 65.204 1118.07 64.748C1117.04 64.292 1116.16 63.644 1115.44 62.804C1114.75 61.964 1114.21 60.944 1113.82 59.744C1113.46 58.544 1113.28 57.2 1113.28 55.712C1113.28 54.224 1113.46 52.88 1113.82 51.68C1114.21 50.48 1114.75 49.46 1115.44 48.62C1116.16 47.78 1117.04 47.132 1118.07 46.676C1119.1 46.22 1120.27 45.992 1121.56 45.992C1123.41 45.992 1124.89 46.4 1125.99 47.216C1127.12 48.008 1127.96 49.052 1128.51 50.348L1126.1 51.572C1125.76 50.612 1125.21 49.868 1124.44 49.34C1123.67 48.812 1122.71 48.548 1121.56 48.548C1120.7 48.548 1119.94 48.692 1119.29 48.98C1118.65 49.244 1118.11 49.628 1117.67 50.132C1117.24 50.612 1116.92 51.2 1116.7 51.896C1116.49 52.568 1116.38 53.312 1116.38 54.128V57.296C1116.38 58.928 1116.81 60.272 1117.67 61.328C1118.56 62.36 1119.86 62.876 1121.56 62.876C1123.89 62.876 1125.57 61.796 1126.6 59.636L1128.69 61.04C1128.09 62.384 1127.19 63.452 1125.99 64.244C1124.81 65.036 1123.34 65.432 1121.56 65.432ZM1139.53 65.432C1138.26 65.432 1137.1 65.204 1136.07 64.748C1135.06 64.292 1134.19 63.644 1133.44 62.804C1132.72 61.94 1132.16 60.92 1131.75 59.744C1131.37 58.544 1131.18 57.2 1131.18 55.712C1131.18 54.248 1131.37 52.916 1131.75 51.716C1132.16 50.516 1132.72 49.496 1133.44 48.656C1134.19 47.792 1135.06 47.132 1136.07 46.676C1137.1 46.22 1138.26 45.992 1139.53 45.992C1140.78 45.992 1141.89 46.22 1142.88 46.676C1143.86 47.132 1144.7 47.768 1145.4 48.584C1146.09 49.376 1146.62 50.324 1146.98 51.428C1147.36 52.532 1147.56 53.744 1147.56 55.064V56.432H1134.2V57.296C1134.2 58.088 1134.32 58.832 1134.56 59.528C1134.82 60.2 1135.18 60.788 1135.64 61.292C1136.12 61.796 1136.7 62.192 1137.37 62.48C1138.06 62.768 1138.84 62.912 1139.71 62.912C1140.88 62.912 1141.9 62.636 1142.77 62.084C1143.66 61.532 1144.34 60.74 1144.82 59.708L1146.87 61.184C1146.27 62.456 1145.34 63.488 1144.06 64.28C1142.79 65.048 1141.28 65.432 1139.53 65.432ZM1139.53 48.404C1138.74 48.404 1138.02 48.548 1137.37 48.836C1136.72 49.1 1136.16 49.484 1135.68 49.988C1135.22 50.492 1134.86 51.092 1134.6 51.788C1134.33 52.46 1134.2 53.204 1134.2 54.02V54.272H1144.46V53.876C1144.46 52.22 1144 50.9 1143.09 49.916C1142.2 48.908 1141.02 48.404 1139.53 48.404ZM1171.25 65V60.068H1159.12V57.404L1169.63 39.872H1174.13V57.548H1177.77V60.068H1174.13V65H1171.25ZM1161.96 57.548H1171.25V42.212H1171.07L1161.96 57.548Z" fill="black"/>
<path d="M641.64 456.432C639.912 456.432 638.46 456.108 637.284 455.46C636.132 454.788 635.136 453.9 634.296 452.796L636.348 451.14C637.068 452.052 637.872 452.76 638.76 453.264C639.648 453.744 640.68 453.984 641.856 453.984C643.08 453.984 644.028 453.72 644.7 453.192C645.396 452.664 645.744 451.92 645.744 450.96C645.744 450.24 645.504 449.628 645.024 449.124C644.568 448.596 643.728 448.236 642.504 448.044L641.028 447.828C640.164 447.708 639.372 447.528 638.652 447.288C637.932 447.024 637.296 446.688 636.744 446.28C636.216 445.848 635.796 445.32 635.484 444.696C635.196 444.072 635.052 443.328 635.052 442.464C635.052 441.552 635.22 440.76 635.556 440.088C635.892 439.392 636.348 438.816 636.924 438.36C637.524 437.904 638.232 437.568 639.048 437.352C639.864 437.112 640.74 436.992 641.676 436.992C643.188 436.992 644.448 437.256 645.456 437.784C646.488 438.312 647.388 439.044 648.156 439.98L646.248 441.708C645.84 441.132 645.24 440.616 644.448 440.16C643.656 439.68 642.66 439.44 641.46 439.44C640.26 439.44 639.348 439.704 638.724 440.232C638.124 440.736 637.824 441.432 637.824 442.32C637.824 443.232 638.124 443.892 638.724 444.3C639.348 444.708 640.236 445.008 641.388 445.2L642.828 445.416C644.892 445.728 646.356 446.328 647.22 447.216C648.084 448.08 648.516 449.22 648.516 450.636C648.516 452.436 647.904 453.852 646.68 454.884C645.456 455.916 643.776 456.432 641.64 456.432ZM660.587 456.432C659.315 456.432 658.163 456.204 657.131 455.748C656.123 455.292 655.247 454.644 654.503 453.804C653.783 452.94 653.219 451.92 652.811 450.744C652.427 449.544 652.235 448.2 652.235 446.712C652.235 445.248 652.427 443.916 652.811 442.716C653.219 441.516 653.783 440.496 654.503 439.656C655.247 438.792 656.123 438.132 657.131 437.676C658.163 437.22 659.315 436.992 660.587 436.992C661.835 436.992 662.951 437.22 663.935 437.676C664.919 438.132 665.759 438.768 666.455 439.584C667.151 440.376 667.679 441.324 668.039 442.428C668.423 443.532 668.615 444.744 668.615 446.064V447.432H655.259V448.296C655.259 449.088 655.379 449.832 655.619 450.528C655.883 451.2 656.243 451.788 656.699 452.292C657.179 452.796 657.755 453.192 658.427 453.48C659.123 453.768 659.903 453.912 660.767 453.912C661.943 453.912 662.963 453.636 663.827 453.084C664.715 452.532 665.399 451.74 665.879 450.708L667.931 452.184C667.331 453.456 666.395 454.488 665.123 455.28C663.851 456.048 662.339 456.432 660.587 456.432ZM660.587 439.404C659.795 439.404 659.075 439.548 658.427 439.836C657.779 440.1 657.215 440.484 656.735 440.988C656.279 441.492 655.919 442.092 655.655 442.788C655.391 443.46 655.259 444.204 655.259 445.02V445.272H665.519V444.876C665.519 443.22 665.063 441.9 664.151 440.916C663.263 439.908 662.075 439.404 660.587 439.404ZM673.361 456V437.424H676.241V440.844H676.421C676.757 439.956 677.357 439.164 678.221 438.468C679.085 437.772 680.273 437.424 681.785 437.424H682.901V440.304H681.209C679.649 440.304 678.425 440.604 677.537 441.204C676.673 441.78 676.241 442.512 676.241 443.4V456H673.361ZM691.035 456L684.519 437.424H687.399L690.639 446.64L692.655 452.976H692.835L694.851 446.64L698.163 437.424H700.935L694.383 456H691.035ZM706.09 433.068C705.466 433.068 705.01 432.924 704.722 432.636C704.458 432.324 704.326 431.928 704.326 431.448V430.98C704.326 430.5 704.458 430.116 704.722 429.828C705.01 429.516 705.466 429.36 706.09 429.36C706.714 429.36 707.158 429.516 707.422 429.828C707.71 430.116 707.854 430.5 707.854 430.98V431.448C707.854 431.928 707.71 432.324 707.422 432.636C707.158 432.924 706.714 433.068 706.09 433.068ZM704.65 437.424H707.53V456H704.65V437.424ZM720.562 456.432C719.266 456.432 718.102 456.204 717.07 455.748C716.038 455.292 715.162 454.644 714.442 453.804C713.746 452.964 713.206 451.944 712.822 450.744C712.462 449.544 712.282 448.2 712.282 446.712C712.282 445.224 712.462 443.88 712.822 442.68C713.206 441.48 713.746 440.46 714.442 439.62C715.162 438.78 716.038 438.132 717.07 437.676C718.102 437.22 719.266 436.992 720.562 436.992C722.41 436.992 723.886 437.4 724.99 438.216C726.118 439.008 726.958 440.052 727.51 441.348L725.098 442.572C724.762 441.612 724.21 440.868 723.442 440.34C722.674 439.812 721.714 439.548 720.562 439.548C719.698 439.548 718.942 439.692 718.294 439.98C717.646 440.244 717.106 440.628 716.674 441.132C716.242 441.612 715.918 442.2 715.702 442.896C715.486 443.568 715.378 444.312 715.378 445.128V448.296C715.378 449.928 715.81 451.272 716.674 452.328C717.562 453.36 718.858 453.876 720.562 453.876C722.89 453.876 724.57 452.796 725.602 450.636L727.69 452.04C727.09 453.384 726.19 454.452 724.99 455.244C723.814 456.036 722.338 456.432 720.562 456.432ZM738.528 456.432C737.256 456.432 736.104 456.204 735.072 455.748C734.064 455.292 733.188 454.644 732.444 453.804C731.724 452.94 731.16 451.92 730.752 450.744C730.368 449.544 730.176 448.2 730.176 446.712C730.176 445.248 730.368 443.916 730.752 442.716C731.16 441.516 731.724 440.496 732.444 439.656C733.188 438.792 734.064 438.132 735.072 437.676C736.104 437.22 737.256 436.992 738.528 436.992C739.776 436.992 740.892 437.22 741.876 437.676C742.86 438.132 743.7 438.768 744.396 439.584C745.092 440.376 745.62 441.324 745.98 442.428C746.364 443.532 746.556 444.744 746.556 446.064V447.432H733.2V448.296C733.2 449.088 733.32 449.832 733.56 450.528C733.824 451.2 734.184 451.788 734.64 452.292C735.12 452.796 735.696 453.192 736.368 453.48C737.064 453.768 737.844 453.912 738.708 453.912C739.884 453.912 740.904 453.636 741.768 453.084C742.656 452.532 743.34 451.74 743.82 450.708L745.872 452.184C745.272 453.456 744.336 454.488 743.064 455.28C741.792 456.048 740.28 456.432 738.528 456.432ZM738.528 439.404C737.736 439.404 737.016 439.548 736.368 439.836C735.72 440.1 735.156 440.484 734.676 440.988C734.22 441.492 733.86 442.092 733.596 442.788C733.332 443.46 733.2 444.204 733.2 445.02V445.272H743.46V444.876C743.46 443.22 743.004 441.9 742.092 440.916C741.204 439.908 740.016 439.404 738.528 439.404ZM766.146 441.528C767.85 441.528 769.122 441.144 769.962 440.376C770.826 439.584 771.258 438.576 771.258 437.352V437.1C771.258 435.78 770.838 434.796 769.998 434.148C769.182 433.476 768.102 433.14 766.758 433.14C765.462 433.14 764.406 433.428 763.59 434.004C762.774 434.556 762.102 435.312 761.574 436.272L759.342 434.544C759.654 434.04 760.026 433.548 760.458 433.068C760.914 432.564 761.442 432.12 762.042 431.736C762.642 431.352 763.338 431.04 764.13 430.8C764.922 430.56 765.822 430.44 766.83 430.44C767.886 430.44 768.882 430.584 769.818 430.872C770.754 431.136 771.558 431.544 772.23 432.096C772.926 432.624 773.466 433.284 773.85 434.076C774.258 434.868 774.462 435.768 774.462 436.776C774.462 437.592 774.33 438.324 774.066 438.972C773.826 439.62 773.49 440.184 773.058 440.664C772.626 441.144 772.11 441.552 771.51 441.888C770.934 442.224 770.31 442.476 769.638 442.644V442.788C770.31 442.932 770.958 443.172 771.582 443.508C772.23 443.82 772.794 444.24 773.274 444.768C773.778 445.272 774.174 445.896 774.462 446.64C774.774 447.36 774.93 448.188 774.93 449.124C774.93 450.204 774.726 451.2 774.318 452.112C773.91 453 773.334 453.768 772.59 454.416C771.846 455.04 770.946 455.532 769.89 455.892C768.834 456.252 767.67 456.432 766.398 456.432C765.318 456.432 764.358 456.312 763.518 456.072C762.678 455.832 761.934 455.508 761.286 455.1C760.638 454.692 760.062 454.236 759.558 453.732C759.078 453.228 758.646 452.7 758.262 452.148L760.53 450.42C760.842 450.924 761.178 451.38 761.538 451.788C761.922 452.196 762.342 452.544 762.798 452.832C763.254 453.12 763.77 453.348 764.346 453.516C764.922 453.66 765.594 453.732 766.362 453.732C768.138 453.732 769.482 453.336 770.394 452.544C771.306 451.728 771.762 450.576 771.762 449.088V448.8C771.762 447.312 771.306 446.172 770.394 445.38C769.482 444.564 768.138 444.156 766.362 444.156H763.41V441.528H766.146Z" fill="black"/>
<path d="M449.876 51C448.916 51 448.223 50.744 447.796 50.232C447.391 49.72 447.135 49.08 447.028 48.312H446.868C446.506 49.336 445.908 50.104 445.076 50.616C444.244 51.128 443.252 51.384 442.1 51.384C440.351 51.384 438.986 50.936 438.004 50.04C437.044 49.144 436.564 47.928 436.564 46.392C436.564 44.8347 437.13 43.64 438.26 42.808C439.412 41.976 441.194 41.56 443.604 41.56H446.868V39.928C446.868 38.7547 446.548 37.8587 445.908 37.24C445.268 36.6213 444.287 36.312 442.964 36.312C441.962 36.312 441.119 36.536 440.436 36.984C439.775 37.432 439.22 38.0293 438.772 38.776L437.236 37.336C437.684 36.44 438.399 35.6827 439.38 35.064C440.362 34.424 441.599 34.104 443.092 34.104C445.098 34.104 446.655 34.5947 447.764 35.576C448.874 36.5573 449.428 37.9227 449.428 39.672V48.76H451.316V51H449.876ZM442.516 49.208C443.156 49.208 443.743 49.1333 444.276 48.984C444.81 48.8347 445.268 48.6213 445.652 48.344C446.036 48.0667 446.335 47.7467 446.548 47.384C446.762 47.0213 446.868 46.6267 446.868 46.2V43.48H443.476C442.004 43.48 440.927 43.6933 440.244 44.12C439.583 44.5467 439.252 45.1653 439.252 45.976V46.648C439.252 47.4587 439.54 48.088 440.116 48.536C440.714 48.984 441.514 49.208 442.516 49.208ZM465.146 48.312H465.018C464.847 48.696 464.634 49.08 464.378 49.464C464.143 49.8267 463.845 50.1573 463.482 50.456C463.119 50.7333 462.682 50.9573 462.17 51.128C461.658 51.2987 461.061 51.384 460.378 51.384C458.671 51.384 457.317 50.84 456.314 49.752C455.311 48.6427 454.81 47.0853 454.81 45.08V34.488H457.37V44.632C457.37 47.5973 458.629 49.08 461.146 49.08C461.658 49.08 462.149 49.016 462.618 48.888C463.109 48.76 463.535 48.568 463.898 48.312C464.282 48.056 464.581 47.736 464.794 47.352C465.029 46.9467 465.146 46.4667 465.146 45.912V34.488H467.706V51H465.146V48.312ZM476.806 51C475.91 51 475.227 50.7547 474.758 50.264C474.31 49.752 474.086 49.0907 474.086 48.28V36.728H471.366V34.488H472.902C473.456 34.488 473.83 34.3813 474.022 34.168C474.235 33.9333 474.342 33.5387 474.342 32.984V29.912H476.646V34.488H480.262V36.728H476.646V48.76H480.006V51H476.806ZM484.376 27.32H486.936V37.176H487.064C487.47 36.2373 488.035 35.4907 488.76 34.936C489.507 34.3813 490.499 34.104 491.736 34.104C493.443 34.104 494.787 34.6587 495.768 35.768C496.771 36.856 497.272 38.4027 497.272 40.408V51H494.712V40.856C494.712 37.8907 493.464 36.408 490.968 36.408C490.456 36.408 489.955 36.472 489.464 36.6C488.995 36.728 488.568 36.92 488.184 37.176C487.8 37.432 487.491 37.7627 487.256 38.168C487.043 38.552 486.936 39.0107 486.936 39.544V51H484.376V27.32Z" fill="black"/>
<path d="M451.207 117.664V134.208C451.207 135.147 451.047 136 450.727 136.768C450.428 137.536 449.991 138.187 449.415 138.72C448.86 139.253 448.188 139.669 447.399 139.968C446.61 140.245 445.746 140.384 444.807 140.384C443.079 140.384 441.682 139.925 440.615 139.008C439.57 138.069 438.898 136.832 438.599 135.296L441.031 134.72C441.244 135.68 441.65 136.469 442.247 137.088C442.844 137.685 443.719 137.984 444.871 137.984C446.023 137.984 446.919 137.632 447.559 136.928C448.199 136.224 448.519 135.157 448.519 133.728V120.032H440.839V117.664H451.207ZM460.096 140L454.656 117.664H457.504L459.904 128.416L461.76 136.768H461.824L463.904 128.416L466.72 117.664H469.792L472.512 128.416L474.592 136.736H474.688L476.608 128.416L479.136 117.664H481.888L476.16 140H473.184L470.272 128.864L468.224 120.672H468.16L466.048 128.864L463.072 140H460.096ZM493.48 120.032V140H490.792V120.032H483.688V117.664H500.584V120.032H493.48Z" fill="black"/>
<path d="M388.207 332.664V349.208C388.207 350.147 388.047 351 387.727 351.768C387.428 352.536 386.991 353.187 386.415 353.72C385.86 354.253 385.188 354.669 384.399 354.968C383.61 355.245 382.746 355.384 381.807 355.384C380.079 355.384 378.682 354.925 377.615 354.008C376.57 353.069 375.898 351.832 375.599 350.296L378.031 349.72C378.244 350.68 378.65 351.469 379.247 352.088C379.844 352.685 380.719 352.984 381.871 352.984C383.023 352.984 383.919 352.632 384.559 351.928C385.199 351.224 385.519 350.157 385.519 348.728V335.032H377.839V332.664H388.207ZM397.096 355L391.656 332.664H394.504L396.904 343.416L398.76 351.768H398.824L400.904 343.416L403.72 332.664H406.792L409.512 343.416L411.592 351.736H411.688L413.608 343.416L416.136 332.664H418.888L413.16 355H410.184L407.272 343.864L405.224 335.672H405.16L403.048 343.864L400.072 355H397.096ZM430.48 335.032V355H427.792V335.032H420.688V332.664H437.584V335.032H430.48Z" fill="black"/>
<path d="M888.207 262.664V279.208C888.207 280.147 888.047 281 887.727 281.768C887.428 282.536 886.991 283.187 886.415 283.72C885.86 284.253 885.188 284.669 884.399 284.968C883.61 285.245 882.746 285.384 881.807 285.384C880.079 285.384 878.682 284.925 877.615 284.008C876.57 283.069 875.898 281.832 875.599 280.296L878.031 279.72C878.244 280.68 878.65 281.469 879.247 282.088C879.844 282.685 880.719 282.984 881.871 282.984C883.023 282.984 883.919 282.632 884.559 281.928C885.199 281.224 885.519 280.157 885.519 278.728V265.032H877.839V262.664H888.207ZM897.096 285L891.656 262.664H894.504L896.904 273.416L898.76 281.768H898.824L900.904 273.416L903.72 262.664H906.792L909.512 273.416L911.592 281.736H911.688L913.608 273.416L916.136 262.664H918.888L913.16 285H910.184L907.272 273.864L905.224 265.672H905.16L903.048 273.864L900.072 285H897.096ZM930.48 265.032V285H927.792V265.032H920.688V262.664H937.584V265.032H930.48Z" fill="black"/>
<path d="M1034.21 174.664V191.208C1034.21 192.147 1034.05 193 1033.73 193.768C1033.43 194.536 1032.99 195.187 1032.42 195.72C1031.86 196.253 1031.19 196.669 1030.4 196.968C1029.61 197.245 1028.75 197.384 1027.81 197.384C1026.08 197.384 1024.68 196.925 1023.62 196.008C1022.57 195.069 1021.9 193.832 1021.6 192.296L1024.03 191.72C1024.24 192.68 1024.65 193.469 1025.25 194.088C1025.84 194.685 1026.72 194.984 1027.87 194.984C1029.02 194.984 1029.92 194.632 1030.56 193.928C1031.2 193.224 1031.52 192.157 1031.52 190.728V177.032H1023.84V174.664H1034.21ZM1043.1 197L1037.66 174.664H1040.5L1042.9 185.416L1044.76 193.768H1044.82L1046.9 185.416L1049.72 174.664H1052.79L1055.51 185.416L1057.59 193.736H1057.69L1059.61 185.416L1062.14 174.664H1064.89L1059.16 197H1056.18L1053.27 185.864L1051.22 177.672H1051.16L1049.05 185.864L1046.07 197H1043.1ZM1076.48 177.032V197H1073.79V177.032H1066.69V174.664H1083.58V177.032H1076.48Z" fill="black"/>
<path d="M370.939 149.924C370.354 150.51 370.354 151.46 370.939 152.046L380.485 161.592C381.071 162.177 382.021 162.177 382.607 161.592C383.192 161.006 383.192 160.056 382.607 159.47L374.121 150.985L382.607 142.5C383.192 141.914 383.192 140.964 382.607 140.378C382.021 139.793 381.071 139.793 380.485 140.378L370.939 149.924ZM570.762 149.485L372 149.485V152.485L570.762 152.485V149.485Z" fill="#9673A6"/>
<path d="M569.061 74.0607C569.646 73.4749 569.646 72.5251 569.061 71.9393L559.515 62.3934C558.929 61.8076 557.979 61.8076 557.393 62.3934C556.808 62.9792 556.808 63.9289 557.393 64.5147L565.879 73L557.393 81.4853C556.808 82.0711 556.808 83.0208 557.393 83.6066C557.979 84.1924 558.929 84.1924 559.515 83.6066L569.061 74.0607ZM369 74.5L568 74.5L568 71.5L369 71.5L369 74.5Z" fill="#209B1D"/>
<rect x="1" y="1" width="368" height="224" rx="19.7568" fill="#E1F8E1" stroke="#209B1D" stroke-width="2"/>
<path d="M113.348 94.872H123.68C125.768 94.872 127.4 95.46 128.576 96.636C129.776 97.812 130.376 99.384 130.376 101.352C130.376 102.288 130.244 103.08 129.98 103.728C129.716 104.376 129.38 104.916 128.972 105.348C128.564 105.756 128.12 106.068 127.64 106.284C127.16 106.476 126.716 106.608 126.308 106.68V106.896C126.764 106.92 127.268 107.04 127.82 107.256C128.396 107.472 128.936 107.82 129.44 108.3C129.944 108.756 130.364 109.356 130.7 110.1C131.06 110.82 131.24 111.696 131.24 112.728C131.24 113.76 131.072 114.72 130.736 115.608C130.424 116.496 129.98 117.264 129.404 117.912C128.828 118.56 128.144 119.076 127.352 119.46C126.56 119.82 125.696 120 124.76 120H113.348V94.872ZM116.372 117.336H123.824C125.12 117.336 126.14 117.012 126.884 116.364C127.628 115.692 128 114.72 128 113.448V112.224C128 110.952 127.628 109.992 126.884 109.344C126.14 108.672 125.12 108.336 123.824 108.336H116.372V117.336ZM116.372 105.744H123.32C124.52 105.744 125.456 105.444 126.128 104.844C126.8 104.244 127.136 103.38 127.136 102.252V101.028C127.136 99.9 126.8 99.036 126.128 98.436C125.456 97.836 124.52 97.536 123.32 97.536H116.372V105.744ZM136.58 120V101.424H139.46V104.844H139.64C139.976 103.956 140.576 103.164 141.44 102.468C142.304 101.772 143.492 101.424 145.004 101.424H146.12V104.304H144.428C142.868 104.304 141.644 104.604 140.756 105.204C139.892 105.78 139.46 106.512 139.46 107.4V120H136.58ZM156.643 120.432C155.395 120.432 154.255 120.204 153.223 119.748C152.191 119.292 151.303 118.644 150.559 117.804C149.839 116.94 149.275 115.92 148.867 114.744C148.459 113.544 148.255 112.2 148.255 110.712C148.255 109.248 148.459 107.916 148.867 106.716C149.275 105.516 149.839 104.496 150.559 103.656C151.303 102.792 152.191 102.132 153.223 101.676C154.255 101.22 155.395 100.992 156.643 100.992C157.891 100.992 159.019 101.22 160.027 101.676C161.059 102.132 161.947 102.792 162.691 103.656C163.435 104.496 164.011 105.516 164.419 106.716C164.827 107.916 165.031 109.248 165.031 110.712C165.031 112.2 164.827 113.544 164.419 114.744C164.011 115.92 163.435 116.94 162.691 117.804C161.947 118.644 161.059 119.292 160.027 119.748C159.019 120.204 157.891 120.432 156.643 120.432ZM156.643 117.876C158.203 117.876 159.475 117.396 160.459 116.436C161.443 115.476 161.935 114.012 161.935 112.044V109.38C161.935 107.412 161.443 105.948 160.459 104.988C159.475 104.028 158.203 103.548 156.643 103.548C155.083 103.548 153.811 104.028 152.827 104.988C151.843 105.948 151.351 107.412 151.351 109.38V112.044C151.351 114.012 151.843 115.476 152.827 116.436C153.811 117.396 155.083 117.876 156.643 117.876ZM167.647 101.424H170.455L172.435 109.452L174.415 117.588H174.487L176.755 109.452L179.095 101.424H181.651L184.063 109.452L186.367 117.588H186.439L188.347 109.452L190.363 101.424H193.063L188.131 120H184.567L181.975 111.072L180.355 105.42H180.283L178.699 111.072L176.107 120H172.615L167.647 101.424ZM202.734 120.432C201.006 120.432 199.554 120.108 198.378 119.46C197.226 118.788 196.23 117.9 195.39 116.796L197.442 115.14C198.162 116.052 198.966 116.76 199.854 117.264C200.742 117.744 201.774 117.984 202.95 117.984C204.174 117.984 205.122 117.72 205.794 117.192C206.49 116.664 206.838 115.92 206.838 114.96C206.838 114.24 206.598 113.628 206.118 113.124C205.662 112.596 204.822 112.236 203.598 112.044L202.122 111.828C201.258 111.708 200.466 111.528 199.746 111.288C199.026 111.024 198.39 110.688 197.838 110.28C197.31 109.848 196.89 109.32 196.578 108.696C196.29 108.072 196.146 107.328 196.146 106.464C196.146 105.552 196.314 104.76 196.65 104.088C196.986 103.392 197.442 102.816 198.018 102.36C198.618 101.904 199.326 101.568 200.142 101.352C200.958 101.112 201.834 100.992 202.77 100.992C204.282 100.992 205.542 101.256 206.55 101.784C207.582 102.312 208.482 103.044 209.25 103.98L207.342 105.708C206.934 105.132 206.334 104.616 205.542 104.16C204.75 103.68 203.754 103.44 202.554 103.44C201.354 103.44 200.442 103.704 199.818 104.232C199.218 104.736 198.918 105.432 198.918 106.32C198.918 107.232 199.218 107.892 199.818 108.3C200.442 108.708 201.33 109.008 202.482 109.2L203.922 109.416C205.986 109.728 207.45 110.328 208.314 111.216C209.178 112.08 209.61 113.22 209.61 114.636C209.61 116.436 208.998 117.852 207.774 118.884C206.55 119.916 204.87 120.432 202.734 120.432ZM221.681 120.432C220.409 120.432 219.257 120.204 218.225 119.748C217.217 119.292 216.341 118.644 215.597 117.804C214.877 116.94 214.313 115.92 213.905 114.744C213.521 113.544 213.329 112.2 213.329 110.712C213.329 109.248 213.521 107.916 213.905 106.716C214.313 105.516 214.877 104.496 215.597 103.656C216.341 102.792 217.217 102.132 218.225 101.676C219.257 101.22 220.409 100.992 221.681 100.992C222.929 100.992 224.045 101.22 225.029 101.676C226.013 102.132 226.853 102.768 227.549 103.584C228.245 104.376 228.773 105.324 229.133 106.428C229.517 107.532 229.709 108.744 229.709 110.064V111.432H216.353V112.296C216.353 113.088 216.473 113.832 216.713 114.528C216.977 115.2 217.337 115.788 217.793 116.292C218.273 116.796 218.849 117.192 219.521 117.48C220.217 117.768 220.997 117.912 221.861 117.912C223.037 117.912 224.057 117.636 224.921 117.084C225.809 116.532 226.493 115.74 226.973 114.708L229.025 116.184C228.425 117.456 227.489 118.488 226.217 119.28C224.945 120.048 223.433 120.432 221.681 120.432ZM221.681 103.404C220.889 103.404 220.169 103.548 219.521 103.836C218.873 104.1 218.309 104.484 217.829 104.988C217.373 105.492 217.013 106.092 216.749 106.788C216.485 107.46 216.353 108.204 216.353 109.02V109.272H226.613V108.876C226.613 107.22 226.157 105.9 225.245 104.916C224.357 103.908 223.169 103.404 221.681 103.404ZM234.455 120V101.424H237.335V104.844H237.515C237.851 103.956 238.451 103.164 239.315 102.468C240.179 101.772 241.367 101.424 242.879 101.424H243.995V104.304H242.303C240.743 104.304 239.519 104.604 238.631 105.204C237.767 105.78 237.335 106.512 237.335 107.4V120H234.455Z" fill="black"/>
<path d="M569.061 448.061C569.646 447.475 569.646 446.525 569.061 445.939L559.515 436.393C558.929 435.808 557.979 435.808 557.393 436.393C556.808 436.979 556.808 437.929 557.393 438.515L565.879 447L557.393 455.485C556.808 456.071 556.808 457.021 557.393 457.607C557.979 458.192 558.929 458.192 559.515 457.607L569.061 448.061ZM370 180.5H440.949V177.5H370V180.5ZM463.45 203V423H466.45V203H463.45ZM488.95 448.5H568V445.5H488.95V448.5ZM463.45 423C463.45 437.083 474.866 448.5 488.95 448.5V445.5C476.523 445.5 466.45 435.426 466.45 423H463.45ZM440.949 180.5C453.376 180.5 463.45 190.574 463.45 203H466.45C466.45 188.917 455.033 177.5 440.949 177.5V180.5Z" fill="#209B1D"/>
<path d="M569.061 306.061C569.646 305.475 569.646 304.525 569.061 303.939L559.515 294.393C558.929 293.808 557.979 293.808 557.393 294.393C556.808 294.979 556.808 295.929 557.393 296.515L565.879 305L557.393 313.485C556.808 314.071 556.808 315.021 557.393 315.607C557.979 316.192 558.929 316.192 559.515 315.607L569.061 306.061ZM489 306.5H568V303.5H489V306.5ZM466.5 281V258H463.5V281H466.5ZM489 303.5C476.574 303.5 466.5 293.426 466.5 281H463.5C463.5 295.083 474.917 306.5 489 306.5V303.5Z" fill="#209B1D"/>
<path d="M970.061 306.061C970.646 305.475 970.646 304.525 970.061 303.939L960.515 294.393C959.929 293.808 958.979 293.808 958.393 294.393C957.808 294.979 957.808 295.929 958.393 296.515L966.879 305L958.393 313.485C957.808 314.071 957.808 315.021 958.393 315.607C958.979 316.192 959.929 316.192 960.515 315.607L970.061 306.061ZM842 306.5H969V303.5H842V306.5Z" fill="#209B1D"/>
<path d="M1102.06 111.939C1101.47 111.354 1100.53 111.354 1099.94 111.939L1090.39 121.485C1089.81 122.071 1089.81 123.021 1090.39 123.607C1090.98 124.192 1091.93 124.192 1092.51 123.607L1101 115.121L1109.49 123.607C1110.07 124.192 1111.02 124.192 1111.61 123.607C1112.19 123.021 1112.19 122.071 1111.61 121.485L1102.06 111.939ZM1102.5 254V113H1099.5V254H1102.5Z" fill="#209B1D"/>
</svg>
