<svg width="1606" height="644" viewBox="0 0 1606 644" fill="none" xmlns="http://www.w3.org/2000/svg">
<rect x="1.72973" y="1.72973" width="366.541" height="448.541" rx="19.027" fill="#E1F8E1" stroke="#209B1D" stroke-width="3.45946"/>
<rect x="569.73" y="1.72973" width="366.541" height="448.541" rx="19.027" fill="#E9D8F0" stroke="#9673A6" stroke-width="3.45946"/>
<rect x="1237.73" y="1.72973" width="366.541" height="448.541" rx="19.027" fill="#F8CCF1" stroke="#A92393" stroke-width="3.45946"/>
<path d="M678.48 208.96L675.12 202.76H675V226H671.72V198.08H675.6L685.8 215.12L689.16 221.32H689.28V198.08H692.56V226H688.68L678.48 208.96ZM707.441 226.48C706.028 226.48 704.748 226.227 703.601 225.72C702.481 225.213 701.508 224.493 700.681 223.56C699.881 222.6 699.255 221.467 698.801 220.16C698.375 218.827 698.161 217.333 698.161 215.68C698.161 214.053 698.375 212.573 698.801 211.24C699.255 209.907 699.881 208.773 700.681 207.84C701.508 206.88 702.481 206.147 703.601 205.64C704.748 205.133 706.028 204.88 707.441 204.88C708.828 204.88 710.068 205.133 711.161 205.64C712.255 206.147 713.188 206.853 713.961 207.76C714.735 208.64 715.321 209.693 715.721 210.92C716.148 212.147 716.361 213.493 716.361 214.96V216.48H701.521V217.44C701.521 218.32 701.655 219.147 701.921 219.92C702.215 220.667 702.615 221.32 703.121 221.88C703.655 222.44 704.295 222.88 705.041 223.2C705.815 223.52 706.681 223.68 707.641 223.68C708.948 223.68 710.081 223.373 711.041 222.76C712.028 222.147 712.788 221.267 713.321 220.12L715.601 221.76C714.935 223.173 713.895 224.32 712.481 225.2C711.068 226.053 709.388 226.48 707.441 226.48ZM707.441 207.56C706.561 207.56 705.761 207.72 705.041 208.04C704.321 208.333 703.695 208.76 703.161 209.32C702.655 209.88 702.255 210.547 701.961 211.32C701.668 212.067 701.521 212.893 701.521 213.8V214.08H712.921V213.64C712.921 211.8 712.415 210.333 711.401 209.24C710.415 208.12 709.095 207.56 707.441 207.56ZM718.606 226L726.246 215.6L718.926 205.36H722.686L727.926 213.04H728.046L733.486 205.36H737.046L729.766 215.36L737.206 226H733.446L728.086 217.92H727.966L722.166 226H718.606ZM745.999 226C744.879 226 744.026 225.693 743.439 225.08C742.879 224.44 742.599 223.613 742.599 222.6V208.16H739.199V205.36H741.119C741.812 205.36 742.279 205.227 742.519 204.96C742.786 204.667 742.919 204.173 742.919 203.48V199.64H745.799V205.36H750.319V208.16H745.799V223.2H749.999V226H745.999ZM773.497 226L770.697 217.76H759.417L756.617 226H753.217L762.977 198.08H767.257L777.017 226H773.497ZM765.137 201.2H764.937L760.217 214.8H769.857L765.137 201.2ZM794.042 222.64H793.882C793.669 223.12 793.402 223.6 793.082 224.08C792.789 224.533 792.415 224.947 791.962 225.32C791.509 225.667 790.962 225.947 790.322 226.16C789.682 226.373 788.935 226.48 788.082 226.48C785.949 226.48 784.255 225.8 783.002 224.44C781.749 223.053 781.122 221.107 781.122 218.6V205.36H784.322V218.04C784.322 221.747 785.895 223.6 789.042 223.6C789.682 223.6 790.295 223.52 790.882 223.36C791.495 223.2 792.029 222.96 792.482 222.64C792.962 222.32 793.335 221.92 793.602 221.44C793.895 220.933 794.042 220.333 794.042 219.64V205.36H797.242V226H794.042V222.64ZM808.616 226C807.496 226 806.643 225.693 806.056 225.08C805.496 224.44 805.216 223.613 805.216 222.6V208.16H801.816V205.36H803.736C804.43 205.36 804.896 205.227 805.136 204.96C805.403 204.667 805.536 204.173 805.536 203.48V199.64H808.416V205.36H812.936V208.16H808.416V223.2H812.616V226H808.616ZM818.08 196.4H821.28V208.72H821.44C821.946 207.547 822.653 206.613 823.56 205.92C824.493 205.227 825.733 204.88 827.28 204.88C829.413 204.88 831.093 205.573 832.32 206.96C833.573 208.32 834.2 210.253 834.2 212.76V226H831V213.32C831 209.613 829.44 207.76 826.32 207.76C825.68 207.76 825.053 207.84 824.44 208C823.853 208.16 823.32 208.4 822.84 208.72C822.36 209.04 821.973 209.453 821.68 209.96C821.413 210.44 821.28 211.013 821.28 211.68V226H818.08V196.4Z" fill="black"/>
<path d="M113.72 198.08H125.2C127.52 198.08 129.333 198.733 130.64 200.04C131.973 201.347 132.64 203.093 132.64 205.28C132.64 206.32 132.493 207.2 132.2 207.92C131.907 208.64 131.533 209.24 131.08 209.72C130.627 210.173 130.133 210.52 129.6 210.76C129.067 210.973 128.573 211.12 128.12 211.2V211.44C128.627 211.467 129.187 211.6 129.8 211.84C130.44 212.08 131.04 212.467 131.6 213C132.16 213.507 132.627 214.173 133 215C133.4 215.8 133.6 216.773 133.6 217.92C133.6 219.067 133.413 220.133 133.04 221.12C132.693 222.107 132.2 222.96 131.56 223.68C130.92 224.4 130.16 224.973 129.28 225.4C128.4 225.8 127.44 226 126.4 226H113.72V198.08ZM117.08 223.04H125.36C126.8 223.04 127.933 222.68 128.76 221.96C129.587 221.213 130 220.133 130 218.72V217.36C130 215.947 129.587 214.88 128.76 214.16C127.933 213.413 126.8 213.04 125.36 213.04H117.08V223.04ZM117.08 210.16H124.8C126.133 210.16 127.173 209.827 127.92 209.16C128.667 208.493 129.04 207.533 129.04 206.28V204.92C129.04 203.667 128.667 202.707 127.92 202.04C127.173 201.373 126.133 201.04 124.8 201.04H117.08V210.16ZM139.533 226V205.36H142.733V209.16H142.933C143.306 208.173 143.973 207.293 144.933 206.52C145.893 205.747 147.213 205.36 148.893 205.36H150.133V208.56H148.253C146.519 208.56 145.159 208.893 144.173 209.56C143.213 210.2 142.733 211.013 142.733 212V226H139.533ZM161.825 226.48C160.438 226.48 159.172 226.227 158.025 225.72C156.878 225.213 155.892 224.493 155.065 223.56C154.265 222.6 153.638 221.467 153.185 220.16C152.732 218.827 152.505 217.333 152.505 215.68C152.505 214.053 152.732 212.573 153.185 211.24C153.638 209.907 154.265 208.773 155.065 207.84C155.892 206.88 156.878 206.147 158.025 205.64C159.172 205.133 160.438 204.88 161.825 204.88C163.212 204.88 164.465 205.133 165.585 205.64C166.732 206.147 167.718 206.88 168.545 207.84C169.372 208.773 170.012 209.907 170.465 211.24C170.918 212.573 171.145 214.053 171.145 215.68C171.145 217.333 170.918 218.827 170.465 220.16C170.012 221.467 169.372 222.6 168.545 223.56C167.718 224.493 166.732 225.213 165.585 225.72C164.465 226.227 163.212 226.48 161.825 226.48ZM161.825 223.64C163.558 223.64 164.972 223.107 166.065 222.04C167.158 220.973 167.705 219.347 167.705 217.16V214.2C167.705 212.013 167.158 210.387 166.065 209.32C164.972 208.253 163.558 207.72 161.825 207.72C160.092 207.72 158.678 208.253 157.585 209.32C156.492 210.387 155.945 212.013 155.945 214.2V217.16C155.945 219.347 156.492 220.973 157.585 222.04C158.678 223.107 160.092 223.64 161.825 223.64ZM174.053 205.36H177.173L179.373 214.28L181.573 223.32H181.653L184.173 214.28L186.773 205.36H189.613L192.293 214.28L194.852 223.32H194.933L197.053 214.28L199.293 205.36H202.293L196.813 226H192.853L189.973 216.08L188.173 209.8H188.093L186.333 216.08L183.453 226H179.573L174.053 205.36ZM213.038 226.48C211.118 226.48 209.504 226.12 208.198 225.4C206.918 224.653 205.811 223.667 204.878 222.44L207.158 220.6C207.958 221.613 208.851 222.4 209.838 222.96C210.824 223.493 211.971 223.76 213.278 223.76C214.638 223.76 215.691 223.467 216.438 222.88C217.211 222.293 217.598 221.467 217.598 220.4C217.598 219.6 217.331 218.92 216.798 218.36C216.291 217.773 215.358 217.373 213.997 217.16L212.358 216.92C211.398 216.787 210.518 216.587 209.718 216.32C208.918 216.027 208.211 215.653 207.598 215.2C207.011 214.72 206.544 214.133 206.198 213.44C205.878 212.747 205.718 211.92 205.718 210.96C205.718 209.947 205.904 209.067 206.278 208.32C206.651 207.547 207.158 206.907 207.798 206.4C208.464 205.893 209.251 205.52 210.158 205.28C211.064 205.013 212.038 204.88 213.078 204.88C214.758 204.88 216.158 205.173 217.278 205.76C218.424 206.347 219.424 207.16 220.278 208.2L218.158 210.12C217.704 209.48 217.038 208.907 216.158 208.4C215.278 207.867 214.171 207.6 212.838 207.6C211.504 207.6 210.491 207.893 209.798 208.48C209.131 209.04 208.798 209.813 208.798 210.8C208.798 211.813 209.131 212.547 209.798 213C210.491 213.453 211.478 213.787 212.758 214L214.358 214.24C216.651 214.587 218.278 215.253 219.238 216.24C220.198 217.2 220.678 218.467 220.678 220.04C220.678 222.04 219.998 223.613 218.638 224.76C217.278 225.907 215.411 226.48 213.038 226.48ZM234.09 226.48C232.676 226.48 231.396 226.227 230.25 225.72C229.13 225.213 228.156 224.493 227.33 223.56C226.53 222.6 225.903 221.467 225.45 220.16C225.023 218.827 224.81 217.333 224.81 215.68C224.81 214.053 225.023 212.573 225.45 211.24C225.903 209.907 226.53 208.773 227.33 207.84C228.156 206.88 229.13 206.147 230.25 205.64C231.396 205.133 232.676 204.88 234.09 204.88C235.476 204.88 236.716 205.133 237.81 205.64C238.903 206.147 239.836 206.853 240.61 207.76C241.383 208.64 241.97 209.693 242.37 210.92C242.796 212.147 243.01 213.493 243.01 214.96V216.48H228.17V217.44C228.17 218.32 228.303 219.147 228.57 219.92C228.863 220.667 229.263 221.32 229.77 221.88C230.303 222.44 230.943 222.88 231.69 223.2C232.463 223.52 233.33 223.68 234.29 223.68C235.596 223.68 236.73 223.373 237.69 222.76C238.676 222.147 239.436 221.267 239.97 220.12L242.25 221.76C241.583 223.173 240.543 224.32 239.13 225.2C237.716 226.053 236.036 226.48 234.09 226.48ZM234.09 207.56C233.21 207.56 232.41 207.72 231.69 208.04C230.97 208.333 230.343 208.76 229.81 209.32C229.303 209.88 228.903 210.547 228.61 211.32C228.316 212.067 228.17 212.893 228.17 213.8V214.08H239.57V213.64C239.57 211.8 239.063 210.333 238.05 209.24C237.063 208.12 235.743 207.56 234.09 207.56ZM248.283 226V205.36H251.483V209.16H251.683C252.056 208.173 252.723 207.293 253.683 206.52C254.643 205.747 255.963 205.36 257.643 205.36H258.883V208.56H257.003C255.269 208.56 253.909 208.893 252.923 209.56C251.963 210.2 251.483 211.013 251.483 212V226H248.283Z" fill="black"/>
<path d="M1349.72 198.08H1361.2C1363.52 198.08 1365.33 198.733 1366.64 200.04C1367.97 201.347 1368.64 203.093 1368.64 205.28C1368.64 206.32 1368.49 207.2 1368.2 207.92C1367.91 208.64 1367.53 209.24 1367.08 209.72C1366.63 210.173 1366.13 210.52 1365.6 210.76C1365.07 210.973 1364.57 211.12 1364.12 211.2V211.44C1364.63 211.467 1365.19 211.6 1365.8 211.84C1366.44 212.08 1367.04 212.467 1367.6 213C1368.16 213.507 1368.63 214.173 1369 215C1369.4 215.8 1369.6 216.773 1369.6 217.92C1369.6 219.067 1369.41 220.133 1369.04 221.12C1368.69 222.107 1368.2 222.96 1367.56 223.68C1366.92 224.4 1366.16 224.973 1365.28 225.4C1364.4 225.8 1363.44 226 1362.4 226H1349.72V198.08ZM1353.08 223.04H1361.36C1362.8 223.04 1363.93 222.68 1364.76 221.96C1365.59 221.213 1366 220.133 1366 218.72V217.36C1366 215.947 1365.59 214.88 1364.76 214.16C1363.93 213.413 1362.8 213.04 1361.36 213.04H1353.08V223.04ZM1353.08 210.16H1360.8C1362.13 210.16 1363.17 209.827 1363.92 209.16C1364.67 208.493 1365.04 207.533 1365.04 206.28V204.92C1365.04 203.667 1364.67 202.707 1363.92 202.04C1363.17 201.373 1362.13 201.04 1360.8 201.04H1353.08V210.16ZM1390.53 226C1389.33 226 1388.47 225.68 1387.93 225.04C1387.43 224.4 1387.11 223.6 1386.97 222.64H1386.77C1386.32 223.92 1385.57 224.88 1384.53 225.52C1383.49 226.16 1382.25 226.48 1380.81 226.48C1378.63 226.48 1376.92 225.92 1375.69 224.8C1374.49 223.68 1373.89 222.16 1373.89 220.24C1373.89 218.293 1374.6 216.8 1376.01 215.76C1377.45 214.72 1379.68 214.2 1382.69 214.2H1386.77V212.16C1386.77 210.693 1386.37 209.573 1385.57 208.8C1384.77 208.027 1383.55 207.64 1381.89 207.64C1380.64 207.64 1379.59 207.92 1378.73 208.48C1377.91 209.04 1377.21 209.787 1376.65 210.72L1374.73 208.92C1375.29 207.8 1376.19 206.853 1377.41 206.08C1378.64 205.28 1380.19 204.88 1382.05 204.88C1384.56 204.88 1386.51 205.493 1387.89 206.72C1389.28 207.947 1389.97 209.653 1389.97 211.84V223.2H1392.33V226H1390.53ZM1381.33 223.76C1382.13 223.76 1382.87 223.667 1383.53 223.48C1384.2 223.293 1384.77 223.027 1385.25 222.68C1385.73 222.333 1386.11 221.933 1386.37 221.48C1386.64 221.027 1386.77 220.533 1386.77 220V216.6H1382.53C1380.69 216.6 1379.35 216.867 1378.49 217.4C1377.67 217.933 1377.25 218.707 1377.25 219.72V220.56C1377.25 221.573 1377.61 222.36 1378.33 222.92C1379.08 223.48 1380.08 223.76 1381.33 223.76ZM1404.58 226.48C1403.14 226.48 1401.85 226.227 1400.7 225.72C1399.55 225.213 1398.58 224.493 1397.78 223.56C1397.01 222.627 1396.41 221.493 1395.98 220.16C1395.58 218.827 1395.38 217.333 1395.38 215.68C1395.38 214.027 1395.58 212.533 1395.98 211.2C1396.41 209.867 1397.01 208.733 1397.78 207.8C1398.58 206.867 1399.55 206.147 1400.7 205.64C1401.85 205.133 1403.14 204.88 1404.58 204.88C1406.63 204.88 1408.27 205.333 1409.5 206.24C1410.75 207.12 1411.69 208.28 1412.3 209.72L1409.62 211.08C1409.25 210.013 1408.63 209.187 1407.78 208.6C1406.93 208.013 1405.86 207.72 1404.58 207.72C1403.62 207.72 1402.78 207.88 1402.06 208.2C1401.34 208.493 1400.74 208.92 1400.26 209.48C1399.78 210.013 1399.42 210.667 1399.18 211.44C1398.94 212.187 1398.82 213.013 1398.82 213.92V217.44C1398.82 219.253 1399.3 220.747 1400.26 221.92C1401.25 223.067 1402.69 223.64 1404.58 223.64C1407.17 223.64 1409.03 222.44 1410.18 220.04L1412.5 221.6C1411.83 223.093 1410.83 224.28 1409.5 225.16C1408.19 226.04 1406.55 226.48 1404.58 226.48ZM1417.02 196.4H1420.22V215.16H1420.38L1423.54 211.64L1429.38 205.36H1433.26L1425.62 213.52L1434.02 226H1430.14L1423.3 215.48L1420.22 218.64V226H1417.02V196.4ZM1445.21 226.48C1443.79 226.48 1442.51 226.227 1441.37 225.72C1440.25 225.213 1439.27 224.493 1438.45 223.56C1437.65 222.6 1437.02 221.467 1436.57 220.16C1436.14 218.827 1435.93 217.333 1435.93 215.68C1435.93 214.053 1436.14 212.573 1436.57 211.24C1437.02 209.907 1437.65 208.773 1438.45 207.84C1439.27 206.88 1440.25 206.147 1441.37 205.64C1442.51 205.133 1443.79 204.88 1445.21 204.88C1446.59 204.88 1447.83 205.133 1448.93 205.64C1450.02 206.147 1450.95 206.853 1451.73 207.76C1452.5 208.64 1453.09 209.693 1453.49 210.92C1453.91 212.147 1454.13 213.493 1454.13 214.96V216.48H1439.29V217.44C1439.29 218.32 1439.42 219.147 1439.69 219.92C1439.98 220.667 1440.38 221.32 1440.89 221.88C1441.42 222.44 1442.06 222.88 1442.81 223.2C1443.58 223.52 1444.45 223.68 1445.41 223.68C1446.71 223.68 1447.85 223.373 1448.81 222.76C1449.79 222.147 1450.55 221.267 1451.09 220.12L1453.37 221.76C1452.7 223.173 1451.66 224.32 1450.25 225.2C1448.83 226.053 1447.15 226.48 1445.21 226.48ZM1445.21 207.56C1444.33 207.56 1443.53 207.72 1442.81 208.04C1442.09 208.333 1441.46 208.76 1440.93 209.32C1440.42 209.88 1440.02 210.547 1439.73 211.32C1439.43 212.067 1439.29 212.893 1439.29 213.8V214.08H1450.69V213.64C1450.69 211.8 1450.18 210.333 1449.17 209.24C1448.18 208.12 1446.86 207.56 1445.21 207.56ZM1459.4 226V205.36H1462.6V208.72H1462.76C1463.27 207.547 1463.97 206.613 1464.88 205.92C1465.81 205.227 1467.05 204.88 1468.6 204.88C1470.73 204.88 1472.41 205.573 1473.64 206.96C1474.89 208.32 1475.52 210.253 1475.52 212.76V226H1472.32V213.32C1472.32 209.613 1470.76 207.76 1467.64 207.76C1467 207.76 1466.37 207.84 1465.76 208C1465.17 208.16 1464.64 208.4 1464.16 208.72C1463.68 209.04 1463.29 209.453 1463 209.96C1462.73 210.44 1462.6 211.013 1462.6 211.68V226H1459.4ZM1495.33 222.64H1495.17C1493.92 225.2 1491.91 226.48 1489.13 226.48C1487.85 226.48 1486.69 226.227 1485.65 225.72C1484.61 225.213 1483.72 224.493 1482.97 223.56C1482.25 222.627 1481.69 221.493 1481.29 220.16C1480.92 218.827 1480.73 217.333 1480.73 215.68C1480.73 214.027 1480.92 212.533 1481.29 211.2C1481.69 209.867 1482.25 208.733 1482.97 207.8C1483.72 206.867 1484.61 206.147 1485.65 205.64C1486.69 205.133 1487.85 204.88 1489.13 204.88C1490.57 204.88 1491.8 205.2 1492.81 205.84C1493.85 206.453 1494.64 207.413 1495.17 208.72H1495.33V196.4H1498.53V226H1495.33V222.64ZM1490.01 223.6C1490.73 223.6 1491.41 223.507 1492.05 223.32C1492.72 223.133 1493.29 222.867 1493.77 222.52C1494.25 222.147 1494.63 221.707 1494.89 221.2C1495.19 220.667 1495.33 220.067 1495.33 219.4V211.72C1495.33 211.16 1495.19 210.64 1494.89 210.16C1494.63 209.653 1494.25 209.227 1493.77 208.88C1493.29 208.533 1492.72 208.267 1492.05 208.08C1491.41 207.867 1490.73 207.76 1490.01 207.76C1488.2 207.76 1486.77 208.333 1485.73 209.48C1484.69 210.6 1484.17 212.08 1484.17 213.92V217.44C1484.17 219.28 1484.69 220.773 1485.73 221.92C1486.77 223.04 1488.2 223.6 1490.01 223.6Z" fill="black"/>
<path d="M936.939 333.439C936.353 334.025 936.353 334.975 936.939 335.561L946.484 345.107C947.07 345.692 948.02 345.692 948.606 345.107C949.192 344.521 949.192 343.571 948.606 342.985L940.12 334.5L948.606 326.015C949.192 325.429 949.192 324.479 948.606 323.893C948.02 323.308 947.07 323.308 946.484 323.893L936.939 333.439ZM1236 333L937.999 333V336L1236 336V333Z" fill="#A92393"/>
<path d="M1237.07 137.061C1237.66 136.475 1237.66 135.525 1237.07 134.939L1227.53 125.393C1226.94 124.808 1225.99 124.808 1225.41 125.393C1224.82 125.979 1224.82 126.929 1225.41 127.515L1233.89 136L1225.41 144.485C1224.82 145.071 1224.82 146.021 1225.41 146.607C1225.99 147.192 1226.94 147.192 1227.53 146.607L1237.07 137.061ZM937.987 137.5H1236.01V134.5H937.987V137.5Z" fill="#209B1D"/>
<path d="M566.061 137.061C566.646 136.475 566.646 135.525 566.061 134.939L556.515 125.393C555.929 124.808 554.979 124.808 554.393 125.393C553.808 125.979 553.808 126.929 554.393 127.515L562.879 136L554.393 144.485C553.808 145.071 553.808 146.021 554.393 146.607C554.979 147.192 555.929 147.192 556.515 146.607L566.061 137.061ZM370 137.5H565V134.5H370V137.5Z" fill="#209B1D"/>
<path d="M371.939 333.939C371.354 334.525 371.354 335.475 371.939 336.061L381.485 345.607C382.071 346.192 383.021 346.192 383.607 345.607C384.192 345.021 384.192 344.071 383.607 343.485L375.121 335L383.607 326.515C384.192 325.929 384.192 324.979 383.607 324.393C383.021 323.808 382.071 323.808 381.485 324.393L371.939 333.939ZM568 333.5L373 333.5L373 336.5L568 336.5L568 333.5Z" fill="#9673A6"/>
<path d="M435.864 115.384C434.712 115.384 433.677 115.181 432.76 114.776C431.843 114.371 431.064 113.795 430.424 113.048C429.805 112.301 429.325 111.395 428.984 110.328C428.664 109.261 428.504 108.067 428.504 106.744C428.504 105.421 428.664 104.227 428.984 103.16C429.325 102.093 429.805 101.187 430.424 100.44C431.064 99.6933 431.843 99.1173 432.76 98.712C433.677 98.3067 434.712 98.104 435.864 98.104C437.507 98.104 438.819 98.4667 439.8 99.192C440.803 99.896 441.549 100.824 442.04 101.976L439.896 103.064C439.597 102.211 439.107 101.549 438.424 101.08C437.741 100.611 436.888 100.376 435.864 100.376C435.096 100.376 434.424 100.504 433.848 100.76C433.272 100.995 432.792 101.336 432.408 101.784C432.024 102.211 431.736 102.733 431.544 103.352C431.352 103.949 431.256 104.611 431.256 105.336V108.152C431.256 109.603 431.64 110.797 432.408 111.736C433.197 112.653 434.349 113.112 435.864 113.112C437.933 113.112 439.427 112.152 440.344 110.232L442.2 111.48C441.667 112.675 440.867 113.624 439.8 114.328C438.755 115.032 437.443 115.384 435.864 115.384ZM445.814 115V98.488H448.374V101.528H448.534C448.832 100.739 449.366 100.035 450.134 99.416C450.902 98.7973 451.958 98.488 453.302 98.488H454.294V101.048H452.79C451.403 101.048 450.315 101.315 449.526 101.848C448.758 102.36 448.374 103.011 448.374 103.8V115H445.814ZM463.616 115.384C462.485 115.384 461.461 115.181 460.544 114.776C459.648 114.371 458.869 113.795 458.208 113.048C457.568 112.28 457.066 111.373 456.704 110.328C456.362 109.261 456.192 108.067 456.192 106.744C456.192 105.443 456.362 104.259 456.704 103.192C457.066 102.125 457.568 101.219 458.208 100.472C458.869 99.704 459.648 99.1173 460.544 98.712C461.461 98.3067 462.485 98.104 463.616 98.104C464.725 98.104 465.717 98.3067 466.592 98.712C467.466 99.1173 468.213 99.6827 468.832 100.408C469.45 101.112 469.92 101.955 470.24 102.936C470.581 103.917 470.752 104.995 470.752 106.168V107.384H458.88V108.152C458.88 108.856 458.986 109.517 459.2 110.136C459.434 110.733 459.754 111.256 460.16 111.704C460.586 112.152 461.098 112.504 461.696 112.76C462.314 113.016 463.008 113.144 463.776 113.144C464.821 113.144 465.728 112.899 466.496 112.408C467.285 111.917 467.893 111.213 468.32 110.296L470.144 111.608C469.61 112.739 468.778 113.656 467.648 114.36C466.517 115.043 465.173 115.384 463.616 115.384ZM463.616 100.248C462.912 100.248 462.272 100.376 461.696 100.632C461.12 100.867 460.618 101.208 460.192 101.656C459.786 102.104 459.466 102.637 459.232 103.256C458.997 103.853 458.88 104.515 458.88 105.24V105.464H468V105.112C468 103.64 467.594 102.467 466.784 101.592C465.994 100.696 464.938 100.248 463.616 100.248ZM485.53 112.312H485.402C484.399 114.36 482.789 115.384 480.57 115.384C479.546 115.384 478.618 115.181 477.786 114.776C476.954 114.371 476.239 113.795 475.642 113.048C475.066 112.301 474.618 111.395 474.298 110.328C473.999 109.261 473.85 108.067 473.85 106.744C473.85 105.421 473.999 104.227 474.298 103.16C474.618 102.093 475.066 101.187 475.642 100.44C476.239 99.6933 476.954 99.1173 477.786 98.712C478.618 98.3067 479.546 98.104 480.57 98.104C481.722 98.104 482.703 98.36 483.514 98.872C484.346 99.3627 484.975 100.131 485.402 101.176H485.53V91.32H488.09V115H485.53V112.312ZM481.274 113.08C481.85 113.08 482.394 113.005 482.906 112.856C483.439 112.707 483.898 112.493 484.282 112.216C484.666 111.917 484.965 111.565 485.178 111.16C485.413 110.733 485.53 110.253 485.53 109.72V103.576C485.53 103.128 485.413 102.712 485.178 102.328C484.965 101.923 484.666 101.581 484.282 101.304C483.898 101.027 483.439 100.813 482.906 100.664C482.394 100.493 481.85 100.408 481.274 100.408C479.823 100.408 478.682 100.867 477.85 101.784C477.018 102.68 476.602 103.864 476.602 105.336V108.152C476.602 109.624 477.018 110.819 477.85 111.736C478.682 112.632 479.823 113.08 481.274 113.08ZM498.493 115.384C496.957 115.384 495.666 115.096 494.621 114.52C493.597 113.923 492.711 113.133 491.965 112.152L493.789 110.68C494.429 111.491 495.143 112.12 495.933 112.568C496.722 112.995 497.639 113.208 498.685 113.208C499.773 113.208 500.615 112.973 501.213 112.504C501.831 112.035 502.141 111.373 502.141 110.52C502.141 109.88 501.927 109.336 501.501 108.888C501.095 108.419 500.349 108.099 499.26 107.928L497.949 107.736C497.181 107.629 496.477 107.469 495.837 107.256C495.197 107.021 494.631 106.723 494.141 106.36C493.671 105.976 493.298 105.507 493.021 104.952C492.765 104.397 492.637 103.736 492.637 102.968C492.637 102.157 492.786 101.453 493.085 100.856C493.383 100.237 493.789 99.7253 494.301 99.32C494.834 98.9147 495.463 98.616 496.189 98.424C496.914 98.2107 497.693 98.104 498.525 98.104C499.869 98.104 500.989 98.3387 501.885 98.808C502.802 99.2773 503.602 99.928 504.285 100.76L502.589 102.296C502.226 101.784 501.693 101.325 500.989 100.92C500.285 100.493 499.399 100.28 498.333 100.28C497.266 100.28 496.455 100.515 495.901 100.984C495.367 101.432 495.101 102.051 495.101 102.84C495.101 103.651 495.367 104.237 495.901 104.6C496.455 104.963 497.245 105.229 498.269 105.4L499.549 105.592C501.383 105.869 502.685 106.403 503.453 107.192C504.221 107.96 504.605 108.973 504.605 110.232C504.605 111.832 504.061 113.091 502.973 114.008C501.885 114.925 500.391 115.384 498.493 115.384Z" fill="black"/>
<path d="M405.504 357.664V374.208C405.504 375.147 405.344 376 405.024 376.768C404.725 377.536 404.288 378.187 403.712 378.72C403.157 379.253 402.485 379.669 401.696 379.968C400.907 380.245 400.043 380.384 399.104 380.384C397.376 380.384 395.979 379.925 394.912 379.008C393.867 378.069 393.195 376.832 392.896 375.296L395.328 374.72C395.541 375.68 395.947 376.469 396.544 377.088C397.141 377.685 398.016 377.984 399.168 377.984C400.32 377.984 401.216 377.632 401.856 376.928C402.496 376.224 402.816 375.157 402.816 373.728V360.032H395.136V357.664H405.504ZM414.393 380L408.953 357.664H411.801L414.201 368.416L416.057 376.768H416.121L418.201 368.416L421.017 357.664H424.089L426.809 368.416L428.889 376.736H428.985L430.905 368.416L433.433 357.664H436.185L430.457 380H427.481L424.569 368.864L422.521 360.672H422.457L420.345 368.864L417.369 380H414.393ZM447.777 360.032V380H445.089V360.032H437.985V357.664H454.881V360.032H447.777ZM469.524 380C468.628 380 467.946 379.755 467.476 379.264C467.028 378.752 466.804 378.091 466.804 377.28V365.728H464.084V363.488H465.62C466.175 363.488 466.548 363.381 466.74 363.168C466.954 362.933 467.06 362.539 467.06 361.984V358.912H469.364V363.488H472.98V365.728H469.364V377.76H472.724V380H469.524ZM483.21 380.384C482.101 380.384 481.087 380.181 480.17 379.776C479.253 379.371 478.463 378.795 477.802 378.048C477.162 377.28 476.661 376.373 476.298 375.328C475.935 374.261 475.754 373.067 475.754 371.744C475.754 370.443 475.935 369.259 476.298 368.192C476.661 367.125 477.162 366.219 477.802 365.472C478.463 364.704 479.253 364.117 480.17 363.712C481.087 363.307 482.101 363.104 483.21 363.104C484.319 363.104 485.322 363.307 486.218 363.712C487.135 364.117 487.925 364.704 488.586 365.472C489.247 366.219 489.759 367.125 490.122 368.192C490.485 369.259 490.666 370.443 490.666 371.744C490.666 373.067 490.485 374.261 490.122 375.328C489.759 376.373 489.247 377.28 488.586 378.048C487.925 378.795 487.135 379.371 486.218 379.776C485.322 380.181 484.319 380.384 483.21 380.384ZM483.21 378.112C484.597 378.112 485.727 377.685 486.602 376.832C487.477 375.979 487.914 374.677 487.914 372.928V370.56C487.914 368.811 487.477 367.509 486.602 366.656C485.727 365.803 484.597 365.376 483.21 365.376C481.823 365.376 480.693 365.803 479.818 366.656C478.943 367.509 478.506 368.811 478.506 370.56V372.928C478.506 374.677 478.943 375.979 479.818 376.832C480.693 377.685 481.823 378.112 483.21 378.112ZM494.876 356.32H497.436V371.328H497.564L500.092 368.512L504.764 363.488H507.868L501.756 370.016L508.476 380H505.372L499.9 371.584L497.436 374.112V380H494.876V356.32ZM517.428 380.384C516.297 380.384 515.273 380.181 514.356 379.776C513.46 379.371 512.681 378.795 512.02 378.048C511.38 377.28 510.879 376.373 510.516 375.328C510.175 374.261 510.004 373.067 510.004 371.744C510.004 370.443 510.175 369.259 510.516 368.192C510.879 367.125 511.38 366.219 512.02 365.472C512.681 364.704 513.46 364.117 514.356 363.712C515.273 363.307 516.297 363.104 517.428 363.104C518.537 363.104 519.529 363.307 520.404 363.712C521.279 364.117 522.025 364.683 522.644 365.408C523.263 366.112 523.732 366.955 524.052 367.936C524.393 368.917 524.564 369.995 524.564 371.168V372.384H512.692V373.152C512.692 373.856 512.799 374.517 513.012 375.136C513.247 375.733 513.567 376.256 513.972 376.704C514.399 377.152 514.911 377.504 515.508 377.76C516.127 378.016 516.82 378.144 517.588 378.144C518.633 378.144 519.54 377.899 520.308 377.408C521.097 376.917 521.705 376.213 522.132 375.296L523.956 376.608C523.423 377.739 522.591 378.656 521.46 379.36C520.329 380.043 518.985 380.384 517.428 380.384ZM517.428 365.248C516.724 365.248 516.084 365.376 515.508 365.632C514.932 365.867 514.431 366.208 514.004 366.656C513.599 367.104 513.279 367.637 513.044 368.256C512.809 368.853 512.692 369.515 512.692 370.24V370.464H521.812V370.112C521.812 368.64 521.407 367.467 520.596 366.592C519.807 365.696 518.751 365.248 517.428 365.248ZM528.783 380V363.488H531.343V366.176H531.471C531.876 365.237 532.441 364.491 533.167 363.936C533.913 363.381 534.905 363.104 536.143 363.104C537.849 363.104 539.193 363.659 540.175 364.768C541.177 365.856 541.679 367.403 541.679 369.408V380H539.119V369.856C539.119 366.891 537.871 365.408 535.375 365.408C534.863 365.408 534.361 365.472 533.871 365.6C533.401 365.728 532.975 365.92 532.591 366.176C532.207 366.432 531.897 366.763 531.663 367.168C531.449 367.552 531.343 368.011 531.343 368.544V380H528.783Z" fill="black"/>
<path d="M1053.86 115.384C1052.71 115.384 1051.68 115.181 1050.76 114.776C1049.84 114.371 1049.06 113.795 1048.42 113.048C1047.81 112.301 1047.33 111.395 1046.98 110.328C1046.66 109.261 1046.5 108.067 1046.5 106.744C1046.5 105.421 1046.66 104.227 1046.98 103.16C1047.33 102.093 1047.81 101.187 1048.42 100.44C1049.06 99.6933 1049.84 99.1173 1050.76 98.712C1051.68 98.3067 1052.71 98.104 1053.86 98.104C1055.51 98.104 1056.82 98.4667 1057.8 99.192C1058.8 99.896 1059.55 100.824 1060.04 101.976L1057.9 103.064C1057.6 102.211 1057.11 101.549 1056.42 101.08C1055.74 100.611 1054.89 100.376 1053.86 100.376C1053.1 100.376 1052.42 100.504 1051.85 100.76C1051.27 100.995 1050.79 101.336 1050.41 101.784C1050.02 102.211 1049.74 102.733 1049.54 103.352C1049.35 103.949 1049.26 104.611 1049.26 105.336V108.152C1049.26 109.603 1049.64 110.797 1050.41 111.736C1051.2 112.653 1052.35 113.112 1053.86 113.112C1055.93 113.112 1057.43 112.152 1058.34 110.232L1060.2 111.48C1059.67 112.675 1058.87 113.624 1057.8 114.328C1056.75 115.032 1055.44 115.384 1053.86 115.384ZM1063.81 115V98.488H1066.37V101.528H1066.53C1066.83 100.739 1067.37 100.035 1068.13 99.416C1068.9 98.7973 1069.96 98.488 1071.3 98.488H1072.29V101.048H1070.79C1069.4 101.048 1068.32 101.315 1067.53 101.848C1066.76 102.36 1066.37 103.011 1066.37 103.8V115H1063.81ZM1081.62 115.384C1080.48 115.384 1079.46 115.181 1078.54 114.776C1077.65 114.371 1076.87 113.795 1076.21 113.048C1075.57 112.28 1075.07 111.373 1074.7 110.328C1074.36 109.261 1074.19 108.067 1074.19 106.744C1074.19 105.443 1074.36 104.259 1074.7 103.192C1075.07 102.125 1075.57 101.219 1076.21 100.472C1076.87 99.704 1077.65 99.1173 1078.54 98.712C1079.46 98.3067 1080.48 98.104 1081.62 98.104C1082.72 98.104 1083.72 98.3067 1084.59 98.712C1085.47 99.1173 1086.21 99.6827 1086.83 100.408C1087.45 101.112 1087.92 101.955 1088.24 102.936C1088.58 103.917 1088.75 104.995 1088.75 106.168V107.384H1076.88V108.152C1076.88 108.856 1076.99 109.517 1077.2 110.136C1077.43 110.733 1077.75 111.256 1078.16 111.704C1078.59 112.152 1079.1 112.504 1079.7 112.76C1080.31 113.016 1081.01 113.144 1081.78 113.144C1082.82 113.144 1083.73 112.899 1084.5 112.408C1085.28 111.917 1085.89 111.213 1086.32 110.296L1088.14 111.608C1087.61 112.739 1086.78 113.656 1085.65 114.36C1084.52 115.043 1083.17 115.384 1081.62 115.384ZM1081.62 100.248C1080.91 100.248 1080.27 100.376 1079.7 100.632C1079.12 100.867 1078.62 101.208 1078.19 101.656C1077.79 102.104 1077.47 102.637 1077.23 103.256C1077 103.853 1076.88 104.515 1076.88 105.24V105.464H1086V105.112C1086 103.64 1085.59 102.467 1084.78 101.592C1083.99 100.696 1082.94 100.248 1081.62 100.248ZM1103.53 112.312H1103.4C1102.4 114.36 1100.79 115.384 1098.57 115.384C1097.55 115.384 1096.62 115.181 1095.79 114.776C1094.95 114.371 1094.24 113.795 1093.64 113.048C1093.07 112.301 1092.62 111.395 1092.3 110.328C1092 109.261 1091.85 108.067 1091.85 106.744C1091.85 105.421 1092 104.227 1092.3 103.16C1092.62 102.093 1093.07 101.187 1093.64 100.44C1094.24 99.6933 1094.95 99.1173 1095.79 98.712C1096.62 98.3067 1097.55 98.104 1098.57 98.104C1099.72 98.104 1100.7 98.36 1101.51 98.872C1102.35 99.3627 1102.98 100.131 1103.4 101.176H1103.53V91.32H1106.09V115H1103.53V112.312ZM1099.27 113.08C1099.85 113.08 1100.39 113.005 1100.91 112.856C1101.44 112.707 1101.9 112.493 1102.28 112.216C1102.67 111.917 1102.96 111.565 1103.18 111.16C1103.41 110.733 1103.53 110.253 1103.53 109.72V103.576C1103.53 103.128 1103.41 102.712 1103.18 102.328C1102.96 101.923 1102.67 101.581 1102.28 101.304C1101.9 101.027 1101.44 100.813 1100.91 100.664C1100.39 100.493 1099.85 100.408 1099.27 100.408C1097.82 100.408 1096.68 100.867 1095.85 101.784C1095.02 102.68 1094.6 103.864 1094.6 105.336V108.152C1094.6 109.624 1095.02 110.819 1095.85 111.736C1096.68 112.632 1097.82 113.08 1099.27 113.08ZM1116.49 115.384C1114.96 115.384 1113.67 115.096 1112.62 114.52C1111.6 113.923 1110.71 113.133 1109.96 112.152L1111.79 110.68C1112.43 111.491 1113.14 112.12 1113.93 112.568C1114.72 112.995 1115.64 113.208 1116.68 113.208C1117.77 113.208 1118.62 112.973 1119.21 112.504C1119.83 112.035 1120.14 111.373 1120.14 110.52C1120.14 109.88 1119.93 109.336 1119.5 108.888C1119.1 108.419 1118.35 108.099 1117.26 107.928L1115.95 107.736C1115.18 107.629 1114.48 107.469 1113.84 107.256C1113.2 107.021 1112.63 106.723 1112.14 106.36C1111.67 105.976 1111.3 105.507 1111.02 104.952C1110.76 104.397 1110.64 103.736 1110.64 102.968C1110.64 102.157 1110.79 101.453 1111.08 100.856C1111.38 100.237 1111.79 99.7253 1112.3 99.32C1112.83 98.9147 1113.46 98.616 1114.19 98.424C1114.91 98.2107 1115.69 98.104 1116.52 98.104C1117.87 98.104 1118.99 98.3387 1119.88 98.808C1120.8 99.2773 1121.6 99.928 1122.28 100.76L1120.59 102.296C1120.23 101.784 1119.69 101.325 1118.99 100.92C1118.28 100.493 1117.4 100.28 1116.33 100.28C1115.27 100.28 1114.46 100.515 1113.9 100.984C1113.37 101.432 1113.1 102.051 1113.1 102.84C1113.1 103.651 1113.37 104.237 1113.9 104.6C1114.46 104.963 1115.24 105.229 1116.27 105.4L1117.55 105.592C1119.38 105.869 1120.68 106.403 1121.45 107.192C1122.22 107.96 1122.6 108.973 1122.6 110.232C1122.6 111.832 1122.06 113.091 1120.97 114.008C1119.88 114.925 1118.39 115.384 1116.49 115.384Z" fill="black"/>
<rect x="958" y="361" width="258" height="282" rx="11" fill="#F1F3F9" stroke="#C1BED2" stroke-width="2"/>
<path d="M998.368 434.416C997.515 434.416 996.875 434.16 996.448 433.648C996.021 433.157 995.808 432.539 995.808 431.792V424.112C995.808 423.195 995.509 422.501 994.912 422.032C994.336 421.541 993.6 421.296 992.704 421.296V418.8C993.6 418.8 994.336 418.565 994.912 418.096C995.509 417.605 995.808 416.901 995.808 415.984V408.304C995.808 407.557 996.021 406.939 996.448 406.448C996.875 405.936 997.515 405.68 998.368 405.68H1001.06V407.696H998.016V415.696C998.016 416.699 997.728 417.595 997.152 418.384C996.597 419.152 995.872 419.621 994.976 419.792V420.304C995.872 420.475 996.597 420.955 997.152 421.744C997.728 422.512 998.016 423.397 998.016 424.4V432.4H1001.06V434.416H998.368ZM1026.25 451.616C1025.7 451.616 1025.29 451.488 1025.03 451.232C1024.8 450.955 1024.68 450.603 1024.68 450.176V449.76C1024.68 449.333 1024.8 448.992 1025.03 448.736C1025.29 448.459 1025.7 448.32 1026.25 448.32C1026.8 448.32 1027.2 448.459 1027.43 448.736C1027.69 448.992 1027.82 449.333 1027.82 449.76V450.176C1027.82 450.603 1027.69 450.955 1027.43 451.232C1027.2 451.488 1026.8 451.616 1026.25 451.616ZM1024.97 455.488H1027.53V472H1024.97V455.488ZM1043.53 469.312H1043.4C1042.4 471.36 1040.79 472.384 1038.57 472.384C1037.55 472.384 1036.62 472.181 1035.79 471.776C1034.95 471.371 1034.24 470.795 1033.64 470.048C1033.07 469.301 1032.62 468.395 1032.3 467.328C1032 466.261 1031.85 465.067 1031.85 463.744C1031.85 462.421 1032 461.227 1032.3 460.16C1032.62 459.093 1033.07 458.187 1033.64 457.44C1034.24 456.693 1034.95 456.117 1035.79 455.712C1036.62 455.307 1037.55 455.104 1038.57 455.104C1039.72 455.104 1040.7 455.36 1041.51 455.872C1042.35 456.363 1042.98 457.131 1043.4 458.176H1043.53V448.32H1046.09V472H1043.53V469.312ZM1039.27 470.08C1039.85 470.08 1040.39 470.005 1040.91 469.856C1041.44 469.707 1041.9 469.493 1042.28 469.216C1042.67 468.917 1042.96 468.565 1043.18 468.16C1043.41 467.733 1043.53 467.253 1043.53 466.72V460.576C1043.53 460.128 1043.41 459.712 1043.18 459.328C1042.96 458.923 1042.67 458.581 1042.28 458.304C1041.9 458.027 1041.44 457.813 1040.91 457.664C1040.39 457.493 1039.85 457.408 1039.27 457.408C1037.82 457.408 1036.68 457.867 1035.85 458.784C1035.02 459.68 1034.6 460.864 1034.6 462.336V465.152C1034.6 466.624 1035.02 467.819 1035.85 468.736C1036.68 469.632 1037.82 470.08 1039.27 470.08ZM1053.48 472.384C1052.8 472.384 1052.3 472.213 1051.98 471.872C1051.68 471.531 1051.53 471.083 1051.53 470.528V470.112C1051.53 469.557 1051.68 469.109 1051.98 468.768C1052.3 468.427 1052.8 468.256 1053.48 468.256C1054.17 468.256 1054.66 468.427 1054.96 468.768C1055.28 469.109 1055.44 469.557 1055.44 470.112V470.528C1055.44 471.083 1055.28 471.531 1054.96 471.872C1054.66 472.213 1054.17 472.384 1053.48 472.384ZM1053.48 459.232C1052.8 459.232 1052.3 459.061 1051.98 458.72C1051.68 458.379 1051.53 457.931 1051.53 457.376V456.96C1051.53 456.405 1051.68 455.957 1051.98 455.616C1052.3 455.275 1052.8 455.104 1053.48 455.104C1054.17 455.104 1054.66 455.275 1054.96 455.616C1055.28 455.957 1055.44 456.405 1055.44 456.96V457.376C1055.44 457.931 1055.28 458.379 1054.96 458.72C1054.66 459.061 1054.17 459.232 1053.48 459.232ZM1069.72 451.616C1069.16 451.616 1068.76 451.488 1068.5 451.232C1068.27 450.955 1068.15 450.603 1068.15 450.176V449.76C1068.15 449.333 1068.27 448.992 1068.5 448.736C1068.76 448.459 1069.16 448.32 1069.72 448.32C1070.27 448.32 1070.67 448.459 1070.9 448.736C1071.16 448.992 1071.29 449.333 1071.29 449.76V450.176C1071.29 450.603 1071.16 450.955 1070.9 451.232C1070.67 451.488 1070.27 451.616 1069.72 451.616ZM1068.44 455.488H1071V472H1068.44V455.488ZM1087 469.312H1086.87C1085.87 471.36 1084.26 472.384 1082.04 472.384C1081.01 472.384 1080.09 472.181 1079.25 471.776C1078.42 471.371 1077.71 470.795 1077.11 470.048C1076.53 469.301 1076.09 468.395 1075.77 467.328C1075.47 466.261 1075.32 465.067 1075.32 463.744C1075.32 462.421 1075.47 461.227 1075.77 460.16C1076.09 459.093 1076.53 458.187 1077.11 457.44C1077.71 456.693 1078.42 456.117 1079.25 455.712C1080.09 455.307 1081.01 455.104 1082.04 455.104C1083.19 455.104 1084.17 455.36 1084.98 455.872C1085.81 456.363 1086.44 457.131 1086.87 458.176H1087V448.32H1089.56V472H1087V469.312ZM1082.74 470.08C1083.32 470.08 1083.86 470.005 1084.37 469.856C1084.91 469.707 1085.37 469.493 1085.75 469.216C1086.13 468.917 1086.43 468.565 1086.65 468.16C1086.88 467.733 1087 467.253 1087 466.72V460.576C1087 460.128 1086.88 459.712 1086.65 459.328C1086.43 458.923 1086.13 458.581 1085.75 458.304C1085.37 458.027 1084.91 457.813 1084.37 457.664C1083.86 457.493 1083.32 457.408 1082.74 457.408C1081.29 457.408 1080.15 457.867 1079.32 458.784C1078.49 459.68 1078.07 460.864 1078.07 462.336V465.152C1078.07 466.624 1078.49 467.819 1079.32 468.736C1080.15 469.632 1081.29 470.08 1082.74 470.08ZM1096.63 468.256C1097.32 468.256 1097.81 468.437 1098.11 468.8C1098.43 469.141 1098.59 469.589 1098.59 470.144V470.592C1098.59 471.467 1098.33 472.427 1097.82 473.472C1097.31 474.539 1096.59 475.467 1095.67 476.256H1093.53C1094.17 475.573 1094.68 474.923 1095.07 474.304C1095.47 473.707 1095.76 473.035 1095.93 472.288C1095.5 472.181 1095.18 471.979 1094.97 471.68C1094.78 471.381 1094.68 471.019 1094.68 470.592V470.144C1094.68 469.589 1094.83 469.141 1095.13 468.8C1095.45 468.437 1095.95 468.256 1096.63 468.256ZM1024.97 514V497.488H1027.53V500.176H1027.66C1028.06 499.237 1028.63 498.491 1029.35 497.936C1030.1 497.381 1031.09 497.104 1032.33 497.104C1034.04 497.104 1035.38 497.659 1036.36 498.768C1037.36 499.856 1037.87 501.403 1037.87 503.408V514H1035.31V503.856C1035.31 500.891 1034.06 499.408 1031.56 499.408C1031.05 499.408 1030.55 499.472 1030.06 499.6C1029.59 499.728 1029.16 499.92 1028.78 500.176C1028.39 500.432 1028.08 500.763 1027.85 501.168C1027.64 501.552 1027.53 502.011 1027.53 502.544V514H1024.97ZM1055.16 514C1054.2 514 1053.5 513.744 1053.08 513.232C1052.67 512.72 1052.42 512.08 1052.31 511.312H1052.15C1051.79 512.336 1051.19 513.104 1050.36 513.616C1049.53 514.128 1048.53 514.384 1047.38 514.384C1045.63 514.384 1044.27 513.936 1043.29 513.04C1042.33 512.144 1041.85 510.928 1041.85 509.392C1041.85 507.835 1042.41 506.64 1043.54 505.808C1044.69 504.976 1046.47 504.56 1048.89 504.56H1052.15V502.928C1052.15 501.755 1051.83 500.859 1051.19 500.24C1050.55 499.621 1049.57 499.312 1048.25 499.312C1047.24 499.312 1046.4 499.536 1045.72 499.984C1045.06 500.432 1044.5 501.029 1044.05 501.776L1042.52 500.336C1042.97 499.44 1043.68 498.683 1044.66 498.064C1045.64 497.424 1046.88 497.104 1048.37 497.104C1050.38 497.104 1051.94 497.595 1053.05 498.576C1054.15 499.557 1054.71 500.923 1054.71 502.672V511.76H1056.6V514H1055.16ZM1047.8 512.208C1048.44 512.208 1049.02 512.133 1049.56 511.984C1050.09 511.835 1050.55 511.621 1050.93 511.344C1051.32 511.067 1051.62 510.747 1051.83 510.384C1052.04 510.021 1052.15 509.627 1052.15 509.2V506.48H1048.76C1047.29 506.48 1046.21 506.693 1045.53 507.12C1044.86 507.547 1044.53 508.165 1044.53 508.976V509.648C1044.53 510.459 1044.82 511.088 1045.4 511.536C1045.99 511.984 1046.79 512.208 1047.8 512.208ZM1060.25 514V497.488H1062.81V500.176H1062.94C1063.13 499.749 1063.34 499.355 1063.58 498.992C1063.84 498.608 1064.13 498.277 1064.48 498C1064.84 497.723 1065.25 497.509 1065.72 497.36C1066.19 497.189 1066.75 497.104 1067.39 497.104C1068.48 497.104 1069.48 497.371 1070.4 497.904C1071.31 498.416 1072 499.269 1072.44 500.464H1072.51C1072.81 499.568 1073.36 498.789 1074.17 498.128C1075 497.445 1076.12 497.104 1077.53 497.104C1079.22 497.104 1080.53 497.659 1081.47 498.768C1082.43 499.856 1082.91 501.403 1082.91 503.408V514H1080.35V503.856C1080.35 502.384 1080.06 501.275 1079.48 500.528C1078.91 499.781 1077.99 499.408 1076.73 499.408C1076.22 499.408 1075.73 499.472 1075.26 499.6C1074.81 499.728 1074.41 499.92 1074.04 500.176C1073.68 500.432 1073.39 500.763 1073.18 501.168C1072.97 501.552 1072.86 502.011 1072.86 502.544V514H1070.3V503.856C1070.3 502.384 1070.01 501.275 1069.44 500.528C1068.86 499.781 1067.96 499.408 1066.75 499.408C1066.24 499.408 1065.74 499.472 1065.28 499.6C1064.81 499.728 1064.39 499.92 1064.03 500.176C1063.66 500.432 1063.37 500.763 1063.13 501.168C1062.92 501.552 1062.81 502.011 1062.81 502.544V514H1060.25ZM1094.4 514.384C1093.27 514.384 1092.24 514.181 1091.32 513.776C1090.43 513.371 1089.65 512.795 1088.99 512.048C1088.35 511.28 1087.85 510.373 1087.48 509.328C1087.14 508.261 1086.97 507.067 1086.97 505.744C1086.97 504.443 1087.14 503.259 1087.48 502.192C1087.85 501.125 1088.35 500.219 1088.99 499.472C1089.65 498.704 1090.43 498.117 1091.32 497.712C1092.24 497.307 1093.27 497.104 1094.4 497.104C1095.51 497.104 1096.5 497.307 1097.37 497.712C1098.25 498.117 1098.99 498.683 1099.61 499.408C1100.23 500.112 1100.7 500.955 1101.02 501.936C1101.36 502.917 1101.53 503.995 1101.53 505.168V506.384H1089.66V507.152C1089.66 507.856 1089.77 508.517 1089.98 509.136C1090.22 509.733 1090.54 510.256 1090.94 510.704C1091.37 511.152 1091.88 511.504 1092.48 511.76C1093.1 512.016 1093.79 512.144 1094.56 512.144C1095.6 512.144 1096.51 511.899 1097.28 511.408C1098.07 510.917 1098.67 510.213 1099.1 509.296L1100.92 510.608C1100.39 511.739 1099.56 512.656 1098.43 513.36C1097.3 514.043 1095.95 514.384 1094.4 514.384ZM1094.4 499.248C1093.69 499.248 1093.05 499.376 1092.48 499.632C1091.9 499.867 1091.4 500.208 1090.97 500.656C1090.57 501.104 1090.25 501.637 1090.01 502.256C1089.78 502.853 1089.66 503.515 1089.66 504.24V504.464H1098.78V504.112C1098.78 502.64 1098.38 501.467 1097.56 500.592C1096.78 499.696 1095.72 499.248 1094.4 499.248ZM1107.7 514.384C1107.02 514.384 1106.52 514.213 1106.2 513.872C1105.9 513.531 1105.75 513.083 1105.75 512.528V512.112C1105.75 511.557 1105.9 511.109 1106.2 510.768C1106.52 510.427 1107.02 510.256 1107.7 510.256C1108.39 510.256 1108.88 510.427 1109.18 510.768C1109.5 511.109 1109.66 511.557 1109.66 512.112V512.528C1109.66 513.083 1109.5 513.531 1109.18 513.872C1108.88 514.213 1108.39 514.384 1107.7 514.384ZM1107.7 501.232C1107.02 501.232 1106.52 501.061 1106.2 500.72C1105.9 500.379 1105.75 499.931 1105.75 499.376V498.96C1105.75 498.405 1105.9 497.957 1106.2 497.616C1106.52 497.275 1107.02 497.104 1107.7 497.104C1108.39 497.104 1108.88 497.275 1109.18 497.616C1109.5 497.957 1109.66 498.405 1109.66 498.96V499.376C1109.66 499.931 1109.5 500.379 1109.18 500.72C1108.88 501.061 1108.39 501.232 1107.7 501.232ZM1122.91 491.664H1132.1C1133.95 491.664 1135.4 492.187 1136.45 493.232C1137.52 494.277 1138.05 495.675 1138.05 497.424C1138.05 498.256 1137.93 498.96 1137.7 499.536C1137.46 500.112 1137.16 500.592 1136.8 500.976C1136.44 501.339 1136.04 501.616 1135.62 501.808C1135.19 501.979 1134.8 502.096 1134.43 502.16V502.352C1134.84 502.373 1135.29 502.48 1135.78 502.672C1136.29 502.864 1136.77 503.173 1137.22 503.6C1137.67 504.005 1138.04 504.539 1138.34 505.2C1138.66 505.84 1138.82 506.619 1138.82 507.536C1138.82 508.453 1138.67 509.307 1138.37 510.096C1138.09 510.885 1137.7 511.568 1137.19 512.144C1136.67 512.72 1136.07 513.179 1135.36 513.52C1134.66 513.84 1133.89 514 1133.06 514H1122.91V491.664ZM1125.6 511.632H1132.23C1133.38 511.632 1134.28 511.344 1134.95 510.768C1135.61 510.171 1135.94 509.307 1135.94 508.176V507.088C1135.94 505.957 1135.61 505.104 1134.95 504.528C1134.28 503.931 1133.38 503.632 1132.23 503.632H1125.6V511.632ZM1125.6 501.328H1131.78C1132.84 501.328 1133.68 501.061 1134.27 500.528C1134.87 499.995 1135.17 499.227 1135.17 498.224V497.136C1135.17 496.133 1134.87 495.365 1134.27 494.832C1133.68 494.299 1132.84 494.032 1131.78 494.032H1125.6V501.328ZM1155.56 514C1154.6 514 1153.91 513.744 1153.48 513.232C1153.08 512.72 1152.82 512.08 1152.72 511.312H1152.56C1152.19 512.336 1151.6 513.104 1150.76 513.616C1149.93 514.128 1148.94 514.384 1147.79 514.384C1146.04 514.384 1144.67 513.936 1143.69 513.04C1142.73 512.144 1142.25 510.928 1142.25 509.392C1142.25 507.835 1142.82 506.64 1143.95 505.808C1145.1 504.976 1146.88 504.56 1149.29 504.56H1152.56V502.928C1152.56 501.755 1152.24 500.859 1151.6 500.24C1150.96 499.621 1149.97 499.312 1148.65 499.312C1147.65 499.312 1146.81 499.536 1146.12 499.984C1145.46 500.432 1144.91 501.029 1144.46 501.776L1142.92 500.336C1143.37 499.44 1144.09 498.683 1145.07 498.064C1146.05 497.424 1147.29 497.104 1148.78 497.104C1150.79 497.104 1152.34 497.595 1153.45 498.576C1154.56 499.557 1155.12 500.923 1155.12 502.672V511.76H1157V514H1155.56ZM1148.2 512.208C1148.84 512.208 1149.43 512.133 1149.96 511.984C1150.5 511.835 1150.96 511.621 1151.34 511.344C1151.72 511.067 1152.02 510.747 1152.24 510.384C1152.45 510.021 1152.56 509.627 1152.56 509.2V506.48H1149.16C1147.69 506.48 1146.61 506.693 1145.93 507.12C1145.27 507.547 1144.94 508.165 1144.94 508.976V509.648C1144.94 510.459 1145.23 511.088 1145.8 511.536C1146.4 511.984 1147.2 512.208 1148.2 512.208ZM1166.8 514.384C1165.65 514.384 1164.61 514.181 1163.7 513.776C1162.78 513.371 1162 512.795 1161.36 512.048C1160.74 511.301 1160.26 510.395 1159.92 509.328C1159.6 508.261 1159.44 507.067 1159.44 505.744C1159.44 504.421 1159.6 503.227 1159.92 502.16C1160.26 501.093 1160.74 500.187 1161.36 499.44C1162 498.693 1162.78 498.117 1163.7 497.712C1164.61 497.307 1165.65 497.104 1166.8 497.104C1168.44 497.104 1169.76 497.467 1170.74 498.192C1171.74 498.896 1172.49 499.824 1172.98 500.976L1170.83 502.064C1170.53 501.211 1170.04 500.549 1169.36 500.08C1168.68 499.611 1167.83 499.376 1166.8 499.376C1166.03 499.376 1165.36 499.504 1164.79 499.76C1164.21 499.995 1163.73 500.336 1163.35 500.784C1162.96 501.211 1162.67 501.733 1162.48 502.352C1162.29 502.949 1162.19 503.611 1162.19 504.336V507.152C1162.19 508.603 1162.58 509.797 1163.35 510.736C1164.13 511.653 1165.29 512.112 1166.8 512.112C1168.87 512.112 1170.36 511.152 1171.28 509.232L1173.14 510.48C1172.6 511.675 1171.8 512.624 1170.74 513.328C1169.69 514.032 1168.38 514.384 1166.8 514.384ZM1175.28 511.76H1177.1L1178.16 509.328C1178.39 508.773 1178.68 508.357 1179.02 508.08C1179.36 507.781 1179.75 507.6 1180.18 507.536V507.408C1178.7 507.28 1177.59 506.8 1176.85 505.968C1176.1 505.136 1175.73 504.016 1175.73 502.608C1175.73 501.008 1176.21 499.76 1177.17 498.864C1178.13 497.947 1179.45 497.488 1181.14 497.488H1188.43V514H1185.87V507.664H1181.58L1179.86 511.728C1179.47 512.624 1179.04 513.232 1178.58 513.552C1178.13 513.851 1177.62 514 1177.04 514H1175.28V511.76ZM1185.87 505.488V499.728H1181.52C1180.56 499.728 1179.81 499.909 1179.28 500.272C1178.75 500.635 1178.48 501.243 1178.48 502.096V503.152C1178.48 504.005 1178.75 504.613 1179.28 504.976C1179.81 505.317 1180.56 505.488 1181.52 505.488H1185.87ZM1038.89 557.824C1038.89 559.531 1038.22 560.779 1036.87 561.568C1035.55 562.379 1033.56 562.784 1030.89 562.784C1028.31 562.784 1026.45 562.432 1025.32 561.728C1024.19 561.024 1023.63 560.021 1023.63 558.72C1023.63 557.824 1023.86 557.12 1024.33 556.608C1024.8 556.117 1025.44 555.755 1026.25 555.52V555.168C1025.27 554.699 1024.78 553.931 1024.78 552.864C1024.78 552.032 1025.04 551.403 1025.58 550.976C1026.11 550.528 1026.79 550.197 1027.63 549.984V549.856C1026.64 549.387 1025.88 548.715 1025.32 547.84C1024.79 546.965 1024.52 545.952 1024.52 544.8C1024.52 543.968 1024.67 543.2 1024.97 542.496C1025.27 541.792 1025.68 541.195 1026.22 540.704C1026.77 540.192 1027.42 539.797 1028.17 539.52C1028.94 539.243 1029.79 539.104 1030.73 539.104C1031.9 539.104 1032.95 539.317 1033.87 539.744V539.456C1033.87 538.816 1034.02 538.293 1034.31 537.888C1034.61 537.461 1035.1 537.248 1035.79 537.248H1038.25V539.488H1035.11V540.544C1035.71 541.056 1036.17 541.675 1036.49 542.4C1036.83 543.104 1037 543.904 1037 544.8C1037 545.632 1036.85 546.4 1036.55 547.104C1036.26 547.808 1035.83 548.416 1035.27 548.928C1034.74 549.419 1034.09 549.803 1033.32 550.08C1032.55 550.357 1031.7 550.496 1030.76 550.496C1030.23 550.496 1029.7 550.443 1029.16 550.336C1028.61 550.485 1028.11 550.709 1027.66 551.008C1027.21 551.285 1026.99 551.68 1026.99 552.192C1026.99 552.683 1027.22 553.013 1027.69 553.184C1028.16 553.355 1028.77 553.44 1029.51 553.44H1033.03C1035.08 553.44 1036.56 553.835 1037.48 554.624C1038.42 555.392 1038.89 556.459 1038.89 557.824ZM1036.49 558.016C1036.49 557.355 1036.23 556.821 1035.72 556.416C1035.23 556.032 1034.35 555.84 1033.07 555.84H1027.56C1026.54 556.309 1026.03 557.056 1026.03 558.08C1026.03 558.805 1026.29 559.424 1026.83 559.936C1027.38 560.448 1028.31 560.704 1029.61 560.704H1031.98C1033.41 560.704 1034.52 560.48 1035.31 560.032C1036.1 559.584 1036.49 558.912 1036.49 558.016ZM1030.76 548.448C1031.85 548.448 1032.71 548.192 1033.35 547.68C1033.99 547.147 1034.31 546.336 1034.31 545.248V544.352C1034.31 543.264 1033.99 542.464 1033.35 541.952C1032.71 541.419 1031.85 541.152 1030.76 541.152C1029.67 541.152 1028.81 541.419 1028.17 541.952C1027.53 542.464 1027.21 543.264 1027.21 544.352V545.248C1027.21 546.336 1027.53 547.147 1028.17 547.68C1028.81 548.192 1029.67 548.448 1030.76 548.448ZM1041.88 556V539.488H1044.44V542.528H1044.6C1044.89 541.739 1045.43 541.035 1046.2 540.416C1046.96 539.797 1048.02 539.488 1049.36 539.488H1050.36V542.048H1048.85C1047.47 542.048 1046.38 542.315 1045.59 542.848C1044.82 543.36 1044.44 544.011 1044.44 544.8V556H1041.88ZM1059.71 556.384C1058.6 556.384 1057.59 556.181 1056.67 555.776C1055.75 555.371 1054.96 554.795 1054.3 554.048C1053.66 553.28 1053.16 552.373 1052.8 551.328C1052.44 550.261 1052.25 549.067 1052.25 547.744C1052.25 546.443 1052.44 545.259 1052.8 544.192C1053.16 543.125 1053.66 542.219 1054.3 541.472C1054.96 540.704 1055.75 540.117 1056.67 539.712C1057.59 539.307 1058.6 539.104 1059.71 539.104C1060.82 539.104 1061.82 539.307 1062.72 539.712C1063.64 540.117 1064.42 540.704 1065.09 541.472C1065.75 542.219 1066.26 543.125 1066.62 544.192C1066.98 545.259 1067.17 546.443 1067.17 547.744C1067.17 549.067 1066.98 550.261 1066.62 551.328C1066.26 552.373 1065.75 553.28 1065.09 554.048C1064.42 554.795 1063.64 555.371 1062.72 555.776C1061.82 556.181 1060.82 556.384 1059.71 556.384ZM1059.71 554.112C1061.1 554.112 1062.23 553.685 1063.1 552.832C1063.98 551.979 1064.41 550.677 1064.41 548.928V546.56C1064.41 544.811 1063.98 543.509 1063.1 542.656C1062.23 541.803 1061.1 541.376 1059.71 541.376C1058.32 541.376 1057.19 541.803 1056.32 542.656C1055.44 543.509 1055.01 544.811 1055.01 546.56V548.928C1055.01 550.677 1055.44 551.979 1056.32 552.832C1057.19 553.685 1058.32 554.112 1059.71 554.112ZM1081.55 553.312H1081.42C1081.25 553.696 1081.04 554.08 1080.78 554.464C1080.55 554.827 1080.25 555.157 1079.89 555.456C1079.53 555.733 1079.09 555.957 1078.58 556.128C1078.06 556.299 1077.47 556.384 1076.78 556.384C1075.08 556.384 1073.72 555.84 1072.72 554.752C1071.72 553.643 1071.22 552.085 1071.22 550.08V539.488H1073.78V549.632C1073.78 552.597 1075.03 554.08 1077.55 554.08C1078.06 554.08 1078.55 554.016 1079.02 553.888C1079.51 553.76 1079.94 553.568 1080.3 553.312C1080.69 553.056 1080.99 552.736 1081.2 552.352C1081.43 551.947 1081.55 551.467 1081.55 550.912V539.488H1084.11V556H1081.55V553.312ZM1089.56 539.488H1092.12V542.176H1092.25C1092.68 541.131 1093.3 540.363 1094.11 539.872C1094.94 539.36 1095.93 539.104 1097.08 539.104C1098.11 539.104 1099.04 539.307 1099.87 539.712C1100.7 540.117 1101.4 540.693 1101.98 541.44C1102.58 542.187 1103.03 543.093 1103.32 544.16C1103.64 545.227 1103.8 546.421 1103.8 547.744C1103.8 549.067 1103.64 550.261 1103.32 551.328C1103.03 552.395 1102.58 553.301 1101.98 554.048C1101.4 554.795 1100.7 555.371 1099.87 555.776C1099.04 556.181 1098.11 556.384 1097.08 556.384C1094.84 556.384 1093.23 555.36 1092.25 553.312H1092.12V562.4H1089.56V539.488ZM1096.38 554.08C1097.83 554.08 1098.97 553.632 1099.8 552.736C1100.64 551.819 1101.05 550.624 1101.05 549.152V546.336C1101.05 544.864 1100.64 543.68 1099.8 542.784C1098.97 541.867 1097.83 541.408 1096.38 541.408C1095.8 541.408 1095.25 541.493 1094.72 541.664C1094.2 541.813 1093.76 542.027 1093.37 542.304C1092.99 542.581 1092.68 542.923 1092.44 543.328C1092.23 543.712 1092.12 544.128 1092.12 544.576V550.72C1092.12 551.253 1092.23 551.733 1092.44 552.16C1092.68 552.565 1092.99 552.917 1093.37 553.216C1093.76 553.493 1094.2 553.707 1094.72 553.856C1095.25 554.005 1095.8 554.08 1096.38 554.08ZM1113.09 556.384C1111.55 556.384 1110.26 556.096 1109.21 555.52C1108.19 554.923 1107.3 554.133 1106.56 553.152L1108.38 551.68C1109.02 552.491 1109.74 553.12 1110.53 553.568C1111.32 553.995 1112.23 554.208 1113.28 554.208C1114.37 554.208 1115.21 553.973 1115.81 553.504C1116.42 553.035 1116.73 552.373 1116.73 551.52C1116.73 550.88 1116.52 550.336 1116.09 549.888C1115.69 549.419 1114.94 549.099 1113.85 548.928L1112.54 548.736C1111.77 548.629 1111.07 548.469 1110.43 548.256C1109.79 548.021 1109.22 547.723 1108.73 547.36C1108.26 546.976 1107.89 546.507 1107.61 545.952C1107.36 545.397 1107.23 544.736 1107.23 543.968C1107.23 543.157 1107.38 542.453 1107.68 541.856C1107.98 541.237 1108.38 540.725 1108.89 540.32C1109.43 539.915 1110.06 539.616 1110.78 539.424C1111.51 539.211 1112.29 539.104 1113.12 539.104C1114.46 539.104 1115.58 539.339 1116.48 539.808C1117.4 540.277 1118.2 540.928 1118.88 541.76L1117.18 543.296C1116.82 542.784 1116.29 542.325 1115.58 541.92C1114.88 541.493 1113.99 541.28 1112.93 541.28C1111.86 541.28 1111.05 541.515 1110.49 541.984C1109.96 542.432 1109.69 543.051 1109.69 543.84C1109.69 544.651 1109.96 545.237 1110.49 545.6C1111.05 545.963 1111.84 546.229 1112.86 546.4L1114.14 546.592C1115.98 546.869 1117.28 547.403 1118.05 548.192C1118.81 548.96 1119.2 549.973 1119.2 551.232C1119.2 552.832 1118.65 554.091 1117.57 555.008C1116.48 555.925 1114.98 556.384 1113.09 556.384ZM1125.67 556.384C1124.99 556.384 1124.49 556.213 1124.17 555.872C1123.87 555.531 1123.72 555.083 1123.72 554.528V554.112C1123.72 553.557 1123.87 553.109 1124.17 552.768C1124.49 552.427 1124.99 552.256 1125.67 552.256C1126.35 552.256 1126.85 552.427 1127.14 552.768C1127.46 553.109 1127.62 553.557 1127.62 554.112V554.528C1127.62 555.083 1127.46 555.531 1127.14 555.872C1126.85 556.213 1126.35 556.384 1125.67 556.384ZM1125.67 543.232C1124.99 543.232 1124.49 543.061 1124.17 542.72C1123.87 542.379 1123.72 541.931 1123.72 541.376V540.96C1123.72 540.405 1123.87 539.957 1124.17 539.616C1124.49 539.275 1124.99 539.104 1125.67 539.104C1126.35 539.104 1126.85 539.275 1127.14 539.616C1127.46 539.957 1127.62 540.405 1127.62 540.96V541.376C1127.62 541.931 1127.46 542.379 1127.14 542.72C1126.85 543.061 1126.35 543.232 1125.67 543.232ZM1154.96 556H1140.31V553.248L1147.6 546.528C1148.65 545.568 1149.52 544.555 1150.23 543.488C1150.93 542.4 1151.28 541.312 1151.28 540.224V539.84C1151.28 538.603 1150.94 537.6 1150.26 536.832C1149.58 536.064 1148.54 535.68 1147.15 535.68C1146.47 535.68 1145.87 535.776 1145.36 535.968C1144.85 536.16 1144.4 536.427 1144.02 536.768C1143.66 537.109 1143.35 537.515 1143.09 537.984C1142.86 538.432 1142.66 538.923 1142.51 539.456L1140.11 538.528C1140.33 537.867 1140.62 537.227 1140.98 536.608C1141.36 535.968 1141.83 535.403 1142.39 534.912C1142.96 534.421 1143.64 534.027 1144.43 533.728C1145.24 533.429 1146.19 533.28 1147.28 533.28C1148.37 533.28 1149.34 533.44 1150.19 533.76C1151.05 534.08 1151.76 534.528 1152.34 535.104C1152.91 535.68 1153.35 536.363 1153.65 537.152C1153.97 537.941 1154.13 538.816 1154.13 539.776C1154.13 540.651 1154 541.461 1153.75 542.208C1153.51 542.955 1153.18 543.669 1152.75 544.352C1152.33 545.013 1151.8 545.664 1151.19 546.304C1150.59 546.944 1149.94 547.584 1149.23 548.224L1143.22 553.632H1154.96V556ZM1161.45 552.256C1162.13 552.256 1162.62 552.437 1162.92 552.8C1163.24 553.141 1163.4 553.589 1163.4 554.144V554.592C1163.4 555.467 1163.14 556.427 1162.63 557.472C1162.12 558.539 1161.4 559.467 1160.49 560.256H1158.34C1158.98 559.573 1159.49 558.923 1159.88 558.304C1160.28 557.707 1160.57 557.035 1160.74 556.288C1160.32 556.181 1160 555.979 1159.78 555.68C1159.59 555.381 1159.49 555.019 1159.49 554.592V554.144C1159.49 553.589 1159.64 553.141 1159.94 552.8C1160.26 552.437 1160.76 552.256 1161.45 552.256ZM1174.16 543.136C1175.68 543.136 1176.81 542.795 1177.56 542.112C1178.32 541.408 1178.71 540.512 1178.71 539.424V539.2C1178.71 538.027 1178.34 537.152 1177.59 536.576C1176.86 535.979 1175.9 535.68 1174.71 535.68C1173.56 535.68 1172.62 535.936 1171.89 536.448C1171.17 536.939 1170.57 537.611 1170.1 538.464L1168.12 536.928C1168.39 536.48 1168.72 536.043 1169.11 535.616C1169.51 535.168 1169.98 534.773 1170.52 534.432C1171.05 534.091 1171.67 533.813 1172.37 533.6C1173.08 533.387 1173.88 533.28 1174.77 533.28C1175.71 533.28 1176.6 533.408 1177.43 533.664C1178.26 533.899 1178.98 534.261 1179.57 534.752C1180.19 535.221 1180.67 535.808 1181.01 536.512C1181.38 537.216 1181.56 538.016 1181.56 538.912C1181.56 539.637 1181.44 540.288 1181.2 540.864C1180.99 541.44 1180.69 541.941 1180.31 542.368C1179.92 542.795 1179.47 543.157 1178.93 543.456C1178.42 543.755 1177.87 543.979 1177.27 544.128V544.256C1177.87 544.384 1178.44 544.597 1179 544.896C1179.57 545.173 1180.07 545.547 1180.5 546.016C1180.95 546.464 1181.3 547.019 1181.56 547.68C1181.83 548.32 1181.97 549.056 1181.97 549.888C1181.97 550.848 1181.79 551.733 1181.43 552.544C1181.07 553.333 1180.55 554.016 1179.89 554.592C1179.23 555.147 1178.43 555.584 1177.49 555.904C1176.55 556.224 1175.52 556.384 1174.39 556.384C1173.43 556.384 1172.58 556.277 1171.83 556.064C1171.08 555.851 1170.42 555.563 1169.84 555.2C1169.27 554.837 1168.76 554.432 1168.31 553.984C1167.88 553.536 1167.5 553.067 1167.16 552.576L1169.17 551.04C1169.45 551.488 1169.75 551.893 1170.07 552.256C1170.41 552.619 1170.78 552.928 1171.19 553.184C1171.59 553.44 1172.05 553.643 1172.56 553.792C1173.08 553.92 1173.67 553.984 1174.36 553.984C1175.94 553.984 1177.13 553.632 1177.94 552.928C1178.75 552.203 1179.16 551.179 1179.16 549.856V549.6C1179.16 548.277 1178.75 547.264 1177.94 546.56C1177.13 545.835 1175.94 545.472 1174.36 545.472H1171.73V543.136H1174.16ZM996.608 573.68C997.461 573.68 998.101 573.936 998.528 574.448C998.955 574.939 999.168 575.557 999.168 576.304V583.984C999.168 584.901 999.456 585.605 1000.03 586.096C1000.63 586.565 1001.38 586.8 1002.27 586.8V589.296C1001.38 589.296 1000.63 589.541 1000.03 590.032C999.456 590.501 999.168 591.195 999.168 592.112V599.792C999.168 600.539 998.955 601.157 998.528 601.648C998.101 602.16 997.461 602.416 996.608 602.416H993.92V600.4H996.96V592.4C996.96 591.397 997.237 590.512 997.792 589.744C998.368 588.955 999.104 588.475 1000 588.304V587.792C999.104 587.621 998.368 587.152 997.792 586.384C997.237 585.595 996.96 584.699 996.96 583.696V575.696H993.92V573.68H996.608Z" fill="black"/>
</svg>
