<svg width="1574" height="931" viewBox="0 0 1574 931" fill="none" xmlns="http://www.w3.org/2000/svg">
<rect width="196.139" height="125.997" fill="#F5F5F5"/>
<path d="M76.3783 55.6296V66.8524C76.3783 68.5843 76.6987 69.9005 77.3395 70.8011C77.9803 71.6844 79.106 72.126 80.7167 72.126C82.3274 72.126 83.4531 71.6844 84.0939 70.8011C84.7347 69.9005 85.0551 68.5843 85.0551 66.8524V55.6296H87.2374V66.3328C87.2374 67.649 87.1161 68.7921 86.8737 69.762C86.6485 70.7318 86.2761 71.5372 85.7566 72.178C85.237 72.8188 84.5529 73.2951 83.7042 73.6068C82.8729 73.9186 81.8511 74.0744 80.6388 74.0744C79.4264 74.0744 78.4046 73.9186 77.5733 73.6068C76.7593 73.2951 76.1011 72.8188 75.5989 72.178C75.0966 71.5372 74.7329 70.7318 74.5078 69.762C74.3 68.7921 74.196 67.649 74.196 66.3328V55.6296H76.3783ZM95.7515 74.0744C94.5045 74.0744 93.4567 73.8406 92.608 73.373C91.7767 72.8881 91.058 72.2473 90.4518 71.4506L91.9326 70.2556C92.4522 70.9137 93.0324 71.4246 93.6732 71.7883C94.314 72.1347 95.0587 72.3079 95.9073 72.3079C96.7906 72.3079 97.4747 72.1174 97.9597 71.7364C98.4619 71.3553 98.713 70.8184 98.713 70.1257C98.713 69.6061 98.5398 69.1645 98.1935 68.8008C97.8644 68.4197 97.2582 68.16 96.375 68.0214L95.3098 67.8655C94.6863 67.7789 94.1148 67.649 93.5952 67.4758C93.0757 67.2853 92.6167 67.0429 92.2184 66.7484C91.8373 66.4367 91.5343 66.0557 91.3091 65.6054C91.1013 65.1551 90.9974 64.6182 90.9974 63.9947C90.9974 63.3366 91.1186 62.765 91.3611 62.2801C91.6035 61.7779 91.9326 61.3622 92.3483 61.0331C92.7812 60.7041 93.2921 60.4616 93.881 60.3057C94.4698 60.1325 95.102 60.0459 95.7774 60.0459C96.8686 60.0459 97.7778 60.2364 98.5052 60.6175C99.2499 60.9985 99.8994 61.5267 100.454 62.2022L99.0767 63.4491C98.7823 63.0335 98.3493 62.6611 97.7778 62.3321C97.2063 61.9857 96.4875 61.8125 95.6216 61.8125C94.7556 61.8125 94.0975 62.003 93.6472 62.384C93.2142 62.7477 92.9977 63.25 92.9977 63.8908C92.9977 64.5489 93.2142 65.0252 93.6472 65.3196C94.0975 65.614 94.7383 65.8305 95.5696 65.9691L96.6088 66.125C98.0982 66.3501 99.1547 66.7831 99.7782 67.4239C100.402 68.0474 100.713 68.87 100.713 69.8919C100.713 71.1908 100.272 72.2126 99.3885 72.9574C98.5052 73.7021 97.2929 74.0744 95.7515 74.0744ZM109.424 74.0744C108.506 74.0744 107.675 73.9099 106.93 73.5808C106.203 73.2518 105.571 72.7842 105.034 72.178C104.514 71.5545 104.107 70.8184 103.813 69.9698C103.536 69.1038 103.397 68.134 103.397 67.0602C103.397 66.0037 103.536 65.0425 103.813 64.1766C104.107 63.3106 104.514 62.5745 105.034 61.9684C105.571 61.3449 106.203 60.8686 106.93 60.5395C107.675 60.2105 108.506 60.0459 109.424 60.0459C110.325 60.0459 111.13 60.2105 111.84 60.5395C112.55 60.8686 113.156 61.3276 113.659 61.9164C114.161 62.4879 114.542 63.172 114.802 63.9687C115.079 64.7654 115.217 65.64 115.217 66.5926V67.5798H105.579V68.2033C105.579 68.7748 105.666 69.3117 105.839 69.8139C106.03 70.2989 106.289 70.7232 106.618 71.0869C106.965 71.4506 107.381 71.7364 107.865 71.9442C108.368 72.152 108.931 72.2559 109.554 72.2559C110.403 72.2559 111.139 72.0568 111.762 71.6584C112.403 71.2601 112.897 70.6885 113.243 69.9438L114.724 71.009C114.291 71.9269 113.615 72.6716 112.697 73.2431C111.78 73.7973 110.688 74.0744 109.424 74.0744ZM109.424 61.7865C108.853 61.7865 108.333 61.8904 107.865 62.0983C107.398 62.2888 106.991 62.5659 106.644 62.9296C106.315 63.2933 106.056 63.7263 105.865 64.2285C105.675 64.7134 105.579 65.2503 105.579 65.8392V66.021H112.983V65.7353C112.983 64.5403 112.654 63.5877 111.996 62.8776C111.355 62.1502 110.498 61.7865 109.424 61.7865ZM118.642 73.7627V60.3577H120.72V62.8257H120.85C121.093 62.1849 121.526 61.6133 122.149 61.1111C122.773 60.6088 123.63 60.3577 124.721 60.3577H125.527V62.436H124.306C123.18 62.436 122.296 62.6525 121.656 63.0854C121.032 63.5011 120.72 64.0293 120.72 64.6701V73.7627H118.642Z" fill="#1E1E1E"/>
<path d="M120.058 182.791H110.888V191H108.705V172.867H110.888V180.868H120.058V172.867H122.24V191H120.058V182.791ZM136.607 191C135.828 191 135.265 190.792 134.919 190.377C134.59 189.961 134.382 189.441 134.295 188.818H134.165C133.871 189.649 133.386 190.273 132.71 190.688C132.035 191.104 131.23 191.312 130.294 191.312C128.874 191.312 127.766 190.948 126.969 190.221C126.19 189.493 125.8 188.506 125.8 187.259C125.8 185.995 126.259 185.025 127.177 184.349C128.112 183.674 129.558 183.336 131.515 183.336H134.165V182.011C134.165 181.059 133.905 180.331 133.386 179.829C132.866 179.327 132.07 179.076 130.996 179.076C130.182 179.076 129.498 179.258 128.944 179.621C128.407 179.985 127.956 180.47 127.593 181.076L126.346 179.907C126.709 179.18 127.29 178.565 128.086 178.063C128.883 177.543 129.887 177.283 131.1 177.283C132.728 177.283 133.992 177.682 134.893 178.478C135.793 179.275 136.244 180.383 136.244 181.804V189.181H137.776V191H136.607ZM130.632 189.545C131.152 189.545 131.628 189.485 132.061 189.363C132.494 189.242 132.866 189.069 133.178 188.844C133.49 188.619 133.732 188.359 133.905 188.064C134.079 187.77 134.165 187.45 134.165 187.103V184.895H131.412C130.216 184.895 129.342 185.068 128.788 185.415C128.251 185.761 127.982 186.263 127.982 186.921V187.467C127.982 188.125 128.216 188.636 128.684 189C129.169 189.363 129.818 189.545 130.632 189.545ZM139.573 189.181H141.132L142.639 185.57C142.829 185.12 143.063 184.782 143.34 184.557C143.618 184.332 143.929 184.194 144.276 184.142V184.038C143.929 183.934 143.626 183.761 143.366 183.518C143.107 183.276 142.881 182.938 142.691 182.505L141.314 179.413H139.755V177.595H140.976C141.496 177.595 141.946 177.725 142.327 177.985C142.726 178.244 143.055 178.66 143.314 179.232L145.107 183.206H147.497V177.595H149.575V183.206H151.965L153.758 179.232C154.018 178.66 154.338 178.244 154.719 177.985C155.117 177.725 155.576 177.595 156.096 177.595H157.317V179.413H155.758L154.381 182.505C154.191 182.938 153.966 183.276 153.706 183.518C153.446 183.761 153.143 183.934 152.797 184.038V184.142C153.143 184.194 153.455 184.332 153.732 184.557C154.009 184.782 154.243 185.12 154.433 185.57L155.94 189.181H157.499V191H156.018C155.55 191 155.126 190.879 154.745 190.636C154.364 190.377 154.026 189.892 153.732 189.181L151.965 184.973H149.575V191H147.497V184.973H145.107L143.34 189.181C143.046 189.892 142.708 190.377 142.327 190.636C141.946 190.879 141.522 191 141.054 191H139.573V189.181ZM160.734 177.595H162.76V185.025L162.552 188.246H162.656L164.319 185.389L169.671 177.595H171.593V191H169.567V183.57L169.775 180.349H169.671L168.008 183.206L162.656 191H160.734V177.595ZM176.007 177.595H178.734L182.813 184.557H182.917L186.97 177.595H189.671V191H187.645V180.089H187.515L186.762 181.544L182.839 188.194L178.916 181.544L178.163 180.089H178.033V191H176.007V177.595ZM203.837 191C203.058 191 202.495 190.792 202.149 190.377C201.82 189.961 201.612 189.441 201.525 188.818H201.395C201.101 189.649 200.616 190.273 199.94 190.688C199.265 191.104 198.46 191.312 197.524 191.312C196.104 191.312 194.996 190.948 194.199 190.221C193.42 189.493 193.03 188.506 193.03 187.259C193.03 185.995 193.489 185.025 194.407 184.349C195.342 183.674 196.788 183.336 198.745 183.336H201.395V182.011C201.395 181.059 201.136 180.331 200.616 179.829C200.096 179.327 199.3 179.076 198.226 179.076C197.412 179.076 196.728 179.258 196.174 179.621C195.637 179.985 195.186 180.47 194.823 181.076L193.576 179.907C193.939 179.18 194.52 178.565 195.316 178.063C196.113 177.543 197.117 177.283 198.33 177.283C199.958 177.283 201.222 177.682 202.123 178.478C203.023 179.275 203.474 180.383 203.474 181.804V189.181H205.006V191H203.837ZM197.862 189.545C198.382 189.545 198.858 189.485 199.291 189.363C199.724 189.242 200.096 189.069 200.408 188.844C200.72 188.619 200.962 188.359 201.136 188.064C201.309 187.77 201.395 187.45 201.395 187.103V184.895H198.642C197.447 184.895 196.572 185.068 196.018 185.415C195.481 185.761 195.212 186.263 195.212 186.921V187.467C195.212 188.125 195.446 188.636 195.914 189C196.399 189.363 197.048 189.545 197.862 189.545ZM213.012 191.312C212.095 191.312 211.263 191.147 210.518 190.818C209.791 190.489 209.159 190.021 208.622 189.415C208.102 188.792 207.695 188.056 207.401 187.207C207.124 186.341 206.985 185.371 206.985 184.297C206.985 183.241 207.124 182.28 207.401 181.414C207.695 180.548 208.102 179.812 208.622 179.206C209.159 178.582 209.791 178.106 210.518 177.777C211.263 177.448 212.095 177.283 213.012 177.283C213.913 177.283 214.718 177.448 215.428 177.777C216.139 178.106 216.745 178.565 217.247 179.154C217.749 179.725 218.13 180.409 218.39 181.206C218.667 182.003 218.806 182.877 218.806 183.83V184.817H209.168V185.441C209.168 186.012 209.254 186.549 209.427 187.051C209.618 187.536 209.878 187.96 210.207 188.324C210.553 188.688 210.969 188.974 211.454 189.181C211.956 189.389 212.519 189.493 213.142 189.493C213.991 189.493 214.727 189.294 215.351 188.896C215.991 188.497 216.485 187.926 216.831 187.181L218.312 188.246C217.879 189.164 217.204 189.909 216.286 190.48C215.368 191.035 214.277 191.312 213.012 191.312ZM213.012 179.024C212.441 179.024 211.921 179.128 211.454 179.336C210.986 179.526 210.579 179.803 210.233 180.167C209.904 180.531 209.644 180.964 209.453 181.466C209.263 181.951 209.168 182.488 209.168 183.076V183.258H216.572V182.973C216.572 181.778 216.242 180.825 215.584 180.115C214.944 179.388 214.086 179.024 213.012 179.024ZM222.23 177.595H224.958L229.037 184.557H229.141L233.193 177.595H235.895V191H233.869V180.089H233.739L232.986 181.544L229.063 188.194L225.14 181.544L224.387 180.089H224.257V191H222.23V177.595ZM250.174 188.922L245.186 184.609V182.635L250.174 178.322L250.797 179.725L247.238 183.622L250.797 187.519L250.174 188.922ZM255.603 188.922L250.615 184.609V182.635L255.603 178.322L256.227 179.725L252.667 183.622L256.227 187.519L255.603 188.922ZM259.778 177.595H266.532C267.623 177.595 268.481 177.907 269.104 178.53C269.728 179.136 270.039 179.959 270.039 180.998C270.039 182.678 269.165 183.622 267.416 183.83V183.934C268.455 184.02 269.225 184.349 269.728 184.921C270.247 185.475 270.507 186.168 270.507 186.999C270.507 187.536 270.42 188.047 270.247 188.532C270.091 189.017 269.858 189.441 269.546 189.805C269.234 190.169 268.853 190.463 268.403 190.688C267.952 190.896 267.441 191 266.87 191H259.778V177.595ZM266.246 189.285C266.87 189.285 267.364 189.121 267.727 188.792C268.091 188.463 268.273 187.995 268.273 187.389V186.791C268.273 186.185 268.091 185.718 267.727 185.389C267.364 185.06 266.87 184.895 266.246 184.895H261.856V189.285H266.246ZM265.987 183.206C266.558 183.206 267 183.068 267.312 182.791C267.641 182.496 267.805 182.081 267.805 181.544V180.972C267.805 180.435 267.641 180.028 267.312 179.751C267 179.457 266.558 179.31 265.987 179.31H261.856V183.206H265.987ZM279.33 191.312C278.429 191.312 277.607 191.147 276.862 190.818C276.117 190.489 275.476 190.021 274.939 189.415C274.42 188.792 274.013 188.056 273.718 187.207C273.424 186.341 273.277 185.371 273.277 184.297C273.277 183.241 273.424 182.28 273.718 181.414C274.013 180.548 274.42 179.812 274.939 179.206C275.476 178.582 276.117 178.106 276.862 177.777C277.607 177.448 278.429 177.283 279.33 177.283C280.23 177.283 281.044 177.448 281.772 177.777C282.517 178.106 283.157 178.582 283.694 179.206C284.231 179.812 284.647 180.548 284.941 181.414C285.236 182.28 285.383 183.241 285.383 184.297C285.383 185.371 285.236 186.341 284.941 187.207C284.647 188.056 284.231 188.792 283.694 189.415C283.157 190.021 282.517 190.489 281.772 190.818C281.044 191.147 280.23 191.312 279.33 191.312ZM279.33 189.467C280.456 189.467 281.373 189.121 282.084 188.428C282.794 187.735 283.149 186.679 283.149 185.259V183.336C283.149 181.916 282.794 180.86 282.084 180.167C281.373 179.474 280.456 179.128 279.33 179.128C278.204 179.128 277.286 179.474 276.576 180.167C275.866 180.86 275.511 181.916 275.511 183.336V185.259C275.511 186.679 275.866 187.735 276.576 188.428C277.286 189.121 278.204 189.467 279.33 189.467ZM288.801 177.595H290.827V185.025L290.619 188.246H290.723L292.386 185.389L297.738 177.595H299.66V191H297.634V183.57L297.841 180.349H297.738L296.075 183.206L290.723 191H288.801V177.595ZM294.282 175.517C293.347 175.517 292.602 175.335 292.048 174.971C291.494 174.59 291.052 174.097 290.723 173.49L290.204 172.503L292.022 171.698L292.931 173.828C293.139 173.88 293.364 173.923 293.607 173.958C293.849 173.975 294.075 173.984 294.282 173.984C294.49 173.984 294.715 173.975 294.958 173.958C295.2 173.923 295.425 173.88 295.633 173.828L296.542 171.698L298.361 172.503L297.841 173.49C297.512 174.097 297.071 174.59 296.517 174.971C295.962 175.335 295.218 175.517 294.282 175.517ZM306.957 179.413H302.385V177.595H313.608V179.413H309.035V191H306.957V179.413ZM316.327 177.595H318.353V185.025L318.146 188.246H318.25L319.912 185.389L325.264 177.595H327.186V191H325.16V183.57L325.368 180.349H325.264L323.601 183.206L318.25 191H316.327V177.595ZM330.742 187.519L334.302 183.622L330.742 179.725L331.366 178.322L336.354 182.635V184.609L331.366 188.922L330.742 187.519ZM336.172 187.519L339.731 183.622L336.172 179.725L336.795 178.322L341.783 182.635V184.609L336.795 188.922L336.172 187.519Z" fill="#1E1E1E"/>
<path d="M662.178 444.911C660.706 444.911 659.45 444.626 658.411 444.054C657.372 443.465 656.515 442.677 655.839 441.69L657.424 440.417C657.978 441.231 658.628 441.863 659.372 442.313C660.135 442.746 661.07 442.963 662.178 442.963C663.477 442.963 664.49 442.703 665.218 442.184C665.945 441.647 666.309 440.824 666.309 439.716V439.378C666.309 438.443 665.997 437.698 665.374 437.144C664.75 436.572 663.763 436.286 662.412 436.286H659.684V434.364H662.256C663.538 434.364 664.464 434.104 665.036 433.585C665.607 433.065 665.893 432.286 665.893 431.247V430.883C665.893 430 665.599 429.315 665.01 428.831C664.438 428.346 663.555 428.103 662.36 428.103C661.269 428.103 660.386 428.294 659.71 428.675C659.035 429.056 658.489 429.558 658.074 430.181L656.385 429.09C657.043 428.155 657.831 427.436 658.749 426.934C659.667 426.415 660.871 426.155 662.36 426.155C664.334 426.155 665.807 426.588 666.776 427.454C667.746 428.32 668.231 429.471 668.231 430.909C668.231 432.156 667.919 433.126 667.296 433.818C666.69 434.511 665.85 434.97 664.776 435.195V435.325C665.313 435.394 665.815 435.524 666.283 435.715C666.75 435.905 667.157 436.174 667.504 436.52C667.85 436.867 668.127 437.3 668.335 437.819C668.543 438.321 668.647 438.91 668.647 439.586C668.647 440.382 668.5 441.11 668.205 441.768C667.911 442.426 667.486 442.989 666.932 443.457C666.378 443.924 665.694 444.288 664.88 444.548C664.083 444.79 663.183 444.911 662.178 444.911ZM682.228 444.6C681.448 444.6 680.886 444.392 680.539 443.976C680.21 443.56 680.002 443.041 679.916 442.417H679.786C679.491 443.249 679.006 443.872 678.331 444.288C677.656 444.704 676.85 444.911 675.915 444.911C674.495 444.911 673.386 444.548 672.59 443.82C671.81 443.093 671.421 442.106 671.421 440.859C671.421 439.594 671.88 438.625 672.798 437.949C673.733 437.274 675.179 436.936 677.136 436.936H679.786V435.611C679.786 434.658 679.526 433.931 679.006 433.429C678.487 432.927 677.69 432.675 676.616 432.675C675.802 432.675 675.118 432.857 674.564 433.221C674.027 433.585 673.577 434.07 673.213 434.676L671.966 433.507C672.33 432.779 672.91 432.164 673.707 431.662C674.504 431.143 675.508 430.883 676.72 430.883C678.348 430.883 679.613 431.281 680.513 432.078C681.414 432.875 681.864 433.983 681.864 435.403V442.781H683.397V444.6H682.228ZM676.253 443.145C676.772 443.145 677.249 443.084 677.682 442.963C678.115 442.842 678.487 442.669 678.799 442.443C679.11 442.218 679.353 441.958 679.526 441.664C679.699 441.37 679.786 441.049 679.786 440.703V438.495H677.032C675.837 438.495 674.962 438.668 674.408 439.014C673.871 439.361 673.603 439.863 673.603 440.521V441.067C673.603 441.725 673.837 442.236 674.304 442.599C674.789 442.963 675.439 443.145 676.253 443.145ZM686.363 431.195H696.833V444.6H694.754V433.013H688.441V444.6H686.363V431.195ZM701.255 431.195H703.334V433.377H703.437C703.784 432.528 704.286 431.905 704.944 431.506C705.62 431.091 706.425 430.883 707.36 430.883C708.192 430.883 708.945 431.047 709.62 431.376C710.296 431.706 710.867 432.173 711.335 432.779C711.82 433.385 712.184 434.122 712.426 434.987C712.686 435.853 712.816 436.823 712.816 437.897C712.816 438.971 712.686 439.941 712.426 440.807C712.184 441.673 711.82 442.409 711.335 443.015C710.867 443.621 710.296 444.089 709.62 444.418C708.945 444.747 708.192 444.911 707.36 444.911C705.542 444.911 704.234 444.08 703.437 442.417H703.334V449.795H701.255V431.195ZM706.789 443.041C707.966 443.041 708.893 442.677 709.568 441.95C710.244 441.205 710.582 440.235 710.582 439.04V436.754C710.582 435.559 710.244 434.598 709.568 433.87C708.893 433.126 707.966 432.753 706.789 432.753C706.321 432.753 705.871 432.823 705.438 432.961C705.022 433.082 704.658 433.256 704.347 433.481C704.035 433.706 703.784 433.983 703.593 434.312C703.42 434.624 703.334 434.962 703.334 435.325V440.313C703.334 440.746 703.42 441.136 703.593 441.482C703.784 441.811 704.035 442.097 704.347 442.339C704.658 442.565 705.022 442.738 705.438 442.859C705.871 442.98 706.321 443.041 706.789 443.041ZM726.067 444.6C725.288 444.6 724.725 444.392 724.378 443.976C724.049 443.56 723.841 443.041 723.755 442.417H723.625C723.33 443.249 722.846 443.872 722.17 444.288C721.495 444.704 720.689 444.911 719.754 444.911C718.334 444.911 717.225 444.548 716.429 443.82C715.649 443.093 715.26 442.106 715.26 440.859C715.26 439.594 715.719 438.625 716.637 437.949C717.572 437.274 719.018 436.936 720.975 436.936H723.625V435.611C723.625 434.658 723.365 433.931 722.846 433.429C722.326 432.927 721.529 432.675 720.456 432.675C719.642 432.675 718.957 432.857 718.403 433.221C717.866 433.585 717.416 434.07 717.052 434.676L715.805 433.507C716.169 432.779 716.749 432.164 717.546 431.662C718.343 431.143 719.347 430.883 720.559 430.883C722.187 430.883 723.452 431.281 724.352 432.078C725.253 432.875 725.703 433.983 725.703 435.403V442.781H727.236V444.6H726.067ZM720.092 443.145C720.611 443.145 721.088 443.084 721.521 442.963C721.954 442.842 722.326 442.669 722.638 442.443C722.949 442.218 723.192 441.958 723.365 441.664C723.538 441.37 723.625 441.049 723.625 440.703V438.495H720.871C719.676 438.495 718.802 438.668 718.247 439.014C717.71 439.361 717.442 439.863 717.442 440.521V441.067C717.442 441.725 717.676 442.236 718.143 442.599C718.628 442.963 719.278 443.145 720.092 443.145ZM730.202 431.195H732.28V442.781H737.32V431.195H739.399V442.781H744.439V431.195H746.517V444.6H730.202V431.195ZM750.929 431.195H752.956V438.625L752.748 441.846H752.852L754.514 438.988L759.866 431.195H761.788V444.6H759.762V437.17L759.97 433.948H759.866L758.203 436.806L752.852 444.6H750.929V431.195ZM766.202 431.195H772.956C774.048 431.195 774.905 431.506 775.528 432.13C776.152 432.736 776.464 433.559 776.464 434.598C776.464 436.278 775.589 437.222 773.84 437.429V437.533C774.879 437.62 775.65 437.949 776.152 438.521C776.671 439.075 776.931 439.768 776.931 440.599C776.931 441.136 776.845 441.647 776.671 442.132C776.516 442.617 776.282 443.041 775.97 443.405C775.658 443.768 775.277 444.063 774.827 444.288C774.377 444.496 773.866 444.6 773.294 444.6H766.202V431.195ZM772.671 442.885C773.294 442.885 773.788 442.72 774.151 442.391C774.515 442.062 774.697 441.595 774.697 440.989V440.391C774.697 439.785 774.515 439.317 774.151 438.988C773.788 438.659 773.294 438.495 772.671 438.495H768.28V442.885H772.671ZM772.411 436.806C772.982 436.806 773.424 436.667 773.736 436.39C774.065 436.096 774.229 435.68 774.229 435.143V434.572C774.229 434.035 774.065 433.628 773.736 433.351C773.424 433.056 772.982 432.909 772.411 432.909H768.28V436.806H772.411ZM790.303 444.6C789.524 444.6 788.961 444.392 788.615 443.976C788.286 443.56 788.078 443.041 787.991 442.417H787.861C787.567 443.249 787.082 443.872 786.407 444.288C785.731 444.704 784.926 444.911 783.99 444.911C782.57 444.911 781.462 444.548 780.665 443.82C779.886 443.093 779.496 442.106 779.496 440.859C779.496 439.594 779.955 438.625 780.873 437.949C781.808 437.274 783.254 436.936 785.211 436.936H787.861V435.611C787.861 434.658 787.602 433.931 787.082 433.429C786.562 432.927 785.766 432.675 784.692 432.675C783.878 432.675 783.194 432.857 782.64 433.221C782.103 433.585 781.652 434.07 781.289 434.676L780.042 433.507C780.405 432.779 780.986 432.164 781.782 431.662C782.579 431.143 783.583 430.883 784.796 430.883C786.424 430.883 787.688 431.281 788.589 432.078C789.489 432.875 789.94 433.983 789.94 435.403V442.781H791.472V444.6H790.303ZM784.328 443.145C784.848 443.145 785.324 443.084 785.757 442.963C786.19 442.842 786.562 442.669 786.874 442.443C787.186 442.218 787.428 441.958 787.602 441.664C787.775 441.37 787.861 441.049 787.861 440.703V438.495H785.108C783.913 438.495 783.038 438.668 782.484 439.014C781.947 439.361 781.678 439.863 781.678 440.521V441.067C781.678 441.725 781.912 442.236 782.38 442.599C782.865 442.963 783.514 443.145 784.328 443.145ZM799.478 444.911C798.561 444.911 797.729 444.747 796.985 444.418C796.257 444.089 795.625 443.621 795.088 443.015C794.568 442.391 794.161 441.655 793.867 440.807C793.59 439.941 793.451 438.971 793.451 437.897C793.451 436.841 793.59 435.879 793.867 435.013C794.161 434.148 794.568 433.411 795.088 432.805C795.625 432.182 796.257 431.706 796.985 431.376C797.729 431.047 798.561 430.883 799.478 430.883C800.379 430.883 801.184 431.047 801.894 431.376C802.605 431.706 803.211 432.164 803.713 432.753C804.215 433.325 804.596 434.009 804.856 434.806C805.133 435.602 805.272 436.477 805.272 437.429V438.417H795.634V439.04C795.634 439.612 795.72 440.149 795.893 440.651C796.084 441.136 796.344 441.56 796.673 441.924C797.019 442.288 797.435 442.573 797.92 442.781C798.422 442.989 798.985 443.093 799.608 443.093C800.457 443.093 801.193 442.894 801.817 442.495C802.457 442.097 802.951 441.525 803.297 440.781L804.778 441.846C804.345 442.764 803.67 443.509 802.752 444.08C801.834 444.634 800.743 444.911 799.478 444.911ZM799.478 432.623C798.907 432.623 798.387 432.727 797.92 432.935C797.452 433.126 797.045 433.403 796.699 433.766C796.37 434.13 796.11 434.563 795.919 435.065C795.729 435.55 795.634 436.087 795.634 436.676V436.858H803.038V436.572C803.038 435.377 802.708 434.425 802.05 433.715C801.41 432.987 800.552 432.623 799.478 432.623ZM808.696 431.195H811.424L815.503 438.157H815.607L819.659 431.195H822.361V444.6H820.335V433.689H820.205L819.452 435.143L815.529 441.794L811.606 435.143L810.853 433.689H810.723V444.6H808.696V431.195ZM830.95 448.522L837.731 425.375H839.601L832.821 448.522H830.95ZM852.612 444.6C851.832 444.6 851.269 444.392 850.923 443.976C850.594 443.56 850.386 443.041 850.3 442.417H850.17C849.875 443.249 849.39 443.872 848.715 444.288C848.039 444.704 847.234 444.911 846.299 444.911C844.879 444.911 843.77 444.548 842.974 443.82C842.194 443.093 841.804 442.106 841.804 440.859C841.804 439.594 842.263 438.625 843.181 437.949C844.117 437.274 845.563 436.936 847.52 436.936H850.17V435.611C850.17 434.658 849.91 433.931 849.39 433.429C848.871 432.927 848.074 432.675 847 432.675C846.186 432.675 845.502 432.857 844.948 433.221C844.411 433.585 843.961 434.07 843.597 434.676L842.35 433.507C842.714 432.779 843.294 432.164 844.091 431.662C844.887 431.143 845.892 430.883 847.104 430.883C848.732 430.883 849.996 431.281 850.897 432.078C851.798 432.875 852.248 433.983 852.248 435.403V442.781H853.781V444.6H852.612ZM846.637 443.145C847.156 443.145 847.632 443.084 848.065 442.963C848.498 442.842 848.871 442.669 849.182 442.443C849.494 442.218 849.737 441.958 849.91 441.664C850.083 441.37 850.17 441.049 850.17 440.703V438.495H847.416C846.221 438.495 845.346 438.668 844.792 439.014C844.255 439.361 843.987 439.863 843.987 440.521V441.067C843.987 441.725 844.22 442.236 844.688 442.599C845.173 442.963 845.823 443.145 846.637 443.145ZM865.008 442.417H864.904C864.766 442.729 864.592 443.041 864.385 443.353C864.194 443.647 863.952 443.916 863.657 444.158C863.363 444.383 863.008 444.565 862.592 444.704C862.176 444.842 861.692 444.911 861.137 444.911C859.752 444.911 858.652 444.47 857.838 443.586C857.024 442.686 856.617 441.422 856.617 439.794V431.195H858.695V439.43C858.695 441.837 859.717 443.041 861.761 443.041C862.176 443.041 862.575 442.989 862.956 442.885C863.354 442.781 863.701 442.625 863.995 442.417C864.307 442.21 864.549 441.95 864.722 441.638C864.913 441.309 865.008 440.919 865.008 440.469V431.195H867.086V444.6H865.008V442.417ZM874.474 444.6C873.746 444.6 873.192 444.4 872.811 444.002C872.447 443.586 872.266 443.05 872.266 442.391V433.013H870.057V431.195H871.304C871.755 431.195 872.058 431.108 872.214 430.935C872.387 430.744 872.473 430.424 872.473 429.974V427.48H874.344V431.195H877.279V433.013H874.344V442.781H877.072V444.6H874.474ZM880.62 425.375H882.698V433.377H882.802C883.131 432.615 883.59 432.009 884.179 431.558C884.785 431.108 885.59 430.883 886.595 430.883C887.981 430.883 889.072 431.333 889.868 432.234C890.682 433.117 891.089 434.373 891.089 436.001V444.6H889.011V436.364C889.011 433.957 887.998 432.753 885.972 432.753C885.556 432.753 885.149 432.805 884.751 432.909C884.369 433.013 884.023 433.169 883.711 433.377C883.4 433.585 883.148 433.853 882.958 434.182C882.785 434.494 882.698 434.866 882.698 435.299V444.6H880.62V425.375ZM900.451 444.911C899.55 444.911 898.728 444.747 897.983 444.418C897.238 444.089 896.597 443.621 896.061 443.015C895.541 442.391 895.134 441.655 894.84 440.807C894.545 439.941 894.398 438.971 894.398 437.897C894.398 436.841 894.545 435.879 894.84 435.013C895.134 434.148 895.541 433.411 896.061 432.805C896.597 432.182 897.238 431.706 897.983 431.376C898.728 431.047 899.55 430.883 900.451 430.883C901.352 430.883 902.166 431.047 902.893 431.376C903.638 431.706 904.279 432.182 904.815 432.805C905.352 433.411 905.768 434.148 906.062 435.013C906.357 435.879 906.504 436.841 906.504 437.897C906.504 438.971 906.357 439.941 906.062 440.807C905.768 441.655 905.352 442.391 904.815 443.015C904.279 443.621 903.638 444.089 902.893 444.418C902.166 444.747 901.352 444.911 900.451 444.911ZM900.451 443.067C901.577 443.067 902.495 442.72 903.205 442.028C903.915 441.335 904.27 440.278 904.27 438.858V436.936C904.27 435.516 903.915 434.459 903.205 433.766C902.495 433.074 901.577 432.727 900.451 432.727C899.325 432.727 898.407 433.074 897.697 433.766C896.987 434.459 896.632 435.516 896.632 436.936V438.858C896.632 440.278 896.987 441.335 897.697 442.028C898.407 442.72 899.325 443.067 900.451 443.067ZM909.922 444.6V431.195H912V433.663H912.13C912.373 433.022 912.806 432.45 913.429 431.948C914.053 431.446 914.91 431.195 916.001 431.195H916.806V433.273H915.585C914.46 433.273 913.576 433.489 912.936 433.922C912.312 434.338 912 434.866 912 435.507V444.6H909.922ZM920.5 428.051C920.05 428.051 919.721 427.947 919.513 427.739C919.323 427.514 919.227 427.229 919.227 426.882V426.544C919.227 426.198 919.323 425.921 919.513 425.713C919.721 425.488 920.05 425.375 920.5 425.375C920.951 425.375 921.271 425.488 921.461 425.713C921.669 425.921 921.773 426.198 921.773 426.544V426.882C921.773 427.229 921.669 427.514 921.461 427.739C921.271 427.947 920.951 428.051 920.5 428.051ZM919.461 431.195H921.539V444.6H919.461V431.195ZM924.605 444.6V442.859L932.217 433.013H924.839V431.195H934.737V432.753L926.969 442.781H934.944V444.6H924.605ZM942.793 444.911C941.875 444.911 941.043 444.747 940.299 444.418C939.571 444.089 938.939 443.621 938.402 443.015C937.883 442.391 937.476 441.655 937.181 440.807C936.904 439.941 936.766 438.971 936.766 437.897C936.766 436.841 936.904 435.879 937.181 435.013C937.476 434.148 937.883 433.411 938.402 432.805C938.939 432.182 939.571 431.706 940.299 431.376C941.043 431.047 941.875 430.883 942.793 430.883C943.693 430.883 944.499 431.047 945.209 431.376C945.919 431.706 946.525 432.164 947.027 432.753C947.529 433.325 947.91 434.009 948.17 434.806C948.447 435.602 948.586 436.477 948.586 437.429V438.417H938.948V439.04C938.948 439.612 939.034 440.149 939.208 440.651C939.398 441.136 939.658 441.56 939.987 441.924C940.333 442.288 940.749 442.573 941.234 442.781C941.736 442.989 942.299 443.093 942.923 443.093C943.771 443.093 944.507 442.894 945.131 442.495C945.772 442.097 946.265 441.525 946.611 440.781L948.092 441.846C947.659 442.764 946.984 443.509 946.066 444.08C945.148 444.634 944.057 444.911 942.793 444.911ZM942.793 432.623C942.221 432.623 941.702 432.727 941.234 432.935C940.766 433.126 940.359 433.403 940.013 433.766C939.684 434.13 939.424 434.563 939.234 435.065C939.043 435.55 938.948 436.087 938.948 436.676V436.858H946.352V436.572C946.352 435.377 946.023 434.425 945.365 433.715C944.724 432.987 943.866 432.623 942.793 432.623ZM962.748 442.989V437.559H957.682V435.793H962.748V430.363H964.723V435.793H969.789V437.559H964.723V442.989H962.748Z" fill="#1E1E1E"/>
<path d="M984.855 444.911C983.919 444.911 983.079 444.747 982.335 444.418C981.59 444.089 980.958 443.621 980.438 443.015C979.936 442.409 979.546 441.673 979.269 440.807C979.009 439.941 978.88 438.971 978.88 437.897C978.88 436.823 979.009 435.853 979.269 434.987C979.546 434.122 979.936 433.385 980.438 432.779C980.958 432.173 981.59 431.706 982.335 431.376C983.079 431.047 983.919 430.883 984.855 430.883C986.188 430.883 987.253 431.177 988.05 431.766C988.864 432.338 989.47 433.091 989.869 434.026L988.128 434.91C987.885 434.217 987.487 433.68 986.933 433.299C986.379 432.918 985.686 432.727 984.855 432.727C984.231 432.727 983.686 432.831 983.218 433.039C982.75 433.23 982.361 433.507 982.049 433.87C981.737 434.217 981.503 434.641 981.347 435.143C981.192 435.628 981.114 436.165 981.114 436.754V439.04C981.114 440.218 981.425 441.188 982.049 441.95C982.69 442.695 983.625 443.067 984.855 443.067C986.535 443.067 987.747 442.288 988.492 440.729L989.998 441.742C989.565 442.712 988.916 443.483 988.05 444.054C987.201 444.626 986.136 444.911 984.855 444.911ZM997.846 444.911C996.945 444.911 996.122 444.747 995.378 444.418C994.633 444.089 993.992 443.621 993.455 443.015C992.936 442.391 992.529 441.655 992.234 440.807C991.94 439.941 991.793 438.971 991.793 437.897C991.793 436.841 991.94 435.879 992.234 435.013C992.529 434.148 992.936 433.411 993.455 432.805C993.992 432.182 994.633 431.706 995.378 431.376C996.122 431.047 996.945 430.883 997.846 430.883C998.746 430.883 999.56 431.047 1000.29 431.376C1001.03 431.706 1001.67 432.182 1002.21 432.805C1002.75 433.411 1003.16 434.148 1003.46 435.013C1003.75 435.879 1003.9 436.841 1003.9 437.897C1003.9 438.971 1003.75 439.941 1003.46 440.807C1003.16 441.655 1002.75 442.391 1002.21 443.015C1001.67 443.621 1001.03 444.089 1000.29 444.418C999.56 444.747 998.746 444.911 997.846 444.911ZM997.846 443.067C998.971 443.067 999.889 442.72 1000.6 442.028C1001.31 441.335 1001.66 440.278 1001.66 438.858V436.936C1001.66 435.516 1001.31 434.459 1000.6 433.766C999.889 433.074 998.971 432.727 997.846 432.727C996.72 432.727 995.802 433.074 995.092 433.766C994.382 434.459 994.027 435.516 994.027 436.936V438.858C994.027 440.278 994.382 441.335 995.092 442.028C995.802 442.72 996.72 443.067 997.846 443.067ZM1015.89 442.417H1015.79C1014.97 444.08 1013.66 444.911 1011.86 444.911C1011.03 444.911 1010.28 444.747 1009.6 444.418C1008.93 444.089 1008.35 443.621 1007.86 443.015C1007.39 442.409 1007.03 441.673 1006.77 440.807C1006.53 439.941 1006.41 438.971 1006.41 437.897C1006.41 436.823 1006.53 435.853 1006.77 434.987C1007.03 434.122 1007.39 433.385 1007.86 432.779C1008.35 432.173 1008.93 431.706 1009.6 431.376C1010.28 431.047 1011.03 430.883 1011.86 430.883C1012.8 430.883 1013.6 431.091 1014.25 431.506C1014.93 431.905 1015.44 432.528 1015.79 433.377H1015.89V425.375H1017.97V444.6H1015.89V442.417ZM1012.43 443.041C1012.9 443.041 1013.34 442.98 1013.76 442.859C1014.19 442.738 1014.56 442.565 1014.88 442.339C1015.19 442.097 1015.43 441.811 1015.6 441.482C1015.79 441.136 1015.89 440.746 1015.89 440.313V435.325C1015.89 434.962 1015.79 434.624 1015.6 434.312C1015.43 433.983 1015.19 433.706 1014.88 433.481C1014.56 433.256 1014.19 433.082 1013.76 432.961C1013.34 432.823 1012.9 432.753 1012.43 432.753C1011.26 432.753 1010.33 433.126 1009.65 433.87C1008.98 434.598 1008.64 435.559 1008.64 436.754V439.04C1008.64 440.235 1008.98 441.205 1009.65 441.95C1010.33 442.677 1011.26 443.041 1012.43 443.041ZM1027.43 444.911C1026.51 444.911 1025.68 444.747 1024.93 444.418C1024.21 444.089 1023.57 443.621 1023.04 443.015C1022.52 442.391 1022.11 441.655 1021.82 440.807C1021.54 439.941 1021.4 438.971 1021.4 437.897C1021.4 436.841 1021.54 435.879 1021.82 435.013C1022.11 434.148 1022.52 433.411 1023.04 432.805C1023.57 432.182 1024.21 431.706 1024.93 431.376C1025.68 431.047 1026.51 430.883 1027.43 430.883C1028.33 430.883 1029.13 431.047 1029.84 431.376C1030.55 431.706 1031.16 432.164 1031.66 432.753C1032.16 433.325 1032.54 434.009 1032.8 434.806C1033.08 435.602 1033.22 436.477 1033.22 437.429V438.417H1023.58V439.04C1023.58 439.612 1023.67 440.149 1023.84 440.651C1024.03 441.136 1024.29 441.56 1024.62 441.924C1024.97 442.288 1025.38 442.573 1025.87 442.781C1026.37 442.989 1026.93 443.093 1027.56 443.093C1028.4 443.093 1029.14 442.894 1029.76 442.495C1030.41 442.097 1030.9 441.525 1031.25 440.781L1032.73 441.846C1032.29 442.764 1031.62 443.509 1030.7 444.08C1029.78 444.634 1028.69 444.911 1027.43 444.911ZM1027.43 432.623C1026.85 432.623 1026.34 432.727 1025.87 432.935C1025.4 433.126 1024.99 433.403 1024.65 433.766C1024.32 434.13 1024.06 434.563 1023.87 435.065C1023.68 435.55 1023.58 436.087 1023.58 436.676V436.858H1030.99V436.572C1030.99 435.377 1030.66 434.425 1030 433.715C1029.36 432.987 1028.5 432.623 1027.43 432.623ZM1033.92 448.886V447.068H1047.04V448.886H1033.92ZM1053.48 444.911C1052.54 444.911 1051.7 444.747 1050.96 444.418C1050.22 444.089 1049.58 443.621 1049.06 443.015C1048.56 442.409 1048.17 441.673 1047.89 440.807C1047.63 439.941 1047.5 438.971 1047.5 437.897C1047.5 436.823 1047.63 435.853 1047.89 434.987C1048.17 434.122 1048.56 433.385 1049.06 432.779C1049.58 432.173 1050.22 431.706 1050.96 431.376C1051.7 431.047 1052.54 430.883 1053.48 430.883C1054.81 430.883 1055.88 431.177 1056.68 431.766C1057.49 432.338 1058.1 433.091 1058.49 434.026L1056.75 434.91C1056.51 434.217 1056.11 433.68 1055.56 433.299C1055 432.918 1054.31 432.727 1053.48 432.727C1052.86 432.727 1052.31 432.831 1051.84 433.039C1051.38 433.23 1050.99 433.507 1050.67 433.87C1050.36 434.217 1050.13 434.641 1049.97 435.143C1049.82 435.628 1049.74 436.165 1049.74 436.754V439.04C1049.74 440.218 1050.05 441.188 1050.67 441.95C1051.32 442.695 1052.25 443.067 1053.48 443.067C1055.16 443.067 1056.37 442.288 1057.12 440.729L1058.62 441.742C1058.19 442.712 1057.54 443.483 1056.68 444.054C1055.83 444.626 1054.76 444.911 1053.48 444.911ZM1061.56 425.375H1063.64V433.377H1063.74C1064.07 432.615 1064.53 432.009 1065.12 431.558C1065.72 431.108 1066.53 430.883 1067.53 430.883C1068.92 430.883 1070.01 431.333 1070.81 432.234C1071.62 433.117 1072.03 434.373 1072.03 436.001V444.6H1069.95V436.364C1069.95 433.957 1068.94 432.753 1066.91 432.753C1066.49 432.753 1066.09 432.805 1065.69 432.909C1065.31 433.013 1064.96 433.169 1064.65 433.377C1064.34 433.585 1064.09 433.853 1063.9 434.182C1063.72 434.494 1063.64 434.866 1063.64 435.299V444.6H1061.56V425.375ZM1086.06 444.6C1085.29 444.6 1084.72 444.392 1084.38 443.976C1084.05 443.56 1083.84 443.041 1083.75 442.417H1083.62C1083.33 443.249 1082.84 443.872 1082.17 444.288C1081.49 444.704 1080.69 444.911 1079.75 444.911C1078.33 444.911 1077.22 444.548 1076.43 443.82C1075.65 443.093 1075.26 442.106 1075.26 440.859C1075.26 439.594 1075.72 438.625 1076.63 437.949C1077.57 437.274 1079.02 436.936 1080.97 436.936H1083.62V435.611C1083.62 434.658 1083.36 433.931 1082.84 433.429C1082.32 432.927 1081.53 432.675 1080.45 432.675C1079.64 432.675 1078.96 432.857 1078.4 433.221C1077.86 433.585 1077.41 434.07 1077.05 434.676L1075.8 433.507C1076.17 432.779 1076.75 432.164 1077.54 431.662C1078.34 431.143 1079.34 430.883 1080.56 430.883C1082.19 430.883 1083.45 431.281 1084.35 432.078C1085.25 432.875 1085.7 433.983 1085.7 435.403V442.781H1087.23V444.6H1086.06ZM1080.09 443.145C1080.61 443.145 1081.09 443.084 1081.52 442.963C1081.95 442.842 1082.32 442.669 1082.64 442.443C1082.95 442.218 1083.19 441.958 1083.36 441.664C1083.54 441.37 1083.62 441.049 1083.62 440.703V438.495H1080.87C1079.67 438.495 1078.8 438.668 1078.25 439.014C1077.71 439.361 1077.44 439.863 1077.44 440.521V441.067C1077.44 441.725 1077.67 442.236 1078.14 442.599C1078.63 442.963 1079.28 443.145 1080.09 443.145ZM1092.41 444.6C1091.68 444.6 1091.13 444.4 1090.75 444.002C1090.38 443.586 1090.2 443.067 1090.2 442.443V425.375H1092.28V442.781H1094.25V444.6H1092.41ZM1099.36 444.6C1098.63 444.6 1098.08 444.4 1097.7 444.002C1097.33 443.586 1097.15 443.067 1097.15 442.443V425.375H1099.23V442.781H1101.2V444.6H1099.36ZM1109.27 444.911C1108.35 444.911 1107.52 444.747 1106.78 444.418C1106.05 444.089 1105.42 443.621 1104.88 443.015C1104.36 442.391 1103.95 441.655 1103.66 440.807C1103.38 439.941 1103.24 438.971 1103.24 437.897C1103.24 436.841 1103.38 435.879 1103.66 435.013C1103.95 434.148 1104.36 433.411 1104.88 432.805C1105.42 432.182 1106.05 431.706 1106.78 431.376C1107.52 431.047 1108.35 430.883 1109.27 430.883C1110.17 430.883 1110.98 431.047 1111.69 431.376C1112.4 431.706 1113 432.164 1113.5 432.753C1114.01 433.325 1114.39 434.009 1114.65 434.806C1114.92 435.602 1115.06 436.477 1115.06 437.429V438.417H1105.42V439.04C1105.42 439.612 1105.51 440.149 1105.68 440.651C1105.87 441.136 1106.13 441.56 1106.46 441.924C1106.81 442.288 1107.23 442.573 1107.71 442.781C1108.21 442.989 1108.78 443.093 1109.4 443.093C1110.25 443.093 1110.98 442.894 1111.61 442.495C1112.25 442.097 1112.74 441.525 1113.09 440.781L1114.57 441.846C1114.14 442.764 1113.46 443.509 1112.54 444.08C1111.62 444.634 1110.53 444.911 1109.27 444.911ZM1109.27 432.623C1108.7 432.623 1108.18 432.727 1107.71 432.935C1107.24 433.126 1106.84 433.403 1106.49 433.766C1106.16 434.13 1105.9 434.563 1105.71 435.065C1105.52 435.55 1105.42 436.087 1105.42 436.676V436.858H1112.83V436.572C1112.83 435.377 1112.5 434.425 1111.84 433.715C1111.2 432.987 1110.34 432.623 1109.27 432.623ZM1118.49 444.6V431.195H1120.57V433.377H1120.67C1121 432.615 1121.46 432.009 1122.05 431.558C1122.65 431.108 1123.46 430.883 1124.46 430.883C1125.85 430.883 1126.94 431.333 1127.74 432.234C1128.55 433.117 1128.96 434.373 1128.96 436.001V444.6H1126.88V436.364C1126.88 433.957 1125.87 432.753 1123.84 432.753C1123.42 432.753 1123.02 432.805 1122.62 432.909C1122.24 433.013 1121.89 433.169 1121.58 433.377C1121.27 433.585 1121.02 433.853 1120.83 434.182C1120.65 434.494 1120.57 434.866 1120.57 435.299V444.6H1118.49ZM1144.55 446.08C1144.55 447.466 1144.01 448.479 1142.92 449.12C1141.84 449.778 1140.22 450.107 1138.06 450.107C1135.96 450.107 1134.46 449.821 1133.54 449.25C1132.62 448.678 1132.16 447.864 1132.16 446.808C1132.16 446.08 1132.35 445.509 1132.73 445.093C1133.11 444.695 1133.63 444.4 1134.29 444.21V443.924C1133.5 443.543 1133.1 442.92 1133.1 442.054C1133.1 441.378 1133.31 440.867 1133.75 440.521C1134.18 440.157 1134.73 439.889 1135.41 439.716V439.612C1134.61 439.231 1133.99 438.685 1133.54 437.975C1133.11 437.265 1132.89 436.442 1132.89 435.507C1132.89 434.832 1133.01 434.208 1133.25 433.637C1133.5 433.065 1133.83 432.58 1134.27 432.182C1134.72 431.766 1135.24 431.446 1135.85 431.221C1136.47 430.995 1137.17 430.883 1137.93 430.883C1138.88 430.883 1139.73 431.056 1140.47 431.402V431.169C1140.47 430.649 1140.6 430.225 1140.84 429.896C1141.08 429.549 1141.48 429.376 1142.03 429.376H1144.03V431.195H1141.49V432.052C1141.97 432.468 1142.35 432.97 1142.61 433.559C1142.88 434.13 1143.02 434.78 1143.02 435.507C1143.02 436.183 1142.9 436.806 1142.66 437.378C1142.41 437.949 1142.07 438.443 1141.62 438.858C1141.18 439.257 1140.66 439.568 1140.03 439.794C1139.41 440.019 1138.72 440.131 1137.95 440.131C1137.52 440.131 1137.09 440.088 1136.66 440.001C1136.21 440.123 1135.8 440.304 1135.43 440.547C1135.07 440.772 1134.89 441.092 1134.89 441.508C1134.89 441.906 1135.08 442.175 1135.46 442.313C1135.84 442.452 1136.34 442.521 1136.94 442.521H1139.8C1141.46 442.521 1142.67 442.842 1143.41 443.483C1144.17 444.106 1144.55 444.972 1144.55 446.08ZM1142.61 446.236C1142.61 445.699 1142.4 445.266 1141.98 444.937C1141.58 444.626 1140.86 444.47 1139.83 444.47H1135.36C1134.53 444.851 1134.11 445.457 1134.11 446.288C1134.11 446.877 1134.33 447.379 1134.76 447.795C1135.21 448.211 1135.96 448.418 1137.02 448.418H1138.94C1140.1 448.418 1141 448.237 1141.64 447.873C1142.28 447.509 1142.61 446.964 1142.61 446.236ZM1137.95 438.469C1138.84 438.469 1139.54 438.261 1140.06 437.845C1140.58 437.412 1140.84 436.754 1140.84 435.871V435.143C1140.84 434.26 1140.58 433.611 1140.06 433.195C1139.54 432.762 1138.84 432.545 1137.95 432.545C1137.07 432.545 1136.37 432.762 1135.85 433.195C1135.33 433.611 1135.07 434.26 1135.07 435.143V435.871C1135.07 436.754 1135.33 437.412 1135.85 437.845C1136.37 438.261 1137.07 438.469 1137.95 438.469ZM1151.87 444.911C1150.95 444.911 1150.12 444.747 1149.37 444.418C1148.64 444.089 1148.01 443.621 1147.47 443.015C1146.96 442.391 1146.55 441.655 1146.25 440.807C1145.98 439.941 1145.84 438.971 1145.84 437.897C1145.84 436.841 1145.98 435.879 1146.25 435.013C1146.55 434.148 1146.96 433.411 1147.47 432.805C1148.01 432.182 1148.64 431.706 1149.37 431.376C1150.12 431.047 1150.95 430.883 1151.87 430.883C1152.77 430.883 1153.57 431.047 1154.28 431.376C1154.99 431.706 1155.6 432.164 1156.1 432.753C1156.6 433.325 1156.98 434.009 1157.24 434.806C1157.52 435.602 1157.66 436.477 1157.66 437.429V438.417H1148.02V439.04C1148.02 439.612 1148.11 440.149 1148.28 440.651C1148.47 441.136 1148.73 441.56 1149.06 441.924C1149.41 442.288 1149.82 442.573 1150.31 442.781C1150.81 442.989 1151.37 443.093 1152 443.093C1152.84 443.093 1153.58 442.894 1154.2 442.495C1154.84 442.097 1155.34 441.525 1155.68 440.781L1157.17 441.846C1156.73 442.764 1156.06 443.509 1155.14 444.08C1154.22 444.634 1153.13 444.911 1151.87 444.911ZM1151.87 432.623C1151.29 432.623 1150.77 432.727 1150.31 432.935C1149.84 433.126 1149.43 433.403 1149.09 433.766C1148.76 434.13 1148.5 434.563 1148.31 435.065C1148.12 435.55 1148.02 436.087 1148.02 436.676V436.858H1155.42V436.572C1155.42 435.377 1155.1 434.425 1154.44 433.715C1153.8 432.987 1152.94 432.623 1151.87 432.623Z" fill="#ED4344"/>
<rect x="540.357" width="196.139" height="125.997" fill="#F5F5F5"/>
<rect x="1376.87" width="196.139" height="125.997" fill="#F5F5F5"/>
<path d="M591.253 73.7627L586.837 55.6296H589.149L591.097 64.3584L592.604 71.1388H592.656L594.344 64.3584L596.631 55.6296H599.124L601.333 64.3584L603.021 71.1129H603.099L604.658 64.3584L606.71 55.6296H608.944L604.294 73.7627H601.878L599.514 64.7221L597.852 58.0716H597.8L596.085 64.7221L593.669 73.7627H591.253ZM616.322 74.0744C615.404 74.0744 614.573 73.9099 613.828 73.5808C613.1 73.2518 612.468 72.7842 611.931 72.178C611.412 71.5545 611.005 70.8184 610.71 69.9698C610.433 69.1038 610.295 68.134 610.295 67.0602C610.295 66.0037 610.433 65.0425 610.71 64.1766C611.005 63.3106 611.412 62.5745 611.931 61.9684C612.468 61.3449 613.1 60.8686 613.828 60.5395C614.573 60.2105 615.404 60.0459 616.322 60.0459C617.222 60.0459 618.028 60.2105 618.738 60.5395C619.448 60.8686 620.054 61.3276 620.556 61.9164C621.059 62.4879 621.44 63.172 621.699 63.9687C621.976 64.7654 622.115 65.64 622.115 66.5926V67.5798H612.477V68.2033C612.477 68.7748 612.564 69.3117 612.737 69.8139C612.927 70.2989 613.187 70.7232 613.516 71.0869C613.862 71.4506 614.278 71.7364 614.763 71.9442C615.265 72.152 615.828 72.2559 616.452 72.2559C617.3 72.2559 618.036 72.0568 618.66 71.6584C619.301 71.2601 619.794 70.6885 620.141 69.9438L621.621 71.009C621.188 71.9269 620.513 72.6716 619.595 73.2431C618.677 73.7973 617.586 74.0744 616.322 74.0744ZM616.322 61.7865C615.75 61.7865 615.231 61.8904 614.763 62.0983C614.295 62.2888 613.888 62.5659 613.542 62.9296C613.213 63.2933 612.953 63.7263 612.763 64.2285C612.572 64.7134 612.477 65.2503 612.477 65.8392V66.021H619.881V65.7353C619.881 64.5403 619.552 63.5877 618.894 62.8776C618.253 62.1502 617.396 61.7865 616.322 61.7865ZM625.54 54.5385H627.618V62.5399H627.722C628.068 61.6913 628.571 61.0678 629.229 60.6694C629.904 60.2538 630.709 60.0459 631.645 60.0459C632.476 60.0459 633.229 60.2105 633.905 60.5395C634.58 60.8686 635.152 61.3362 635.619 61.9424C636.104 62.5486 636.468 63.2846 636.711 64.1506C636.97 65.0165 637.1 65.9864 637.1 67.0602C637.1 68.134 636.97 69.1038 636.711 69.9698C636.468 70.8358 636.104 71.5718 635.619 72.178C635.152 72.7842 634.58 73.2518 633.905 73.5808C633.229 73.9099 632.476 74.0744 631.645 74.0744C629.826 74.0744 628.519 73.2431 627.722 71.5805H627.618V73.7627H625.54V54.5385ZM631.073 72.204C632.251 72.204 633.177 71.8403 633.853 71.1129C634.528 70.3681 634.866 69.3983 634.866 68.2033V65.9171C634.866 64.7221 634.528 63.7609 633.853 63.0335C633.177 62.2888 632.251 61.9164 631.073 61.9164C630.606 61.9164 630.155 61.9857 629.722 62.1242C629.307 62.2455 628.943 62.4187 628.631 62.6438C628.319 62.869 628.068 63.1461 627.878 63.4751C627.705 63.7869 627.618 64.1246 627.618 64.4883V69.4762C627.618 69.9092 627.705 70.2989 627.878 70.6453C628.068 70.9743 628.319 71.2601 628.631 71.5025C628.943 71.7277 629.307 71.9009 629.722 72.0221C630.155 72.1434 630.606 72.204 631.073 72.204ZM658.309 73.7627L656.491 68.4111H649.165L647.346 73.7627H645.138L651.477 55.6296H654.257L660.596 73.7627H658.309ZM652.88 57.6559H652.75L649.685 66.4887H655.945L652.88 57.6559ZM663.392 60.3577H665.47V62.5399H665.574C665.92 61.6913 666.422 61.0678 667.08 60.6694C667.756 60.2538 668.561 60.0459 669.497 60.0459C670.328 60.0459 671.081 60.2105 671.757 60.5395C672.432 60.8686 673.004 61.3362 673.471 61.9424C673.956 62.5486 674.32 63.2846 674.562 64.1506C674.822 65.0165 674.952 65.9864 674.952 67.0602C674.952 68.134 674.822 69.1038 674.562 69.9698C674.32 70.8358 673.956 71.5718 673.471 72.178C673.004 72.7842 672.432 73.2518 671.757 73.5808C671.081 73.9099 670.328 74.0744 669.497 74.0744C667.678 74.0744 666.37 73.2431 665.574 71.5805H665.47V78.9584H663.392V60.3577ZM668.925 72.204C670.103 72.204 671.029 71.8403 671.705 71.1129C672.38 70.3681 672.718 69.3983 672.718 68.2033V65.9171C672.718 64.7221 672.38 63.7609 671.705 63.0335C671.029 62.2888 670.103 61.9164 668.925 61.9164C668.457 61.9164 668.007 61.9857 667.574 62.1242C667.158 62.2455 666.795 62.4187 666.483 62.6438C666.171 62.869 665.92 63.1461 665.73 63.4751C665.556 63.7869 665.47 64.1246 665.47 64.4883V69.4762C665.47 69.9092 665.556 70.2989 665.73 70.6453C665.92 70.9743 666.171 71.2601 666.483 71.5025C666.795 71.7277 667.158 71.9009 667.574 72.0221C668.007 72.1434 668.457 72.204 668.925 72.204ZM678.461 60.3577H680.539V62.5399H680.643C680.99 61.6913 681.492 61.0678 682.15 60.6694C682.826 60.2538 683.631 60.0459 684.566 60.0459C685.398 60.0459 686.151 60.2105 686.826 60.5395C687.502 60.8686 688.073 61.3362 688.541 61.9424C689.026 62.5486 689.39 63.2846 689.632 64.1506C689.892 65.0165 690.022 65.9864 690.022 67.0602C690.022 68.134 689.892 69.1038 689.632 69.9698C689.39 70.8358 689.026 71.5718 688.541 72.178C688.073 72.7842 687.502 73.2518 686.826 73.5808C686.151 73.9099 685.398 74.0744 684.566 74.0744C682.748 74.0744 681.44 73.2431 680.643 71.5805H680.539V78.9584H678.461V60.3577ZM683.995 72.204C685.172 72.204 686.099 71.8403 686.774 71.1129C687.45 70.3681 687.788 69.3983 687.788 68.2033V65.9171C687.788 64.7221 687.45 63.7609 686.774 63.0335C686.099 62.2888 685.172 61.9164 683.995 61.9164C683.527 61.9164 683.077 61.9857 682.644 62.1242C682.228 62.2455 681.864 62.4187 681.553 62.6438C681.241 62.869 680.99 63.1461 680.799 63.4751C680.626 63.7869 680.539 64.1246 680.539 64.4883V69.4762C680.539 69.9092 680.626 70.2989 680.799 70.6453C680.99 70.9743 681.241 71.2601 681.553 71.5025C681.864 71.7277 682.228 71.9009 682.644 72.0221C683.077 72.1434 683.527 72.204 683.995 72.204Z" fill="#1E1E1E"/>
<path d="M1420.54 73.7627L1418.72 68.4111H1411.4L1409.58 73.7627H1407.37L1413.71 55.6296H1416.49L1422.83 73.7627H1420.54ZM1415.11 57.6559H1414.98L1411.92 66.4887H1418.18L1415.11 57.6559ZM1433.89 71.5805H1433.78C1433.64 71.8922 1433.47 72.204 1433.26 72.5157C1433.07 72.8101 1432.83 73.0786 1432.53 73.3211C1432.24 73.5462 1431.89 73.7281 1431.47 73.8666C1431.05 74.0052 1430.57 74.0744 1430.01 74.0744C1428.63 74.0744 1427.53 73.6328 1426.72 72.7495C1425.9 71.8489 1425.49 70.5846 1425.49 68.9566V60.3577H1427.57V68.5929C1427.57 71.0003 1428.59 72.204 1430.64 72.204C1431.05 72.204 1431.45 72.152 1431.83 72.0481C1432.23 71.9442 1432.58 71.7883 1432.87 71.5805C1433.18 71.3727 1433.43 71.1129 1433.6 70.8011C1433.79 70.4721 1433.89 70.0824 1433.89 69.6321V60.3577H1435.96V73.7627H1433.89V71.5805ZM1443.35 73.7627C1442.62 73.7627 1442.07 73.5635 1441.69 73.1652C1441.32 72.7495 1441.14 72.2126 1441.14 71.5545V62.1762H1438.93V60.3577H1440.18C1440.63 60.3577 1440.94 60.2711 1441.09 60.0979C1441.26 59.9074 1441.35 59.587 1441.35 59.1367V56.6427H1443.22V60.3577H1446.16V62.1762H1443.22V71.9442H1445.95V73.7627H1443.35ZM1449.5 54.5385H1451.58V62.5399H1451.68C1452.01 61.7779 1452.47 61.1717 1453.06 60.7214C1453.66 60.2711 1454.47 60.0459 1455.47 60.0459C1456.86 60.0459 1457.95 60.4962 1458.75 61.3968C1459.56 62.2801 1459.97 63.5357 1459.97 65.1637V73.7627H1457.89V65.5274C1457.89 63.1201 1456.88 61.9164 1454.85 61.9164C1454.43 61.9164 1454.03 61.9684 1453.63 62.0723C1453.25 62.1762 1452.9 62.3321 1452.59 62.5399C1452.28 62.7477 1452.03 63.0162 1451.84 63.3452C1451.66 63.657 1451.58 64.0293 1451.58 64.4623V73.7627H1449.5V54.5385ZM1475.7 74.0744C1474.23 74.0744 1472.97 73.7973 1471.93 73.2431C1470.9 72.6716 1470.01 71.8922 1469.29 70.905L1470.9 69.5541C1471.54 70.4028 1472.25 71.0523 1473.03 71.5025C1473.81 71.9355 1474.72 72.152 1475.78 72.152C1477.08 72.152 1478.07 71.8403 1478.74 71.2168C1479.43 70.5933 1479.78 69.762 1479.78 68.7228C1479.78 67.8569 1479.52 67.1901 1479 66.7225C1478.48 66.2548 1477.62 65.8825 1476.43 65.6054L1474.95 65.2677C1473.29 64.8866 1472.01 64.3151 1471.13 63.5531C1470.26 62.7737 1469.83 61.6826 1469.83 60.2797C1469.83 59.4831 1469.98 58.773 1470.27 58.1495C1470.57 57.526 1470.97 57.0064 1471.49 56.5908C1472.03 56.1751 1472.66 55.8634 1473.39 55.6555C1474.13 55.4304 1474.95 55.3178 1475.83 55.3178C1477.2 55.3178 1478.37 55.5689 1479.34 56.0712C1480.33 56.5735 1481.16 57.3095 1481.83 58.2794L1480.2 59.4744C1479.69 58.7816 1479.09 58.2361 1478.38 57.8377C1477.67 57.4394 1476.78 57.2402 1475.73 57.2402C1474.57 57.2402 1473.65 57.4914 1472.97 57.9936C1472.32 58.4786 1471.99 59.2146 1471.99 60.2018C1471.99 61.0678 1472.26 61.7259 1472.82 62.1762C1473.39 62.6092 1474.25 62.9556 1475.39 63.2153L1476.87 63.5531C1478.65 63.9514 1479.95 64.5576 1480.74 65.3716C1481.54 66.1856 1481.94 67.268 1481.94 68.6189C1481.94 69.4502 1481.79 70.2036 1481.5 70.8791C1481.22 71.5545 1480.81 72.126 1480.27 72.5937C1479.74 73.0613 1479.08 73.425 1478.3 73.6848C1477.54 73.9445 1476.67 74.0744 1475.7 74.0744ZM1490.54 74.0744C1489.62 74.0744 1488.79 73.9099 1488.04 73.5808C1487.32 73.2518 1486.68 72.7842 1486.15 72.178C1485.63 71.5545 1485.22 70.8184 1484.93 69.9698C1484.65 69.1038 1484.51 68.134 1484.51 67.0602C1484.51 66.0037 1484.65 65.0425 1484.93 64.1766C1485.22 63.3106 1485.63 62.5745 1486.15 61.9684C1486.68 61.3449 1487.32 60.8686 1488.04 60.5395C1488.79 60.2105 1489.62 60.0459 1490.54 60.0459C1491.44 60.0459 1492.24 60.2105 1492.95 60.5395C1493.66 60.8686 1494.27 61.3276 1494.77 61.9164C1495.27 62.4879 1495.65 63.172 1495.91 63.9687C1496.19 64.7654 1496.33 65.64 1496.33 66.5926V67.5798H1486.69V68.2033C1486.69 68.7748 1486.78 69.3117 1486.95 69.8139C1487.14 70.2989 1487.4 70.7232 1487.73 71.0869C1488.08 71.4506 1488.49 71.7364 1488.98 71.9442C1489.48 72.152 1490.04 72.2559 1490.67 72.2559C1491.52 72.2559 1492.25 72.0568 1492.88 71.6584C1493.52 71.2601 1494.01 70.6885 1494.36 69.9438L1495.84 71.009C1495.4 71.9269 1494.73 72.6716 1493.81 73.2431C1492.89 73.7973 1491.8 74.0744 1490.54 74.0744ZM1490.54 61.7865C1489.97 61.7865 1489.45 61.8904 1488.98 62.0983C1488.51 62.2888 1488.1 62.5659 1487.76 62.9296C1487.43 63.2933 1487.17 63.7263 1486.98 64.2285C1486.79 64.7134 1486.69 65.2503 1486.69 65.8392V66.021H1494.1V65.7353C1494.1 64.5403 1493.77 63.5877 1493.11 62.8776C1492.47 62.1502 1491.61 61.7865 1490.54 61.7865ZM1499.76 73.7627V60.3577H1501.83V62.8257H1501.96C1502.21 62.1849 1502.64 61.6133 1503.26 61.1111C1503.89 60.6088 1504.74 60.3577 1505.83 60.3577H1506.64V62.436H1505.42C1504.29 62.436 1503.41 62.6525 1502.77 63.0854C1502.15 63.5011 1501.83 64.0293 1501.83 64.6701V73.7627H1499.76ZM1512.51 73.7627L1507.81 60.3577H1509.89L1512.22 67.0082L1513.68 71.5805H1513.81L1515.26 67.0082L1517.65 60.3577H1519.65L1514.93 73.7627H1512.51ZM1527.17 74.0744C1526.25 74.0744 1525.42 73.9099 1524.68 73.5808C1523.95 73.2518 1523.32 72.7842 1522.78 72.178C1522.26 71.5545 1521.85 70.8184 1521.56 69.9698C1521.28 69.1038 1521.14 68.134 1521.14 67.0602C1521.14 66.0037 1521.28 65.0425 1521.56 64.1766C1521.85 63.3106 1522.26 62.5745 1522.78 61.9684C1523.32 61.3449 1523.95 60.8686 1524.68 60.5395C1525.42 60.2105 1526.25 60.0459 1527.17 60.0459C1528.07 60.0459 1528.88 60.2105 1529.59 60.5395C1530.3 60.8686 1530.9 61.3276 1531.41 61.9164C1531.91 62.4879 1532.29 63.172 1532.55 63.9687C1532.83 64.7654 1532.96 65.64 1532.96 66.5926V67.5798H1523.33V68.2033C1523.33 68.7748 1523.41 69.3117 1523.59 69.8139C1523.78 70.2989 1524.04 70.7232 1524.37 71.0869C1524.71 71.4506 1525.13 71.7364 1525.61 71.9442C1526.11 72.152 1526.68 72.2559 1527.3 72.2559C1528.15 72.2559 1528.89 72.0568 1529.51 71.6584C1530.15 71.2601 1530.64 70.6885 1530.99 69.9438L1532.47 71.009C1532.04 71.9269 1531.36 72.6716 1530.44 73.2431C1529.53 73.7973 1528.44 74.0744 1527.17 74.0744ZM1527.17 61.7865C1526.6 61.7865 1526.08 61.8904 1525.61 62.0983C1525.14 62.2888 1524.74 62.5659 1524.39 62.9296C1524.06 63.2933 1523.8 63.7263 1523.61 64.2285C1523.42 64.7134 1523.33 65.2503 1523.33 65.8392V66.021H1530.73V65.7353C1530.73 64.5403 1530.4 63.5877 1529.74 62.8776C1529.1 62.1502 1528.24 61.7865 1527.17 61.7865ZM1536.39 73.7627V60.3577H1538.47V62.8257H1538.6C1538.84 62.1849 1539.27 61.6133 1539.9 61.1111C1540.52 60.6088 1541.38 60.3577 1542.47 60.3577H1543.27V62.436H1542.05C1540.93 62.436 1540.04 62.6525 1539.4 63.0854C1538.78 63.5011 1538.47 64.0293 1538.47 64.6701V73.7627H1536.39Z" fill="#1E1E1E"/>
<path d="M98.7191 125.997V930.038" stroke="#A7A6AF" stroke-width="1.29894" stroke-dasharray="2.6 2.6"/>
<path d="M639.076 124.699V928.74" stroke="#A7A6AF" stroke-width="1.29894" stroke-dasharray="2.6 2.6"/>
<path d="M1475.59 119.503V923.544" stroke="#A7A6AF" stroke-width="1.29894" stroke-dasharray="2.6 2.6"/>
<path d="M614.396 198.738L607.907 194.979L607.896 202.479L614.396 198.738ZM98.9991 198.649L608.55 199.379L608.552 198.08L99.0009 197.351L98.9991 198.649Z" fill="#1E1E1E"/>
<path d="M1446 453L1439.51 449.25V456.75L1446 453ZM639 453.649H1440.15V452.351H639V453.649Z" fill="#1E1E1E"/>
<path d="M167.381 274.273H177.253V276.196H169.563V292.406H167.381V274.273ZM182.589 292.718C181.671 292.718 180.84 292.553 180.095 292.224C179.368 291.895 178.736 291.428 178.199 290.822C177.679 290.198 177.272 289.462 176.978 288.613C176.701 287.747 176.562 286.778 176.562 285.704C176.562 284.647 176.701 283.686 176.978 282.82C177.272 281.954 177.679 281.218 178.199 280.612C178.736 279.988 179.368 279.512 180.095 279.183C180.84 278.854 181.671 278.689 182.589 278.689C183.49 278.689 184.295 278.854 185.005 279.183C185.715 279.512 186.321 279.971 186.824 280.56C187.326 281.131 187.707 281.816 187.967 282.612C188.244 283.409 188.382 284.284 188.382 285.236V286.223H178.744V286.847C178.744 287.418 178.831 287.955 179.004 288.457C179.195 288.942 179.454 289.367 179.783 289.73C180.13 290.094 180.546 290.38 181.03 290.588C181.533 290.796 182.096 290.899 182.719 290.899C183.568 290.899 184.304 290.7 184.927 290.302C185.568 289.904 186.062 289.332 186.408 288.587L187.889 289.653C187.456 290.57 186.78 291.315 185.862 291.887C184.945 292.441 183.853 292.718 182.589 292.718ZM182.589 280.43C182.018 280.43 181.498 280.534 181.03 280.742C180.563 280.932 180.156 281.209 179.809 281.573C179.48 281.937 179.221 282.37 179.03 282.872C178.84 283.357 178.744 283.894 178.744 284.483V284.665H186.148V284.379C186.148 283.184 185.819 282.231 185.161 281.521C184.52 280.794 183.663 280.43 182.589 280.43ZM191.807 279.001H193.885V284.587H200.588V279.001H202.666V292.406H200.588V286.405H193.885V292.406H191.807V279.001ZM212.12 292.718C211.202 292.718 210.37 292.553 209.626 292.224C208.898 291.895 208.266 291.428 207.729 290.822C207.21 290.198 206.803 289.462 206.508 288.613C206.231 287.747 206.093 286.778 206.093 285.704C206.093 284.647 206.231 283.686 206.508 282.82C206.803 281.954 207.21 281.218 207.729 280.612C208.266 279.988 208.898 279.512 209.626 279.183C210.37 278.854 211.202 278.689 212.12 278.689C213.02 278.689 213.826 278.854 214.536 279.183C215.246 279.512 215.852 279.971 216.354 280.56C216.856 281.131 217.237 281.816 217.497 282.612C217.774 283.409 217.913 284.284 217.913 285.236V286.223H208.275V286.847C208.275 287.418 208.361 287.955 208.535 288.457C208.725 288.942 208.985 289.367 209.314 289.73C209.66 290.094 210.076 290.38 210.561 290.588C211.063 290.796 211.626 290.899 212.25 290.899C213.098 290.899 213.834 290.7 214.458 290.302C215.099 289.904 215.592 289.332 215.939 288.587L217.419 289.653C216.986 290.57 216.311 291.315 215.393 291.887C214.475 292.441 213.384 292.718 212.12 292.718ZM212.12 280.43C211.548 280.43 211.029 280.534 210.561 280.742C210.093 280.932 209.686 281.209 209.34 281.573C209.011 281.937 208.751 282.37 208.561 282.872C208.37 283.357 208.275 283.894 208.275 284.483V284.665H215.679V284.379C215.679 283.184 215.35 282.231 214.692 281.521C214.051 280.794 213.193 280.43 212.12 280.43ZM221.338 279.001H223.416V281.183H223.52C223.866 280.335 224.368 279.711 225.027 279.313C225.702 278.897 226.507 278.689 227.443 278.689C228.274 278.689 229.027 278.854 229.703 279.183C230.378 279.512 230.95 279.98 231.417 280.586C231.902 281.192 232.266 281.928 232.508 282.794C232.768 283.66 232.898 284.63 232.898 285.704C232.898 286.778 232.768 287.747 232.508 288.613C232.266 289.479 231.902 290.215 231.417 290.822C230.95 291.428 230.378 291.895 229.703 292.224C229.027 292.553 228.274 292.718 227.443 292.718C225.624 292.718 224.317 291.887 223.52 290.224H223.416V297.602H221.338V279.001ZM226.871 290.848C228.049 290.848 228.975 290.484 229.651 289.756C230.326 289.012 230.664 288.042 230.664 286.847V284.561C230.664 283.366 230.326 282.404 229.651 281.677C228.975 280.932 228.049 280.56 226.871 280.56C226.403 280.56 225.953 280.629 225.52 280.768C225.105 280.889 224.741 281.062 224.429 281.287C224.117 281.513 223.866 281.79 223.676 282.119C223.503 282.43 223.416 282.768 223.416 283.132V288.12C223.416 288.553 223.503 288.942 223.676 289.289C223.866 289.618 224.117 289.904 224.429 290.146C224.741 290.371 225.105 290.544 225.52 290.666C225.953 290.787 226.403 290.848 226.871 290.848ZM236.407 279.001H238.434V286.431L238.226 289.653H238.33L239.992 286.795L245.344 279.001H247.266V292.406H245.24V284.976L245.448 281.755H245.344L243.681 284.613L238.33 292.406H236.407V279.001ZM251.68 279.001H253.758V281.183H253.862C254.209 280.335 254.711 279.711 255.369 279.313C256.044 278.897 256.85 278.689 257.785 278.689C258.616 278.689 259.37 278.854 260.045 279.183C260.721 279.512 261.292 279.98 261.76 280.586C262.245 281.192 262.608 281.928 262.851 282.794C263.111 283.66 263.24 284.63 263.24 285.704C263.24 286.778 263.111 287.747 262.851 288.613C262.608 289.479 262.245 290.215 261.76 290.822C261.292 291.428 260.721 291.895 260.045 292.224C259.37 292.553 258.616 292.718 257.785 292.718C255.966 292.718 254.659 291.887 253.862 290.224H253.758V297.602H251.68V279.001ZM257.213 290.848C258.391 290.848 259.318 290.484 259.993 289.756C260.669 289.012 261.006 288.042 261.006 286.847V284.561C261.006 283.366 260.669 282.404 259.993 281.677C259.318 280.932 258.391 280.56 257.213 280.56C256.746 280.56 256.295 280.629 255.863 280.768C255.447 280.889 255.083 281.062 254.771 281.287C254.46 281.513 254.209 281.79 254.018 282.119C253.845 282.43 253.758 282.768 253.758 283.132V288.12C253.758 288.553 253.845 288.942 254.018 289.289C254.209 289.618 254.46 289.904 254.771 290.146C255.083 290.371 255.447 290.544 255.863 290.666C256.295 290.787 256.746 290.848 257.213 290.848ZM274.884 279.001H276.936L270.935 295.524C270.779 295.922 270.623 296.251 270.468 296.511C270.312 296.788 270.121 297.004 269.896 297.16C269.671 297.316 269.385 297.429 269.039 297.498C268.71 297.567 268.303 297.602 267.818 297.602H266.753V295.783H268.857L269.87 292.926L264.856 279.001H266.935L270.156 288.12L270.779 290.302H270.909L271.637 288.12L274.884 279.001ZM284.5 292.718C283.582 292.718 282.751 292.553 282.006 292.224C281.278 291.895 280.646 291.428 280.109 290.822C279.59 290.198 279.183 289.462 278.888 288.613C278.611 287.747 278.473 286.778 278.473 285.704C278.473 284.647 278.611 283.686 278.888 282.82C279.183 281.954 279.59 281.218 280.109 280.612C280.646 279.988 281.278 279.512 282.006 279.183C282.751 278.854 283.582 278.689 284.5 278.689C285.4 278.689 286.206 278.854 286.916 279.183C287.626 279.512 288.232 279.971 288.734 280.56C289.237 281.131 289.618 281.816 289.877 282.612C290.154 283.409 290.293 284.284 290.293 285.236V286.223H280.655V286.847C280.655 287.418 280.742 287.955 280.915 288.457C281.105 288.942 281.365 289.367 281.694 289.73C282.04 290.094 282.456 290.38 282.941 290.588C283.443 290.796 284.006 290.899 284.63 290.899C285.478 290.899 286.214 290.7 286.838 290.302C287.479 289.904 287.972 289.332 288.319 288.587L289.799 289.653C289.366 290.57 288.691 291.315 287.773 291.887C286.855 292.441 285.764 292.718 284.5 292.718ZM284.5 280.43C283.928 280.43 283.409 280.534 282.941 280.742C282.473 280.932 282.066 281.209 281.72 281.573C281.391 281.937 281.131 282.37 280.941 282.872C280.75 283.357 280.655 283.894 280.655 284.483V284.665H288.059V284.379C288.059 283.184 287.73 282.231 287.072 281.521C286.431 280.794 285.574 280.43 284.5 280.43ZM293.718 279.001H296.446L300.524 285.964H300.628L304.681 279.001H307.383V292.406H305.356V281.495H305.226L304.473 282.95L300.55 289.601L296.627 282.95L295.874 281.495H295.744V292.406H293.718V279.001ZM172.161 326.718C171.226 326.718 170.386 326.553 169.641 326.224C168.896 325.895 168.264 325.428 167.745 324.822C167.242 324.215 166.853 323.479 166.576 322.613C166.316 321.747 166.186 320.778 166.186 319.704C166.186 318.63 166.316 317.66 166.576 316.794C166.853 315.928 167.242 315.192 167.745 314.586C168.264 313.98 168.896 313.512 169.641 313.183C170.386 312.854 171.226 312.689 172.161 312.689C173.495 312.689 174.56 312.984 175.356 313.573C176.17 314.144 176.776 314.898 177.175 315.833L175.434 316.716C175.192 316.023 174.793 315.487 174.239 315.106C173.685 314.724 172.992 314.534 172.161 314.534C171.537 314.534 170.992 314.638 170.524 314.846C170.057 315.036 169.667 315.313 169.355 315.677C169.044 316.023 168.81 316.448 168.654 316.95C168.498 317.435 168.42 317.972 168.42 318.561V320.847C168.42 322.025 168.732 322.994 169.355 323.756C169.996 324.501 170.931 324.874 172.161 324.874C173.841 324.874 175.053 324.094 175.798 322.535L177.305 323.549C176.872 324.518 176.222 325.289 175.356 325.861C174.508 326.432 173.443 326.718 172.161 326.718ZM185.152 326.718C184.252 326.718 183.429 326.553 182.684 326.224C181.939 325.895 181.299 325.428 180.762 324.822C180.242 324.198 179.835 323.462 179.541 322.613C179.246 321.747 179.099 320.778 179.099 319.704C179.099 318.647 179.246 317.686 179.541 316.82C179.835 315.954 180.242 315.218 180.762 314.612C181.299 313.988 181.939 313.512 182.684 313.183C183.429 312.854 184.252 312.689 185.152 312.689C186.053 312.689 186.867 312.854 187.594 313.183C188.339 313.512 188.98 313.988 189.517 314.612C190.053 315.218 190.469 315.954 190.764 316.82C191.058 317.686 191.205 318.647 191.205 319.704C191.205 320.778 191.058 321.747 190.764 322.613C190.469 323.462 190.053 324.198 189.517 324.822C188.98 325.428 188.339 325.895 187.594 326.224C186.867 326.553 186.053 326.718 185.152 326.718ZM185.152 324.874C186.278 324.874 187.196 324.527 187.906 323.834C188.616 323.142 188.971 322.085 188.971 320.665V318.743C188.971 317.322 188.616 316.266 187.906 315.573C187.196 314.88 186.278 314.534 185.152 314.534C184.026 314.534 183.108 314.88 182.398 315.573C181.688 316.266 181.333 317.322 181.333 318.743V320.665C181.333 322.085 181.688 323.142 182.398 323.834C183.108 324.527 184.026 324.874 185.152 324.874ZM203.196 324.224H203.092C202.278 325.887 200.971 326.718 199.169 326.718C198.338 326.718 197.585 326.553 196.909 326.224C196.234 325.895 195.654 325.428 195.169 324.822C194.701 324.215 194.337 323.479 194.078 322.613C193.835 321.747 193.714 320.778 193.714 319.704C193.714 318.63 193.835 317.66 194.078 316.794C194.337 315.928 194.701 315.192 195.169 314.586C195.654 313.98 196.234 313.512 196.909 313.183C197.585 312.854 198.338 312.689 199.169 312.689C200.105 312.689 200.901 312.897 201.56 313.313C202.235 313.711 202.746 314.335 203.092 315.183H203.196V307.182H205.274V326.406H203.196V324.224ZM199.741 324.848C200.209 324.848 200.65 324.787 201.066 324.666C201.499 324.544 201.871 324.371 202.183 324.146C202.495 323.904 202.737 323.618 202.91 323.289C203.101 322.942 203.196 322.553 203.196 322.12V317.132C203.196 316.768 203.101 316.43 202.91 316.119C202.737 315.79 202.495 315.513 202.183 315.287C201.871 315.062 201.499 314.889 201.066 314.768C200.65 314.629 200.209 314.56 199.741 314.56C198.563 314.56 197.637 314.932 196.961 315.677C196.286 316.404 195.948 317.366 195.948 318.561V320.847C195.948 322.042 196.286 323.012 196.961 323.756C197.637 324.484 198.563 324.848 199.741 324.848ZM214.733 326.718C213.815 326.718 212.984 326.553 212.239 326.224C211.511 325.895 210.879 325.428 210.342 324.822C209.823 324.198 209.416 323.462 209.121 322.613C208.844 321.747 208.706 320.778 208.706 319.704C208.706 318.647 208.844 317.686 209.121 316.82C209.416 315.954 209.823 315.218 210.342 314.612C210.879 313.988 211.511 313.512 212.239 313.183C212.984 312.854 213.815 312.689 214.733 312.689C215.633 312.689 216.439 312.854 217.149 313.183C217.859 313.512 218.465 313.971 218.967 314.56C219.47 315.131 219.851 315.816 220.11 316.612C220.387 317.409 220.526 318.284 220.526 319.236V320.223H210.888V320.847C210.888 321.418 210.974 321.955 211.148 322.457C211.338 322.942 211.598 323.367 211.927 323.73C212.273 324.094 212.689 324.38 213.174 324.588C213.676 324.796 214.239 324.899 214.863 324.899C215.711 324.899 216.447 324.7 217.071 324.302C217.712 323.904 218.205 323.332 218.552 322.587L220.032 323.653C219.599 324.57 218.924 325.315 218.006 325.887C217.088 326.441 215.997 326.718 214.733 326.718ZM214.733 314.43C214.161 314.43 213.642 314.534 213.174 314.742C212.706 314.932 212.299 315.209 211.953 315.573C211.624 315.937 211.364 316.37 211.174 316.872C210.983 317.357 210.888 317.894 210.888 318.483V318.665H218.292V318.379C218.292 317.184 217.963 316.231 217.305 315.521C216.664 314.794 215.807 314.43 214.733 314.43ZM221.228 330.693V328.874H234.347V330.693H221.228ZM238.481 326.406L233.779 313.001H235.857L238.195 319.652L239.65 324.224H239.78L241.235 319.652L243.625 313.001H245.625L240.897 326.406H238.481ZM253.143 326.718C252.225 326.718 251.393 326.553 250.649 326.224C249.921 325.895 249.289 325.428 248.752 324.822C248.233 324.198 247.826 323.462 247.531 322.613C247.254 321.747 247.116 320.778 247.116 319.704C247.116 318.647 247.254 317.686 247.531 316.82C247.826 315.954 248.233 315.218 248.752 314.612C249.289 313.988 249.921 313.512 250.649 313.183C251.393 312.854 252.225 312.689 253.143 312.689C254.043 312.689 254.849 312.854 255.559 313.183C256.269 313.512 256.875 313.971 257.377 314.56C257.879 315.131 258.26 315.816 258.52 316.612C258.797 317.409 258.936 318.284 258.936 319.236V320.223H249.298V320.847C249.298 321.418 249.384 321.955 249.558 322.457C249.748 322.942 250.008 323.367 250.337 323.73C250.683 324.094 251.099 324.38 251.584 324.588C252.086 324.796 252.649 324.899 253.273 324.899C254.121 324.899 254.857 324.7 255.481 324.302C256.122 323.904 256.615 323.332 256.962 322.587L258.442 323.653C258.009 324.57 257.334 325.315 256.416 325.887C255.498 326.441 254.407 326.718 253.143 326.718ZM253.143 314.43C252.571 314.43 252.052 314.534 251.584 314.742C251.116 314.932 250.709 315.209 250.363 315.573C250.034 315.937 249.774 316.37 249.584 316.872C249.393 317.357 249.298 317.894 249.298 318.483V318.665H256.702V318.379C256.702 317.184 256.373 316.231 255.715 315.521C255.074 314.794 254.216 314.43 253.143 314.43ZM262.361 326.406V313.001H264.439V315.469H264.569C264.811 314.828 265.244 314.257 265.868 313.755C266.491 313.252 267.349 313.001 268.44 313.001H269.245V315.08H268.024C266.898 315.08 266.015 315.296 265.374 315.729C264.751 316.145 264.439 316.673 264.439 317.314V326.406H262.361ZM272.939 309.858C272.489 309.858 272.159 309.754 271.952 309.546C271.761 309.321 271.666 309.035 271.666 308.689V308.351C271.666 308.005 271.761 307.728 271.952 307.52C272.159 307.295 272.489 307.182 272.939 307.182C273.389 307.182 273.71 307.295 273.9 307.52C274.108 307.728 274.212 308.005 274.212 308.351V308.689C274.212 309.035 274.108 309.321 273.9 309.546C273.71 309.754 273.389 309.858 272.939 309.858ZM271.9 313.001H273.978V326.406H271.9V313.001ZM279.122 314.82H276.94V313.001H279.122V310.299C279.122 309.364 279.364 308.611 279.849 308.039C280.334 307.468 281.07 307.182 282.057 307.182H284.084V309.001H281.2V313.001H288.708V326.406H286.63V314.82H281.2V326.406H279.122V314.82ZM287.669 309.858C287.218 309.858 286.889 309.754 286.682 309.546C286.491 309.321 286.396 309.035 286.396 308.689V308.351C286.396 308.005 286.491 307.728 286.682 307.52C286.889 307.295 287.218 307.182 287.669 307.182C288.119 307.182 288.439 307.295 288.63 307.52C288.838 307.728 288.942 308.005 288.942 308.351V308.689C288.942 309.035 288.838 309.321 288.63 309.546C288.439 309.754 288.119 309.858 287.669 309.858ZM298.174 326.718C297.256 326.718 296.425 326.553 295.68 326.224C294.953 325.895 294.321 325.428 293.784 324.822C293.264 324.198 292.857 323.462 292.563 322.613C292.286 321.747 292.147 320.778 292.147 319.704C292.147 318.647 292.286 317.686 292.563 316.82C292.857 315.954 293.264 315.218 293.784 314.612C294.321 313.988 294.953 313.512 295.68 313.183C296.425 312.854 297.256 312.689 298.174 312.689C299.075 312.689 299.88 312.854 300.59 313.183C301.3 313.512 301.906 313.971 302.409 314.56C302.911 315.131 303.292 315.816 303.552 316.612C303.829 317.409 303.967 318.284 303.967 319.236V320.223H294.329V320.847C294.329 321.418 294.416 321.955 294.589 322.457C294.78 322.942 295.039 323.367 295.368 323.73C295.715 324.094 296.13 324.38 296.615 324.588C297.118 324.796 297.681 324.899 298.304 324.899C299.153 324.899 299.889 324.7 300.512 324.302C301.153 323.904 301.647 323.332 301.993 322.587L303.474 323.653C303.041 324.57 302.365 325.315 301.447 325.887C300.53 326.441 299.438 326.718 298.174 326.718ZM298.174 314.43C297.603 314.43 297.083 314.534 296.615 314.742C296.148 314.932 295.741 315.209 295.394 315.573C295.065 315.937 294.806 316.37 294.615 316.872C294.425 317.357 294.329 317.894 294.329 318.483V318.665H301.733V318.379C301.733 317.184 301.404 316.231 300.746 315.521C300.105 314.794 299.248 314.43 298.174 314.43ZM307.392 326.406V313.001H309.47V315.469H309.6C309.843 314.828 310.276 314.257 310.899 313.755C311.523 313.252 312.38 313.001 313.471 313.001H314.276V315.08H313.055C311.93 315.08 311.046 315.296 310.406 315.729C309.782 316.145 309.47 316.673 309.47 317.314V326.406H307.392ZM172.161 360.718C171.226 360.718 170.386 360.553 169.641 360.224C168.896 359.895 168.264 359.428 167.745 358.822C167.242 358.215 166.853 357.479 166.576 356.613C166.316 355.747 166.186 354.778 166.186 353.704C166.186 352.63 166.316 351.66 166.576 350.794C166.853 349.928 167.242 349.192 167.745 348.586C168.264 347.98 168.896 347.512 169.641 347.183C170.386 346.854 171.226 346.689 172.161 346.689C173.495 346.689 174.56 346.984 175.356 347.573C176.17 348.144 176.776 348.898 177.175 349.833L175.434 350.716C175.192 350.023 174.793 349.487 174.239 349.106C173.685 348.724 172.992 348.534 172.161 348.534C171.537 348.534 170.992 348.638 170.524 348.846C170.057 349.036 169.667 349.313 169.355 349.677C169.044 350.023 168.81 350.448 168.654 350.95C168.498 351.435 168.42 351.972 168.42 352.561V354.847C168.42 356.025 168.732 356.994 169.355 357.756C169.996 358.501 170.931 358.874 172.161 358.874C173.841 358.874 175.053 358.094 175.798 356.535L177.305 357.549C176.872 358.518 176.222 359.289 175.356 359.861C174.508 360.432 173.443 360.718 172.161 360.718ZM185.152 360.718C184.252 360.718 183.429 360.553 182.684 360.224C181.939 359.895 181.299 359.428 180.762 358.822C180.242 358.198 179.835 357.462 179.541 356.613C179.246 355.747 179.099 354.778 179.099 353.704C179.099 352.647 179.246 351.686 179.541 350.82C179.835 349.954 180.242 349.218 180.762 348.612C181.299 347.988 181.939 347.512 182.684 347.183C183.429 346.854 184.252 346.689 185.152 346.689C186.053 346.689 186.867 346.854 187.594 347.183C188.339 347.512 188.98 347.988 189.517 348.612C190.053 349.218 190.469 349.954 190.764 350.82C191.058 351.686 191.205 352.647 191.205 353.704C191.205 354.778 191.058 355.747 190.764 356.613C190.469 357.462 190.053 358.198 189.517 358.822C188.98 359.428 188.339 359.895 187.594 360.224C186.867 360.553 186.053 360.718 185.152 360.718ZM185.152 358.874C186.278 358.874 187.196 358.527 187.906 357.834C188.616 357.142 188.971 356.085 188.971 354.665V352.743C188.971 351.322 188.616 350.266 187.906 349.573C187.196 348.88 186.278 348.534 185.152 348.534C184.026 348.534 183.108 348.88 182.398 349.573C181.688 350.266 181.333 351.322 181.333 352.743V354.665C181.333 356.085 181.688 357.142 182.398 357.834C183.108 358.527 184.026 358.874 185.152 358.874ZM203.196 358.224H203.092C202.278 359.887 200.971 360.718 199.169 360.718C198.338 360.718 197.585 360.553 196.909 360.224C196.234 359.895 195.654 359.428 195.169 358.822C194.701 358.215 194.337 357.479 194.078 356.613C193.835 355.747 193.714 354.778 193.714 353.704C193.714 352.63 193.835 351.66 194.078 350.794C194.337 349.928 194.701 349.192 195.169 348.586C195.654 347.98 196.234 347.512 196.909 347.183C197.585 346.854 198.338 346.689 199.169 346.689C200.105 346.689 200.901 346.897 201.56 347.313C202.235 347.711 202.746 348.335 203.092 349.183H203.196V341.182H205.274V360.406H203.196V358.224ZM199.741 358.848C200.209 358.848 200.65 358.787 201.066 358.666C201.499 358.544 201.871 358.371 202.183 358.146C202.495 357.904 202.737 357.618 202.91 357.289C203.101 356.942 203.196 356.553 203.196 356.12V351.132C203.196 350.768 203.101 350.43 202.91 350.119C202.737 349.79 202.495 349.513 202.183 349.287C201.871 349.062 201.499 348.889 201.066 348.768C200.65 348.629 200.209 348.56 199.741 348.56C198.563 348.56 197.637 348.932 196.961 349.677C196.286 350.404 195.948 351.366 195.948 352.561V354.847C195.948 356.042 196.286 357.012 196.961 357.756C197.637 358.484 198.563 358.848 199.741 358.848ZM214.733 360.718C213.815 360.718 212.984 360.553 212.239 360.224C211.511 359.895 210.879 359.428 210.342 358.822C209.823 358.198 209.416 357.462 209.121 356.613C208.844 355.747 208.706 354.778 208.706 353.704C208.706 352.647 208.844 351.686 209.121 350.82C209.416 349.954 209.823 349.218 210.342 348.612C210.879 347.988 211.511 347.512 212.239 347.183C212.984 346.854 213.815 346.689 214.733 346.689C215.633 346.689 216.439 346.854 217.149 347.183C217.859 347.512 218.465 347.971 218.967 348.56C219.47 349.131 219.851 349.816 220.11 350.612C220.387 351.409 220.526 352.284 220.526 353.236V354.223H210.888V354.847C210.888 355.418 210.974 355.955 211.148 356.457C211.338 356.942 211.598 357.367 211.927 357.73C212.273 358.094 212.689 358.38 213.174 358.588C213.676 358.796 214.239 358.899 214.863 358.899C215.711 358.899 216.447 358.7 217.071 358.302C217.712 357.904 218.205 357.332 218.552 356.587L220.032 357.653C219.599 358.57 218.924 359.315 218.006 359.887C217.088 360.441 215.997 360.718 214.733 360.718ZM214.733 348.43C214.161 348.43 213.642 348.534 213.174 348.742C212.706 348.932 212.299 349.209 211.953 349.573C211.624 349.937 211.364 350.37 211.174 350.872C210.983 351.357 210.888 351.894 210.888 352.483V352.665H218.292V352.379C218.292 351.184 217.963 350.231 217.305 349.521C216.664 348.794 215.807 348.43 214.733 348.43ZM221.228 364.693V362.874H234.347V364.693H221.228ZM240.786 360.718C239.851 360.718 239.011 360.553 238.266 360.224C237.522 359.895 236.89 359.428 236.37 358.822C235.868 358.215 235.478 357.479 235.201 356.613C234.941 355.747 234.811 354.778 234.811 353.704C234.811 352.63 234.941 351.66 235.201 350.794C235.478 349.928 235.868 349.192 236.37 348.586C236.89 347.98 237.522 347.512 238.266 347.183C239.011 346.854 239.851 346.689 240.786 346.689C242.12 346.689 243.185 346.984 243.982 347.573C244.796 348.144 245.402 348.898 245.8 349.833L244.06 350.716C243.817 350.023 243.419 349.487 242.865 349.106C242.31 348.724 241.618 348.534 240.786 348.534C240.163 348.534 239.617 348.638 239.15 348.846C238.682 349.036 238.292 349.313 237.981 349.677C237.669 350.023 237.435 350.448 237.279 350.95C237.123 351.435 237.045 351.972 237.045 352.561V354.847C237.045 356.025 237.357 356.994 237.981 357.756C238.621 358.501 239.557 358.874 240.786 358.874C242.466 358.874 243.679 358.094 244.423 356.535L245.93 357.549C245.497 358.518 244.848 359.289 243.982 359.861C243.133 360.432 242.068 360.718 240.786 360.718ZM248.864 341.182H250.942V349.183H251.046C251.375 348.421 251.834 347.815 252.423 347.365C253.029 346.915 253.834 346.689 254.839 346.689C256.225 346.689 257.316 347.14 258.112 348.04C258.926 348.924 259.333 350.179 259.333 351.807V360.406H257.255V352.171C257.255 349.764 256.242 348.56 254.215 348.56C253.8 348.56 253.393 348.612 252.994 348.716C252.613 348.82 252.267 348.976 251.955 349.183C251.644 349.391 251.392 349.66 251.202 349.989C251.029 350.301 250.942 350.673 250.942 351.106V360.406H248.864V341.182ZM273.371 360.406C272.592 360.406 272.029 360.198 271.683 359.783C271.353 359.367 271.146 358.848 271.059 358.224H270.929C270.635 359.055 270.15 359.679 269.474 360.095C268.799 360.51 267.994 360.718 267.058 360.718C265.638 360.718 264.53 360.354 263.733 359.627C262.954 358.899 262.564 357.912 262.564 356.665C262.564 355.401 263.023 354.431 263.941 353.756C264.876 353.08 266.322 352.743 268.279 352.743H270.929V351.418C270.929 350.465 270.669 349.738 270.15 349.235C269.63 348.733 268.834 348.482 267.76 348.482C266.946 348.482 266.262 348.664 265.707 349.028C265.171 349.391 264.72 349.876 264.357 350.482L263.11 349.313C263.473 348.586 264.053 347.971 264.85 347.469C265.647 346.949 266.651 346.689 267.864 346.689C269.492 346.689 270.756 347.088 271.657 347.885C272.557 348.681 273.007 349.79 273.007 351.21V358.588H274.54V360.406H273.371ZM267.396 358.951C267.916 358.951 268.392 358.891 268.825 358.77C269.258 358.648 269.63 358.475 269.942 358.25C270.254 358.025 270.496 357.765 270.669 357.471C270.843 357.176 270.929 356.856 270.929 356.509V354.301H268.175C266.98 354.301 266.106 354.474 265.552 354.821C265.015 355.167 264.746 355.669 264.746 356.328V356.873C264.746 357.531 264.98 358.042 265.448 358.406C265.933 358.77 266.582 358.951 267.396 358.951ZM279.715 360.406C278.987 360.406 278.433 360.207 278.052 359.809C277.688 359.393 277.506 358.874 277.506 358.25V341.182H279.585V358.588H281.559V360.406H279.715ZM286.666 360.406C285.939 360.406 285.384 360.207 285.003 359.809C284.64 359.393 284.458 358.874 284.458 358.25V341.182H286.536V358.588H288.51V360.406H286.666ZM296.576 360.718C295.658 360.718 294.827 360.553 294.082 360.224C293.354 359.895 292.722 359.428 292.185 358.822C291.666 358.198 291.259 357.462 290.964 356.613C290.687 355.747 290.549 354.778 290.549 353.704C290.549 352.647 290.687 351.686 290.964 350.82C291.259 349.954 291.666 349.218 292.185 348.612C292.722 347.988 293.354 347.512 294.082 347.183C294.827 346.854 295.658 346.689 296.576 346.689C297.476 346.689 298.282 346.854 298.992 347.183C299.702 347.512 300.308 347.971 300.81 348.56C301.313 349.131 301.694 349.816 301.953 350.612C302.231 351.409 302.369 352.284 302.369 353.236V354.223H292.731V354.847C292.731 355.418 292.818 355.955 292.991 356.457C293.181 356.942 293.441 357.367 293.77 357.73C294.116 358.094 294.532 358.38 295.017 358.588C295.519 358.796 296.082 358.899 296.706 358.899C297.554 358.899 298.29 358.7 298.914 358.302C299.555 357.904 300.048 357.332 300.395 356.587L301.875 357.653C301.442 358.57 300.767 359.315 299.849 359.887C298.931 360.441 297.84 360.718 296.576 360.718ZM296.576 348.43C296.004 348.43 295.485 348.534 295.017 348.742C294.549 348.932 294.142 349.209 293.796 349.573C293.467 349.937 293.207 350.37 293.017 350.872C292.826 351.357 292.731 351.894 292.731 352.483V352.665H300.135V352.379C300.135 351.184 299.806 350.231 299.148 349.521C298.507 348.794 297.65 348.43 296.576 348.43ZM305.794 360.406V347.001H307.872V349.183H307.976C308.305 348.421 308.764 347.815 309.353 347.365C309.959 346.915 310.764 346.689 311.769 346.689C313.154 346.689 314.246 347.14 315.042 348.04C315.856 348.924 316.263 350.179 316.263 351.807V360.406H314.185V352.171C314.185 349.764 313.172 348.56 311.145 348.56C310.73 348.56 310.323 348.612 309.924 348.716C309.543 348.82 309.197 348.976 308.885 349.183C308.573 349.391 308.322 349.66 308.132 349.989C307.959 350.301 307.872 350.673 307.872 351.106V360.406H305.794ZM331.86 361.887C331.86 363.273 331.314 364.286 330.223 364.927C329.149 365.585 327.53 365.914 325.365 365.914C323.269 365.914 321.763 365.628 320.845 365.056C319.927 364.485 319.468 363.671 319.468 362.614C319.468 361.887 319.658 361.316 320.039 360.9C320.42 360.502 320.94 360.207 321.598 360.017V359.731C320.801 359.35 320.403 358.726 320.403 357.86C320.403 357.185 320.62 356.674 321.053 356.328C321.486 355.964 322.04 355.695 322.715 355.522V355.418C321.919 355.037 321.295 354.492 320.845 353.782C320.412 353.072 320.195 352.249 320.195 351.314C320.195 350.638 320.317 350.015 320.559 349.443C320.801 348.872 321.139 348.387 321.572 347.988C322.022 347.573 322.551 347.252 323.157 347.027C323.78 346.802 324.473 346.689 325.235 346.689C326.188 346.689 327.036 346.863 327.781 347.209V346.975C327.781 346.456 327.902 346.031 328.145 345.702C328.387 345.356 328.786 345.183 329.34 345.183H331.34V347.001H328.794V347.859C329.279 348.274 329.652 348.776 329.911 349.365C330.188 349.937 330.327 350.586 330.327 351.314C330.327 351.989 330.206 352.613 329.963 353.184C329.721 353.756 329.374 354.249 328.924 354.665C328.491 355.063 327.963 355.375 327.339 355.6C326.716 355.825 326.023 355.938 325.261 355.938C324.828 355.938 324.395 355.895 323.962 355.808C323.512 355.929 323.105 356.111 322.741 356.354C322.378 356.579 322.196 356.899 322.196 357.315C322.196 357.713 322.386 357.982 322.767 358.12C323.148 358.259 323.642 358.328 324.248 358.328H327.106C328.768 358.328 329.972 358.648 330.717 359.289C331.479 359.913 331.86 360.779 331.86 361.887ZM329.911 362.043C329.911 361.506 329.704 361.073 329.288 360.744C328.89 360.432 328.171 360.276 327.132 360.276H322.663C321.832 360.657 321.416 361.264 321.416 362.095C321.416 362.684 321.633 363.186 322.066 363.602C322.516 364.017 323.269 364.225 324.326 364.225H326.248C327.409 364.225 328.309 364.043 328.95 363.68C329.591 363.316 329.911 362.77 329.911 362.043ZM325.261 354.275C326.144 354.275 326.846 354.067 327.365 353.652C327.885 353.219 328.145 352.561 328.145 351.677V350.95C328.145 350.067 327.885 349.417 327.365 349.002C326.846 348.569 326.144 348.352 325.261 348.352C324.378 348.352 323.676 348.569 323.157 349.002C322.637 349.417 322.378 350.067 322.378 350.95V351.677C322.378 352.561 322.637 353.219 323.157 353.652C323.676 354.067 324.378 354.275 325.261 354.275ZM339.172 360.718C338.254 360.718 337.423 360.553 336.678 360.224C335.95 359.895 335.318 359.428 334.781 358.822C334.262 358.198 333.855 357.462 333.56 356.613C333.283 355.747 333.145 354.778 333.145 353.704C333.145 352.647 333.283 351.686 333.56 350.82C333.855 349.954 334.262 349.218 334.781 348.612C335.318 347.988 335.95 347.512 336.678 347.183C337.423 346.854 338.254 346.689 339.172 346.689C340.072 346.689 340.878 346.854 341.588 347.183C342.298 347.512 342.904 347.971 343.406 348.56C343.909 349.131 344.29 349.816 344.549 350.612C344.826 351.409 344.965 352.284 344.965 353.236V354.223H335.327V354.847C335.327 355.418 335.413 355.955 335.587 356.457C335.777 356.942 336.037 357.367 336.366 357.73C336.712 358.094 337.128 358.38 337.613 358.588C338.115 358.796 338.678 358.899 339.302 358.899C340.15 358.899 340.886 358.7 341.51 358.302C342.151 357.904 342.644 357.332 342.991 356.587L344.471 357.653C344.038 358.57 343.363 359.315 342.445 359.887C341.527 360.441 340.436 360.718 339.172 360.718ZM339.172 348.43C338.6 348.43 338.081 348.534 337.613 348.742C337.145 348.932 336.738 349.209 336.392 349.573C336.063 349.937 335.803 350.37 335.613 350.872C335.422 351.357 335.327 351.894 335.327 352.483V352.665H342.731V352.379C342.731 351.184 342.402 350.231 341.744 349.521C341.103 348.794 340.246 348.43 339.172 348.43ZM354.062 350.742V348.976H366.168V350.742H354.062ZM354.062 355.938V354.171H366.168V355.938H354.062ZM376.246 341.182H378.324V349.183H378.428C378.757 348.421 379.216 347.815 379.805 347.365C380.411 346.915 381.216 346.689 382.221 346.689C383.606 346.689 384.698 347.14 385.494 348.04C386.308 348.924 386.715 350.179 386.715 351.807V360.406H384.637V352.171C384.637 349.764 383.624 348.56 381.597 348.56C381.182 348.56 380.775 348.612 380.376 348.716C379.995 348.82 379.649 348.976 379.337 349.183C379.026 349.391 378.774 349.66 378.584 349.989C378.411 350.301 378.324 350.673 378.324 351.106V360.406H376.246V341.182ZM400.753 360.406C399.974 360.406 399.411 360.198 399.064 359.783C398.735 359.367 398.528 358.848 398.441 358.224H398.311C398.017 359.055 397.532 359.679 396.856 360.095C396.181 360.51 395.375 360.718 394.44 360.718C393.02 360.718 391.912 360.354 391.115 359.627C390.336 358.899 389.946 357.912 389.946 356.665C389.946 355.401 390.405 354.431 391.323 353.756C392.258 353.08 393.704 352.743 395.661 352.743H398.311V351.418C398.311 350.465 398.051 349.738 397.532 349.235C397.012 348.733 396.215 348.482 395.142 348.482C394.328 348.482 393.644 348.664 393.089 349.028C392.552 349.391 392.102 349.876 391.738 350.482L390.491 349.313C390.855 348.586 391.435 347.971 392.232 347.469C393.029 346.949 394.033 346.689 395.246 346.689C396.874 346.689 398.138 347.088 399.038 347.885C399.939 348.681 400.389 349.79 400.389 351.21V358.588H401.922V360.406H400.753ZM394.778 358.951C395.298 358.951 395.774 358.891 396.207 358.77C396.64 358.648 397.012 358.475 397.324 358.25C397.636 358.025 397.878 357.765 398.051 357.471C398.224 357.176 398.311 356.856 398.311 356.509V354.301H395.557C394.362 354.301 393.488 354.474 392.933 354.821C392.397 355.167 392.128 355.669 392.128 356.328V356.873C392.128 357.531 392.362 358.042 392.83 358.406C393.314 358.77 393.964 358.951 394.778 358.951ZM408.915 360.718C407.668 360.718 406.62 360.484 405.772 360.017C404.94 359.532 404.222 358.891 403.615 358.094L405.096 356.899C405.616 357.557 406.196 358.068 406.837 358.432C407.478 358.778 408.222 358.951 409.071 358.951C409.954 358.951 410.638 358.761 411.123 358.38C411.625 357.999 411.877 357.462 411.877 356.769C411.877 356.25 411.703 355.808 411.357 355.444C411.028 355.063 410.422 354.804 409.539 354.665L408.473 354.509C407.85 354.422 407.278 354.293 406.759 354.119C406.239 353.929 405.78 353.686 405.382 353.392C405.001 353.08 404.698 352.699 404.473 352.249C404.265 351.799 404.161 351.262 404.161 350.638C404.161 349.98 404.282 349.409 404.525 348.924C404.767 348.421 405.096 348.006 405.512 347.677C405.945 347.348 406.456 347.105 407.045 346.949C407.633 346.776 408.266 346.689 408.941 346.689C410.032 346.689 410.941 346.88 411.669 347.261C412.414 347.642 413.063 348.17 413.617 348.846L412.24 350.093C411.946 349.677 411.513 349.305 410.941 348.976C410.37 348.629 409.651 348.456 408.785 348.456C407.919 348.456 407.261 348.647 406.811 349.028C406.378 349.391 406.161 349.894 406.161 350.534C406.161 351.192 406.378 351.669 406.811 351.963C407.261 352.258 407.902 352.474 408.733 352.613L409.772 352.769C411.262 352.994 412.318 353.427 412.942 354.067C413.565 354.691 413.877 355.514 413.877 356.535C413.877 357.834 413.435 358.856 412.552 359.601C411.669 360.346 410.456 360.718 408.915 360.718ZM417.548 341.182H419.626V349.183H419.73C420.059 348.421 420.518 347.815 421.107 347.365C421.713 346.915 422.518 346.689 423.523 346.689C424.909 346.689 426 347.14 426.796 348.04C427.61 348.924 428.017 350.179 428.017 351.807V360.406H425.939V352.171C425.939 349.764 424.926 348.56 422.899 348.56C422.484 348.56 422.077 348.612 421.678 348.716C421.297 348.82 420.951 348.976 420.639 349.183C420.328 349.391 420.076 349.66 419.886 349.989C419.713 350.301 419.626 350.673 419.626 351.106V360.406H417.548V341.182ZM432.261 352.301C432.261 351.054 432.382 349.85 432.625 348.69C432.867 347.529 433.196 346.456 433.612 345.468C434.045 344.464 434.547 343.555 435.119 342.741C435.69 341.927 436.305 341.234 436.963 340.662H438.938C438.21 341.321 437.552 342.065 436.963 342.897C436.392 343.728 435.898 344.611 435.483 345.546C435.084 346.482 434.772 347.434 434.547 348.404C434.322 349.374 434.21 350.309 434.21 351.21V353.444C434.21 354.362 434.322 355.306 434.547 356.276C434.772 357.246 435.093 358.198 435.508 359.133C435.924 360.069 436.418 360.952 436.989 361.783C437.578 362.614 438.228 363.342 438.938 363.965H436.963C436.322 363.428 435.716 362.753 435.145 361.939C434.573 361.125 434.071 360.216 433.638 359.211C433.222 358.207 432.885 357.124 432.625 355.964C432.382 354.786 432.261 353.565 432.261 352.301ZM446.003 360.718C445.068 360.718 444.228 360.553 443.483 360.224C442.738 359.895 442.106 359.428 441.586 358.822C441.084 358.215 440.695 357.479 440.417 356.613C440.158 355.747 440.028 354.778 440.028 353.704C440.028 352.63 440.158 351.66 440.417 350.794C440.695 349.928 441.084 349.192 441.586 348.586C442.106 347.98 442.738 347.512 443.483 347.183C444.228 346.854 445.068 346.689 446.003 346.689C447.336 346.689 448.402 346.984 449.198 347.573C450.012 348.144 450.618 348.898 451.017 349.833L449.276 350.716C449.034 350.023 448.635 349.487 448.081 349.106C447.527 348.724 446.834 348.534 446.003 348.534C445.379 348.534 444.834 348.638 444.366 348.846C443.899 349.036 443.509 349.313 443.197 349.677C442.885 350.023 442.652 350.448 442.496 350.95C442.34 351.435 442.262 351.972 442.262 352.561V354.847C442.262 356.025 442.574 356.994 443.197 357.756C443.838 358.501 444.773 358.874 446.003 358.874C447.683 358.874 448.895 358.094 449.64 356.535L451.147 357.549C450.714 358.518 450.064 359.289 449.198 359.861C448.35 360.432 447.284 360.718 446.003 360.718ZM458.994 360.718C458.093 360.718 457.271 360.553 456.526 360.224C455.781 359.895 455.141 359.428 454.604 358.822C454.084 358.198 453.677 357.462 453.383 356.613C453.088 355.747 452.941 354.778 452.941 353.704C452.941 352.647 453.088 351.686 453.383 350.82C453.677 349.954 454.084 349.218 454.604 348.612C455.141 347.988 455.781 347.512 456.526 347.183C457.271 346.854 458.093 346.689 458.994 346.689C459.895 346.689 460.709 346.854 461.436 347.183C462.181 347.512 462.822 347.988 463.358 348.612C463.895 349.218 464.311 349.954 464.605 350.82C464.9 351.686 465.047 352.647 465.047 353.704C465.047 354.778 464.9 355.747 464.605 356.613C464.311 357.462 463.895 358.198 463.358 358.822C462.822 359.428 462.181 359.895 461.436 360.224C460.709 360.553 459.895 360.718 458.994 360.718ZM458.994 358.874C460.12 358.874 461.038 358.527 461.748 357.834C462.458 357.142 462.813 356.085 462.813 354.665V352.743C462.813 351.322 462.458 350.266 461.748 349.573C461.038 348.88 460.12 348.534 458.994 348.534C457.868 348.534 456.95 348.88 456.24 349.573C455.53 350.266 455.175 351.322 455.175 352.743V354.665C455.175 356.085 455.53 357.142 456.24 357.834C456.95 358.527 457.868 358.874 458.994 358.874ZM477.038 358.224H476.934C476.12 359.887 474.813 360.718 473.011 360.718C472.18 360.718 471.427 360.553 470.751 360.224C470.076 359.895 469.496 359.428 469.011 358.822C468.543 358.215 468.179 357.479 467.92 356.613C467.677 355.747 467.556 354.778 467.556 353.704C467.556 352.63 467.677 351.66 467.92 350.794C468.179 349.928 468.543 349.192 469.011 348.586C469.496 347.98 470.076 347.512 470.751 347.183C471.427 346.854 472.18 346.689 473.011 346.689C473.947 346.689 474.743 346.897 475.401 347.313C476.077 347.711 476.588 348.335 476.934 349.183H477.038V341.182H479.116V360.406H477.038V358.224ZM473.583 358.848C474.051 358.848 474.492 358.787 474.908 358.666C475.341 358.544 475.713 358.371 476.025 358.146C476.337 357.904 476.579 357.618 476.752 357.289C476.943 356.942 477.038 356.553 477.038 356.12V351.132C477.038 350.768 476.943 350.43 476.752 350.119C476.579 349.79 476.337 349.513 476.025 349.287C475.713 349.062 475.341 348.889 474.908 348.768C474.492 348.629 474.051 348.56 473.583 348.56C472.405 348.56 471.479 348.932 470.803 349.677C470.128 350.404 469.79 351.366 469.79 352.561V354.847C469.79 356.042 470.128 357.012 470.803 357.756C471.479 358.484 472.405 358.848 473.583 358.848ZM488.575 360.718C487.657 360.718 486.825 360.553 486.081 360.224C485.353 359.895 484.721 359.428 484.184 358.822C483.665 358.198 483.258 357.462 482.963 356.613C482.686 355.747 482.548 354.778 482.548 353.704C482.548 352.647 482.686 351.686 482.963 350.82C483.258 349.954 483.665 349.218 484.184 348.612C484.721 347.988 485.353 347.512 486.081 347.183C486.825 346.854 487.657 346.689 488.575 346.689C489.475 346.689 490.281 346.854 490.991 347.183C491.701 347.512 492.307 347.971 492.809 348.56C493.311 349.131 493.692 349.816 493.952 350.612C494.229 351.409 494.368 352.284 494.368 353.236V354.223H484.73V354.847C484.73 355.418 484.816 355.955 484.99 356.457C485.18 356.942 485.44 357.367 485.769 357.73C486.115 358.094 486.531 358.38 487.016 358.588C487.518 358.796 488.081 358.899 488.705 358.899C489.553 358.899 490.289 358.7 490.913 358.302C491.554 357.904 492.047 357.332 492.394 356.587L493.874 357.653C493.441 358.57 492.766 359.315 491.848 359.887C490.93 360.441 489.839 360.718 488.575 360.718ZM488.575 348.43C488.003 348.43 487.484 348.534 487.016 348.742C486.548 348.932 486.141 349.209 485.795 349.573C485.466 349.937 485.206 350.37 485.016 350.872C484.825 351.357 484.73 351.894 484.73 352.483V352.665H492.134V352.379C492.134 351.184 491.805 350.231 491.147 349.521C490.506 348.794 489.648 348.43 488.575 348.43ZM495.07 364.693V362.874H508.189V364.693H495.07ZM512.323 360.406L507.621 347.001H509.699L512.037 353.652L513.492 358.224H513.622L515.077 353.652L517.467 347.001H519.467L514.739 360.406H512.323ZM526.985 360.718C526.067 360.718 525.235 360.553 524.491 360.224C523.763 359.895 523.131 359.428 522.594 358.822C522.075 358.198 521.668 357.462 521.373 356.613C521.096 355.747 520.958 354.778 520.958 353.704C520.958 352.647 521.096 351.686 521.373 350.82C521.668 349.954 522.075 349.218 522.594 348.612C523.131 347.988 523.763 347.512 524.491 347.183C525.235 346.854 526.067 346.689 526.985 346.689C527.885 346.689 528.691 346.854 529.401 347.183C530.111 347.512 530.717 347.971 531.219 348.56C531.721 349.131 532.102 349.816 532.362 350.612C532.639 351.409 532.778 352.284 532.778 353.236V354.223H523.14V354.847C523.14 355.418 523.226 355.955 523.4 356.457C523.59 356.942 523.85 357.367 524.179 357.73C524.525 358.094 524.941 358.38 525.426 358.588C525.928 358.796 526.491 358.899 527.114 358.899C527.963 358.899 528.699 358.7 529.323 358.302C529.963 357.904 530.457 357.332 530.803 356.587L532.284 357.653C531.851 358.57 531.176 359.315 530.258 359.887C529.34 360.441 528.249 360.718 526.985 360.718ZM526.985 348.43C526.413 348.43 525.893 348.534 525.426 348.742C524.958 348.932 524.551 349.209 524.205 349.573C523.876 349.937 523.616 350.37 523.426 350.872C523.235 351.357 523.14 351.894 523.14 352.483V352.665H530.544V352.379C530.544 351.184 530.215 350.231 529.556 349.521C528.916 348.794 528.058 348.43 526.985 348.43ZM536.203 360.406V347.001H538.281V349.469H538.411C538.653 348.828 539.086 348.257 539.71 347.755C540.333 347.252 541.19 347.001 542.282 347.001H543.087V349.08H541.866C540.74 349.08 539.857 349.296 539.216 349.729C538.593 350.145 538.281 350.673 538.281 351.314V360.406H536.203ZM546.781 343.858C546.33 343.858 546.001 343.754 545.794 343.546C545.603 343.321 545.508 343.035 545.508 342.689V342.351C545.508 342.005 545.603 341.728 545.794 341.52C546.001 341.295 546.33 341.182 546.781 341.182C547.231 341.182 547.551 341.295 547.742 341.52C547.95 341.728 548.054 342.005 548.054 342.351V342.689C548.054 343.035 547.95 343.321 547.742 343.546C547.551 343.754 547.231 343.858 546.781 343.858ZM545.742 347.001H547.82V360.406H545.742V347.001ZM552.964 348.82H550.781V347.001H552.964V344.299C552.964 343.364 553.206 342.611 553.691 342.039C554.176 341.468 554.912 341.182 555.899 341.182H557.926V343.001H555.042V347.001H562.55V360.406H560.472V348.82H555.042V360.406H552.964V348.82ZM561.511 343.858C561.06 343.858 560.731 343.754 560.524 343.546C560.333 343.321 560.238 343.035 560.238 342.689V342.351C560.238 342.005 560.333 341.728 560.524 341.52C560.731 341.295 561.06 341.182 561.511 341.182C561.961 341.182 562.281 341.295 562.472 341.52C562.68 341.728 562.784 342.005 562.784 342.351V342.689C562.784 343.035 562.68 343.321 562.472 343.546C562.281 343.754 561.961 343.858 561.511 343.858ZM572.016 360.718C571.098 360.718 570.267 360.553 569.522 360.224C568.795 359.895 568.163 359.428 567.626 358.822C567.106 358.198 566.699 357.462 566.405 356.613C566.128 355.747 565.989 354.778 565.989 353.704C565.989 352.647 566.128 351.686 566.405 350.82C566.699 349.954 567.106 349.218 567.626 348.612C568.163 347.988 568.795 347.512 569.522 347.183C570.267 346.854 571.098 346.689 572.016 346.689C572.917 346.689 573.722 346.854 574.432 347.183C575.142 347.512 575.748 347.971 576.251 348.56C576.753 349.131 577.134 349.816 577.394 350.612C577.671 351.409 577.809 352.284 577.809 353.236V354.223H568.171V354.847C568.171 355.418 568.258 355.955 568.431 356.457C568.621 356.942 568.881 357.367 569.21 357.73C569.557 358.094 569.972 358.38 570.457 358.588C570.96 358.796 571.522 358.899 572.146 358.899C572.995 358.899 573.731 358.7 574.354 358.302C574.995 357.904 575.489 357.332 575.835 356.587L577.316 357.653C576.883 358.57 576.207 359.315 575.289 359.887C574.371 360.441 573.28 360.718 572.016 360.718ZM572.016 348.43C571.445 348.43 570.925 348.534 570.457 348.742C569.99 348.932 569.583 349.209 569.236 349.573C568.907 349.937 568.647 350.37 568.457 350.872C568.266 351.357 568.171 351.894 568.171 352.483V352.665H575.575V352.379C575.575 351.184 575.246 350.231 574.588 349.521C573.947 348.794 573.09 348.43 572.016 348.43ZM581.234 360.406V347.001H583.312V349.469H583.442C583.685 348.828 584.118 348.257 584.741 347.755C585.365 347.252 586.222 347.001 587.313 347.001H588.118V349.08H586.897C585.772 349.08 584.888 349.296 584.248 349.729C583.624 350.145 583.312 350.673 583.312 351.314V360.406H581.234ZM595.112 352.301C595.112 353.565 594.982 354.786 594.722 355.964C594.479 357.124 594.142 358.207 593.709 359.211C593.293 360.216 592.799 361.125 592.228 361.939C591.656 362.753 591.05 363.428 590.409 363.965H588.435C589.145 363.342 589.786 362.614 590.357 361.783C590.946 360.952 591.449 360.069 591.864 359.133C592.28 358.198 592.6 357.246 592.825 356.276C593.051 355.306 593.163 354.362 593.163 353.444V351.21C593.163 350.309 593.051 349.374 592.825 348.404C592.6 347.434 592.28 346.482 591.864 345.546C591.466 344.611 590.972 343.728 590.383 342.897C589.812 342.065 589.162 341.321 588.435 340.662H590.409C591.067 341.234 591.682 341.927 592.254 342.741C592.825 343.555 593.319 344.464 593.735 345.468C594.168 346.456 594.505 347.529 594.748 348.69C594.99 349.85 595.112 351.054 595.112 352.301Z" fill="#ED4344"/>
<rect x="613.747" y="268.356" width="50.6585" height="98.7191" rx="9.74201" fill="white" stroke="#ED4344" stroke-width="1.29894"/>
<path d="M665.704 278.747H717.012C724.903 278.747 731.301 285.144 731.301 293.035V293.035" stroke="#ED4344" stroke-width="1.29894"/>
<path d="M665.055 354.735L671.549 358.484V350.985L665.055 354.735ZM714.414 354.085H670.9V355.384H714.414V354.085ZM731.95 337.849V292H730.651V337.849H731.95ZM730.651 337.849C730.651 346.816 723.382 354.085 714.414 354.085V355.384C724.099 355.384 731.95 347.533 731.95 337.849H730.651Z" fill="#ED4344"/>
</svg>
