<?xml version="1.0" encoding="UTF-8"?>
<!-- Do not edit this file with editors other than diagrams.net -->
<!DOCTYPE svg PUBLIC "-//W3C//DTD SVG 1.1//EN" "http://www.w3.org/Graphics/SVG/1.1/DTD/svg11.dtd">
<svg width="895" height="477" viewBox="0 0 895 477" fill="none" xmlns="http://www.w3.org/2000/svg">
    <rect x="624" y="1" width="270" height="222" rx="11" fill="#E9D8F0" stroke="#9673A6" stroke-width="2"/>
    <path d="M684.08 124L681.56 116.584H671.408L668.888 124H665.828L674.612 98.872H678.464L687.248 124H684.08ZM676.556 101.68H676.376L672.128 113.92H680.804L676.556 101.68ZM702.571 120.976H702.427C702.235 121.408 701.995 121.84 701.707 122.272C701.443 122.68 701.107 123.052 700.699 123.388C700.291 123.7 699.799 123.952 699.223 124.144C698.647 124.336 697.975 124.432 697.207 124.432C695.287 124.432 693.763 123.82 692.635 122.596C691.507 121.348 690.943 119.596 690.943 117.34V105.424H693.823V116.836C693.823 120.172 695.239 121.84 698.071 121.84C698.647 121.84 699.199 121.768 699.727 121.624C700.279 121.48 700.759 121.264 701.167 120.976C701.599 120.688 701.935 120.328 702.175 119.896C702.439 119.44 702.571 118.9 702.571 118.276V105.424H705.451V124H702.571V120.976ZM715.687 124C714.679 124 713.911 123.724 713.383 123.172C712.879 122.596 712.627 121.852 712.627 120.94V107.944H709.567V105.424H711.295C711.919 105.424 712.339 105.304 712.555 105.064C712.795 104.8 712.915 104.356 712.915 103.732V100.276H715.507V105.424H719.575V107.944H715.507V121.48H719.287V124H715.687ZM724.205 97.36H727.085V108.448H727.229C727.685 107.392 728.321 106.552 729.137 105.928C729.977 105.304 731.093 104.992 732.485 104.992C734.405 104.992 735.917 105.616 737.021 106.864C738.149 108.088 738.713 109.828 738.713 112.084V124H735.833V112.588C735.833 109.252 734.429 107.584 731.621 107.584C731.045 107.584 730.481 107.656 729.929 107.8C729.401 107.944 728.921 108.16 728.489 108.448C728.057 108.736 727.709 109.108 727.445 109.564C727.205 109.996 727.085 110.512 727.085 111.112V124H724.205V97.36ZM760.517 124.432C758.477 124.432 756.737 124.048 755.297 123.28C753.857 122.488 752.633 121.408 751.625 120.04L753.857 118.168C754.745 119.344 755.729 120.244 756.809 120.868C757.889 121.468 759.161 121.768 760.625 121.768C762.425 121.768 763.793 121.336 764.729 120.472C765.689 119.608 766.169 118.456 766.169 117.016C766.169 115.816 765.809 114.892 765.089 114.244C764.369 113.596 763.181 113.08 761.525 112.696L759.473 112.228C757.169 111.7 755.405 110.908 754.181 109.852C752.981 108.772 752.381 107.26 752.381 105.316C752.381 104.212 752.585 103.228 752.993 102.364C753.401 101.5 753.965 100.78 754.685 100.204C755.429 99.628 756.305 99.196 757.313 98.908C758.345 98.596 759.473 98.44 760.697 98.44C762.593 98.44 764.213 98.788 765.557 99.484C766.925 100.18 768.077 101.2 769.013 102.544L766.745 104.2C766.049 103.24 765.209 102.484 764.225 101.932C763.241 101.38 762.017 101.104 760.553 101.104C758.945 101.104 757.673 101.452 756.737 102.148C755.825 102.82 755.369 103.84 755.369 105.208C755.369 106.408 755.753 107.32 756.521 107.944C757.313 108.544 758.501 109.024 760.085 109.384L762.137 109.852C764.609 110.404 766.397 111.244 767.501 112.372C768.605 113.5 769.157 115 769.157 116.872C769.157 118.024 768.953 119.068 768.545 120.004C768.161 120.94 767.597 121.732 766.853 122.38C766.109 123.028 765.197 123.532 764.117 123.892C763.061 124.252 761.861 124.432 760.517 124.432ZM781.075 124.432C779.803 124.432 778.651 124.204 777.619 123.748C776.611 123.292 775.735 122.644 774.991 121.804C774.271 120.94 773.707 119.92 773.299 118.744C772.915 117.544 772.723 116.2 772.723 114.712C772.723 113.248 772.915 111.916 773.299 110.716C773.707 109.516 774.271 108.496 774.991 107.656C775.735 106.792 776.611 106.132 777.619 105.676C778.651 105.22 779.803 104.992 781.075 104.992C782.323 104.992 783.439 105.22 784.423 105.676C785.407 106.132 786.247 106.768 786.943 107.584C787.639 108.376 788.167 109.324 788.527 110.428C788.911 111.532 789.103 112.744 789.103 114.064V115.432H775.747V116.296C775.747 117.088 775.867 117.832 776.107 118.528C776.371 119.2 776.731 119.788 777.187 120.292C777.667 120.796 778.243 121.192 778.915 121.48C779.611 121.768 780.391 121.912 781.255 121.912C782.431 121.912 783.451 121.636 784.315 121.084C785.203 120.532 785.887 119.74 786.367 118.708L788.419 120.184C787.819 121.456 786.883 122.488 785.611 123.28C784.339 124.048 782.827 124.432 781.075 124.432ZM781.075 107.404C780.283 107.404 779.563 107.548 778.915 107.836C778.267 108.1 777.703 108.484 777.223 108.988C776.767 109.492 776.407 110.092 776.143 110.788C775.879 111.46 775.747 112.204 775.747 113.02V113.272H786.007V112.876C786.007 111.22 785.551 109.9 784.639 108.916C783.751 107.908 782.563 107.404 781.075 107.404ZM793.849 124V105.424H796.729V108.844H796.909C797.245 107.956 797.845 107.164 798.709 106.468C799.573 105.772 800.761 105.424 802.273 105.424H803.389V108.304H801.697C800.137 108.304 798.913 108.604 798.025 109.204C797.161 109.78 796.729 110.512 796.729 111.4V124H793.849ZM811.523 124L805.007 105.424H807.887L811.127 114.64L813.143 120.976H813.323L815.339 114.64L818.651 105.424H821.423L814.871 124H811.523ZM826.578 101.068C825.954 101.068 825.498 100.924 825.21 100.636C824.946 100.324 824.814 99.928 824.814 99.448V98.98C824.814 98.5 824.946 98.116 825.21 97.828C825.498 97.516 825.954 97.36 826.578 97.36C827.202 97.36 827.646 97.516 827.91 97.828C828.198 98.116 828.342 98.5 828.342 98.98V99.448C828.342 99.928 828.198 100.324 827.91 100.636C827.646 100.924 827.202 101.068 826.578 101.068ZM825.138 105.424H828.018V124H825.138V105.424ZM841.05 124.432C839.754 124.432 838.59 124.204 837.558 123.748C836.526 123.292 835.65 122.644 834.93 121.804C834.234 120.964 833.694 119.944 833.31 118.744C832.95 117.544 832.77 116.2 832.77 114.712C832.77 113.224 832.95 111.88 833.31 110.68C833.694 109.48 834.234 108.46 834.93 107.62C835.65 106.78 836.526 106.132 837.558 105.676C838.59 105.22 839.754 104.992 841.05 104.992C842.898 104.992 844.374 105.4 845.478 106.216C846.606 107.008 847.446 108.052 847.998 109.348L845.586 110.572C845.25 109.612 844.698 108.868 843.93 108.34C843.162 107.812 842.202 107.548 841.05 107.548C840.186 107.548 839.43 107.692 838.782 107.98C838.134 108.244 837.594 108.628 837.162 109.132C836.73 109.612 836.406 110.2 836.19 110.896C835.974 111.568 835.866 112.312 835.866 113.128V116.296C835.866 117.928 836.298 119.272 837.162 120.328C838.05 121.36 839.346 121.876 841.05 121.876C843.378 121.876 845.058 120.796 846.09 118.636L848.178 120.04C847.578 121.384 846.678 122.452 845.478 123.244C844.302 124.036 842.826 124.432 841.05 124.432ZM859.017 124.432C857.745 124.432 856.593 124.204 855.561 123.748C854.553 123.292 853.677 122.644 852.933 121.804C852.213 120.94 851.649 119.92 851.241 118.744C850.857 117.544 850.665 116.2 850.665 114.712C850.665 113.248 850.857 111.916 851.241 110.716C851.649 109.516 852.213 108.496 852.933 107.656C853.677 106.792 854.553 106.132 855.561 105.676C856.593 105.22 857.745 104.992 859.017 104.992C860.265 104.992 861.381 105.22 862.365 105.676C863.349 106.132 864.189 106.768 864.885 107.584C865.581 108.376 866.109 109.324 866.469 110.428C866.853 111.532 867.045 112.744 867.045 114.064V115.432H853.689V116.296C853.689 117.088 853.809 117.832 854.049 118.528C854.313 119.2 854.673 119.788 855.129 120.292C855.609 120.796 856.185 121.192 856.857 121.48C857.553 121.768 858.333 121.912 859.197 121.912C860.373 121.912 861.393 121.636 862.257 121.084C863.145 120.532 863.829 119.74 864.309 118.708L866.361 120.184C865.761 121.456 864.825 122.488 863.553 123.28C862.281 124.048 860.769 124.432 859.017 124.432ZM859.017 107.404C858.225 107.404 857.505 107.548 856.857 107.836C856.209 108.1 855.645 108.484 855.165 108.988C854.709 109.492 854.349 110.092 854.085 110.788C853.821 111.46 853.689 112.204 853.689 113.02V113.272H863.949V112.876C863.949 111.22 863.493 109.9 862.581 108.916C861.693 107.908 860.505 107.404 859.017 107.404Z" fill="black"/>
    <rect x="624" y="344" width="270" height="132" rx="11" fill="#C5E3FF" stroke="#1661A6" stroke-width="2"/>
    <path d="M706.326 400.432C704.286 400.432 702.546 400.048 701.106 399.28C699.666 398.488 698.442 397.408 697.434 396.04L699.666 394.168C700.554 395.344 701.538 396.244 702.618 396.868C703.698 397.468 704.97 397.768 706.434 397.768C708.234 397.768 709.602 397.336 710.538 396.472C711.498 395.608 711.978 394.456 711.978 393.016C711.978 391.816 711.618 390.892 710.898 390.244C710.178 389.596 708.99 389.08 707.334 388.696L705.282 388.228C702.978 387.7 701.214 386.908 699.99 385.852C698.79 384.772 698.19 383.26 698.19 381.316C698.19 380.212 698.394 379.228 698.802 378.364C699.21 377.5 699.774 376.78 700.494 376.204C701.238 375.628 702.114 375.196 703.122 374.908C704.154 374.596 705.282 374.44 706.506 374.44C708.402 374.44 710.022 374.788 711.366 375.484C712.734 376.18 713.886 377.2 714.822 378.544L712.554 380.2C711.858 379.24 711.018 378.484 710.034 377.932C709.05 377.38 707.826 377.104 706.362 377.104C704.754 377.104 703.482 377.452 702.546 378.148C701.634 378.82 701.178 379.84 701.178 381.208C701.178 382.408 701.562 383.32 702.33 383.944C703.122 384.544 704.31 385.024 705.894 385.384L707.946 385.852C710.418 386.404 712.206 387.244 713.31 388.372C714.414 389.5 714.966 391 714.966 392.872C714.966 394.024 714.762 395.068 714.354 396.004C713.97 396.94 713.406 397.732 712.662 398.38C711.918 399.028 711.006 399.532 709.926 399.892C708.87 400.252 707.67 400.432 706.326 400.432ZM726.884 400.432C725.612 400.432 724.46 400.204 723.428 399.748C722.42 399.292 721.544 398.644 720.8 397.804C720.08 396.94 719.516 395.92 719.108 394.744C718.724 393.544 718.532 392.2 718.532 390.712C718.532 389.248 718.724 387.916 719.108 386.716C719.516 385.516 720.08 384.496 720.8 383.656C721.544 382.792 722.42 382.132 723.428 381.676C724.46 381.22 725.612 380.992 726.884 380.992C728.132 380.992 729.248 381.22 730.232 381.676C731.216 382.132 732.056 382.768 732.752 383.584C733.448 384.376 733.976 385.324 734.336 386.428C734.72 387.532 734.912 388.744 734.912 390.064V391.432H721.556V392.296C721.556 393.088 721.676 393.832 721.916 394.528C722.18 395.2 722.54 395.788 722.996 396.292C723.476 396.796 724.052 397.192 724.724 397.48C725.42 397.768 726.2 397.912 727.064 397.912C728.24 397.912 729.26 397.636 730.124 397.084C731.012 396.532 731.696 395.74 732.176 394.708L734.228 396.184C733.628 397.456 732.692 398.488 731.42 399.28C730.148 400.048 728.636 400.432 726.884 400.432ZM726.884 383.404C726.092 383.404 725.372 383.548 724.724 383.836C724.076 384.1 723.512 384.484 723.032 384.988C722.576 385.492 722.216 386.092 721.952 386.788C721.688 387.46 721.556 388.204 721.556 389.02V389.272H731.816V388.876C731.816 387.22 731.36 385.9 730.448 384.916C729.56 383.908 728.372 383.404 726.884 383.404ZM745.238 400.432C743.51 400.432 742.058 400.108 740.882 399.46C739.73 398.788 738.734 397.9 737.894 396.796L739.946 395.14C740.666 396.052 741.47 396.76 742.358 397.264C743.246 397.744 744.278 397.984 745.454 397.984C746.678 397.984 747.626 397.72 748.298 397.192C748.994 396.664 749.342 395.92 749.342 394.96C749.342 394.24 749.102 393.628 748.622 393.124C748.166 392.596 747.326 392.236 746.102 392.044L744.626 391.828C743.762 391.708 742.97 391.528 742.25 391.288C741.53 391.024 740.894 390.688 740.342 390.28C739.814 389.848 739.394 389.32 739.082 388.696C738.794 388.072 738.65 387.328 738.65 386.464C738.65 385.552 738.818 384.76 739.154 384.088C739.49 383.392 739.946 382.816 740.522 382.36C741.122 381.904 741.83 381.568 742.646 381.352C743.462 381.112 744.338 380.992 745.274 380.992C746.786 380.992 748.046 381.256 749.054 381.784C750.086 382.312 750.986 383.044 751.754 383.98L749.846 385.708C749.438 385.132 748.838 384.616 748.046 384.16C747.254 383.68 746.258 383.44 745.058 383.44C743.858 383.44 742.946 383.704 742.322 384.232C741.722 384.736 741.422 385.432 741.422 386.32C741.422 387.232 741.722 387.892 742.322 388.3C742.946 388.708 743.834 389.008 744.986 389.2L746.426 389.416C748.49 389.728 749.954 390.328 750.818 391.216C751.682 392.08 752.114 393.22 752.114 394.636C752.114 396.436 751.502 397.852 750.278 398.884C749.054 399.916 747.374 400.432 745.238 400.432ZM762.57 400.432C760.842 400.432 759.39 400.108 758.214 399.46C757.062 398.788 756.066 397.9 755.226 396.796L757.278 395.14C757.998 396.052 758.802 396.76 759.69 397.264C760.578 397.744 761.61 397.984 762.786 397.984C764.01 397.984 764.958 397.72 765.63 397.192C766.326 396.664 766.674 395.92 766.674 394.96C766.674 394.24 766.434 393.628 765.954 393.124C765.498 392.596 764.658 392.236 763.434 392.044L761.958 391.828C761.094 391.708 760.302 391.528 759.582 391.288C758.862 391.024 758.226 390.688 757.674 390.28C757.146 389.848 756.726 389.32 756.414 388.696C756.126 388.072 755.982 387.328 755.982 386.464C755.982 385.552 756.15 384.76 756.486 384.088C756.822 383.392 757.278 382.816 757.854 382.36C758.454 381.904 759.162 381.568 759.978 381.352C760.794 381.112 761.67 380.992 762.606 380.992C764.118 380.992 765.378 381.256 766.386 381.784C767.418 382.312 768.318 383.044 769.086 383.98L767.178 385.708C766.77 385.132 766.17 384.616 765.378 384.16C764.586 383.68 763.59 383.44 762.39 383.44C761.19 383.44 760.278 383.704 759.654 384.232C759.054 384.736 758.754 385.432 758.754 386.32C758.754 387.232 759.054 387.892 759.654 388.3C760.278 388.708 761.166 389.008 762.318 389.2L763.758 389.416C765.822 389.728 767.286 390.328 768.15 391.216C769.014 392.08 769.446 393.22 769.446 394.636C769.446 396.436 768.834 397.852 767.61 398.884C766.386 399.916 764.706 400.432 762.57 400.432ZM775.973 377.068C775.349 377.068 774.893 376.924 774.605 376.636C774.341 376.324 774.209 375.928 774.209 375.448V374.98C774.209 374.5 774.341 374.116 774.605 373.828C774.893 373.516 775.349 373.36 775.973 373.36C776.597 373.36 777.041 373.516 777.305 373.828C777.593 374.116 777.737 374.5 777.737 374.98V375.448C777.737 375.928 777.593 376.324 777.305 376.636C777.041 376.924 776.597 377.068 775.973 377.068ZM774.533 381.424H777.413V400H774.533V381.424ZM790.553 400.432C789.305 400.432 788.165 400.204 787.133 399.748C786.101 399.292 785.213 398.644 784.469 397.804C783.749 396.94 783.185 395.92 782.777 394.744C782.369 393.544 782.165 392.2 782.165 390.712C782.165 389.248 782.369 387.916 782.777 386.716C783.185 385.516 783.749 384.496 784.469 383.656C785.213 382.792 786.101 382.132 787.133 381.676C788.165 381.22 789.305 380.992 790.553 380.992C791.801 380.992 792.929 381.22 793.937 381.676C794.969 382.132 795.857 382.792 796.601 383.656C797.345 384.496 797.921 385.516 798.329 386.716C798.737 387.916 798.941 389.248 798.941 390.712C798.941 392.2 798.737 393.544 798.329 394.744C797.921 395.92 797.345 396.94 796.601 397.804C795.857 398.644 794.969 399.292 793.937 399.748C792.929 400.204 791.801 400.432 790.553 400.432ZM790.553 397.876C792.113 397.876 793.385 397.396 794.369 396.436C795.353 395.476 795.845 394.012 795.845 392.044V389.38C795.845 387.412 795.353 385.948 794.369 384.988C793.385 384.028 792.113 383.548 790.553 383.548C788.993 383.548 787.721 384.028 786.737 384.988C785.753 385.948 785.261 387.412 785.261 389.38V392.044C785.261 394.012 785.753 395.476 786.737 396.436C787.721 397.396 788.993 397.876 790.553 397.876ZM803.677 400V381.424H806.557V384.448H806.701C807.157 383.392 807.793 382.552 808.609 381.928C809.449 381.304 810.565 380.992 811.957 380.992C813.877 380.992 815.389 381.616 816.493 382.864C817.621 384.088 818.185 385.828 818.185 388.084V400H815.305V388.588C815.305 385.252 813.901 383.584 811.093 383.584C810.517 383.584 809.953 383.656 809.401 383.8C808.873 383.944 808.393 384.16 807.961 384.448C807.529 384.736 807.181 385.108 806.917 385.564C806.677 385.996 806.557 386.512 806.557 387.112V400H803.677ZM706.695 447.432C704.655 447.432 702.915 447.048 701.475 446.28C700.035 445.488 698.811 444.408 697.803 443.04L700.035 441.168C700.923 442.344 701.907 443.244 702.987 443.868C704.067 444.468 705.339 444.768 706.803 444.768C708.603 444.768 709.971 444.336 710.907 443.472C711.867 442.608 712.347 441.456 712.347 440.016C712.347 438.816 711.987 437.892 711.267 437.244C710.547 436.596 709.359 436.08 707.703 435.696L705.651 435.228C703.347 434.7 701.583 433.908 700.359 432.852C699.159 431.772 698.559 430.26 698.559 428.316C698.559 427.212 698.763 426.228 699.171 425.364C699.579 424.5 700.143 423.78 700.863 423.204C701.607 422.628 702.483 422.196 703.491 421.908C704.523 421.596 705.651 421.44 706.875 421.44C708.771 421.44 710.391 421.788 711.735 422.484C713.103 423.18 714.255 424.2 715.191 425.544L712.923 427.2C712.227 426.24 711.387 425.484 710.403 424.932C709.419 424.38 708.195 424.104 706.731 424.104C705.123 424.104 703.851 424.452 702.915 425.148C702.003 425.82 701.547 426.84 701.547 428.208C701.547 429.408 701.931 430.32 702.699 430.944C703.491 431.544 704.679 432.024 706.263 432.384L708.315 432.852C710.787 433.404 712.575 434.244 713.679 435.372C714.783 436.5 715.335 438 715.335 439.872C715.335 441.024 715.131 442.068 714.723 443.004C714.339 443.94 713.775 444.732 713.031 445.38C712.287 446.028 711.375 446.532 710.295 446.892C709.239 447.252 708.039 447.432 706.695 447.432ZM724.373 447C723.365 447 722.597 446.724 722.069 446.172C721.565 445.596 721.313 444.852 721.313 443.94V430.944H718.253V428.424H719.981C720.605 428.424 721.025 428.304 721.241 428.064C721.481 427.8 721.601 427.356 721.601 426.732V423.276H724.193V428.424H728.261V430.944H724.193V444.48H727.973V447H724.373ZM739.769 447.432C738.521 447.432 737.381 447.204 736.349 446.748C735.317 446.292 734.429 445.644 733.685 444.804C732.965 443.94 732.401 442.92 731.993 441.744C731.585 440.544 731.381 439.2 731.381 437.712C731.381 436.248 731.585 434.916 731.993 433.716C732.401 432.516 732.965 431.496 733.685 430.656C734.429 429.792 735.317 429.132 736.349 428.676C737.381 428.22 738.521 427.992 739.769 427.992C741.017 427.992 742.145 428.22 743.153 428.676C744.185 429.132 745.073 429.792 745.817 430.656C746.561 431.496 747.137 432.516 747.545 433.716C747.953 434.916 748.157 436.248 748.157 437.712C748.157 439.2 747.953 440.544 747.545 441.744C747.137 442.92 746.561 443.94 745.817 444.804C745.073 445.644 744.185 446.292 743.153 446.748C742.145 447.204 741.017 447.432 739.769 447.432ZM739.769 444.876C741.329 444.876 742.601 444.396 743.585 443.436C744.569 442.476 745.061 441.012 745.061 439.044V436.38C745.061 434.412 744.569 432.948 743.585 431.988C742.601 431.028 741.329 430.548 739.769 430.548C738.209 430.548 736.937 431.028 735.953 431.988C734.969 432.948 734.477 434.412 734.477 436.38V439.044C734.477 441.012 734.969 442.476 735.953 443.436C736.937 444.396 738.209 444.876 739.769 444.876ZM752.894 447V428.424H755.774V431.844H755.954C756.29 430.956 756.89 430.164 757.754 429.468C758.618 428.772 759.806 428.424 761.318 428.424H762.434V431.304H760.742C759.182 431.304 757.958 431.604 757.07 432.204C756.206 432.78 755.774 433.512 755.774 434.4V447H752.894ZM779.472 447C778.392 447 777.612 446.712 777.132 446.136C776.676 445.56 776.388 444.84 776.268 443.976H776.088C775.68 445.128 775.008 445.992 774.072 446.568C773.136 447.144 772.02 447.432 770.724 447.432C768.756 447.432 767.22 446.928 766.116 445.92C765.036 444.912 764.496 443.544 764.496 441.816C764.496 440.064 765.132 438.72 766.404 437.784C767.7 436.848 769.704 436.38 772.416 436.38H776.088V434.544C776.088 433.224 775.728 432.216 775.008 431.52C774.288 430.824 773.184 430.476 771.696 430.476C770.568 430.476 769.62 430.728 768.852 431.232C768.108 431.736 767.484 432.408 766.98 433.248L765.252 431.628C765.756 430.62 766.56 429.768 767.664 429.072C768.768 428.352 770.16 427.992 771.84 427.992C774.096 427.992 775.848 428.544 777.096 429.648C778.344 430.752 778.968 432.288 778.968 434.256V444.48H781.092V447H779.472ZM771.192 444.984C771.912 444.984 772.572 444.9 773.172 444.732C773.772 444.564 774.288 444.324 774.72 444.012C775.152 443.7 775.488 443.34 775.728 442.932C775.968 442.524 776.088 442.08 776.088 441.6V438.54H772.272C770.616 438.54 769.404 438.78 768.636 439.26C767.892 439.74 767.52 440.436 767.52 441.348V442.104C767.52 443.016 767.844 443.724 768.492 444.228C769.164 444.732 770.064 444.984 771.192 444.984ZM800.863 449.052C800.863 450.972 800.107 452.376 798.595 453.264C797.107 454.176 794.863 454.632 791.863 454.632C788.959 454.632 786.871 454.236 785.599 453.444C784.327 452.652 783.691 451.524 783.691 450.06C783.691 449.052 783.955 448.26 784.483 447.684C785.011 447.132 785.731 446.724 786.643 446.46V446.064C785.539 445.536 784.987 444.672 784.987 443.472C784.987 442.536 785.287 441.828 785.887 441.348C786.487 440.844 787.255 440.472 788.191 440.232V440.088C787.087 439.56 786.223 438.804 785.599 437.82C784.999 436.836 784.699 435.696 784.699 434.4C784.699 433.464 784.867 432.6 785.203 431.808C785.539 431.016 786.007 430.344 786.607 429.792C787.231 429.216 787.963 428.772 788.803 428.46C789.667 428.148 790.627 427.992 791.683 427.992C793.003 427.992 794.179 428.232 795.211 428.712V428.388C795.211 427.668 795.379 427.08 795.715 426.624C796.051 426.144 796.603 425.904 797.371 425.904H800.143V428.424H796.615V429.612C797.287 430.188 797.803 430.884 798.163 431.7C798.547 432.492 798.739 433.392 798.739 434.4C798.739 435.336 798.571 436.2 798.235 436.992C797.899 437.784 797.419 438.468 796.795 439.044C796.195 439.596 795.463 440.028 794.599 440.34C793.735 440.652 792.775 440.808 791.719 440.808C791.119 440.808 790.519 440.748 789.919 440.628C789.295 440.796 788.731 441.048 788.227 441.384C787.723 441.696 787.471 442.14 787.471 442.716C787.471 443.268 787.735 443.64 788.263 443.832C788.791 444.024 789.475 444.12 790.315 444.12H794.275C796.579 444.12 798.247 444.564 799.279 445.452C800.335 446.316 800.863 447.516 800.863 449.052ZM798.163 449.268C798.163 448.524 797.875 447.924 797.299 447.468C796.747 447.036 795.751 446.82 794.311 446.82H788.119C786.967 447.348 786.391 448.188 786.391 449.34C786.391 450.156 786.691 450.852 787.291 451.428C787.915 452.004 788.959 452.292 790.423 452.292H793.087C794.695 452.292 795.943 452.04 796.831 451.536C797.719 451.032 798.163 450.276 798.163 449.268ZM791.719 438.504C792.943 438.504 793.915 438.216 794.635 437.64C795.355 437.04 795.715 436.128 795.715 434.904V433.896C795.715 432.672 795.355 431.772 794.635 431.196C793.915 430.596 792.943 430.296 791.719 430.296C790.495 430.296 789.523 430.596 788.803 431.196C788.083 431.772 787.723 432.672 787.723 433.896V434.904C787.723 436.128 788.083 437.04 788.803 437.64C789.523 438.216 790.495 438.504 791.719 438.504ZM810.995 447.432C809.723 447.432 808.571 447.204 807.539 446.748C806.531 446.292 805.655 445.644 804.911 444.804C804.191 443.94 803.627 442.92 803.219 441.744C802.835 440.544 802.643 439.2 802.643 437.712C802.643 436.248 802.835 434.916 803.219 433.716C803.627 432.516 804.191 431.496 804.911 430.656C805.655 429.792 806.531 429.132 807.539 428.676C808.571 428.22 809.723 427.992 810.995 427.992C812.243 427.992 813.359 428.22 814.343 428.676C815.327 429.132 816.167 429.768 816.863 430.584C817.559 431.376 818.087 432.324 818.447 433.428C818.831 434.532 819.023 435.744 819.023 437.064V438.432H805.667V439.296C805.667 440.088 805.787 440.832 806.027 441.528C806.291 442.2 806.651 442.788 807.107 443.292C807.587 443.796 808.163 444.192 808.835 444.48C809.531 444.768 810.311 444.912 811.175 444.912C812.351 444.912 813.371 444.636 814.235 444.084C815.123 443.532 815.807 442.74 816.287 441.708L818.339 443.184C817.739 444.456 816.803 445.488 815.531 446.28C814.259 447.048 812.747 447.432 810.995 447.432ZM810.995 430.404C810.203 430.404 809.483 430.548 808.835 430.836C808.187 431.1 807.623 431.484 807.143 431.988C806.687 432.492 806.327 433.092 806.063 433.788C805.799 434.46 805.667 435.204 805.667 436.02V436.272H815.927V435.876C815.927 434.22 815.471 432.9 814.559 431.916C813.671 430.908 812.483 430.404 810.995 430.404Z" fill="black"/>
    <path d="M427.727 200.384C426.191 200.384 424.9 200.096 423.855 199.52C422.831 198.923 421.946 198.133 421.199 197.152L423.023 195.68C423.663 196.491 424.378 197.12 425.167 197.568C425.956 197.995 426.874 198.208 427.919 198.208C429.007 198.208 429.85 197.973 430.447 197.504C431.066 197.035 431.375 196.373 431.375 195.52C431.375 194.88 431.162 194.336 430.735 193.888C430.33 193.419 429.583 193.099 428.495 192.928L427.183 192.736C426.415 192.629 425.711 192.469 425.071 192.256C424.431 192.021 423.866 191.723 423.375 191.36C422.906 190.976 422.532 190.507 422.255 189.952C421.999 189.397 421.871 188.736 421.871 187.968C421.871 187.157 422.02 186.453 422.319 185.856C422.618 185.237 423.023 184.725 423.535 184.32C424.068 183.915 424.698 183.616 425.423 183.424C426.148 183.211 426.927 183.104 427.759 183.104C429.103 183.104 430.223 183.339 431.119 183.808C432.036 184.277 432.836 184.928 433.519 185.76L431.823 187.296C431.46 186.784 430.927 186.325 430.223 185.92C429.519 185.493 428.634 185.28 427.567 185.28C426.5 185.28 425.69 185.515 425.135 185.984C424.602 186.432 424.335 187.051 424.335 187.84C424.335 188.651 424.602 189.237 425.135 189.6C425.69 189.963 426.479 190.229 427.503 190.4L428.783 190.592C430.618 190.869 431.919 191.403 432.687 192.192C433.455 192.96 433.839 193.973 433.839 195.232C433.839 196.832 433.295 198.091 432.207 199.008C431.119 199.925 429.626 200.384 427.727 200.384ZM444.569 200.384C443.438 200.384 442.414 200.181 441.497 199.776C440.601 199.371 439.822 198.795 439.161 198.048C438.521 197.28 438.019 196.373 437.657 195.328C437.315 194.261 437.145 193.067 437.145 191.744C437.145 190.443 437.315 189.259 437.657 188.192C438.019 187.125 438.521 186.219 439.161 185.472C439.822 184.704 440.601 184.117 441.497 183.712C442.414 183.307 443.438 183.104 444.569 183.104C445.678 183.104 446.67 183.307 447.545 183.712C448.419 184.117 449.166 184.683 449.785 185.408C450.403 186.112 450.873 186.955 451.193 187.936C451.534 188.917 451.705 189.995 451.705 191.168V192.384H439.833V193.152C439.833 193.856 439.939 194.517 440.153 195.136C440.387 195.733 440.707 196.256 441.113 196.704C441.539 197.152 442.051 197.504 442.649 197.76C443.267 198.016 443.961 198.144 444.729 198.144C445.774 198.144 446.681 197.899 447.449 197.408C448.238 196.917 448.846 196.213 449.273 195.296L451.097 196.608C450.563 197.739 449.731 198.656 448.601 199.36C447.47 200.043 446.126 200.384 444.569 200.384ZM444.569 185.248C443.865 185.248 443.225 185.376 442.649 185.632C442.073 185.867 441.571 186.208 441.145 186.656C440.739 187.104 440.419 187.637 440.185 188.256C439.95 188.853 439.833 189.515 439.833 190.24V190.464H448.953V190.112C448.953 188.64 448.547 187.467 447.737 186.592C446.947 185.696 445.891 185.248 444.569 185.248ZM460.883 200.384C459.347 200.384 458.056 200.096 457.011 199.52C455.987 198.923 455.102 198.133 454.355 197.152L456.179 195.68C456.819 196.491 457.534 197.12 458.323 197.568C459.112 197.995 460.03 198.208 461.075 198.208C462.163 198.208 463.006 197.973 463.603 197.504C464.222 197.035 464.531 196.373 464.531 195.52C464.531 194.88 464.318 194.336 463.891 193.888C463.486 193.419 462.739 193.099 461.651 192.928L460.339 192.736C459.571 192.629 458.867 192.469 458.227 192.256C457.587 192.021 457.022 191.723 456.531 191.36C456.062 190.976 455.688 190.507 455.411 189.952C455.155 189.397 455.027 188.736 455.027 187.968C455.027 187.157 455.176 186.453 455.475 185.856C455.774 185.237 456.179 184.725 456.691 184.32C457.224 183.915 457.854 183.616 458.579 183.424C459.304 183.211 460.083 183.104 460.915 183.104C462.259 183.104 463.379 183.339 464.275 183.808C465.192 184.277 465.992 184.928 466.675 185.76L464.979 187.296C464.616 186.784 464.083 186.325 463.379 185.92C462.675 185.493 461.79 185.28 460.723 185.28C459.656 185.28 458.846 185.515 458.291 185.984C457.758 186.432 457.491 187.051 457.491 187.84C457.491 188.651 457.758 189.237 458.291 189.6C458.846 189.963 459.635 190.229 460.659 190.4L461.939 190.592C463.774 190.869 465.075 191.403 465.843 192.192C466.611 192.96 466.995 193.973 466.995 195.232C466.995 196.832 466.451 198.091 465.363 199.008C464.275 199.925 462.782 200.384 460.883 200.384ZM476.289 200.384C474.753 200.384 473.463 200.096 472.417 199.52C471.393 198.923 470.508 198.133 469.761 197.152L471.585 195.68C472.225 196.491 472.94 197.12 473.729 197.568C474.519 197.995 475.436 198.208 476.481 198.208C477.569 198.208 478.412 197.973 479.009 197.504C479.628 197.035 479.937 196.373 479.937 195.52C479.937 194.88 479.724 194.336 479.297 193.888C478.892 193.419 478.145 193.099 477.057 192.928L475.745 192.736C474.977 192.629 474.273 192.469 473.633 192.256C472.993 192.021 472.428 191.723 471.937 191.36C471.468 190.976 471.095 190.507 470.817 189.952C470.561 189.397 470.433 188.736 470.433 187.968C470.433 187.157 470.583 186.453 470.881 185.856C471.18 185.237 471.585 184.725 472.097 184.32C472.631 183.915 473.26 183.616 473.985 183.424C474.711 183.211 475.489 183.104 476.321 183.104C477.665 183.104 478.785 183.339 479.681 183.808C480.599 184.277 481.399 184.928 482.081 185.76L480.385 187.296C480.023 186.784 479.489 186.325 478.785 185.92C478.081 185.493 477.196 185.28 476.129 185.28C475.063 185.28 474.252 185.515 473.697 185.984C473.164 186.432 472.897 187.051 472.897 187.84C472.897 188.651 473.164 189.237 473.697 189.6C474.252 189.963 475.041 190.229 476.065 190.4L477.345 190.592C479.18 190.869 480.481 191.403 481.249 192.192C482.017 192.96 482.401 193.973 482.401 195.232C482.401 196.832 481.857 198.091 480.769 199.008C479.681 199.925 478.188 200.384 476.289 200.384ZM488.203 179.616C487.648 179.616 487.243 179.488 486.987 179.232C486.752 178.955 486.635 178.603 486.635 178.176V177.76C486.635 177.333 486.752 176.992 486.987 176.736C487.243 176.459 487.648 176.32 488.203 176.32C488.758 176.32 489.152 176.459 489.387 176.736C489.643 176.992 489.771 177.333 489.771 177.76V178.176C489.771 178.603 489.643 178.955 489.387 179.232C489.152 179.488 488.758 179.616 488.203 179.616ZM486.923 183.488H489.483V200H486.923V183.488ZM501.163 200.384C500.054 200.384 499.04 200.181 498.123 199.776C497.206 199.371 496.416 198.795 495.755 198.048C495.115 197.28 494.614 196.373 494.251 195.328C493.888 194.261 493.707 193.067 493.707 191.744C493.707 190.443 493.888 189.259 494.251 188.192C494.614 187.125 495.115 186.219 495.755 185.472C496.416 184.704 497.206 184.117 498.123 183.712C499.04 183.307 500.054 183.104 501.163 183.104C502.272 183.104 503.275 183.307 504.171 183.712C505.088 184.117 505.878 184.704 506.539 185.472C507.2 186.219 507.712 187.125 508.075 188.192C508.438 189.259 508.619 190.443 508.619 191.744C508.619 193.067 508.438 194.261 508.075 195.328C507.712 196.373 507.2 197.28 506.539 198.048C505.878 198.795 505.088 199.371 504.171 199.776C503.275 200.181 502.272 200.384 501.163 200.384ZM501.163 198.112C502.55 198.112 503.68 197.685 504.555 196.832C505.43 195.979 505.867 194.677 505.867 192.928V190.56C505.867 188.811 505.43 187.509 504.555 186.656C503.68 185.803 502.55 185.376 501.163 185.376C499.776 185.376 498.646 185.803 497.771 186.656C496.896 187.509 496.459 188.811 496.459 190.56V192.928C496.459 194.677 496.896 195.979 497.771 196.832C498.646 197.685 499.776 198.112 501.163 198.112ZM512.829 200V183.488H515.389V186.176H515.517C515.923 185.237 516.488 184.491 517.213 183.936C517.96 183.381 518.952 183.104 520.189 183.104C521.896 183.104 523.24 183.659 524.221 184.768C525.224 185.856 525.725 187.403 525.725 189.408V200H523.165V189.856C523.165 186.891 521.917 185.408 519.421 185.408C518.909 185.408 518.408 185.472 517.917 185.6C517.448 185.728 517.021 185.92 516.637 186.176C516.253 186.432 515.944 186.763 515.709 187.168C515.496 187.552 515.389 188.011 515.389 188.544V200H512.829ZM529.257 205.28V203.04H545.417V205.28H529.257ZM550.391 179.616C549.836 179.616 549.431 179.488 549.175 179.232C548.94 178.955 548.823 178.603 548.823 178.176V177.76C548.823 177.333 548.94 176.992 549.175 176.736C549.431 176.459 549.836 176.32 550.391 176.32C550.945 176.32 551.34 176.459 551.575 176.736C551.831 176.992 551.959 177.333 551.959 177.76V178.176C551.959 178.603 551.831 178.955 551.575 179.232C551.34 179.488 550.945 179.616 550.391 179.616ZM549.111 183.488H551.671V200H549.111V183.488ZM567.671 197.312H567.543C566.54 199.36 564.929 200.384 562.711 200.384C561.687 200.384 560.759 200.181 559.927 199.776C559.095 199.371 558.38 198.795 557.783 198.048C557.207 197.301 556.759 196.395 556.439 195.328C556.14 194.261 555.991 193.067 555.991 191.744C555.991 190.421 556.14 189.227 556.439 188.16C556.759 187.093 557.207 186.187 557.783 185.44C558.38 184.693 559.095 184.117 559.927 183.712C560.759 183.307 561.687 183.104 562.711 183.104C563.863 183.104 564.844 183.36 565.655 183.872C566.487 184.363 567.116 185.131 567.543 186.176H567.671V176.32H570.231V200H567.671V197.312ZM563.415 198.08C563.991 198.08 564.535 198.005 565.047 197.856C565.58 197.707 566.039 197.493 566.423 197.216C566.807 196.917 567.105 196.565 567.319 196.16C567.553 195.733 567.671 195.253 567.671 194.72V188.576C567.671 188.128 567.553 187.712 567.319 187.328C567.105 186.923 566.807 186.581 566.423 186.304C566.039 186.027 565.58 185.813 565.047 185.664C564.535 185.493 563.991 185.408 563.415 185.408C561.964 185.408 560.823 185.867 559.991 186.784C559.159 187.68 558.743 188.864 558.743 190.336V193.152C558.743 194.624 559.159 195.819 559.991 196.736C560.823 197.632 561.964 198.08 563.415 198.08ZM441.359 232.016C441.359 230.48 441.508 228.997 441.807 227.568C442.106 226.139 442.511 224.816 443.023 223.6C443.556 222.363 444.175 221.243 444.879 220.24C445.583 219.237 446.34 218.384 447.151 217.68H449.583C448.687 218.491 447.876 219.408 447.151 220.432C446.447 221.456 445.839 222.544 445.327 223.696C444.836 224.848 444.452 226.021 444.175 227.216C443.898 228.411 443.759 229.563 443.759 230.672V233.424C443.759 234.555 443.898 235.717 444.175 236.912C444.452 238.107 444.847 239.28 445.359 240.432C445.871 241.584 446.479 242.672 447.183 243.696C447.908 244.72 448.708 245.616 449.583 246.384H447.151C446.362 245.723 445.615 244.891 444.911 243.888C444.207 242.885 443.588 241.765 443.055 240.528C442.543 239.291 442.127 237.957 441.807 236.528C441.508 235.077 441.359 233.573 441.359 232.016ZM458.286 242.384C457.134 242.384 456.099 242.181 455.182 241.776C454.265 241.371 453.486 240.795 452.846 240.048C452.227 239.301 451.747 238.395 451.406 237.328C451.086 236.261 450.926 235.067 450.926 233.744C450.926 232.421 451.086 231.227 451.406 230.16C451.747 229.093 452.227 228.187 452.846 227.44C453.486 226.693 454.265 226.117 455.182 225.712C456.099 225.307 457.134 225.104 458.286 225.104C459.929 225.104 461.241 225.467 462.222 226.192C463.225 226.896 463.971 227.824 464.462 228.976L462.318 230.064C462.019 229.211 461.529 228.549 460.846 228.08C460.163 227.611 459.31 227.376 458.286 227.376C457.518 227.376 456.846 227.504 456.27 227.76C455.694 227.995 455.214 228.336 454.83 228.784C454.446 229.211 454.158 229.733 453.966 230.352C453.774 230.949 453.678 231.611 453.678 232.336V235.152C453.678 236.603 454.062 237.797 454.83 238.736C455.619 239.653 456.771 240.112 458.286 240.112C460.355 240.112 461.849 239.152 462.766 237.232L464.622 238.48C464.089 239.675 463.289 240.624 462.222 241.328C461.177 242.032 459.865 242.384 458.286 242.384ZM474.288 242.384C473.179 242.384 472.165 242.181 471.248 241.776C470.331 241.371 469.541 240.795 468.88 240.048C468.24 239.28 467.739 238.373 467.376 237.328C467.013 236.261 466.832 235.067 466.832 233.744C466.832 232.443 467.013 231.259 467.376 230.192C467.739 229.125 468.24 228.219 468.88 227.472C469.541 226.704 470.331 226.117 471.248 225.712C472.165 225.307 473.179 225.104 474.288 225.104C475.397 225.104 476.4 225.307 477.296 225.712C478.213 226.117 479.003 226.704 479.664 227.472C480.325 228.219 480.837 229.125 481.2 230.192C481.563 231.259 481.744 232.443 481.744 233.744C481.744 235.067 481.563 236.261 481.2 237.328C480.837 238.373 480.325 239.28 479.664 240.048C479.003 240.795 478.213 241.371 477.296 241.776C476.4 242.181 475.397 242.384 474.288 242.384ZM474.288 240.112C475.675 240.112 476.805 239.685 477.68 238.832C478.555 237.979 478.992 236.677 478.992 234.928V232.56C478.992 230.811 478.555 229.509 477.68 228.656C476.805 227.803 475.675 227.376 474.288 227.376C472.901 227.376 471.771 227.803 470.896 228.656C470.021 229.509 469.584 230.811 469.584 232.56V234.928C469.584 236.677 470.021 237.979 470.896 238.832C471.771 239.685 472.901 240.112 474.288 240.112ZM492.194 242.384C491.085 242.384 490.072 242.181 489.154 241.776C488.237 241.371 487.448 240.795 486.786 240.048C486.146 239.28 485.645 238.373 485.282 237.328C484.92 236.261 484.738 235.067 484.738 233.744C484.738 232.443 484.92 231.259 485.282 230.192C485.645 229.125 486.146 228.219 486.786 227.472C487.448 226.704 488.237 226.117 489.154 225.712C490.072 225.307 491.085 225.104 492.194 225.104C493.304 225.104 494.306 225.307 495.202 225.712C496.12 226.117 496.909 226.704 497.57 227.472C498.232 228.219 498.744 229.125 499.106 230.192C499.469 231.259 499.65 232.443 499.65 233.744C499.65 235.067 499.469 236.261 499.106 237.328C498.744 238.373 498.232 239.28 497.57 240.048C496.909 240.795 496.12 241.371 495.202 241.776C494.306 242.181 493.304 242.384 492.194 242.384ZM492.194 240.112C493.581 240.112 494.712 239.685 495.586 238.832C496.461 237.979 496.898 236.677 496.898 234.928V232.56C496.898 230.811 496.461 229.509 495.586 228.656C494.712 227.803 493.581 227.376 492.194 227.376C490.808 227.376 489.677 227.803 488.802 228.656C487.928 229.509 487.49 230.811 487.49 232.56V234.928C487.49 236.677 487.928 237.979 488.802 238.832C489.677 239.685 490.808 240.112 492.194 240.112ZM503.861 218.32H506.421V233.328H506.549L509.077 230.512L513.749 225.488H516.853L510.741 232.016L517.461 242H514.357L508.885 233.584L506.421 236.112V242H503.861V218.32ZM522.016 221.616C521.461 221.616 521.056 221.488 520.8 221.232C520.565 220.955 520.448 220.603 520.448 220.176V219.76C520.448 219.333 520.565 218.992 520.8 218.736C521.056 218.459 521.461 218.32 522.016 218.32C522.57 218.32 522.965 218.459 523.2 218.736C523.456 218.992 523.584 219.333 523.584 219.76V220.176C523.584 220.603 523.456 220.955 523.2 221.232C522.965 221.488 522.57 221.616 522.016 221.616ZM520.736 225.488H523.296V242H520.736V225.488ZM534.944 242.384C533.813 242.384 532.789 242.181 531.872 241.776C530.976 241.371 530.197 240.795 529.536 240.048C528.896 239.28 528.394 238.373 528.032 237.328C527.69 236.261 527.52 235.067 527.52 233.744C527.52 232.443 527.69 231.259 528.032 230.192C528.394 229.125 528.896 228.219 529.536 227.472C530.197 226.704 530.976 226.117 531.872 225.712C532.789 225.307 533.813 225.104 534.944 225.104C536.053 225.104 537.045 225.307 537.92 225.712C538.794 226.117 539.541 226.683 540.16 227.408C540.778 228.112 541.248 228.955 541.568 229.936C541.909 230.917 542.08 231.995 542.08 233.168V234.384H530.208V235.152C530.208 235.856 530.314 236.517 530.528 237.136C530.762 237.733 531.082 238.256 531.488 238.704C531.914 239.152 532.426 239.504 533.024 239.76C533.642 240.016 534.336 240.144 535.104 240.144C536.149 240.144 537.056 239.899 537.824 239.408C538.613 238.917 539.221 238.213 539.648 237.296L541.472 238.608C540.938 239.739 540.106 240.656 538.976 241.36C537.845 242.043 536.501 242.384 534.944 242.384ZM534.944 227.248C534.24 227.248 533.6 227.376 533.024 227.632C532.448 227.867 531.946 228.208 531.52 228.656C531.114 229.104 530.794 229.637 530.56 230.256C530.325 230.853 530.208 231.515 530.208 232.24V232.464H539.328V232.112C539.328 230.64 538.922 229.467 538.112 228.592C537.322 227.696 536.266 227.248 534.944 227.248ZM551.642 232.016C551.642 233.573 551.482 235.077 551.162 236.528C550.863 237.957 550.447 239.291 549.914 240.528C549.402 241.765 548.794 242.885 548.09 243.888C547.386 244.891 546.639 245.723 545.85 246.384H543.418C544.293 245.616 545.082 244.72 545.786 243.696C546.511 242.672 547.13 241.584 547.642 240.432C548.154 239.28 548.549 238.107 548.826 236.912C549.103 235.717 549.242 234.555 549.242 233.424V230.672C549.242 229.563 549.103 228.411 548.826 227.216C548.549 226.021 548.154 224.848 547.642 223.696C547.151 222.544 546.543 221.456 545.818 220.432C545.114 219.408 544.314 218.491 543.418 217.68H545.85C546.661 218.384 547.418 219.237 548.122 220.24C548.826 221.243 549.434 222.363 549.946 223.6C550.479 224.816 550.895 226.139 551.194 227.568C551.493 228.997 551.642 230.48 551.642 232.016Z" fill="black"/>
    <path d="M465.661 50.384C464.509 50.384 463.474 50.1813 462.557 49.776C461.64 49.3707 460.861 48.7947 460.221 48.048C459.602 47.3013 459.122 46.3947 458.781 45.328C458.461 44.2613 458.301 43.0667 458.301 41.744C458.301 40.4213 458.461 39.2267 458.781 38.16C459.122 37.0933 459.602 36.1867 460.221 35.44C460.861 34.6933 461.64 34.1173 462.557 33.712C463.474 33.3067 464.509 33.104 465.661 33.104C467.304 33.104 468.616 33.4667 469.597 34.192C470.6 34.896 471.346 35.824 471.837 36.976L469.693 38.064C469.394 37.2107 468.904 36.5493 468.221 36.08C467.538 35.6107 466.685 35.376 465.661 35.376C464.893 35.376 464.221 35.504 463.645 35.76C463.069 35.9947 462.589 36.336 462.205 36.784C461.821 37.2107 461.533 37.7333 461.341 38.352C461.149 38.9493 461.053 39.6107 461.053 40.336V43.152C461.053 44.6027 461.437 45.7973 462.205 46.736C462.994 47.6533 464.146 48.112 465.661 48.112C467.73 48.112 469.224 47.152 470.141 45.232L471.997 46.48C471.464 47.6747 470.664 48.624 469.597 49.328C468.552 50.032 467.24 50.384 465.661 50.384ZM475.611 50V33.488H478.171V36.528H478.331C478.629 35.7387 479.163 35.0347 479.931 34.416C480.699 33.7973 481.755 33.488 483.099 33.488H484.091V36.048H482.587C481.2 36.048 480.112 36.3147 479.323 36.848C478.555 37.36 478.171 38.0107 478.171 38.8V50H475.611ZM493.412 50.384C492.282 50.384 491.258 50.1813 490.34 49.776C489.444 49.3707 488.666 48.7947 488.004 48.048C487.364 47.28 486.863 46.3733 486.5 45.328C486.159 44.2613 485.988 43.0667 485.988 41.744C485.988 40.4427 486.159 39.2587 486.5 38.192C486.863 37.1253 487.364 36.2187 488.004 35.472C488.666 34.704 489.444 34.1173 490.34 33.712C491.258 33.3067 492.282 33.104 493.412 33.104C494.522 33.104 495.514 33.3067 496.388 33.712C497.263 34.1173 498.01 34.6827 498.628 35.408C499.247 36.112 499.716 36.9547 500.036 37.936C500.378 38.9173 500.548 39.9947 500.548 41.168V42.384H488.676V43.152C488.676 43.856 488.783 44.5173 488.996 45.136C489.231 45.7333 489.551 46.256 489.956 46.704C490.383 47.152 490.895 47.504 491.492 47.76C492.111 48.016 492.804 48.144 493.572 48.144C494.618 48.144 495.524 47.8987 496.292 47.408C497.082 46.9173 497.69 46.2133 498.116 45.296L499.94 46.608C499.407 47.7387 498.575 48.656 497.444 49.36C496.314 50.0427 494.97 50.384 493.412 50.384ZM493.412 35.248C492.708 35.248 492.068 35.376 491.492 35.632C490.916 35.8667 490.415 36.208 489.988 36.656C489.583 37.104 489.263 37.6373 489.028 38.256C488.794 38.8533 488.676 39.5147 488.676 40.24V40.464H497.796V40.112C497.796 38.64 497.391 37.4667 496.58 36.592C495.791 35.696 494.735 35.248 493.412 35.248ZM515.327 47.312H515.199C514.196 49.36 512.586 50.384 510.367 50.384C509.343 50.384 508.415 50.1813 507.583 49.776C506.751 49.3707 506.036 48.7947 505.439 48.048C504.863 47.3013 504.415 46.3947 504.095 45.328C503.796 44.2613 503.647 43.0667 503.647 41.744C503.647 40.4213 503.796 39.2267 504.095 38.16C504.415 37.0933 504.863 36.1867 505.439 35.44C506.036 34.6933 506.751 34.1173 507.583 33.712C508.415 33.3067 509.343 33.104 510.367 33.104C511.519 33.104 512.5 33.36 513.311 33.872C514.143 34.3627 514.772 35.1307 515.199 36.176H515.327V26.32H517.887V50H515.327V47.312ZM511.071 48.08C511.647 48.08 512.191 48.0053 512.703 47.856C513.236 47.7067 513.695 47.4933 514.079 47.216C514.463 46.9173 514.762 46.5653 514.975 46.16C515.21 45.7333 515.327 45.2533 515.327 44.72V38.576C515.327 38.128 515.21 37.712 514.975 37.328C514.762 36.9227 514.463 36.5813 514.079 36.304C513.695 36.0267 513.236 35.8133 512.703 35.664C512.191 35.4933 511.647 35.408 511.071 35.408C509.62 35.408 508.479 35.8667 507.647 36.784C506.815 37.68 506.399 38.864 506.399 40.336V43.152C506.399 44.624 506.815 45.8187 507.647 46.736C508.479 47.632 509.62 48.08 511.071 48.08ZM528.289 50.384C526.753 50.384 525.463 50.096 524.417 49.52C523.393 48.9227 522.508 48.1333 521.761 47.152L523.585 45.68C524.225 46.4907 524.94 47.12 525.729 47.568C526.519 47.9947 527.436 48.208 528.481 48.208C529.569 48.208 530.412 47.9733 531.009 47.504C531.628 47.0347 531.937 46.3733 531.937 45.52C531.937 44.88 531.724 44.336 531.297 43.888C530.892 43.4187 530.145 43.0987 529.057 42.928L527.745 42.736C526.977 42.6293 526.273 42.4693 525.633 42.256C524.993 42.0213 524.428 41.7227 523.937 41.36C523.468 40.976 523.095 40.5067 522.817 39.952C522.561 39.3973 522.433 38.736 522.433 37.968C522.433 37.1573 522.583 36.4533 522.881 35.856C523.18 35.2373 523.585 34.7253 524.097 34.32C524.631 33.9147 525.26 33.616 525.985 33.424C526.711 33.2107 527.489 33.104 528.321 33.104C529.665 33.104 530.785 33.3387 531.681 33.808C532.599 34.2773 533.399 34.928 534.081 35.76L532.385 37.296C532.023 36.784 531.489 36.3253 530.785 35.92C530.081 35.4933 529.196 35.28 528.129 35.28C527.063 35.28 526.252 35.5147 525.697 35.984C525.164 36.432 524.897 37.0507 524.897 37.84C524.897 38.6507 525.164 39.2373 525.697 39.6C526.252 39.9627 527.041 40.2293 528.065 40.4L529.345 40.592C531.18 40.8693 532.481 41.4027 533.249 42.192C534.017 42.96 534.401 43.9733 534.401 45.232C534.401 46.832 533.857 48.0907 532.769 49.008C531.681 49.9253 530.188 50.384 528.289 50.384Z" fill="black"/>
    <path d="M765.939 342.061C766.525 342.646 767.475 342.646 768.061 342.061L777.607 332.515C778.192 331.929 778.192 330.979 777.607 330.393C777.021 329.808 776.071 329.808 775.485 330.393L767 338.879L758.515 330.393C757.929 329.808 756.979 329.808 756.393 330.393C755.808 330.979 755.808 331.929 756.393 332.515L765.939 342.061ZM765.5 225V341H768.5V225H765.5Z" fill="#9673A6"/>
    <path d="M369.939 155.939C369.354 156.525 369.354 157.475 369.939 158.061L379.485 167.607C380.071 168.192 381.021 168.192 381.607 167.607C382.192 167.021 382.192 166.071 381.607 165.485L373.121 157L381.607 148.515C382.192 147.929 382.192 146.979 381.607 146.393C381.021 145.808 380.071 145.808 379.485 146.393L369.939 155.939ZM623 155.5L371 155.5L371 158.5L623 158.5L623 155.5Z" fill="#9673A6"/>
    <path d="M623.061 70.0607C623.646 69.4749 623.646 68.5251 623.061 67.9393L613.515 58.3934C612.929 57.8076 611.979 57.8076 611.393 58.3934C610.808 58.9792 610.808 59.9289 611.393 60.5147L619.879 69L611.393 77.4853C610.808 78.0711 610.808 79.0208 611.393 79.6066C611.979 80.1924 612.929 80.1924 613.515 79.6066L623.061 70.0607ZM370 70.5L622 70.5L622 67.5L370 67.5L370 70.5Z" fill="#209B1D"/>
    <rect x="1" y="1" width="368" height="224" rx="19.7568" fill="#E1F8E1" stroke="#209B1D" stroke-width="2"/>
    <path d="M113.348 94.872H123.68C125.768 94.872 127.4 95.46 128.576 96.636C129.776 97.812 130.376 99.384 130.376 101.352C130.376 102.288 130.244 103.08 129.98 103.728C129.716 104.376 129.38 104.916 128.972 105.348C128.564 105.756 128.12 106.068 127.64 106.284C127.16 106.476 126.716 106.608 126.308 106.68V106.896C126.764 106.92 127.268 107.04 127.82 107.256C128.396 107.472 128.936 107.82 129.44 108.3C129.944 108.756 130.364 109.356 130.7 110.1C131.06 110.82 131.24 111.696 131.24 112.728C131.24 113.76 131.072 114.72 130.736 115.608C130.424 116.496 129.98 117.264 129.404 117.912C128.828 118.56 128.144 119.076 127.352 119.46C126.56 119.82 125.696 120 124.76 120H113.348V94.872ZM116.372 117.336H123.824C125.12 117.336 126.14 117.012 126.884 116.364C127.628 115.692 128 114.72 128 113.448V112.224C128 110.952 127.628 109.992 126.884 109.344C126.14 108.672 125.12 108.336 123.824 108.336H116.372V117.336ZM116.372 105.744H123.32C124.52 105.744 125.456 105.444 126.128 104.844C126.8 104.244 127.136 103.38 127.136 102.252V101.028C127.136 99.9 126.8 99.036 126.128 98.436C125.456 97.836 124.52 97.536 123.32 97.536H116.372V105.744ZM136.58 120V101.424H139.46V104.844H139.64C139.976 103.956 140.576 103.164 141.44 102.468C142.304 101.772 143.492 101.424 145.004 101.424H146.12V104.304H144.428C142.868 104.304 141.644 104.604 140.756 105.204C139.892 105.78 139.46 106.512 139.46 107.4V120H136.58ZM156.643 120.432C155.395 120.432 154.255 120.204 153.223 119.748C152.191 119.292 151.303 118.644 150.559 117.804C149.839 116.94 149.275 115.92 148.867 114.744C148.459 113.544 148.255 112.2 148.255 110.712C148.255 109.248 148.459 107.916 148.867 106.716C149.275 105.516 149.839 104.496 150.559 103.656C151.303 102.792 152.191 102.132 153.223 101.676C154.255 101.22 155.395 100.992 156.643 100.992C157.891 100.992 159.019 101.22 160.027 101.676C161.059 102.132 161.947 102.792 162.691 103.656C163.435 104.496 164.011 105.516 164.419 106.716C164.827 107.916 165.031 109.248 165.031 110.712C165.031 112.2 164.827 113.544 164.419 114.744C164.011 115.92 163.435 116.94 162.691 117.804C161.947 118.644 161.059 119.292 160.027 119.748C159.019 120.204 157.891 120.432 156.643 120.432ZM156.643 117.876C158.203 117.876 159.475 117.396 160.459 116.436C161.443 115.476 161.935 114.012 161.935 112.044V109.38C161.935 107.412 161.443 105.948 160.459 104.988C159.475 104.028 158.203 103.548 156.643 103.548C155.083 103.548 153.811 104.028 152.827 104.988C151.843 105.948 151.351 107.412 151.351 109.38V112.044C151.351 114.012 151.843 115.476 152.827 116.436C153.811 117.396 155.083 117.876 156.643 117.876ZM167.647 101.424H170.455L172.435 109.452L174.415 117.588H174.487L176.755 109.452L179.095 101.424H181.651L184.063 109.452L186.367 117.588H186.439L188.347 109.452L190.363 101.424H193.063L188.131 120H184.567L181.975 111.072L180.355 105.42H180.283L178.699 111.072L176.107 120H172.615L167.647 101.424ZM202.734 120.432C201.006 120.432 199.554 120.108 198.378 119.46C197.226 118.788 196.23 117.9 195.39 116.796L197.442 115.14C198.162 116.052 198.966 116.76 199.854 117.264C200.742 117.744 201.774 117.984 202.95 117.984C204.174 117.984 205.122 117.72 205.794 117.192C206.49 116.664 206.838 115.92 206.838 114.96C206.838 114.24 206.598 113.628 206.118 113.124C205.662 112.596 204.822 112.236 203.598 112.044L202.122 111.828C201.258 111.708 200.466 111.528 199.746 111.288C199.026 111.024 198.39 110.688 197.838 110.28C197.31 109.848 196.89 109.32 196.578 108.696C196.29 108.072 196.146 107.328 196.146 106.464C196.146 105.552 196.314 104.76 196.65 104.088C196.986 103.392 197.442 102.816 198.018 102.36C198.618 101.904 199.326 101.568 200.142 101.352C200.958 101.112 201.834 100.992 202.77 100.992C204.282 100.992 205.542 101.256 206.55 101.784C207.582 102.312 208.482 103.044 209.25 103.98L207.342 105.708C206.934 105.132 206.334 104.616 205.542 104.16C204.75 103.68 203.754 103.44 202.554 103.44C201.354 103.44 200.442 103.704 199.818 104.232C199.218 104.736 198.918 105.432 198.918 106.32C198.918 107.232 199.218 107.892 199.818 108.3C200.442 108.708 201.33 109.008 202.482 109.2L203.922 109.416C205.986 109.728 207.45 110.328 208.314 111.216C209.178 112.08 209.61 113.22 209.61 114.636C209.61 116.436 208.998 117.852 207.774 118.884C206.55 119.916 204.87 120.432 202.734 120.432ZM221.681 120.432C220.409 120.432 219.257 120.204 218.225 119.748C217.217 119.292 216.341 118.644 215.597 117.804C214.877 116.94 214.313 115.92 213.905 114.744C213.521 113.544 213.329 112.2 213.329 110.712C213.329 109.248 213.521 107.916 213.905 106.716C214.313 105.516 214.877 104.496 215.597 103.656C216.341 102.792 217.217 102.132 218.225 101.676C219.257 101.22 220.409 100.992 221.681 100.992C222.929 100.992 224.045 101.22 225.029 101.676C226.013 102.132 226.853 102.768 227.549 103.584C228.245 104.376 228.773 105.324 229.133 106.428C229.517 107.532 229.709 108.744 229.709 110.064V111.432H216.353V112.296C216.353 113.088 216.473 113.832 216.713 114.528C216.977 115.2 217.337 115.788 217.793 116.292C218.273 116.796 218.849 117.192 219.521 117.48C220.217 117.768 220.997 117.912 221.861 117.912C223.037 117.912 224.057 117.636 224.921 117.084C225.809 116.532 226.493 115.74 226.973 114.708L229.025 116.184C228.425 117.456 227.489 118.488 226.217 119.28C224.945 120.048 223.433 120.432 221.681 120.432ZM221.681 103.404C220.889 103.404 220.169 103.548 219.521 103.836C218.873 104.1 218.309 104.484 217.829 104.988C217.373 105.492 217.013 106.092 216.749 106.788C216.485 107.46 216.353 108.204 216.353 109.02V109.272H226.613V108.876C226.613 107.22 226.157 105.9 225.245 104.916C224.357 103.908 223.169 103.404 221.681 103.404ZM234.455 120V101.424H237.335V104.844H237.515C237.851 103.956 238.451 103.164 239.315 102.468C240.179 101.772 241.367 101.424 242.879 101.424H243.995V104.304H242.303C240.743 104.304 239.519 104.604 238.631 105.204C237.767 105.78 237.335 106.512 237.335 107.4V120H234.455Z" fill="black"/>
</svg>
