<svg width="1368" height="397" viewBox="0 0 1368 397" fill="none" xmlns="http://www.w3.org/2000/svg">
<rect x="523" y="45" width="319" height="140" rx="11" fill="#E1F8E1" stroke="#209B1D" stroke-width="2"/>
<path d="M49.6156 99.872H67.8676V125H64.8436V102.536H52.6396V125H49.6156V99.872ZM81.3085 125.432C80.0605 125.432 78.9205 125.204 77.8885 124.748C76.8565 124.292 75.9685 123.644 75.2245 122.804C74.5045 121.94 73.9405 120.92 73.5325 119.744C73.1245 118.544 72.9205 117.2 72.9205 115.712C72.9205 114.248 73.1245 112.916 73.5325 111.716C73.9405 110.516 74.5045 109.496 75.2245 108.656C75.9685 107.792 76.8565 107.132 77.8885 106.676C78.9205 106.22 80.0605 105.992 81.3085 105.992C82.5565 105.992 83.6845 106.22 84.6925 106.676C85.7245 107.132 86.6125 107.792 87.3565 108.656C88.1005 109.496 88.6765 110.516 89.0845 111.716C89.4925 112.916 89.6965 114.248 89.6965 115.712C89.6965 117.2 89.4925 118.544 89.0845 119.744C88.6765 120.92 88.1005 121.94 87.3565 122.804C86.6125 123.644 85.7245 124.292 84.6925 124.748C83.6845 125.204 82.5565 125.432 81.3085 125.432ZM81.3085 122.876C82.8685 122.876 84.1405 122.396 85.1245 121.436C86.1085 120.476 86.6005 119.012 86.6005 117.044V114.38C86.6005 112.412 86.1085 110.948 85.1245 109.988C84.1405 109.028 82.8685 108.548 81.3085 108.548C79.7485 108.548 78.4765 109.028 77.4925 109.988C76.5085 110.948 76.0165 112.412 76.0165 114.38V117.044C76.0165 119.012 76.5085 120.476 77.4925 121.436C78.4765 122.396 79.7485 122.876 81.3085 122.876ZM91.5204 122.48H93.9684C94.2804 122.048 94.5564 121.532 94.7964 120.932C95.0364 120.332 95.2404 119.612 95.4084 118.772C95.5764 117.932 95.7084 116.936 95.8044 115.784C95.9004 114.632 95.9484 113.276 95.9484 111.716V106.424H108.512V125H105.632V108.944H98.6844V111.788C98.6844 113.588 98.6124 115.16 98.4684 116.504C98.3484 117.848 98.1684 119 97.9284 119.96C97.7124 120.92 97.4484 121.712 97.1364 122.336C96.8244 122.936 96.4884 123.416 96.1284 123.776C95.6724 124.232 95.1684 124.556 94.6164 124.748C94.0644 124.916 93.4044 125 92.6364 125H91.5204V122.48ZM114.648 106.424H117.528V113.156H122.82C124.692 113.156 126.18 113.684 127.284 114.74C128.388 115.796 128.94 117.248 128.94 119.096C128.94 120.968 128.4 122.42 127.32 123.452C126.24 124.484 124.752 125 122.856 125H114.648V106.424ZM122.424 122.48C123.504 122.48 124.344 122.276 124.944 121.868C125.544 121.46 125.844 120.776 125.844 119.816V118.304C125.844 117.344 125.544 116.672 124.944 116.288C124.344 115.88 123.504 115.676 122.424 115.676H117.528V122.48H122.424ZM138.607 125.432C136.711 125.432 135.199 125.108 134.071 124.46C132.943 123.812 132.019 122.888 131.299 121.688L133.459 119.96C133.939 120.872 134.599 121.592 135.439 122.12C136.303 122.624 137.359 122.876 138.607 122.876C140.119 122.876 141.235 122.6 141.955 122.048C142.699 121.496 143.071 120.788 143.071 119.924V119.492C143.071 118.556 142.747 117.848 142.099 117.368C141.475 116.864 140.587 116.612 139.435 116.612H135.475V114.2H139.075C140.227 114.2 141.115 113.972 141.739 113.516C142.363 113.06 142.675 112.412 142.675 111.572V111.14C142.675 110.348 142.351 109.724 141.703 109.268C141.079 108.788 140.023 108.548 138.535 108.548C137.311 108.548 136.303 108.8 135.511 109.304C134.719 109.784 134.083 110.444 133.603 111.284L131.695 109.664C132.271 108.584 133.111 107.708 134.215 107.036C135.343 106.34 136.831 105.992 138.679 105.992C141.103 105.992 142.891 106.436 144.043 107.324C145.195 108.212 145.771 109.436 145.771 110.996C145.771 112.148 145.459 113.06 144.835 113.732C144.235 114.404 143.359 114.872 142.207 115.136V115.28C143.527 115.472 144.511 115.952 145.159 116.72C145.831 117.464 146.167 118.424 146.167 119.6C146.167 121.4 145.483 122.828 144.115 123.884C142.771 124.916 140.935 125.432 138.607 125.432ZM158.406 125.432C157.158 125.432 156.018 125.204 154.986 124.748C153.954 124.292 153.066 123.644 152.322 122.804C151.602 121.94 151.038 120.92 150.63 119.744C150.222 118.544 150.018 117.2 150.018 115.712C150.018 114.248 150.222 112.916 150.63 111.716C151.038 110.516 151.602 109.496 152.322 108.656C153.066 107.792 153.954 107.132 154.986 106.676C156.018 106.22 157.158 105.992 158.406 105.992C159.654 105.992 160.782 106.22 161.79 106.676C162.822 107.132 163.71 107.792 164.454 108.656C165.198 109.496 165.774 110.516 166.182 111.716C166.59 112.916 166.794 114.248 166.794 115.712C166.794 117.2 166.59 118.544 166.182 119.744C165.774 120.92 165.198 121.94 164.454 122.804C163.71 123.644 162.822 124.292 161.79 124.748C160.782 125.204 159.654 125.432 158.406 125.432ZM158.406 122.876C159.966 122.876 161.238 122.396 162.222 121.436C163.206 120.476 163.698 119.012 163.698 117.044V114.38C163.698 112.412 163.206 110.948 162.222 109.988C161.238 109.028 159.966 108.548 158.406 108.548C156.846 108.548 155.574 109.028 154.59 109.988C153.606 110.948 153.114 112.412 153.114 114.38V117.044C153.114 119.012 153.606 120.476 154.59 121.436C155.574 122.396 156.846 122.876 158.406 122.876ZM171.531 106.424H180.891C182.403 106.424 183.591 106.856 184.455 107.72C185.319 108.56 185.751 109.7 185.751 111.14C185.751 113.468 184.539 114.776 182.115 115.064V115.208C183.555 115.328 184.623 115.784 185.319 116.576C186.039 117.344 186.399 118.304 186.399 119.456C186.399 120.2 186.279 120.908 186.039 121.58C185.823 122.252 185.499 122.84 185.067 123.344C184.635 123.848 184.107 124.256 183.483 124.568C182.859 124.856 182.151 125 181.359 125H171.531V106.424ZM180.495 122.624C181.359 122.624 182.043 122.396 182.547 121.94C183.051 121.484 183.303 120.836 183.303 119.996V119.168C183.303 118.328 183.051 117.68 182.547 117.224C182.043 116.768 181.359 116.54 180.495 116.54H174.411V122.624H180.495ZM180.135 114.2C180.927 114.2 181.539 114.008 181.971 113.624C182.427 113.216 182.655 112.64 182.655 111.896V111.104C182.655 110.36 182.427 109.796 181.971 109.412C181.539 109.004 180.927 108.8 180.135 108.8H174.411V114.2H180.135ZM204.929 125C203.849 125 203.069 124.712 202.589 124.136C202.133 123.56 201.845 122.84 201.725 121.976H201.545C201.137 123.128 200.465 123.992 199.529 124.568C198.593 125.144 197.477 125.432 196.181 125.432C194.213 125.432 192.677 124.928 191.573 123.92C190.493 122.912 189.953 121.544 189.953 119.816C189.953 118.064 190.589 116.72 191.861 115.784C193.157 114.848 195.161 114.38 197.873 114.38H201.545V112.544C201.545 111.224 201.185 110.216 200.465 109.52C199.745 108.824 198.641 108.476 197.153 108.476C196.025 108.476 195.077 108.728 194.309 109.232C193.565 109.736 192.941 110.408 192.437 111.248L190.709 109.628C191.213 108.62 192.017 107.768 193.121 107.072C194.225 106.352 195.617 105.992 197.297 105.992C199.553 105.992 201.305 106.544 202.553 107.648C203.801 108.752 204.425 110.288 204.425 112.256V122.48H206.549V125H204.929ZM196.649 122.984C197.369 122.984 198.029 122.9 198.629 122.732C199.229 122.564 199.745 122.324 200.177 122.012C200.609 121.7 200.945 121.34 201.185 120.932C201.425 120.524 201.545 120.08 201.545 119.6V116.54H197.729C196.073 116.54 194.861 116.78 194.093 117.26C193.349 117.74 192.977 118.436 192.977 119.348V120.104C192.977 121.016 193.301 121.724 193.949 122.228C194.621 122.732 195.521 122.984 196.649 122.984ZM213.988 108.944H207.652V106.424H223.204V108.944H216.868V125H213.988V108.944ZM233.499 125.432C232.227 125.432 231.075 125.204 230.043 124.748C229.035 124.292 228.159 123.644 227.415 122.804C226.695 121.94 226.131 120.92 225.723 119.744C225.339 118.544 225.147 117.2 225.147 115.712C225.147 114.248 225.339 112.916 225.723 111.716C226.131 110.516 226.695 109.496 227.415 108.656C228.159 107.792 229.035 107.132 230.043 106.676C231.075 106.22 232.227 105.992 233.499 105.992C234.747 105.992 235.863 106.22 236.847 106.676C237.831 107.132 238.671 107.768 239.367 108.584C240.063 109.376 240.591 110.324 240.951 111.428C241.335 112.532 241.527 113.744 241.527 115.064V116.432H228.171V117.296C228.171 118.088 228.291 118.832 228.531 119.528C228.795 120.2 229.155 120.788 229.611 121.292C230.091 121.796 230.667 122.192 231.339 122.48C232.035 122.768 232.815 122.912 233.679 122.912C234.855 122.912 235.875 122.636 236.739 122.084C237.627 121.532 238.311 120.74 238.791 119.708L240.843 121.184C240.243 122.456 239.307 123.488 238.035 124.28C236.763 125.048 235.251 125.432 233.499 125.432ZM233.499 108.404C232.707 108.404 231.987 108.548 231.339 108.836C230.691 109.1 230.127 109.484 229.647 109.988C229.191 110.492 228.831 111.092 228.567 111.788C228.303 112.46 228.171 113.204 228.171 114.02V114.272H238.431V113.876C238.431 112.22 237.975 110.9 237.063 109.916C236.175 108.908 234.987 108.404 233.499 108.404ZM243.501 122.48H245.949C246.261 122.048 246.537 121.532 246.777 120.932C247.017 120.332 247.221 119.612 247.389 118.772C247.557 117.932 247.689 116.936 247.785 115.784C247.881 114.632 247.929 113.276 247.929 111.716V106.424H260.493V125H257.613V108.944H250.665V111.788C250.665 113.588 250.593 115.16 250.449 116.504C250.329 117.848 250.149 119 249.909 119.96C249.693 120.92 249.429 121.712 249.117 122.336C248.805 122.936 248.469 123.416 248.109 123.776C247.653 124.232 247.149 124.556 246.597 124.748C246.045 124.916 245.385 125 244.617 125H243.501V122.48ZM266.628 106.424H269.436V116.72L269.148 121.184H269.292L271.596 117.224L279.012 106.424H281.676V125H278.868V114.704L279.156 110.24H279.012L276.708 114.2L269.292 125H266.628V106.424Z" fill="black"/>
<rect x="1.5" y="1.5" width="325" height="227" rx="10.5" stroke="#C1BED2" stroke-width="3" stroke-dasharray="12 12"/>
<path d="M522.061 116.061C522.646 115.475 522.646 114.525 522.061 113.939L512.515 104.393C511.929 103.808 510.979 103.808 510.393 104.393C509.808 104.979 509.808 105.929 510.393 106.515L518.879 115L510.393 123.485C509.808 124.071 509.808 125.021 510.393 125.607C510.979 126.192 511.929 126.192 512.515 125.607L522.061 116.061ZM328 116.5H334.031V113.5H328V116.5ZM346.094 116.5H358.156V113.5H346.094V116.5ZM370.219 116.5H382.281V113.5H370.219V116.5ZM394.344 116.5H406.406V113.5H394.344V116.5ZM418.469 116.5H430.531V113.5H418.469V116.5ZM442.594 116.5H454.656V113.5H442.594V116.5ZM466.719 116.5H478.781V113.5H466.719V116.5ZM490.844 116.5H502.906V113.5H490.844V116.5ZM514.969 116.5H521V113.5H514.969V116.5Z" fill="#A7A6AF"/>
<path d="M1047.06 116.061C1047.65 115.475 1047.65 114.525 1047.06 113.939L1037.51 104.393C1036.93 103.808 1035.98 103.808 1035.39 104.393C1034.81 104.979 1034.81 105.929 1035.39 106.515L1043.88 115L1035.39 123.485C1034.81 124.071 1034.81 125.021 1035.39 125.607C1035.98 126.192 1036.93 126.192 1037.51 125.607L1047.06 116.061ZM843 116.5H1046V113.5H843V116.5Z" fill="#209B1D"/>
<rect x="1048" y="45" width="319" height="140" rx="11" fill="#F8CCF1" stroke="#A92393" stroke-width="2"/>
<path d="M1141.68 102.872H1152.01C1154.1 102.872 1155.73 103.46 1156.9 104.636C1158.1 105.812 1158.7 107.384 1158.7 109.352C1158.7 110.288 1158.57 111.08 1158.31 111.728C1158.04 112.376 1157.71 112.916 1157.3 113.348C1156.89 113.756 1156.45 114.068 1155.97 114.284C1155.49 114.476 1155.04 114.608 1154.64 114.68V114.896C1155.09 114.92 1155.6 115.04 1156.15 115.256C1156.72 115.472 1157.26 115.82 1157.77 116.3C1158.27 116.756 1158.69 117.356 1159.03 118.1C1159.39 118.82 1159.57 119.696 1159.57 120.728C1159.57 121.76 1159.4 122.72 1159.06 123.608C1158.75 124.496 1158.31 125.264 1157.73 125.912C1157.16 126.56 1156.47 127.076 1155.68 127.46C1154.89 127.82 1154.02 128 1153.09 128H1141.68V102.872ZM1144.7 125.336H1152.15C1153.45 125.336 1154.47 125.012 1155.21 124.364C1155.96 123.692 1156.33 122.72 1156.33 121.448V120.224C1156.33 118.952 1155.96 117.992 1155.21 117.344C1154.47 116.672 1153.45 116.336 1152.15 116.336H1144.7V125.336ZM1144.7 113.744H1151.65C1152.85 113.744 1153.78 113.444 1154.46 112.844C1155.13 112.244 1155.46 111.38 1155.46 110.252V109.028C1155.46 107.9 1155.13 107.036 1154.46 106.436C1153.78 105.836 1152.85 105.536 1151.65 105.536H1144.7V113.744ZM1178.41 128C1177.33 128 1176.55 127.712 1176.07 127.136C1175.61 126.56 1175.32 125.84 1175.2 124.976H1175.02C1174.62 126.128 1173.94 126.992 1173.01 127.568C1172.07 128.144 1170.96 128.432 1169.66 128.432C1167.69 128.432 1166.16 127.928 1165.05 126.92C1163.97 125.912 1163.43 124.544 1163.43 122.816C1163.43 121.064 1164.07 119.72 1165.34 118.784C1166.64 117.848 1168.64 117.38 1171.35 117.38H1175.02V115.544C1175.02 114.224 1174.66 113.216 1173.94 112.52C1173.22 111.824 1172.12 111.476 1170.63 111.476C1169.5 111.476 1168.56 111.728 1167.79 112.232C1167.04 112.736 1166.42 113.408 1165.92 114.248L1164.19 112.628C1164.69 111.62 1165.5 110.768 1166.6 110.072C1167.7 109.352 1169.1 108.992 1170.78 108.992C1173.03 108.992 1174.78 109.544 1176.03 110.648C1177.28 111.752 1177.9 113.288 1177.9 115.256V125.48H1180.03V128H1178.41ZM1170.13 125.984C1170.85 125.984 1171.51 125.9 1172.11 125.732C1172.71 125.564 1173.22 125.324 1173.66 125.012C1174.09 124.7 1174.42 124.34 1174.66 123.932C1174.9 123.524 1175.02 123.08 1175.02 122.6V119.54H1171.21C1169.55 119.54 1168.34 119.78 1167.57 120.26C1166.83 120.74 1166.46 121.436 1166.46 122.348V123.104C1166.46 124.016 1166.78 124.724 1167.43 125.228C1168.1 125.732 1169 125.984 1170.13 125.984ZM1191.05 128.432C1189.75 128.432 1188.59 128.204 1187.56 127.748C1186.53 127.292 1185.65 126.644 1184.93 125.804C1184.23 124.964 1183.69 123.944 1183.31 122.744C1182.95 121.544 1182.77 120.2 1182.77 118.712C1182.77 117.224 1182.95 115.88 1183.31 114.68C1183.69 113.48 1184.23 112.46 1184.93 111.62C1185.65 110.78 1186.53 110.132 1187.56 109.676C1188.59 109.22 1189.75 108.992 1191.05 108.992C1192.9 108.992 1194.37 109.4 1195.48 110.216C1196.61 111.008 1197.45 112.052 1198 113.348L1195.59 114.572C1195.25 113.612 1194.7 112.868 1193.93 112.34C1193.16 111.812 1192.2 111.548 1191.05 111.548C1190.19 111.548 1189.43 111.692 1188.78 111.98C1188.13 112.244 1187.59 112.628 1187.16 113.132C1186.73 113.612 1186.41 114.2 1186.19 114.896C1185.97 115.568 1185.87 116.312 1185.87 117.128V120.296C1185.87 121.928 1186.3 123.272 1187.16 124.328C1188.05 125.36 1189.35 125.876 1191.05 125.876C1193.38 125.876 1195.06 124.796 1196.09 122.636L1198.18 124.04C1197.58 125.384 1196.68 126.452 1195.48 127.244C1194.3 128.036 1192.83 128.432 1191.05 128.432ZM1202.24 101.36H1205.12V118.244H1205.27L1208.11 115.076L1213.37 109.424H1216.86L1209.98 116.768L1217.54 128H1214.05L1207.9 118.532L1205.12 121.376V128H1202.24V101.36ZM1227.61 128.432C1226.34 128.432 1225.19 128.204 1224.16 127.748C1223.15 127.292 1222.27 126.644 1221.53 125.804C1220.81 124.94 1220.25 123.92 1219.84 122.744C1219.45 121.544 1219.26 120.2 1219.26 118.712C1219.26 117.248 1219.45 115.916 1219.84 114.716C1220.25 113.516 1220.81 112.496 1221.53 111.656C1222.27 110.792 1223.15 110.132 1224.16 109.676C1225.19 109.22 1226.34 108.992 1227.61 108.992C1228.86 108.992 1229.98 109.22 1230.96 109.676C1231.95 110.132 1232.79 110.768 1233.48 111.584C1234.18 112.376 1234.71 113.324 1235.07 114.428C1235.45 115.532 1235.64 116.744 1235.64 118.064V119.432H1222.29V120.296C1222.29 121.088 1222.41 121.832 1222.65 122.528C1222.91 123.2 1223.27 123.788 1223.73 124.292C1224.21 124.796 1224.78 125.192 1225.45 125.48C1226.15 125.768 1226.93 125.912 1227.79 125.912C1228.97 125.912 1229.99 125.636 1230.85 125.084C1231.74 124.532 1232.43 123.74 1232.91 122.708L1234.96 124.184C1234.36 125.456 1233.42 126.488 1232.15 127.28C1230.88 128.048 1229.37 128.432 1227.61 128.432ZM1227.61 111.404C1226.82 111.404 1226.1 111.548 1225.45 111.836C1224.81 112.1 1224.24 112.484 1223.76 112.988C1223.31 113.492 1222.95 114.092 1222.68 114.788C1222.42 115.46 1222.29 116.204 1222.29 117.02V117.272H1232.55V116.876C1232.55 115.22 1232.09 113.9 1231.18 112.916C1230.29 111.908 1229.1 111.404 1227.61 111.404ZM1240.39 128V109.424H1243.27V112.448H1243.41C1243.87 111.392 1244.5 110.552 1245.32 109.928C1246.16 109.304 1247.28 108.992 1248.67 108.992C1250.59 108.992 1252.1 109.616 1253.2 110.864C1254.33 112.088 1254.9 113.828 1254.9 116.084V128H1252.02V116.588C1252.02 113.252 1250.61 111.584 1247.8 111.584C1247.23 111.584 1246.66 111.656 1246.11 111.8C1245.58 111.944 1245.1 112.16 1244.67 112.448C1244.24 112.736 1243.89 113.108 1243.63 113.564C1243.39 113.996 1243.27 114.512 1243.27 115.112V128H1240.39ZM1272.73 124.976H1272.59C1271.46 127.28 1269.65 128.432 1267.15 128.432C1266 128.432 1264.95 128.204 1264.02 127.748C1263.08 127.292 1262.28 126.644 1261.61 125.804C1260.96 124.964 1260.45 123.944 1260.09 122.744C1259.76 121.544 1259.59 120.2 1259.59 118.712C1259.59 117.224 1259.76 115.88 1260.09 114.68C1260.45 113.48 1260.96 112.46 1261.61 111.62C1262.28 110.78 1263.08 110.132 1264.02 109.676C1264.95 109.22 1266 108.992 1267.15 108.992C1268.45 108.992 1269.55 109.28 1270.46 109.856C1271.4 110.408 1272.11 111.272 1272.59 112.448H1272.73V101.36H1275.61V128H1272.73V124.976ZM1267.94 125.84C1268.59 125.84 1269.2 125.756 1269.78 125.588C1270.38 125.42 1270.89 125.18 1271.33 124.868C1271.76 124.532 1272.09 124.136 1272.33 123.68C1272.6 123.2 1272.73 122.66 1272.73 122.06V115.148C1272.73 114.644 1272.6 114.176 1272.33 113.744C1272.09 113.288 1271.76 112.904 1271.33 112.592C1270.89 112.28 1270.38 112.04 1269.78 111.872C1269.2 111.68 1268.59 111.584 1267.94 111.584C1266.31 111.584 1265.03 112.1 1264.09 113.132C1263.15 114.14 1262.69 115.472 1262.69 117.128V120.296C1262.69 121.952 1263.15 123.296 1264.09 124.328C1265.03 125.336 1266.31 125.84 1267.94 125.84Z" fill="black"/>
<path d="M647.7 128.432C644.508 128.432 642.024 127.352 640.248 125.192C638.472 123.008 637.584 119.804 637.584 115.58C637.584 111.356 638.472 108.116 640.248 105.86C642.024 103.58 644.508 102.44 647.7 102.44C649.812 102.44 651.576 102.92 652.992 103.88C654.432 104.84 655.548 106.196 656.34 107.948L653.892 109.424C653.388 108.128 652.62 107.096 651.588 106.328C650.556 105.536 649.26 105.14 647.7 105.14C646.62 105.14 645.648 105.344 644.784 105.752C643.944 106.16 643.224 106.748 642.624 107.516C642.048 108.26 641.604 109.16 641.292 110.216C640.98 111.248 640.824 112.412 640.824 113.708V117.452C640.824 120.044 641.424 122.072 642.624 123.536C643.824 125 645.516 125.732 647.7 125.732C649.308 125.732 650.652 125.324 651.732 124.508C652.812 123.668 653.604 122.564 654.108 121.196L656.52 122.708C655.728 124.484 654.588 125.888 653.1 126.92C651.612 127.928 649.812 128.432 647.7 128.432ZM663.975 128C662.967 128 662.199 127.724 661.671 127.172C661.167 126.596 660.915 125.876 660.915 125.012V101.36H663.795V125.48H666.531V128H663.975ZM672.164 105.068C671.54 105.068 671.084 104.924 670.796 104.636C670.532 104.324 670.4 103.928 670.4 103.448V102.98C670.4 102.5 670.532 102.116 670.796 101.828C671.084 101.516 671.54 101.36 672.164 101.36C672.788 101.36 673.232 101.516 673.496 101.828C673.784 102.116 673.928 102.5 673.928 102.98V103.448C673.928 103.928 673.784 104.324 673.496 104.636C673.232 104.924 672.788 105.068 672.164 105.068ZM670.724 109.424H673.604V128H670.724V109.424ZM686.708 128.432C685.436 128.432 684.284 128.204 683.252 127.748C682.244 127.292 681.368 126.644 680.624 125.804C679.904 124.94 679.34 123.92 678.932 122.744C678.548 121.544 678.356 120.2 678.356 118.712C678.356 117.248 678.548 115.916 678.932 114.716C679.34 113.516 679.904 112.496 680.624 111.656C681.368 110.792 682.244 110.132 683.252 109.676C684.284 109.22 685.436 108.992 686.708 108.992C687.956 108.992 689.072 109.22 690.056 109.676C691.04 110.132 691.88 110.768 692.576 111.584C693.272 112.376 693.8 113.324 694.16 114.428C694.544 115.532 694.736 116.744 694.736 118.064V119.432H681.38V120.296C681.38 121.088 681.5 121.832 681.74 122.528C682.004 123.2 682.364 123.788 682.82 124.292C683.3 124.796 683.876 125.192 684.548 125.48C685.244 125.768 686.024 125.912 686.888 125.912C688.064 125.912 689.084 125.636 689.948 125.084C690.836 124.532 691.52 123.74 692 122.708L694.052 124.184C693.452 125.456 692.516 126.488 691.244 127.28C689.972 128.048 688.46 128.432 686.708 128.432ZM686.708 111.404C685.916 111.404 685.196 111.548 684.548 111.836C683.9 112.1 683.336 112.484 682.856 112.988C682.4 113.492 682.04 114.092 681.776 114.788C681.512 115.46 681.38 116.204 681.38 117.02V117.272H691.64V116.876C691.64 115.22 691.184 113.9 690.272 112.916C689.384 111.908 688.196 111.404 686.708 111.404ZM699.482 128V109.424H702.362V112.448H702.506C702.962 111.392 703.598 110.552 704.414 109.928C705.254 109.304 706.37 108.992 707.762 108.992C709.682 108.992 711.194 109.616 712.298 110.864C713.426 112.088 713.99 113.828 713.99 116.084V128H711.11V116.588C711.11 113.252 709.706 111.584 706.898 111.584C706.322 111.584 705.758 111.656 705.206 111.8C704.678 111.944 704.198 112.16 703.766 112.448C703.334 112.736 702.986 113.108 702.722 113.564C702.482 113.996 702.362 114.512 702.362 115.112V128H699.482ZM724.047 128C723.039 128 722.271 127.724 721.743 127.172C721.239 126.596 720.987 125.852 720.987 124.94V111.944H717.927V109.424H719.655C720.279 109.424 720.699 109.304 720.915 109.064C721.155 108.8 721.275 108.356 721.275 107.732V104.276H723.867V109.424H727.935V111.944H723.867V125.48H727.647V128H724.047Z" fill="black"/>
<rect x="732" y="291" width="239.88" height="105" rx="8.04225" fill="#E9D8F0" stroke="#9673A6" stroke-width="2"/>
<rect x="395" y="291" width="239.88" height="105" rx="8.04225" fill="#F4F3F5" stroke="#827E9B" stroke-width="2"/>
<path fill-rule="evenodd" clip-rule="evenodd" d="M480.256 326.243L479.536 335.11C479.196 335.071 478.855 335.051 478.505 335.051C478.067 335.051 477.639 335.081 477.221 335.149L476.812 330.851C476.802 330.715 476.909 330.599 477.046 330.599H477.775L477.425 326.253C477.415 326.117 477.522 326 477.649 326H480.032C480.168 326 480.276 326.117 480.256 326.253V326.243ZM474.244 326.681C474.205 326.554 474.069 326.476 473.942 326.525L471.704 327.342C471.578 327.39 471.52 327.536 471.578 327.653L473.397 331.619L472.706 331.872C472.58 331.921 472.522 332.067 472.58 332.183L474.438 336.082C475.11 335.712 475.839 335.431 476.608 335.256L474.253 326.681H474.244ZM468.757 329.15L473.903 336.403C473.251 336.831 472.658 337.336 472.152 337.919L469.068 334.886C468.971 334.789 468.98 334.633 469.078 334.546L469.642 334.079L466.577 330.978C466.48 330.881 466.49 330.725 466.597 330.637L468.416 329.111C468.523 329.024 468.669 329.043 468.747 329.15H468.757ZM464.437 333.35C464.33 333.272 464.174 333.311 464.106 333.428L462.919 335.489C462.851 335.606 462.9 335.751 463.017 335.81L466.966 337.676L466.597 338.308C466.529 338.425 466.577 338.581 466.704 338.629L470.634 340.428C470.916 339.699 471.296 339.018 471.763 338.406L464.437 333.35ZM461.528 338.95C461.548 338.814 461.684 338.736 461.81 338.765L470.42 341.011C470.196 341.74 470.07 342.508 470.051 343.306L465.741 342.956C465.604 342.946 465.507 342.819 465.536 342.683L465.663 341.964L461.314 341.556C461.178 341.546 461.09 341.419 461.11 341.283L461.518 338.94L461.528 338.95ZM461.207 344.764C461.071 344.774 460.983 344.9 461.003 345.036L461.421 347.379C461.44 347.515 461.577 347.593 461.703 347.564L465.925 346.465L466.052 347.185C466.071 347.321 466.208 347.399 466.334 347.369L470.498 346.222C470.255 345.503 470.099 344.735 470.06 343.947L461.197 344.764H461.207ZM462.588 350.928C462.52 350.811 462.569 350.665 462.686 350.607L470.722 346.796C471.023 347.515 471.432 348.186 471.918 348.789L468.397 351.297C468.29 351.375 468.134 351.346 468.066 351.229L467.696 350.587L464.106 353.067C463.999 353.144 463.844 353.106 463.775 352.989L462.579 350.928H462.588ZM472.327 349.256L466.071 355.585C465.974 355.682 465.984 355.837 466.091 355.925L467.92 357.451C468.027 357.539 468.173 357.519 468.251 357.413L470.78 353.854L471.344 354.331C471.451 354.418 471.607 354.399 471.685 354.282L474.137 350.724C473.475 350.315 472.862 349.819 472.337 349.256H472.327ZM471.091 359.415C470.965 359.367 470.907 359.221 470.965 359.104L474.672 351.015C475.353 351.365 476.092 351.628 476.861 351.774L475.771 355.954C475.742 356.081 475.596 356.158 475.469 356.11L474.779 355.857L473.621 360.067C473.582 360.193 473.446 360.271 473.319 360.222L471.082 359.406L471.091 359.415ZM477.474 351.881L476.754 360.747C476.744 360.883 476.851 361 476.977 361H479.361C479.497 361 479.604 360.883 479.585 360.747L479.235 356.401H479.964C480.1 356.401 480.207 356.285 480.198 356.149L479.789 351.851C479.371 351.919 478.943 351.949 478.505 351.949C478.155 351.949 477.814 351.929 477.474 351.881ZM486.054 327.876C486.113 327.75 486.054 327.614 485.928 327.565L483.69 326.749C483.564 326.7 483.428 326.778 483.389 326.904L482.231 331.114L481.54 330.861C481.414 330.812 481.278 330.89 481.239 331.017L480.149 335.197C480.927 335.353 481.657 335.615 482.338 335.956L486.054 327.876ZM490.938 331.406L484.683 337.735C484.157 337.171 483.554 336.675 482.883 336.267L485.335 332.708C485.412 332.601 485.568 332.572 485.675 332.66L486.239 333.136L488.769 329.578C488.847 329.471 489.002 329.451 489.1 329.539L490.929 331.065C491.036 331.153 491.036 331.308 490.948 331.406H490.938ZM494.324 336.383C494.45 336.325 494.489 336.179 494.421 336.062L493.225 334.001C493.156 333.885 493.001 333.856 492.894 333.924L489.304 336.403L488.934 335.771C488.866 335.654 488.71 335.615 488.603 335.703L485.082 338.211C485.568 338.814 485.967 339.485 486.278 340.204L494.314 336.393L494.324 336.383ZM495.589 339.611L495.997 341.954C496.017 342.09 495.929 342.207 495.793 342.226L486.93 343.053C486.891 342.256 486.735 341.497 486.492 340.778L490.656 339.631C490.783 339.592 490.919 339.679 490.938 339.815L491.065 340.535L495.287 339.436C495.414 339.407 495.55 339.485 495.569 339.621L495.589 339.611ZM495.19 348.215C495.316 348.244 495.452 348.167 495.472 348.031L495.881 345.688C495.9 345.551 495.812 345.435 495.676 345.415L491.327 345.007L491.454 344.287C491.473 344.151 491.386 344.035 491.25 344.015L486.94 343.665C486.92 344.462 486.794 345.231 486.57 345.96L495.18 348.206L495.19 348.215ZM492.894 353.562C492.826 353.679 492.67 353.708 492.563 353.64L485.237 348.585C485.704 347.972 486.084 347.292 486.366 346.562L490.296 348.361C490.423 348.419 490.471 348.565 490.403 348.682L490.034 349.314L493.983 351.181C494.1 351.239 494.149 351.385 494.081 351.501L492.894 353.562ZM483.097 350.578L488.243 357.831C488.321 357.938 488.477 357.957 488.574 357.869L490.393 356.343C490.501 356.256 490.501 356.1 490.413 356.003L487.348 352.901L487.913 352.435C488.02 352.347 488.02 352.192 487.922 352.094L484.838 349.061C484.323 349.644 483.739 350.16 483.087 350.578H483.097ZM483.048 360.456C482.922 360.504 482.786 360.426 482.747 360.3L480.392 351.725C481.161 351.55 481.89 351.268 482.562 350.899L484.42 354.797C484.478 354.924 484.42 355.069 484.294 355.108L483.603 355.361L485.422 359.328C485.48 359.454 485.422 359.59 485.296 359.639L483.058 360.456H483.048Z" fill="#191919"/>
<path d="M517.979 354.326C516.75 354.326 515.637 354.118 514.643 353.702C513.666 353.268 512.825 352.644 512.12 351.83C511.433 350.998 510.899 349.976 510.52 348.765C510.14 347.535 509.95 346.124 509.95 344.533C509.95 342.941 510.14 341.54 510.52 340.328C510.899 339.116 511.433 338.095 512.12 337.263C512.825 336.431 513.666 335.807 514.643 335.391C515.637 334.957 516.75 334.74 517.979 334.74C519.191 334.74 520.294 334.957 521.289 335.391C522.283 335.807 523.124 336.431 523.812 337.263C524.517 338.095 525.059 339.116 525.439 340.328C525.819 341.54 526.009 342.941 526.009 344.533C526.009 346.124 525.819 347.535 525.439 348.765C525.059 349.976 524.517 350.998 523.812 351.83C523.124 352.644 522.283 353.268 521.289 353.702C520.294 354.118 519.191 354.326 517.979 354.326ZM517.979 352.291C518.793 352.291 519.544 352.146 520.231 351.857C520.918 351.568 521.506 351.152 521.994 350.609C522.501 350.067 522.889 349.416 523.161 348.656C523.432 347.896 523.567 347.047 523.567 346.106V342.959C523.567 342.019 523.432 341.169 523.161 340.409C522.889 339.65 522.501 338.999 521.994 338.456C521.506 337.914 520.918 337.498 520.231 337.209C519.544 336.919 518.793 336.775 517.979 336.775C517.166 336.775 516.415 336.919 515.728 337.209C515.041 337.498 514.444 337.914 513.937 338.456C513.449 338.999 513.069 339.65 512.798 340.409C512.527 341.169 512.391 342.019 512.391 342.959V346.106C512.391 347.047 512.527 347.896 512.798 348.656C513.069 349.416 513.449 350.067 513.937 350.609C514.444 351.152 515.041 351.568 515.728 351.857C516.415 352.146 517.166 352.291 517.979 352.291ZM529.888 333.926H532.058V346.649H532.167L534.31 344.261L538.27 340.003H540.902L535.72 345.536L541.417 354H538.786L534.147 346.866L532.058 349.009V354H529.888V333.926ZM547.021 354C546.261 354 545.683 353.792 545.285 353.376C544.905 352.942 544.715 352.381 544.715 351.694V341.901H542.409V340.003H543.711C544.182 340.003 544.498 339.912 544.661 339.731C544.842 339.532 544.932 339.198 544.932 338.728V336.123H546.885V340.003H549.951V341.901H546.885V352.101H549.734V354H547.021ZM563.611 354C562.797 354 562.21 353.783 561.848 353.349C561.504 352.915 561.287 352.372 561.197 351.721H561.061C560.754 352.589 560.248 353.24 559.542 353.674C558.837 354.109 557.996 354.326 557.019 354.326C555.537 354.326 554.379 353.946 553.547 353.186C552.733 352.427 552.327 351.396 552.327 350.094C552.327 348.774 552.806 347.761 553.764 347.056C554.741 346.35 556.251 345.998 558.294 345.998H561.061V344.614C561.061 343.619 560.79 342.86 560.248 342.335C559.705 341.811 558.873 341.549 557.752 341.549C556.902 341.549 556.188 341.739 555.609 342.118C555.048 342.498 554.578 343.005 554.198 343.638L552.896 342.417C553.276 341.657 553.882 341.015 554.714 340.491C555.546 339.948 556.594 339.677 557.86 339.677C559.56 339.677 560.88 340.093 561.821 340.925C562.761 341.757 563.231 342.914 563.231 344.397V352.101H564.832V354H563.611ZM557.372 352.481C557.915 352.481 558.412 352.418 558.864 352.291C559.316 352.164 559.705 351.984 560.031 351.748C560.356 351.513 560.609 351.242 560.79 350.935C560.971 350.627 561.061 350.293 561.061 349.931V347.625H558.186C556.938 347.625 556.025 347.806 555.446 348.168C554.885 348.529 554.605 349.054 554.605 349.741V350.311C554.605 350.998 554.849 351.531 555.338 351.911C555.844 352.291 556.522 352.481 557.372 352.481Z" fill="black"/>
<path d="M510.939 289.061C511.525 289.646 512.475 289.646 513.061 289.061L522.607 279.515C523.192 278.929 523.192 277.979 522.607 277.393C522.021 276.808 521.071 276.808 520.485 277.393L512 285.879L503.515 277.393C502.929 276.808 501.979 276.808 501.393 277.393C500.808 277.979 500.808 278.929 501.393 279.515L510.939 289.061ZM681.5 188V212H684.5V188H681.5ZM659 234.5H536V237.5H659V234.5ZM510.5 260V288H513.5V260H510.5ZM536 234.5C521.917 234.5 510.5 245.917 510.5 260H513.5C513.5 247.574 523.574 237.5 536 237.5V234.5ZM681.5 212C681.5 224.426 671.426 234.5 659 234.5V237.5C673.083 237.5 684.5 226.083 684.5 212H681.5Z" fill="#209B1D"/>
<path d="M863.061 287.061C862.475 287.646 861.525 287.646 860.939 287.061L851.393 277.515C850.808 276.929 850.808 275.979 851.393 275.393C851.979 274.808 852.929 274.808 853.515 275.393L862 283.879L870.485 275.393C871.071 274.808 872.021 274.808 872.607 275.393C873.192 275.979 873.192 276.929 872.607 277.515L863.061 287.061ZM684.5 186V210H681.5V186H684.5ZM707 232.5H838V235.5H707V232.5ZM863.5 258V286H860.5V258H863.5ZM838 232.5C852.083 232.5 863.5 243.917 863.5 258H860.5C860.5 245.574 850.426 235.5 838 235.5V232.5ZM684.5 210C684.5 222.426 694.574 232.5 707 232.5V235.5C692.917 235.5 681.5 224.083 681.5 210H684.5Z" fill="#209B1D"/>
<g clip-path="url(#clip0_19_540)">
<path d="M819.576 353.957L816.11 343.142L825.182 336.46H813.968L810.502 325.646L810.501 325.643H821.717L825.183 336.459L825.184 336.459L825.186 336.457C827.2 342.732 825.126 349.869 819.576 353.957L819.576 353.957ZM801.428 353.957L801.425 353.959L810.499 360.643L819.576 353.957L810.502 347.273L801.428 353.957H801.428ZM795.82 336.457C793.7 343.072 796.16 350.08 801.426 353.958L801.427 353.955L804.893 343.141L795.823 336.46H807.034L810.5 325.646L810.501 325.643H799.285L795.819 336.457H795.82Z" fill="#EB5424"/>
</g>
<path d="M852.383 354L850.484 348.412H842.834L840.935 354H838.629L845.248 335.066H848.151L854.77 354H852.383ZM846.713 337.181H846.577L843.376 346.405H849.914L846.713 337.181ZM866.316 351.721H866.207C866.062 352.047 865.881 352.372 865.664 352.698C865.466 353.005 865.212 353.286 864.905 353.539C864.597 353.774 864.227 353.964 863.793 354.109C863.359 354.253 862.852 354.326 862.274 354.326C860.827 354.326 859.679 353.864 858.829 352.942C857.979 352.002 857.554 350.681 857.554 348.982V340.003H859.724V348.602C859.724 351.116 860.791 352.372 862.925 352.372C863.359 352.372 863.775 352.318 864.173 352.21C864.588 352.101 864.95 351.938 865.258 351.721C865.583 351.504 865.836 351.233 866.017 350.908C866.216 350.564 866.316 350.157 866.316 349.687V340.003H868.486V354H866.316V351.721ZM876.199 354C875.44 354 874.861 353.792 874.463 353.376C874.084 352.942 873.894 352.381 873.894 351.694V341.901H871.588V340.003H872.89C873.36 340.003 873.677 339.912 873.839 339.731C874.02 339.532 874.111 339.198 874.111 338.728V336.123H876.064V340.003H879.129V341.901H876.064V352.101H878.912V354H876.199ZM882.617 333.926H884.787V342.281H884.896C885.239 341.486 885.719 340.853 886.334 340.382C886.967 339.912 887.807 339.677 888.856 339.677C890.303 339.677 891.442 340.147 892.274 341.088C893.124 342.01 893.549 343.321 893.549 345.021V354H891.379V345.401C891.379 342.887 890.321 341.63 888.205 341.63C887.771 341.63 887.346 341.684 886.93 341.793C886.533 341.901 886.171 342.064 885.845 342.281C885.52 342.498 885.258 342.779 885.059 343.122C884.878 343.448 884.787 343.837 884.787 344.289V354H882.617V333.926ZM903.867 354.326C901.607 354.326 899.952 353.467 898.903 351.748C897.872 350.03 897.357 347.625 897.357 344.533C897.357 341.44 897.872 339.035 898.903 337.317C899.952 335.599 901.607 334.74 903.867 334.74C906.128 334.74 907.773 335.599 908.804 337.317C909.853 339.035 910.378 341.44 910.378 344.533C910.378 347.625 909.853 350.03 908.804 351.748C907.773 353.467 906.128 354.326 903.867 354.326ZM903.867 352.345C904.609 352.345 905.242 352.192 905.766 351.884C906.291 351.577 906.716 351.143 907.041 350.582C907.367 350.021 907.602 349.361 907.746 348.602C907.909 347.842 907.99 347.001 907.99 346.079V342.987C907.99 342.064 907.909 341.223 907.746 340.464C907.602 339.704 907.367 339.044 907.041 338.483C906.716 337.923 906.291 337.489 905.766 337.181C905.242 336.874 904.609 336.72 903.867 336.72C903.126 336.72 902.493 336.874 901.968 337.181C901.444 337.489 901.019 337.923 900.693 338.483C900.368 339.044 900.124 339.704 899.961 340.464C899.816 341.223 899.744 342.064 899.744 342.987V346.079C899.744 347.001 899.816 347.842 899.961 348.602C900.124 349.361 900.368 350.021 900.693 350.582C901.019 351.143 901.444 351.577 901.968 351.884C902.493 352.192 903.126 352.345 903.867 352.345Z" fill="black"/>
<defs>
<clipPath id="clip0_19_540">
<rect width="31" height="35" fill="white" transform="translate(795 326)"/>
</clipPath>
</defs>
</svg>
