<svg width="1174" height="543" viewBox="0 0 1174 543" fill="none" xmlns="http://www.w3.org/2000/svg">
<rect x="416" y="203" width="319" height="140" rx="11" fill="#E5E7EB" stroke="#827E9B" stroke-width="2"/>
<rect x="854" y="1" width="319" height="140" rx="11" fill="#FFB693" stroke="#FF5501" stroke-width="2"/>
<rect x="854" y="203" width="319" height="140" rx="11" fill="#FED42B" stroke="#A28203" stroke-width="2"/>
<rect x="854" y="402" width="319" height="140" rx="11" fill="#FFD3C8" stroke="#FF6421" stroke-width="2"/>
<path d="M49.6156 257.872H67.8676V283H64.8436V260.536H52.6396V283H49.6156V257.872ZM81.3085 283.432C80.0605 283.432 78.9205 283.204 77.8885 282.748C76.8565 282.292 75.9685 281.644 75.2245 280.804C74.5045 279.94 73.9405 278.92 73.5325 277.744C73.1245 276.544 72.9205 275.2 72.9205 273.712C72.9205 272.248 73.1245 270.916 73.5325 269.716C73.9405 268.516 74.5045 267.496 75.2245 266.656C75.9685 265.792 76.8565 265.132 77.8885 264.676C78.9205 264.22 80.0605 263.992 81.3085 263.992C82.5565 263.992 83.6845 264.22 84.6925 264.676C85.7245 265.132 86.6125 265.792 87.3565 266.656C88.1005 267.496 88.6765 268.516 89.0845 269.716C89.4925 270.916 89.6965 272.248 89.6965 273.712C89.6965 275.2 89.4925 276.544 89.0845 277.744C88.6765 278.92 88.1005 279.94 87.3565 280.804C86.6125 281.644 85.7245 282.292 84.6925 282.748C83.6845 283.204 82.5565 283.432 81.3085 283.432ZM81.3085 280.876C82.8685 280.876 84.1405 280.396 85.1245 279.436C86.1085 278.476 86.6005 277.012 86.6005 275.044V272.38C86.6005 270.412 86.1085 268.948 85.1245 267.988C84.1405 267.028 82.8685 266.548 81.3085 266.548C79.7485 266.548 78.4765 267.028 77.4925 267.988C76.5085 268.948 76.0165 270.412 76.0165 272.38V275.044C76.0165 277.012 76.5085 278.476 77.4925 279.436C78.4765 280.396 79.7485 280.876 81.3085 280.876ZM91.5204 280.48H93.9684C94.2804 280.048 94.5564 279.532 94.7964 278.932C95.0364 278.332 95.2404 277.612 95.4084 276.772C95.5764 275.932 95.7084 274.936 95.8044 273.784C95.9004 272.632 95.9484 271.276 95.9484 269.716V264.424H108.512V283H105.632V266.944H98.6844V269.788C98.6844 271.588 98.6124 273.16 98.4684 274.504C98.3484 275.848 98.1684 277 97.9284 277.96C97.7124 278.92 97.4484 279.712 97.1364 280.336C96.8244 280.936 96.4884 281.416 96.1284 281.776C95.6724 282.232 95.1684 282.556 94.6164 282.748C94.0644 282.916 93.4044 283 92.6364 283H91.5204V280.48ZM114.648 264.424H117.528V271.156H122.82C124.692 271.156 126.18 271.684 127.284 272.74C128.388 273.796 128.94 275.248 128.94 277.096C128.94 278.968 128.4 280.42 127.32 281.452C126.24 282.484 124.752 283 122.856 283H114.648V264.424ZM122.424 280.48C123.504 280.48 124.344 280.276 124.944 279.868C125.544 279.46 125.844 278.776 125.844 277.816V276.304C125.844 275.344 125.544 274.672 124.944 274.288C124.344 273.88 123.504 273.676 122.424 273.676H117.528V280.48H122.424ZM138.607 283.432C136.711 283.432 135.199 283.108 134.071 282.46C132.943 281.812 132.019 280.888 131.299 279.688L133.459 277.96C133.939 278.872 134.599 279.592 135.439 280.12C136.303 280.624 137.359 280.876 138.607 280.876C140.119 280.876 141.235 280.6 141.955 280.048C142.699 279.496 143.071 278.788 143.071 277.924V277.492C143.071 276.556 142.747 275.848 142.099 275.368C141.475 274.864 140.587 274.612 139.435 274.612H135.475V272.2H139.075C140.227 272.2 141.115 271.972 141.739 271.516C142.363 271.06 142.675 270.412 142.675 269.572V269.14C142.675 268.348 142.351 267.724 141.703 267.268C141.079 266.788 140.023 266.548 138.535 266.548C137.311 266.548 136.303 266.8 135.511 267.304C134.719 267.784 134.083 268.444 133.603 269.284L131.695 267.664C132.271 266.584 133.111 265.708 134.215 265.036C135.343 264.34 136.831 263.992 138.679 263.992C141.103 263.992 142.891 264.436 144.043 265.324C145.195 266.212 145.771 267.436 145.771 268.996C145.771 270.148 145.459 271.06 144.835 271.732C144.235 272.404 143.359 272.872 142.207 273.136V273.28C143.527 273.472 144.511 273.952 145.159 274.72C145.831 275.464 146.167 276.424 146.167 277.6C146.167 279.4 145.483 280.828 144.115 281.884C142.771 282.916 140.935 283.432 138.607 283.432ZM158.406 283.432C157.158 283.432 156.018 283.204 154.986 282.748C153.954 282.292 153.066 281.644 152.322 280.804C151.602 279.94 151.038 278.92 150.63 277.744C150.222 276.544 150.018 275.2 150.018 273.712C150.018 272.248 150.222 270.916 150.63 269.716C151.038 268.516 151.602 267.496 152.322 266.656C153.066 265.792 153.954 265.132 154.986 264.676C156.018 264.22 157.158 263.992 158.406 263.992C159.654 263.992 160.782 264.22 161.79 264.676C162.822 265.132 163.71 265.792 164.454 266.656C165.198 267.496 165.774 268.516 166.182 269.716C166.59 270.916 166.794 272.248 166.794 273.712C166.794 275.2 166.59 276.544 166.182 277.744C165.774 278.92 165.198 279.94 164.454 280.804C163.71 281.644 162.822 282.292 161.79 282.748C160.782 283.204 159.654 283.432 158.406 283.432ZM158.406 280.876C159.966 280.876 161.238 280.396 162.222 279.436C163.206 278.476 163.698 277.012 163.698 275.044V272.38C163.698 270.412 163.206 268.948 162.222 267.988C161.238 267.028 159.966 266.548 158.406 266.548C156.846 266.548 155.574 267.028 154.59 267.988C153.606 268.948 153.114 270.412 153.114 272.38V275.044C153.114 277.012 153.606 278.476 154.59 279.436C155.574 280.396 156.846 280.876 158.406 280.876ZM171.531 264.424H180.891C182.403 264.424 183.591 264.856 184.455 265.72C185.319 266.56 185.751 267.7 185.751 269.14C185.751 271.468 184.539 272.776 182.115 273.064V273.208C183.555 273.328 184.623 273.784 185.319 274.576C186.039 275.344 186.399 276.304 186.399 277.456C186.399 278.2 186.279 278.908 186.039 279.58C185.823 280.252 185.499 280.84 185.067 281.344C184.635 281.848 184.107 282.256 183.483 282.568C182.859 282.856 182.151 283 181.359 283H171.531V264.424ZM180.495 280.624C181.359 280.624 182.043 280.396 182.547 279.94C183.051 279.484 183.303 278.836 183.303 277.996V277.168C183.303 276.328 183.051 275.68 182.547 275.224C182.043 274.768 181.359 274.54 180.495 274.54H174.411V280.624H180.495ZM180.135 272.2C180.927 272.2 181.539 272.008 181.971 271.624C182.427 271.216 182.655 270.64 182.655 269.896V269.104C182.655 268.36 182.427 267.796 181.971 267.412C181.539 267.004 180.927 266.8 180.135 266.8H174.411V272.2H180.135ZM204.929 283C203.849 283 203.069 282.712 202.589 282.136C202.133 281.56 201.845 280.84 201.725 279.976H201.545C201.137 281.128 200.465 281.992 199.529 282.568C198.593 283.144 197.477 283.432 196.181 283.432C194.213 283.432 192.677 282.928 191.573 281.92C190.493 280.912 189.953 279.544 189.953 277.816C189.953 276.064 190.589 274.72 191.861 273.784C193.157 272.848 195.161 272.38 197.873 272.38H201.545V270.544C201.545 269.224 201.185 268.216 200.465 267.52C199.745 266.824 198.641 266.476 197.153 266.476C196.025 266.476 195.077 266.728 194.309 267.232C193.565 267.736 192.941 268.408 192.437 269.248L190.709 267.628C191.213 266.62 192.017 265.768 193.121 265.072C194.225 264.352 195.617 263.992 197.297 263.992C199.553 263.992 201.305 264.544 202.553 265.648C203.801 266.752 204.425 268.288 204.425 270.256V280.48H206.549V283H204.929ZM196.649 280.984C197.369 280.984 198.029 280.9 198.629 280.732C199.229 280.564 199.745 280.324 200.177 280.012C200.609 279.7 200.945 279.34 201.185 278.932C201.425 278.524 201.545 278.08 201.545 277.6V274.54H197.729C196.073 274.54 194.861 274.78 194.093 275.26C193.349 275.74 192.977 276.436 192.977 277.348V278.104C192.977 279.016 193.301 279.724 193.949 280.228C194.621 280.732 195.521 280.984 196.649 280.984ZM213.988 266.944H207.652V264.424H223.204V266.944H216.868V283H213.988V266.944ZM233.499 283.432C232.227 283.432 231.075 283.204 230.043 282.748C229.035 282.292 228.159 281.644 227.415 280.804C226.695 279.94 226.131 278.92 225.723 277.744C225.339 276.544 225.147 275.2 225.147 273.712C225.147 272.248 225.339 270.916 225.723 269.716C226.131 268.516 226.695 267.496 227.415 266.656C228.159 265.792 229.035 265.132 230.043 264.676C231.075 264.22 232.227 263.992 233.499 263.992C234.747 263.992 235.863 264.22 236.847 264.676C237.831 265.132 238.671 265.768 239.367 266.584C240.063 267.376 240.591 268.324 240.951 269.428C241.335 270.532 241.527 271.744 241.527 273.064V274.432H228.171V275.296C228.171 276.088 228.291 276.832 228.531 277.528C228.795 278.2 229.155 278.788 229.611 279.292C230.091 279.796 230.667 280.192 231.339 280.48C232.035 280.768 232.815 280.912 233.679 280.912C234.855 280.912 235.875 280.636 236.739 280.084C237.627 279.532 238.311 278.74 238.791 277.708L240.843 279.184C240.243 280.456 239.307 281.488 238.035 282.28C236.763 283.048 235.251 283.432 233.499 283.432ZM233.499 266.404C232.707 266.404 231.987 266.548 231.339 266.836C230.691 267.1 230.127 267.484 229.647 267.988C229.191 268.492 228.831 269.092 228.567 269.788C228.303 270.46 228.171 271.204 228.171 272.02V272.272H238.431V271.876C238.431 270.22 237.975 268.9 237.063 267.916C236.175 266.908 234.987 266.404 233.499 266.404ZM243.501 280.48H245.949C246.261 280.048 246.537 279.532 246.777 278.932C247.017 278.332 247.221 277.612 247.389 276.772C247.557 275.932 247.689 274.936 247.785 273.784C247.881 272.632 247.929 271.276 247.929 269.716V264.424H260.493V283H257.613V266.944H250.665V269.788C250.665 271.588 250.593 273.16 250.449 274.504C250.329 275.848 250.149 277 249.909 277.96C249.693 278.92 249.429 279.712 249.117 280.336C248.805 280.936 248.469 281.416 248.109 281.776C247.653 282.232 247.149 282.556 246.597 282.748C246.045 282.916 245.385 283 244.617 283H243.501V280.48ZM266.628 264.424H269.436V274.72L269.148 279.184H269.292L271.596 275.224L279.012 264.424H281.676V283H278.868V272.704L279.156 268.24H279.012L276.708 272.2L269.292 283H266.628V264.424Z" fill="black"/>
<rect x="1.5" y="159.5" width="325" height="227" rx="10.5" stroke="#C1BED2" stroke-width="3" stroke-dasharray="12 12"/>
<g clip-path="url(#clip0_19_538)">
<path d="M911 94C924.807 94 936 82.8071 936 69C936 55.1929 924.807 44 911 44C897.193 44 886 55.1929 886 69C886 82.8071 897.193 94 911 94Z" fill="black"/>
<mask id="mask0_19_538" style="mask-type:alpha" maskUnits="userSpaceOnUse" x="886" y="44" width="50" height="50">
<path d="M911 94C924.807 94 936 82.8071 936 69C936 55.1929 924.807 44 911 44C897.193 44 886 55.1929 886 69C886 82.8071 897.193 94 911 94Z" fill="black"/>
</mask>
<g mask="url(#mask0_19_538)">
<path d="M936 51.5L910.213 65.3L923.65 51.5H916.2L907.05 64.2V51.5H901V86.5H907.05V73.825L916.2 86.5H923.65L910.562 73.125L936 86.5V80L912.8 70.6875L936 72.25V65.75L912.937 67.25L936 58V51.5Z" fill="url(#paint0_radial_19_538)"/>
</g>
</g>
<path d="M951.448 55.872H954.472V66.996H959.368L964.408 58.392C964.96 57.48 965.5 56.832 966.028 56.448C966.556 56.064 967.204 55.872 967.972 55.872H969.628V58.536H967.36L962.896 66.168C962.464 66.888 962.104 67.368 961.816 67.608C961.552 67.848 961.204 68.04 960.772 68.184V68.364C961.324 68.484 961.804 68.688 962.212 68.976C962.62 69.264 963.064 69.828 963.544 70.668L968.224 78.336H970.42V81H968.188C967.612 81 967.06 80.844 966.532 80.532C966.004 80.196 965.464 79.572 964.912 78.66L959.368 69.588H954.472V81H951.448V55.872ZM974.644 62.424H977.452V72.72L977.164 77.184H977.308L979.612 73.224L987.028 62.424H989.692V81H986.884V70.704L987.172 66.24H987.028L984.724 70.2L977.308 81H974.644V62.424ZM995.808 62.424H998.688V70.164H1007.98V62.424H1010.86V81H1007.98V72.684H998.688V81H995.808V62.424ZM1023.99 81.432C1022.74 81.432 1021.6 81.204 1020.57 80.748C1019.54 80.292 1018.65 79.644 1017.91 78.804C1017.19 77.94 1016.62 76.92 1016.22 75.744C1015.81 74.544 1015.6 73.2 1015.6 71.712C1015.6 70.248 1015.81 68.916 1016.22 67.716C1016.62 66.516 1017.19 65.496 1017.91 64.656C1018.65 63.792 1019.54 63.132 1020.57 62.676C1021.6 62.22 1022.74 61.992 1023.99 61.992C1025.24 61.992 1026.37 62.22 1027.38 62.676C1028.41 63.132 1029.3 63.792 1030.04 64.656C1030.78 65.496 1031.36 66.516 1031.77 67.716C1032.18 68.916 1032.38 70.248 1032.38 71.712C1032.38 73.2 1032.18 74.544 1031.77 75.744C1031.36 76.92 1030.78 77.94 1030.04 78.804C1029.3 79.644 1028.41 80.292 1027.38 80.748C1026.37 81.204 1025.24 81.432 1023.99 81.432ZM1023.99 78.876C1025.55 78.876 1026.82 78.396 1027.81 77.436C1028.79 76.476 1029.28 75.012 1029.28 73.044V70.38C1029.28 68.412 1028.79 66.948 1027.81 65.988C1026.82 65.028 1025.55 64.548 1023.99 64.548C1022.43 64.548 1021.16 65.028 1020.18 65.988C1019.19 66.948 1018.7 68.412 1018.7 70.38V73.044C1018.7 75.012 1019.19 76.476 1020.18 77.436C1021.16 78.396 1022.43 78.876 1023.99 78.876ZM1037.12 62.424H1051.62V81H1048.74V64.944H1040V81H1037.12V62.424ZM1064.77 81.432C1063.53 81.432 1062.39 81.204 1061.35 80.748C1060.32 80.292 1059.43 79.644 1058.69 78.804C1057.97 77.94 1057.41 76.92 1057 75.744C1056.59 74.544 1056.39 73.2 1056.39 71.712C1056.39 70.248 1056.59 68.916 1057 67.716C1057.41 66.516 1057.97 65.496 1058.69 64.656C1059.43 63.792 1060.32 63.132 1061.35 62.676C1062.39 62.22 1063.53 61.992 1064.77 61.992C1066.02 61.992 1067.15 62.22 1068.16 62.676C1069.19 63.132 1070.08 63.792 1070.82 64.656C1071.57 65.496 1072.14 66.516 1072.55 67.716C1072.96 68.916 1073.16 70.248 1073.16 71.712C1073.16 73.2 1072.96 74.544 1072.55 75.744C1072.14 76.92 1071.57 77.94 1070.82 78.804C1070.08 79.644 1069.19 80.292 1068.16 80.748C1067.15 81.204 1066.02 81.432 1064.77 81.432ZM1064.77 78.876C1066.33 78.876 1067.61 78.396 1068.59 77.436C1069.57 76.476 1070.07 75.012 1070.07 73.044V70.38C1070.07 68.412 1069.57 66.948 1068.59 65.988C1067.61 65.028 1066.33 64.548 1064.77 64.548C1063.21 64.548 1061.94 65.028 1060.96 65.988C1059.97 66.948 1059.48 68.412 1059.48 70.38V73.044C1059.48 75.012 1059.97 76.476 1060.96 77.436C1061.94 78.396 1063.21 78.876 1064.77 78.876ZM1077.9 62.424H1080.71V72.72L1080.42 77.184H1080.56L1082.87 73.224L1090.28 62.424H1092.95V81H1090.14V70.704L1090.43 66.24H1090.28L1087.98 70.2L1080.56 81H1077.9V62.424ZM1105.97 81.432C1104.68 81.432 1103.51 81.204 1102.48 80.748C1101.45 80.292 1100.57 79.644 1099.85 78.804C1099.16 77.964 1098.62 76.944 1098.23 75.744C1097.87 74.544 1097.69 73.2 1097.69 71.712C1097.69 70.224 1097.87 68.88 1098.23 67.68C1098.62 66.48 1099.16 65.46 1099.85 64.62C1100.57 63.78 1101.45 63.132 1102.48 62.676C1103.51 62.22 1104.68 61.992 1105.97 61.992C1107.82 61.992 1109.3 62.4 1110.4 63.216C1111.53 64.008 1112.37 65.052 1112.92 66.348L1110.51 67.572C1110.17 66.612 1109.62 65.868 1108.85 65.34C1108.09 64.812 1107.13 64.548 1105.97 64.548C1105.11 64.548 1104.35 64.692 1103.71 64.98C1103.06 65.244 1102.52 65.628 1102.09 66.132C1101.65 66.612 1101.33 67.2 1101.11 67.896C1100.9 68.568 1100.79 69.312 1100.79 70.128V73.296C1100.79 74.928 1101.22 76.272 1102.09 77.328C1102.97 78.36 1104.27 78.876 1105.97 78.876C1108.3 78.876 1109.98 77.796 1111.01 75.636L1113.1 77.04C1112.5 78.384 1111.6 79.452 1110.4 80.244C1109.23 81.036 1107.75 81.432 1105.97 81.432ZM1117.17 62.424H1120.05V70.2H1123.76L1127.36 64.512C1127.62 64.08 1127.87 63.732 1128.11 63.468C1128.35 63.18 1128.59 62.964 1128.83 62.82C1129.07 62.676 1129.32 62.58 1129.59 62.532C1129.85 62.46 1130.15 62.424 1130.49 62.424H1132.18V64.944H1129.95L1127.03 69.552C1126.84 69.864 1126.67 70.116 1126.53 70.308C1126.38 70.5 1126.24 70.668 1126.1 70.812C1125.95 70.932 1125.8 71.04 1125.63 71.136C1125.46 71.208 1125.26 71.28 1125.02 71.352V71.496C1125.52 71.568 1125.95 71.736 1126.31 72C1126.7 72.24 1127.09 72.72 1127.5 73.44L1130.34 78.48H1132.47V81H1130.38C1129.76 81 1129.18 80.844 1128.65 80.532C1128.15 80.196 1127.66 79.596 1127.18 78.732L1123.76 72.648H1120.05V81H1117.17V62.424Z" fill="black"/>
<g clip-path="url(#clip1_19_538)">
<path d="M928.356 296.089C941.36 296.089 951.901 285.548 951.901 272.545C951.901 259.541 941.36 249 928.356 249C915.353 249 904.812 259.541 904.812 272.545C904.812 285.548 915.353 296.089 928.356 296.089Z" fill="black"/>
<path d="M946.248 267.856L946.096 267.143L940.094 266.091L943.588 261.358L943.186 260.894L938.05 263.369L938.699 256.809L938.173 256.501L935.049 261.822L931.551 253.902H930.935L931.769 261.543L922.951 254.457L922.208 254.674L928.985 263.246L915.557 258.759L914.937 259.44L926.941 266.309L910.388 267.701L910.203 268.723L927.405 270.608L913.049 282.553L913.668 283.387L930.747 274.043L927.376 290.505H928.398L934.955 275.004L938.949 287.131L939.659 286.573L938.021 274.261L944.237 281.347L944.639 280.694L939.876 271.909L946.527 274.384L946.589 273.641L940.619 269.216L946.248 267.856Z" fill="#FED42B"/>
</g>
<path d="M962.74 283.336H964.9L967.996 277.324C968.188 276.94 968.368 276.616 968.536 276.352C968.704 276.088 968.872 275.86 969.04 275.668C969.232 275.476 969.436 275.32 969.652 275.2C969.892 275.08 970.156 274.984 970.444 274.912V274.732C969.316 274.708 968.332 274.528 967.492 274.192C966.676 273.832 966.004 273.364 965.476 272.788C964.948 272.188 964.552 271.48 964.288 270.664C964.048 269.848 963.928 268.96 963.928 268C963.928 265.672 964.54 263.908 965.764 262.708C966.988 261.484 968.716 260.872 970.948 260.872H980.956V286H977.932V275.2H972.424L968.176 283.48C967.672 284.464 967.18 285.136 966.7 285.496C966.244 285.832 965.668 286 964.972 286H962.74V283.336ZM977.932 272.608V263.536H970.948C969.724 263.536 968.788 263.848 968.14 264.472C967.492 265.096 967.168 265.984 967.168 267.136V269.008C967.168 270.16 967.492 271.048 968.14 271.672C968.788 272.296 969.724 272.608 970.948 272.608H977.932ZM1015.73 264.832H1015.55L1013.43 269.044L1007.41 279.988L1001.4 269.044L999.279 264.832H999.099V286H996.147V260.872H1000.18L1007.38 274.408H1007.56L1014.79 260.872H1018.68V286H1015.73V264.832ZM1036.52 267.424H1039.37L1031.05 290.32C1030.83 290.872 1030.62 291.328 1030.4 291.688C1030.19 292.072 1029.92 292.372 1029.61 292.588C1029.3 292.804 1028.9 292.96 1028.42 293.056C1027.97 293.152 1027.4 293.2 1026.73 293.2H1025.25V290.68H1028.17L1029.57 286.72L1022.63 267.424H1025.51L1029.97 280.06L1030.83 283.084H1031.01L1032.02 280.06L1036.52 267.424ZM1048.29 286.432C1046.4 286.432 1044.89 286.108 1043.76 285.46C1042.63 284.812 1041.71 283.888 1040.99 282.688L1043.15 280.96C1043.63 281.872 1044.29 282.592 1045.13 283.12C1045.99 283.624 1047.05 283.876 1048.29 283.876C1049.81 283.876 1050.92 283.6 1051.64 283.048C1052.39 282.496 1052.76 281.788 1052.76 280.924V280.492C1052.76 279.556 1052.43 278.848 1051.79 278.368C1051.16 277.864 1050.27 277.612 1049.12 277.612H1045.16V275.2H1048.76C1049.91 275.2 1050.8 274.972 1051.43 274.516C1052.05 274.06 1052.36 273.412 1052.36 272.572V272.14C1052.36 271.348 1052.04 270.724 1051.39 270.268C1050.77 269.788 1049.71 269.548 1048.22 269.548C1047 269.548 1045.99 269.8 1045.2 270.304C1044.41 270.784 1043.77 271.444 1043.29 272.284L1041.38 270.664C1041.96 269.584 1042.8 268.708 1043.9 268.036C1045.03 267.34 1046.52 266.992 1048.37 266.992C1050.79 266.992 1052.58 267.436 1053.73 268.324C1054.88 269.212 1055.46 270.436 1055.46 271.996C1055.46 273.148 1055.15 274.06 1054.52 274.732C1053.92 275.404 1053.05 275.872 1051.89 276.136V276.28C1053.21 276.472 1054.2 276.952 1054.85 277.72C1055.52 278.464 1055.85 279.424 1055.85 280.6C1055.85 282.4 1055.17 283.828 1053.8 284.884C1052.46 285.916 1050.62 286.432 1048.29 286.432ZM1061.07 267.424H1063.95V274.156H1068.89C1070.76 274.156 1072.25 274.684 1073.35 275.74C1074.45 276.796 1075.01 278.248 1075.01 280.096C1075.01 281.968 1074.47 283.42 1073.39 284.452C1072.31 285.484 1070.82 286 1068.92 286H1061.07V267.424ZM1068.49 283.48C1069.57 283.48 1070.41 283.276 1071.01 282.868C1071.61 282.46 1071.91 281.776 1071.91 280.816V279.304C1071.91 278.344 1071.61 277.672 1071.01 277.288C1070.41 276.88 1069.57 276.676 1068.49 276.676H1063.95V283.48H1068.49ZM1078.14 267.424H1081.02V286H1078.14V267.424ZM1087.12 267.424H1090V275.2H1093.71L1097.31 269.512C1097.58 269.08 1097.83 268.732 1098.07 268.468C1098.31 268.18 1098.55 267.964 1098.79 267.82C1099.03 267.676 1099.28 267.58 1099.54 267.532C1099.81 267.46 1100.11 267.424 1100.44 267.424H1102.14V269.944H1099.9L1096.99 274.552C1096.8 274.864 1096.63 275.116 1096.48 275.308C1096.34 275.5 1096.2 275.668 1096.05 275.812C1095.91 275.932 1095.75 276.04 1095.58 276.136C1095.42 276.208 1095.21 276.28 1094.97 276.352V276.496C1095.48 276.568 1095.91 276.736 1096.27 277C1096.65 277.24 1097.05 277.72 1097.46 278.44L1100.3 283.48H1102.42V286H1100.34C1099.71 286 1099.14 285.844 1098.61 285.532C1098.1 285.196 1097.61 284.596 1097.13 283.732L1093.71 277.648H1090V286H1087.12V267.424ZM1120.07 286C1118.99 286 1118.21 285.712 1117.73 285.136C1117.27 284.56 1116.98 283.84 1116.86 282.976H1116.68C1116.27 284.128 1115.6 284.992 1114.67 285.568C1113.73 286.144 1112.61 286.432 1111.32 286.432C1109.35 286.432 1107.81 285.928 1106.71 284.92C1105.63 283.912 1105.09 282.544 1105.09 280.816C1105.09 279.064 1105.73 277.72 1107 276.784C1108.29 275.848 1110.3 275.38 1113.01 275.38H1116.68V273.544C1116.68 272.224 1116.32 271.216 1115.6 270.52C1114.88 269.824 1113.78 269.476 1112.29 269.476C1111.16 269.476 1110.21 269.728 1109.45 270.232C1108.7 270.736 1108.08 271.408 1107.57 272.248L1105.85 270.628C1106.35 269.62 1107.15 268.768 1108.26 268.072C1109.36 267.352 1110.75 266.992 1112.43 266.992C1114.69 266.992 1116.44 267.544 1117.69 268.648C1118.94 269.752 1119.56 271.288 1119.56 273.256V283.48H1121.69V286H1120.07ZM1111.79 283.984C1112.51 283.984 1113.17 283.9 1113.77 283.732C1114.37 283.564 1114.88 283.324 1115.31 283.012C1115.75 282.7 1116.08 282.34 1116.32 281.932C1116.56 281.524 1116.68 281.08 1116.68 280.6V277.54H1112.87C1111.21 277.54 1110 277.78 1109.23 278.26C1108.49 278.74 1108.11 279.436 1108.11 280.348V281.104C1108.11 282.016 1108.44 282.724 1109.09 283.228C1109.76 283.732 1110.66 283.984 1111.79 283.984Z" fill="black"/>
<g clip-path="url(#clip2_19_538)">
<path fill-rule="evenodd" clip-rule="evenodd" d="M928.035 446H928.986C932.325 446.079 935.65 446.857 938.656 448.32C942.287 450.062 945.448 452.764 947.754 456.065C949.777 458.952 951.143 462.298 951.698 465.78C952.242 469.129 952.051 472.596 951.137 475.864C950.32 478.781 948.929 481.538 947.061 483.924C945.02 486.556 942.406 488.741 939.46 490.295C936.243 491.999 932.624 492.919 928.987 493H928.037C925.868 492.948 923.703 492.615 921.627 491.977C918.323 490.976 915.254 489.221 912.696 486.903C909.949 484.404 907.784 481.253 906.491 477.768C904.963 473.73 904.606 469.263 905.437 465.029C906.124 461.477 907.655 458.094 909.861 455.227C911.959 452.485 914.668 450.212 917.735 448.624C920.904 446.966 924.463 446.08 928.035 446Z" fill="#FF5326"/>
<path fill-rule="evenodd" clip-rule="evenodd" d="M924.835 449.203C925.11 449.318 925.344 449.504 925.588 449.671C928.439 451.563 931.281 453.469 934.126 455.371C934.493 455.638 934.915 455.844 935.237 456.166C935.207 456.521 935.082 456.858 935.002 457.203C933.864 461.848 932.671 466.48 931.547 471.129C931.899 470.74 932.221 470.325 932.543 469.913C935.145 466.645 937.742 463.372 940.346 460.106C940.454 460.004 940.533 459.788 940.715 459.84C941.054 460.013 941.357 460.251 941.676 460.459C943.851 461.917 946.04 463.354 948.198 464.837C947.233 468.8 946.303 472.771 945.349 476.736C945.313 476.895 945.299 477.059 945.285 477.221C946.991 476.841 948.693 476.45 950.396 476.057C950.646 476.004 950.9 475.964 951.137 475.863C950.32 478.781 948.929 481.538 947.062 483.924C943.36 484.633 939.657 485.332 935.956 486.043C935.87 486.054 935.785 486.064 935.7 486.073C936.472 482.696 937.296 479.331 938.081 475.958C938.2 475.427 938.361 474.904 938.43 474.363C935.639 477.818 932.908 481.322 930.115 484.776C927.168 484.255 924.221 483.735 921.274 483.218C921.303 482.843 921.428 482.486 921.511 482.122C922.712 477.293 923.915 472.466 925.111 467.637C924.822 468.019 924.567 468.427 924.31 468.832C920.439 474.856 916.581 480.888 912.696 486.903C909.949 484.403 907.784 481.253 906.491 477.768C906.622 477.653 906.722 477.511 906.804 477.359C912.807 467.969 918.845 458.601 924.835 449.203Z" fill="#FFDD00"/>
</g>
<path d="M962.789 480.336H964.949L968.045 474.324C968.237 473.94 968.417 473.616 968.585 473.352C968.753 473.088 968.921 472.86 969.089 472.668C969.281 472.476 969.485 472.32 969.701 472.2C969.941 472.08 970.205 471.984 970.493 471.912V471.732C969.365 471.708 968.381 471.528 967.541 471.192C966.725 470.832 966.053 470.364 965.525 469.788C964.997 469.188 964.601 468.48 964.337 467.664C964.097 466.848 963.977 465.96 963.977 465C963.977 462.672 964.589 460.908 965.812 459.708C967.037 458.484 968.765 457.872 970.997 457.872H981.005V483H977.981V472.2H972.473L968.225 480.48C967.721 481.464 967.229 482.136 966.749 482.496C966.293 482.832 965.717 483 965.021 483H962.789V480.336ZM977.981 469.608V460.536H970.997C969.773 460.536 968.837 460.848 968.189 461.472C967.541 462.096 967.217 462.984 967.217 464.136V466.008C967.217 467.16 967.541 468.048 968.189 468.672C968.837 469.296 969.773 469.608 970.997 469.608H977.981ZM1015.78 461.832H1015.6L1013.48 466.044L1007.46 476.988L1001.45 466.044L999.328 461.832H999.148V483H996.196V457.872H1000.23L1007.43 471.408H1007.61L1014.84 457.872H1018.73V483H1015.78V461.832ZM1038.62 483C1037.54 483 1036.76 482.712 1036.28 482.136C1035.83 481.56 1035.54 480.84 1035.42 479.976H1035.24C1034.83 481.128 1034.16 481.992 1033.22 482.568C1032.29 483.144 1031.17 483.432 1029.87 483.432C1027.91 483.432 1026.37 482.928 1025.27 481.92C1024.19 480.912 1023.65 479.544 1023.65 477.816C1023.65 476.064 1024.28 474.72 1025.55 473.784C1026.85 472.848 1028.85 472.38 1031.57 472.38H1035.24V470.544C1035.24 469.224 1034.88 468.216 1034.16 467.52C1033.44 466.824 1032.33 466.476 1030.85 466.476C1029.72 466.476 1028.77 466.728 1028 467.232C1027.26 467.736 1026.63 468.408 1026.13 469.248L1024.4 467.628C1024.91 466.62 1025.71 465.768 1026.81 465.072C1027.92 464.352 1029.31 463.992 1030.99 463.992C1033.25 463.992 1035 464.544 1036.25 465.648C1037.49 466.752 1038.12 468.288 1038.12 470.256V480.48H1040.24V483H1038.62ZM1030.34 480.984C1031.06 480.984 1031.72 480.9 1032.32 480.732C1032.92 480.564 1033.44 480.324 1033.87 480.012C1034.3 479.7 1034.64 479.34 1034.88 478.932C1035.12 478.524 1035.24 478.08 1035.24 477.6V474.54H1031.42C1029.77 474.54 1028.55 474.78 1027.79 475.26C1027.04 475.74 1026.67 476.436 1026.67 477.348V478.104C1026.67 479.016 1026.99 479.724 1027.64 480.228C1028.31 480.732 1029.21 480.984 1030.34 480.984ZM1044.35 464.424H1047.23V467.448H1047.38C1047.86 466.272 1048.55 465.408 1049.46 464.856C1050.4 464.28 1051.52 463.992 1052.81 463.992C1053.96 463.992 1055.01 464.22 1055.94 464.676C1056.88 465.132 1057.67 465.78 1058.32 466.62C1058.99 467.46 1059.5 468.48 1059.83 469.68C1060.19 470.88 1060.37 472.224 1060.37 473.712C1060.37 475.2 1060.19 476.544 1059.83 477.744C1059.5 478.944 1058.99 479.964 1058.32 480.804C1057.67 481.644 1056.88 482.292 1055.94 482.748C1055.01 483.204 1053.96 483.432 1052.81 483.432C1050.29 483.432 1048.48 482.28 1047.38 479.976H1047.23V490.2H1044.35V464.424ZM1052.02 480.84C1053.65 480.84 1054.94 480.336 1055.87 479.328C1056.81 478.296 1057.28 476.952 1057.28 475.296V472.128C1057.28 470.472 1056.81 469.14 1055.87 468.132C1054.94 467.1 1053.65 466.584 1052.02 466.584C1051.37 466.584 1050.75 466.68 1050.15 466.872C1049.57 467.04 1049.07 467.28 1048.64 467.592C1048.2 467.904 1047.86 468.288 1047.59 468.744C1047.35 469.176 1047.23 469.644 1047.23 470.148V477.06C1047.23 477.66 1047.35 478.2 1047.59 478.68C1047.86 479.136 1048.2 479.532 1048.64 479.868C1049.07 480.18 1049.57 480.42 1050.15 480.588C1050.75 480.756 1051.37 480.84 1052.02 480.84ZM1065.24 464.424H1068.12V472.2H1071.82L1075.42 466.512C1075.69 466.08 1075.94 465.732 1076.18 465.468C1076.42 465.18 1076.66 464.964 1076.9 464.82C1077.14 464.676 1077.39 464.58 1077.66 464.532C1077.92 464.46 1078.22 464.424 1078.56 464.424H1080.25V466.944H1078.02L1075.1 471.552C1074.91 471.864 1074.74 472.116 1074.6 472.308C1074.45 472.5 1074.31 472.668 1074.16 472.812C1074.02 472.932 1073.86 473.04 1073.7 473.136C1073.53 473.208 1073.32 473.28 1073.08 473.352V473.496C1073.59 473.568 1074.02 473.736 1074.38 474C1074.76 474.24 1075.16 474.72 1075.57 475.44L1078.41 480.48H1080.54V483H1078.45C1077.82 483 1077.25 482.844 1076.72 482.532C1076.22 482.196 1075.72 481.596 1075.24 480.732L1071.82 474.648H1068.12V483H1065.24V464.424ZM1091.45 483.432C1090.18 483.432 1089.03 483.204 1087.99 482.748C1086.99 482.292 1086.11 481.644 1085.37 480.804C1084.65 479.94 1084.08 478.92 1083.67 477.744C1083.29 476.544 1083.1 475.2 1083.1 473.712C1083.1 472.248 1083.29 470.916 1083.67 469.716C1084.08 468.516 1084.65 467.496 1085.37 466.656C1086.11 465.792 1086.99 465.132 1087.99 464.676C1089.03 464.22 1090.18 463.992 1091.45 463.992C1092.7 463.992 1093.81 464.22 1094.8 464.676C1095.78 465.132 1096.62 465.768 1097.32 466.584C1098.01 467.376 1098.54 468.324 1098.9 469.428C1099.29 470.532 1099.48 471.744 1099.48 473.064V474.432H1086.12V475.296C1086.12 476.088 1086.24 476.832 1086.48 477.528C1086.75 478.2 1087.11 478.788 1087.56 479.292C1088.04 479.796 1088.62 480.192 1089.29 480.48C1089.99 480.768 1090.77 480.912 1091.63 480.912C1092.81 480.912 1093.83 480.636 1094.69 480.084C1095.58 479.532 1096.26 478.74 1096.74 477.708L1098.79 479.184C1098.19 480.456 1097.26 481.488 1095.99 482.28C1094.71 483.048 1093.2 483.432 1091.45 483.432ZM1091.45 466.404C1090.66 466.404 1089.94 466.548 1089.29 466.836C1088.64 467.1 1088.08 467.484 1087.6 467.988C1087.14 468.492 1086.78 469.092 1086.52 469.788C1086.25 470.46 1086.12 471.204 1086.12 472.02V472.272H1096.38V471.876C1096.38 470.22 1095.93 468.9 1095.01 467.916C1094.13 466.908 1092.94 466.404 1091.45 466.404ZM1107.76 466.944H1101.43V464.424H1116.98V466.944H1110.64V483H1107.76V466.944Z" fill="black"/>
<path d="M415.061 274.061C415.646 273.475 415.646 272.525 415.061 271.939L405.515 262.393C404.929 261.808 403.979 261.808 403.393 262.393C402.808 262.979 402.808 263.929 403.393 264.515L411.879 273L403.393 281.485C402.808 282.071 402.808 283.021 403.393 283.607C403.979 284.192 404.929 284.192 405.515 283.607L415.061 274.061ZM328 274.5H333.375V271.5H328V274.5ZM344.125 274.5H354.875V271.5H344.125V274.5ZM365.625 274.5H376.375V271.5H365.625V274.5ZM387.125 274.5H397.875V271.5H387.125V274.5ZM408.625 274.5H414V271.5H408.625V274.5Z" fill="#A7A6AF"/>
<g clip-path="url(#clip3_19_538)">
<path d="M488.248 258.398H485.201C479.667 258.398 476.752 261.185 476.752 265.308C476.752 269.987 478.768 272.153 482.921 274.94L486.331 277.222L476.473 291.849H469.136L477.974 278.763C472.871 275.146 470.017 271.646 470.017 265.679C470.017 258.214 475.229 253.168 485.13 253.168H494.985V291.852H488.225V258.398H488.248ZM522.853 263.858V291.852H516.196V280.17H507.288V291.852H500.632V263.858H507.288V274.94H516.196V263.858H522.853ZM552.934 298.235H546.765V291.829H531.805V298.235H525.636V286.611H527.722C530.065 281.933 530.53 273.086 530.53 266.244V263.848H549.964V286.611H552.934V298.235ZM543.308 269.089H536.257V269.919C536.257 274.756 535.75 282.382 533.891 286.621H543.308V269.089ZM567.892 292.381C559.383 292.381 554.557 287.658 554.557 277.913C554.557 269.457 558.431 263.286 566.549 263.286C573.206 263.286 577.519 266.97 577.519 276.695V280.195H561.447C561.723 284.874 563.579 287.153 568.451 287.153C571.698 287.153 575.176 285.933 577.24 284.528V289.94C575.293 291.277 572.16 292.381 567.892 292.381ZM561.447 275.308H570.746V274.758C570.746 271.258 569.73 268.539 566.43 268.539C563.254 268.511 561.632 270.862 561.447 275.308ZM588.674 278.097V291.852H581.995V263.858H588.674V276.761L598.103 263.858H604.831L595.415 276.761L606.105 291.829H598.532L588.674 278.097ZM605.722 277.868C605.722 269.341 610.152 263.283 618.669 263.283C621.97 263.283 624.445 263.836 625.836 264.618V270.241C624.491 269.412 621.962 268.511 619.388 268.511C615.026 268.511 612.615 271.623 612.615 277.706C612.615 283.489 614.587 287.174 619.342 287.174C622.147 287.174 624.166 286.46 625.836 285.285V290.676C624.211 291.852 622.028 292.404 618.946 292.404C610.035 292.381 605.719 287.221 605.719 277.868H605.722Z" fill="black"/>
<path fill-rule="evenodd" clip-rule="evenodd" d="M663.691 298.999C684.634 298.999 689.864 293.805 689.864 272.999C689.864 252.193 684.634 246.999 663.691 246.999C642.746 246.999 637.517 252.193 637.517 272.999C637.517 293.805 642.746 298.999 663.691 298.999ZM654.755 257.399V288.599H649.295V257.399H654.755ZM667.032 257.399C669.103 257.399 671.024 257.661 672.794 258.222C674.565 258.746 676.071 259.643 677.351 260.841C678.632 262.038 679.649 263.646 680.365 265.592C681.117 267.537 681.457 269.969 681.457 272.849C681.457 275.393 681.08 277.638 680.365 279.621C679.611 281.566 678.594 283.212 677.276 284.559C675.957 285.905 674.376 286.915 672.569 287.589C670.761 288.262 668.728 288.636 666.58 288.636H659.69V257.399H667.032ZM666.128 284.372C667.597 284.372 668.953 284.11 670.159 283.623C671.363 283.137 672.38 282.389 673.246 281.454C674.113 280.481 674.753 279.284 675.242 277.825C675.694 276.366 675.957 274.682 675.957 272.737C675.957 270.642 675.732 268.884 675.28 267.462C674.828 266.041 674.188 264.881 673.359 264.02C672.53 263.16 671.551 262.524 670.384 262.15C669.255 261.776 667.974 261.589 666.58 261.589H665.149V284.334H666.128V284.372Z" fill="black"/>
</g>
<path d="M852.061 276.061C852.646 275.475 852.646 274.525 852.061 273.939L842.515 264.393C841.929 263.808 840.979 263.808 840.393 264.393C839.808 264.979 839.808 265.929 840.393 266.515L848.879 275L840.393 283.485C839.808 284.071 839.808 285.021 840.393 285.607C840.979 286.192 841.929 286.192 842.515 285.607L852.061 276.061ZM737 276.5H851V273.5H737V276.5Z" fill="#827E9B"/>
<path d="M853.061 70.0607C853.646 69.4749 853.646 68.5251 853.061 67.9393L843.515 58.3934C842.929 57.8076 841.979 57.8076 841.393 58.3934C840.808 58.9792 840.808 59.9289 841.393 60.5147L849.879 69L841.393 77.4853C840.808 78.0711 840.808 79.0208 841.393 79.6066C841.979 80.1924 842.929 80.1924 843.515 79.6066L853.061 70.0607ZM790.5 251V93H787.5V251H790.5ZM813 70.5H852V67.5H813V70.5ZM765 273.5H737V276.5H765V273.5ZM790.5 93C790.5 80.5736 800.574 70.5 813 70.5V67.5C798.917 67.5 787.5 78.9167 787.5 93H790.5ZM787.5 251C787.5 263.426 777.426 273.5 765 273.5V276.5C779.083 276.5 790.5 265.083 790.5 251H787.5Z" fill="#827E9B"/>
<path d="M852.061 479.939C852.646 480.525 852.646 481.475 852.061 482.061L842.515 491.607C841.929 492.192 840.979 492.192 840.393 491.607C839.808 491.021 839.808 490.071 840.393 489.485L848.879 481L840.393 472.515C839.808 471.929 839.808 470.979 840.393 470.393C840.979 469.808 841.929 469.808 842.515 470.393L852.061 479.939ZM789.5 299L789.5 457L786.5 457L786.5 299L789.5 299ZM812 479.5L851 479.5L851 482.5L812 482.5L812 479.5ZM764 276.5L736 276.5L736 273.5L764 273.5L764 276.5ZM789.5 457C789.5 469.426 799.574 479.5 812 479.5L812 482.5C797.917 482.5 786.5 471.083 786.5 457L789.5 457ZM786.5 299C786.5 286.574 776.426 276.5 764 276.5L764 273.5C778.083 273.5 789.5 284.917 789.5 299L786.5 299Z" fill="#827E9B"/>
<defs>
<radialGradient id="paint0_radial_19_538" cx="0" cy="0" r="1" gradientUnits="userSpaceOnUse" gradientTransform="translate(901.005 51.4994) rotate(45) scale(49.4975)">
<stop offset="0.5" stop-color="#FF5500"/>
<stop offset="1" stop-color="#BBFF00"/>
</radialGradient>
<clipPath id="clip0_19_538">
<rect width="50" height="50" fill="white" transform="translate(886 44)"/>
</clipPath>
<clipPath id="clip1_19_538">
<rect width="47" height="47" fill="white" transform="translate(905 249)"/>
</clipPath>
<clipPath id="clip2_19_538">
<rect width="47" height="47" fill="white" transform="translate(905 446)"/>
</clipPath>
<clipPath id="clip3_19_538">
<rect width="277" height="52" fill="white" transform="translate(441 247)"/>
</clipPath>
</defs>
</svg>
